<svg width="16" height="23" viewBox="0 0 16 23" fill="none" xmlns="http://www.w3.org/2000/svg">
<path fill-rule="evenodd" clip-rule="evenodd" d="M15.4528 12.5591C15.4523 12.5558 15.4509 12.5528 15.4495 12.5498C15.4482 12.5469 15.4468 12.5439 15.4463 12.5406C15.4389 12.5105 15.4295 12.4846 15.4175 12.4602C15.3812 12.3952 15.3383 12.3388 15.289 12.2895L15.276 12.2836C15.2342 12.2619 15.1844 12.2413 15.1328 12.2239L15.1252 12.2217L15.1122 12.2169L10.7737 11.5498C10.7547 11.5466 10.733 11.5449 10.7108 11.5449C10.4863 11.5449 10.304 11.7271 10.304 11.9517C10.304 12.155 10.4532 12.3237 10.6484 12.3535L10.6506 12.3541L12.5292 12.6431L8.00027 13.4273L3.47192 12.6431L5.35051 12.3541C5.549 12.3248 5.69922 12.1556 5.69922 11.9517C5.69922 11.7271 5.517 11.5449 5.29248 11.5449C5.26916 11.5449 5.24638 11.5471 5.22415 11.5509L5.22632 11.5503L0.872589 12.2234C0.844389 12.231 0.820527 12.2396 0.797207 12.251L0.799376 12.2499C0.770633 12.2597 0.745687 12.2716 0.721825 12.2857L0.723452 12.2846L0.710979 12.2906C0.697421 12.3031 0.68549 12.3166 0.674101 12.3307C0.651866 12.3503 0.631258 12.372 0.613904 12.3953L0.613361 12.3964C0.602515 12.4148 0.592211 12.4365 0.583534 12.4587L0.582449 12.4614C0.571061 12.4842 0.561299 12.5102 0.554249 12.5379L0.553706 12.5406C0.552952 12.5439 0.551615 12.5468 0.550289 12.5497C0.548756 12.553 0.547238 12.5564 0.546656 12.5601L0.00433854 16.2213C0.00162695 16.2387 0 16.2593 0 16.2799C0 16.4757 0.138291 16.6395 0.322679 16.6785L0.325391 16.679L1.10524 16.8385C1.09494 16.8678 1.08735 16.9019 1.08518 16.9372V21.0225C1.08518 21.2291 1.2392 21.4005 1.43931 21.426H1.44148L7.87933 22.2215C7.91513 22.2351 7.95634 22.2438 7.99919 22.2459H8.00027C8.00567 22.2459 8.01062 22.2444 8.0156 22.243C8.02012 22.2416 8.02465 22.2402 8.02956 22.24L8.05125 22.2427L14.5591 21.426C14.7608 21.3999 14.9148 21.2296 14.9148 21.023V16.9383C14.9121 16.9019 14.9051 16.8678 14.8937 16.8352L14.8948 16.8379L15.6746 16.6785C15.8617 16.6395 16 16.4762 16 16.2804C16 16.2593 15.9984 16.2392 15.9951 16.2192L15.9957 16.2213L15.4528 12.5591ZM1.29126 13.0905L7.41674 14.1508L6.1347 17.0353L0.866624 15.9583L1.29126 13.0905ZM6.29197 17.8982L1.8992 16.9996V20.6629L7.59353 21.3777V15.756L6.74535 17.665L6.74426 17.6677C6.67973 17.8087 6.53764 17.9063 6.37278 17.9063C6.34457 17.9063 6.31637 17.9036 6.29197 17.8982ZM14.1013 20.6635L8.40701 21.3891V15.7555L9.25519 17.6644C9.32027 17.8076 9.46236 17.9058 9.62722 17.9058C9.65651 17.9058 9.68417 17.9025 9.71183 17.8965L14.1019 16.9985L14.1013 20.6635ZM8.58381 14.1513L9.86639 17.0359L15.1339 15.9588L14.7093 13.0911L8.58381 14.1513Z" fill="black"/>
<path fill-rule="evenodd" clip-rule="evenodd" d="M9 3.75409L10.1141 6.0115L12.6053 6.3735L10.8027 8.13065L11.2282 10.6118L9 9.44035L6.7718 10.6118L7.19735 8.13065L5.39469 6.3735L7.8859 6.0115L9 3.75409ZM9 5.33578L8.35075 6.65131L6.89897 6.86227L7.94948 7.88627L7.70149 9.33218L9 8.64951L10.2985 9.33218L10.0505 7.88627L11.101 6.86227L9.64926 6.65131L9 5.33578Z" fill="black"/>
<path fill-rule="evenodd" clip-rule="evenodd" d="M4 0.754089L4.82021 2.41601L6.65425 2.68251L5.32712 3.97614L5.64042 5.80277L4 4.94035L2.35958 5.80277L2.67288 3.97614L1.34575 2.68251L3.17979 2.41601L4 0.754089ZM4 2.33578L3.64464 3.05582L2.85002 3.17128L3.42501 3.73176L3.28928 4.52316L4 4.14951L4.71072 4.52316L4.57499 3.73176L5.14998 3.17128L4.35536 3.05582L4 2.33578Z" fill="black"/>
<path fill-rule="evenodd" clip-rule="evenodd" d="M2.5 6.75409L3.17326 8.11827L4.67872 8.33702L3.58936 9.39889L3.84652 10.8983L2.5 10.1904L1.15348 10.8983L1.41064 9.39889L0.321279 8.33702L1.82674 8.11827L2.5 6.75409ZM2.5 8.33578L2.29158 8.75807L1.82555 8.82579L2.16278 9.1545L2.08317 9.61865L2.5 9.39951L2.91683 9.61865L2.83722 9.1545L3.17445 8.82579L2.70842 8.75807L2.5 8.33578Z" fill="black"/>
</svg>
