<svg width="20" height="20" viewBox="0 0 20 20" fill="none" xmlns="http://www.w3.org/2000/svg">
<g clip-path="url(#clip0_421_57911)">
<path fill-rule="evenodd" clip-rule="evenodd" d="M17.4561 2.50001H2.54386C2.51964 2.50001 2.5 2.51964 2.5 2.54386V17.4561C2.5 17.4804 2.51964 17.5 2.54386 17.5H17.4561C17.4804 17.5 17.5 17.4804 17.5 17.4561V2.54386C17.5 2.51964 17.4804 2.50001 17.4561 2.50001ZM2.54386 1.66667C2.0594 1.66667 1.66667 2.0594 1.66667 2.54386V17.4561C1.66667 17.9406 2.0594 18.3333 2.54386 18.3333H17.4561C17.9406 18.3333 18.3333 17.9406 18.3333 17.4561V2.54386C18.3333 2.0594 17.9406 1.66667 17.4561 1.66667H2.54386Z" fill="black"/>
<path fill-rule="evenodd" clip-rule="evenodd" d="M8.50877 5.13158H5.35088C5.22976 5.13158 5.13158 5.22977 5.13158 5.35088V8.50878C5.13158 8.62989 5.22976 8.72808 5.35088 8.72808H8.50877C8.62989 8.72808 8.72807 8.62989 8.72807 8.50878V5.35088C8.72807 5.22977 8.62989 5.13158 8.50877 5.13158ZM5.35088 4.29825C4.76953 4.29825 4.29825 4.76953 4.29825 5.35088V8.50878C4.29825 9.09013 4.76952 9.56141 5.35088 9.56141H8.50877C9.09012 9.56141 9.5614 9.09013 9.5614 8.50878V5.35088C9.5614 4.76953 9.09013 4.29825 8.50877 4.29825H5.35088Z" fill="black"/>
<path fill-rule="evenodd" clip-rule="evenodd" d="M10.9001 5.17557C10.9001 4.94545 11.0866 4.7589 11.3168 4.7589H15.7027C15.9329 4.7589 16.1194 4.94545 16.1194 5.17557C16.1194 5.40568 15.9329 5.59223 15.7027 5.59223H11.3168C11.0866 5.59223 10.9001 5.40568 10.9001 5.17557Z" fill="black"/>
<path fill-rule="evenodd" clip-rule="evenodd" d="M10.9001 6.92983C10.9001 6.69971 11.0866 6.51316 11.3168 6.51316H15.7027C15.9329 6.51316 16.1194 6.69971 16.1194 6.92983C16.1194 7.15995 15.9329 7.3465 15.7027 7.3465H11.3168C11.0866 7.3465 10.9001 7.15995 10.9001 6.92983Z" fill="black"/>
<path fill-rule="evenodd" clip-rule="evenodd" d="M10.9001 8.68409C10.9001 8.45397 11.0866 8.26743 11.3168 8.26743H15.7027C15.9329 8.26743 16.1194 8.45397 16.1194 8.68409C16.1194 8.91421 15.9329 9.10076 15.7027 9.10076H11.3168C11.0866 9.10076 10.9001 8.91421 10.9001 8.68409Z" fill="black"/>
<path fill-rule="evenodd" clip-rule="evenodd" d="M3.88158 13.0667C3.88158 12.8366 4.06813 12.65 4.29825 12.65H15.7018C15.9319 12.65 16.1184 12.8366 16.1184 13.0667C16.1184 13.2968 15.9319 13.4833 15.7018 13.4833H4.29825C4.06813 13.4833 3.88158 13.2968 3.88158 13.0667Z" fill="black"/>
<path fill-rule="evenodd" clip-rule="evenodd" d="M3.88158 14.8246C3.88158 14.5944 4.06813 14.4079 4.29825 14.4079H15.7018C15.9319 14.4079 16.1184 14.5944 16.1184 14.8246C16.1184 15.0547 15.9319 15.2412 15.7018 15.2412H4.29825C4.06813 15.2412 3.88158 15.0547 3.88158 14.8246Z" fill="black"/>
</g>
<defs>
<clipPath id="clip0_421_57911">
<rect width="20" height="20" fill="white"/>
</clipPath>
</defs>
</svg>
