<svg width="20" height="20" viewBox="0 0 20 20" fill="none" xmlns="http://www.w3.org/2000/svg">
<path fill-rule="evenodd" clip-rule="evenodd" d="M10.7668 16.7253L8.02505 15.3528C7.90514 15.2928 7.80424 15.2004 7.73371 15.0862C7.66317 14.9719 7.6258 14.8402 7.62579 14.7058V10.6103L3.57371 6.55226C3.33451 6.31279 3.20003 5.98786 3.19995 5.64901V4.10808C3.19995 3.86715 3.29552 3.63615 3.46555 3.46587C3.63557 3.29561 3.8661 3.2 4.10641 3.2H15.171C15.4113 3.2 15.6419 3.29561 15.8119 3.46587C15.9819 3.63615 16.0775 3.86715 16.0775 4.10808V5.64905C16.0774 5.9879 15.9429 6.31281 15.7037 6.55229L11.6516 10.6103V16.1773C11.6516 16.2818 11.625 16.3845 11.5742 16.4758C11.5234 16.567 11.4502 16.6437 11.3616 16.6986C11.2729 16.7534 11.1718 16.7847 11.0677 16.7894C10.9636 16.7941 10.86 16.772 10.7668 16.7253ZM15.0022 4.27744H4.27523V5.73181L8.43507 9.89774C8.51936 9.98204 8.58624 10.0822 8.63189 10.1924C8.67753 10.3026 8.70104 10.4208 8.70107 10.5402V14.4865L10.5764 15.4255V10.5401C10.5764 10.2989 10.6725 10.0674 10.8425 9.89837L15.0022 5.73105V4.27744Z" fill="black"/>
</svg>
