<svg width="24" height="24" viewBox="0 0 24 24" fill="none" xmlns="http://www.w3.org/2000/svg">
<path d="M12.9001 16.5H11.1001V11.1H12.9001V16.5Z" fill="black"/>
<path d="M12.6418 9.0408C12.469 9.2136 12.2551 9.3 12.0001 9.3C11.7457 9.3006 11.5321 9.2145 11.3593 9.0417C11.1865 8.8689 11.1001 8.655 11.1001 8.4C11.1007 8.1456 11.1871 7.932 11.3593 7.7592C11.5315 7.5864 11.7451 7.5 12.0001 7.5C12.2545 7.5006 12.4681 7.587 12.6409 7.7592C12.8137 7.9314 12.9001 8.145 12.9001 8.4C12.9007 8.6544 12.8146 8.868 12.6418 9.0408Z" fill="black"/>
<path fill-rule="evenodd" clip-rule="evenodd" d="M4.88889 12C4.88889 15.9274 8.07264 19.1111 12 19.1111C15.9274 19.1111 19.1111 15.9274 19.1111 12C19.1111 8.07264 15.9274 4.88889 12 4.88889C8.07264 4.88889 4.88889 8.07264 4.88889 12ZM12 4C7.58172 4 4 7.58172 4 12C4 16.4183 7.58172 20 12 20C16.4183 20 20 16.4183 20 12C20 7.58172 16.4183 4 12 4Z" fill="black"/>
</svg>
