<svg width="16" height="16" viewBox="0 0 16 16" fill="none" xmlns="http://www.w3.org/2000/svg">
<path d="M5.11579 13.5216C5.15199 13.5223 5.1879 13.5151 5.22105 13.5006C5.2679 13.4797 5.30773 13.4458 5.33575 13.4028C5.36376 13.3599 5.37876 13.3097 5.37895 13.2585L13.7158 10.0268C14.7 10.0268 15.5 9.36891 15.5 8.55837V3.94513C15.5 3.13722 14.7 2.47931 13.7158 2.47931H7.11842C6.13421 2.47931 5.33421 3.13722 5.33421 3.94513V4.48034H5.24046M5.11579 13.5216C5.04919 13.522 4.98504 13.4965 4.93684 13.4506L2.77632 11.4374H2.13947C1.23421 11.4374 0.5 10.8321 0.5 10.0873V5.92411C0.5 5.17936 1.23421 4.57409 2.13947 4.57409H5.24046V4.48034M5.11579 13.5216L5.11408 13.6154C5.11444 13.6154 5.1148 13.6154 5.11517 13.6154M5.11579 13.5216L5.11633 13.6154C5.11595 13.6154 5.11556 13.6154 5.11517 13.6154M5.24046 4.48034V3.94513C5.24046 3.06907 6.10048 2.38556 7.11842 2.38556H13.7158C14.7337 2.38556 15.5938 3.06907 15.5938 3.94513V8.55837C15.5938 9.43696 14.7338 10.1206 13.7158 10.1206H13.0369L5.11517 13.6154M5.24046 4.48034H2.13947C1.20026 4.48034 0.40625 5.1114 0.40625 5.92411V10.0873C0.40625 10.9001 1.20026 11.5311 2.13947 11.5311H2.73941L4.87214 13.5184C4.87226 13.5185 4.87239 13.5187 4.87252 13.5188C4.93797 13.581 5.02488 13.6156 5.11517 13.6154M10.4158 12.3321L10.4156 12.4259C10.416 12.4259 10.4164 12.4259 10.4169 12.4259C10.4173 12.4259 10.4178 12.4259 10.4182 12.4258L10.4158 12.3321ZM10.4158 12.3321C10.3804 12.333 10.3453 12.3258 10.3132 12.3111L10.5974 12.2637C10.5472 12.3079 10.4826 12.3323 10.4158 12.3321ZM2.87895 10.8173H2.87927C2.96935 10.8176 3.05598 10.852 3.12178 10.9135L2.87895 10.8173ZM2.87895 10.8173H2.13947C1.85094 10.8173 1.59265 10.7305 1.40868 10.5945C1.22468 10.4586 1.12007 10.2782 1.12007 10.0873V5.92411C1.12007 5.73465 1.22458 5.55426 1.40876 5.41786C1.5928 5.28155 1.8511 5.19416 2.13947 5.19416H5.24046V8.55837C5.24046 9.43696 6.10036 10.1206 7.11842 10.1206H9.11038M2.87895 10.8173L9.11038 10.1206M9.11038 10.1206C9.09855 10.2947 8.99414 10.4621 8.81895 10.5916C8.63313 10.7289 8.37465 10.8173 8.0921 10.8173H5.11579C5.02113 10.8173 4.93035 10.8549 4.86342 10.9218C4.79648 10.9888 4.75888 11.0796 4.75888 11.1742V12.4378L3.12197 10.9137L9.11038 10.1206ZM12.6531 9.4992L12.6531 9.49921C12.7195 9.43951 12.8056 9.40657 12.8949 9.40674M12.6531 9.4992L10.5169 9.51981C10.4848 9.50671 10.4504 9.50014 10.4158 9.50049V9.40674H10.4153H7.11842C6.79082 9.40674 6.49648 9.30634 6.28613 9.14881C6.07572 8.99122 5.95428 8.78119 5.95428 8.55837V3.94513C5.95428 3.72237 6.07565 3.51304 6.28599 3.35611C6.49631 3.19921 6.79068 3.09938 7.11842 3.09938H13.7158C14.0435 3.09938 14.3379 3.19921 14.5482 3.35611C14.7586 3.51304 14.8799 3.72237 14.8799 3.94513V8.55837C14.8799 8.78119 14.7585 8.99122 14.5481 9.14881C14.3377 9.30634 14.0434 9.40674 13.7158 9.40674H12.8949M12.6531 9.4992L12.6519 9.50032L10.7727 11.2509V9.7641V9.76366H10.6789L12.6531 9.4992ZM12.8949 9.40674L12.8947 9.50049V9.40674H12.8949Z" fill="black" stroke="black" stroke-width="0.1875"/>
<ellipse cx="8.82844" cy="6.32631" rx="0.526316" ry="0.526326" fill="black"/>
<ellipse cx="10.5808" cy="6.32631" rx="0.526316" ry="0.526326" fill="black"/>
<ellipse cx="12.3349" cy="6.32631" rx="0.526316" ry="0.526326" fill="black"/>
</svg>
