<svg width="40" height="40" viewBox="0 0 40 40" fill="none" xmlns="http://www.w3.org/2000/svg">
<g clip-path="url(#clip0_11112_105790)">
<circle cx="20" cy="20" r="20" fill="#0A66C2"/>
<path d="M31.9256 6.00192H8.0662C6.93855 5.98923 6.01378 6.89256 6 8.02021V31.9791C6.01334 33.1073 6.938 34.0115 8.06609 33.9997H31.9256C33.0561 34.0137 33.9844 33.1095 34 31.9791V8.01835C33.9839 6.88851 33.0555 5.98529 31.9256 6.00006" fill="white"/>
<path d="M29.8573 29.8576H25.7086V23.3604C25.7086 21.8111 25.6809 19.8166 23.5509 19.8166C21.39 19.8166 21.0594 21.5047 21.0594 23.2476V29.8572H16.9108V16.4963H20.8935V18.3222H20.9493C21.3478 17.6407 21.9238 17.0801 22.6158 16.7C23.3078 16.3199 24.0899 16.1347 24.8789 16.1639C29.0838 16.1639 29.8591 18.9298 29.8591 22.528L29.8573 29.8576ZM12.2296 14.6701C10.8999 14.6703 9.82178 13.5925 9.82156 12.2629C9.82134 10.9332 10.899 9.85509 12.2287 9.85487C13.5584 9.85454 14.6365 10.9323 14.6367 12.262C14.6368 12.9005 14.3833 13.513 13.9318 13.9646C13.4804 14.4162 12.8681 14.67 12.2296 14.6701ZM14.304 29.8577H10.1509V16.4963H14.3039L14.304 29.8577ZM31.9256 6.00192H8.0662C6.93855 5.98923 6.01378 6.89256 6 8.02021V31.9791C6.01334 33.1073 6.938 34.0115 8.06609 33.9997H31.9256C33.0561 34.0137 33.9844 33.1095 34 31.9791V8.01835C33.9839 6.88851 33.0555 5.98529 31.9256 6.00006" fill="#0A66C2"/>
</g>
<defs>
<clipPath id="clip0_11112_105790">
<rect width="40" height="40" rx="20" fill="white"/>
</clipPath>
</defs>
</svg>
