<svg width="16" height="16" viewBox="0 0 16 16" fill="none" xmlns="http://www.w3.org/2000/svg">
<path fill-rule="evenodd" clip-rule="evenodd" d="M2.3448 1.14485C2.75769 0.731958 3.31768 0.5 3.9016 0.5H10.486C10.7928 0.5 11.0415 0.748731 11.0415 1.05556C11.0415 1.36238 10.7928 1.61111 10.486 1.61111H3.9016C3.61237 1.61111 3.33499 1.72601 3.13047 1.93052C2.92596 2.13504 2.81106 2.41242 2.81106 2.70165V13.2984C2.81106 13.5876 2.92596 13.865 3.13047 14.0695C3.33499 14.274 3.61237 14.3889 3.9016 14.3889H10.486C10.7928 14.3889 11.0415 14.6376 11.0415 14.9444C11.0415 15.2513 10.7928 15.5 10.486 15.5H3.9016C3.31768 15.5 2.75769 15.268 2.3448 14.8552C1.93191 14.4423 1.69995 13.8823 1.69995 13.2984V2.70165C1.69995 2.11773 1.93191 1.55774 2.3448 1.14485ZM10.1992 4.36329C10.4178 4.14808 10.7696 4.15089 10.9848 4.36958L14.1741 7.61032C14.282 7.71997 14.3396 7.86947 14.3332 8.02318C14.3268 8.1769 14.2569 8.32107 14.1402 8.42134L10.8481 11.2506C10.6154 11.4505 10.2646 11.424 10.0646 11.1913C9.86464 10.9586 9.89117 10.6079 10.1239 10.4079L12.2793 8.55556H5.54769C5.24086 8.55556 4.99213 8.30683 4.99213 8C4.99213 7.69318 5.24086 7.44444 5.54769 7.44444H12.4519L10.1929 5.14894C9.97766 4.93025 9.98047 4.57851 10.1992 4.36329Z" fill="black"/>
</svg>
