<svg width="20" height="20" viewBox="0 0 20 20" fill="none" xmlns="http://www.w3.org/2000/svg">
<g clip-path="url(#clip0_46_11937)">
<path d="M0.386434 17.612C-0.272041 17.612 -0.272041 16.6288 0.386434 16.6288H3.40467V13.4064C3.40467 12.7599 4.40582 12.7599 4.40582 13.4064V16.6288H7.3962V10.4405C7.3962 9.79399 8.39736 9.79399 8.39736 10.4405V16.6288H11.3877V11.1369C11.3877 10.4904 12.3889 10.4904 12.3889 11.1369V16.6288H15.3793V3.91561C15.3793 3.26891 16.3804 3.26891 16.3804 3.91561V16.6288H19.3989C20.0571 16.6288 20.0571 17.612 19.3989 17.612C13.0614 17.612 6.72392 17.612 0.386434 17.612Z" fill="black"/>
<path d="M13.7017 2.55683L14.1899 3.73132C14.4369 4.32998 13.5101 4.69864 13.2631 4.09998L13.1929 3.93063L10.8212 8.69684C10.6781 8.98488 10.2904 9.06455 10.0424 8.84907L7.37362 6.53624L3.7887 11.5724C3.41357 12.0995 2.59623 11.5389 2.97136 11.0116L6.87644 5.52611C7.04741 5.28565 7.39251 5.24664 7.61532 5.43977L10.2107 7.68885L12.2726 3.5427L12.09 3.59931C11.4623 3.79363 11.1615 2.85652 11.789 2.6622L13.0832 2.26071C13.3367 2.18246 13.6084 2.31209 13.7017 2.55683Z" fill="black"/>
</g>
<defs>
<clipPath id="clip0_46_11937">
<rect width="20" height="20" fill="white"/>
</clipPath>
</defs>
</svg>
