<svg width="20" height="20" viewBox="0 0 20 20" fill="none" xmlns="http://www.w3.org/2000/svg">
<path fill-rule="evenodd" clip-rule="evenodd" d="M9.64645 2.64645C9.84171 2.45118 10.1583 2.45118 10.3536 2.64645L11.9091 4.202C12.1044 4.39726 12.1044 4.71385 11.9091 4.90911C11.7138 5.10437 11.3973 5.10437 11.202 4.90911L10.5 4.20711V9.5H15.7929L15.0909 8.798C14.8956 8.60274 14.8956 8.28615 15.0909 8.09089C15.2862 7.89563 15.6027 7.89563 15.798 8.09089L17.3536 9.64645C17.5488 9.84171 17.5488 10.1583 17.3536 10.3536L15.798 11.9091C15.6027 12.1044 15.2862 12.1044 15.0909 11.9091C14.8956 11.7138 14.8956 11.3973 15.0909 11.202L15.7929 10.5H10.5V15.7929L11.202 15.0909C11.3973 14.8956 11.7138 14.8956 11.9091 15.0909C12.1044 15.2862 12.1044 15.6027 11.9091 15.798L10.3536 17.3536C10.1583 17.5488 9.84171 17.5488 9.64645 17.3536L8.09089 15.798C7.89563 15.6027 7.89563 15.2862 8.09089 15.0909C8.28615 14.8956 8.60274 14.8956 8.798 15.0909L9.5 15.7929V10.5H4.20711L4.90911 11.202C5.10437 11.3973 5.10437 11.7138 4.90911 11.9091C4.71385 12.1044 4.39726 12.1044 4.202 11.9091L2.64645 10.3536C2.45118 10.1583 2.45118 9.84171 2.64645 9.64645L4.202 8.09089C4.39726 7.89563 4.71385 7.89563 4.90911 8.09089C5.10437 8.28615 5.10437 8.60274 4.90911 8.798L4.20711 9.5H9.5V4.20711L8.798 4.90911C8.60274 5.10437 8.28615 5.10437 8.09089 4.90911C7.89563 4.71385 7.89563 4.39726 8.09089 4.202L9.64645 2.64645Z" fill="black"/>
</svg>
