<svg width="20" height="20" viewBox="0 0 20 20" fill="none" xmlns="http://www.w3.org/2000/svg">
<g clip-path="url(#clip0_46_11936)">
<path fill-rule="evenodd" clip-rule="evenodd" d="M3.88889 5.41667H0.833332V17.2569C0.833332 18.31 1.69003 19.1667 2.74305 19.1667H17.2569C18.31 19.1667 19.1667 18.31 19.1667 17.2569V0.833332H3.88889V5.41667ZM1.59722 17.2569V6.18055H3.88889V17.2569C3.88889 17.8887 3.37479 18.4028 2.74305 18.4028C2.11132 18.4028 1.59722 17.8887 1.59722 17.2569ZM18.4028 1.59722H4.65278V17.2569C4.65278 17.3784 4.63864 17.496 4.61649 17.611C4.61209 17.6345 4.60596 17.657 4.59982 17.6796C4.59637 17.6923 4.59291 17.705 4.58976 17.718C4.57028 17.7962 4.54736 17.8723 4.51871 17.9464C4.5042 17.9842 4.48778 18.0212 4.47059 18.0579C4.43812 18.1278 4.40146 18.1946 4.36097 18.2595C4.3575 18.2652 4.35405 18.2709 4.35061 18.2766C4.33435 18.3033 4.31821 18.3299 4.30024 18.3554C4.29551 18.3622 4.2913 18.3693 4.28709 18.3764C4.28178 18.3855 4.27646 18.3945 4.27007 18.4028H17.2569C17.8887 18.4028 18.4028 17.8887 18.4028 17.2569V1.59722Z" fill="black"/>
<path d="M6.18055 3.50694H16.875V4.27083H6.18055V3.50694Z" fill="black"/>
<path d="M7.70833 5.41667H15.3472V6.18055H7.70833V5.41667Z" fill="black"/>
<path d="M12.2917 8.47222H16.875V9.23611H12.2917V8.47222Z" fill="black"/>
<path d="M12.2917 10.3819H16.875V11.1458H12.2917V10.3819Z" fill="black"/>
<path fill-rule="evenodd" clip-rule="evenodd" d="M6.18055 8.47222H10.7639V13.0556H6.18055V8.47222ZM6.9447 12.2919H10.0003V9.23637H6.9447V12.2919Z" fill="black"/>
<path d="M12.2917 12.2917H16.875V13.0556H12.2917V12.2917Z" fill="black"/>
<path d="M6.18055 14.2014H10.7639V14.9653H6.18055V14.2014Z" fill="black"/>
<path d="M12.2917 14.2014H16.875V14.9653H12.2917V14.2014Z" fill="black"/>
<path d="M6.18055 16.1111H10.7639V16.875H6.18055V16.1111Z" fill="black"/>
<path d="M12.2917 16.1111H16.875V16.875H12.2917V16.1111Z" fill="black"/>
</g>
<defs>
<clipPath id="clip0_46_11936">
<rect width="20" height="20" fill="white"/>
</clipPath>
</defs>
</svg>
