<svg width="20" height="20" viewBox="0 0 20 20" fill="none" xmlns="http://www.w3.org/2000/svg">
<g clip-path="url(#clip0_573_43657)">
<path d="M7.54126 2.80128H7.31037L7.15266 2.96992L4.27815 6.04368L4.1347 6.19707V6.40709V14.6837C4.1347 16.1529 5.32573 17.3439 6.79494 17.3439H13.2052C14.6744 17.3439 15.8655 16.1529 15.8655 14.6837V5.46152C15.8655 3.99231 14.6744 2.80128 13.2052 2.80128H7.54126Z" fill="#ED193B" stroke="white" stroke-width="1.0641"/>
<path fill-rule="evenodd" clip-rule="evenodd" d="M11.083 12.8391C10.8332 12.9659 10.5465 13.0293 10.2231 13.0293H8.94529V10.0001H10.2534C10.5711 10.0001 10.8519 10.0635 11.0959 10.1902C11.34 10.317 11.5298 10.4949 11.6656 10.7239C11.8013 10.9529 11.8691 11.2158 11.8691 11.5125C11.8691 11.8093 11.8006 12.0729 11.6634 12.3033C11.5262 12.5338 11.3327 12.7124 11.083 12.8391ZM6.79245 13.0293V12.191H7.3339C7.72086 12.191 8.02119 12.0923 8.23488 11.895C8.44858 11.6977 8.55542 11.4204 8.55542 11.0632C8.55542 10.7261 8.44858 10.4647 8.23488 10.2789C8.02119 10.0931 7.72086 10.0002 7.3339 10.0002H5.99976V13.0293H6.79245ZM7.29497 11.56H6.7925V10.631H7.29497C7.45668 10.631 7.58158 10.6706 7.66966 10.7498C7.75773 10.829 7.80177 10.9421 7.80177 11.089C7.80177 11.2417 7.75773 11.3584 7.66966 11.439C7.58158 11.5197 7.45668 11.56 7.29497 11.56ZM10.2751 12.3897H9.73799V10.644H10.2361C10.395 10.644 10.5365 10.6807 10.6606 10.7541C10.7848 10.8276 10.8823 10.9306 10.953 11.0631C11.0238 11.1956 11.0591 11.3483 11.0591 11.5212C11.0591 11.6911 11.0259 11.8424 10.9595 11.9749C10.8931 12.1074 10.8007 12.2097 10.6823 12.2817C10.5639 12.3537 10.4282 12.3897 10.2751 12.3897ZM13.0551 11.936V13.0293H12.2624V10.0001H14.5322L14.5279 10.631H13.0551V11.3051H14.4153V11.936H13.0551Z" fill="white"/>
<path fill-rule="evenodd" clip-rule="evenodd" d="M13.2054 2.26923H7.07961L3.60278 5.98705V14.6837C3.60278 16.4467 5.03202 17.876 6.79507 17.876H13.2054C14.9684 17.876 16.3976 16.4467 16.3976 14.6837V5.46152C16.3976 3.69847 14.9684 2.26923 13.2054 2.26923ZM8.55172 3.33333H13.2054C14.3807 3.33333 15.3335 4.28615 15.3335 5.46152V14.6837C15.3335 15.8591 14.3807 16.8119 13.2054 16.8119H6.79507C5.61971 16.8119 4.66688 15.8591 4.66688 14.6837V8.00008H8.55172V3.33333ZM7.55172 3.33333H7.54139L4.66688 6.40708V7.00008H7.55172V3.33333Z" fill="white"/>
<path d="M7.5415 2.80128H7.31061L7.15291 2.96992L4.27839 6.04368L4.13494 6.19707V6.40709V7.00008V7.53213H4.66699H7.55183H8.08388V7.00008V3.33333V2.80128H7.55183H7.5415Z" fill="#ED193B" stroke="white" stroke-width="1.0641"/>
</g>
<defs>
<clipPath id="clip0_573_43657">
<rect width="20" height="20" fill="white"/>
</clipPath>
</defs>
</svg>
