<svg width="16" height="16" viewBox="0 0 16 16" fill="none" xmlns="http://www.w3.org/2000/svg">
<path fill-rule="evenodd" clip-rule="evenodd" d="M10.375 10C9.54625 10 8.875 9.32812 8.875 8.5C8.875 7.67188 9.54625 7 10.375 7C11.2038 7 11.875 7.67188 11.875 8.5C11.875 9.32812 11.2038 10 10.375 10ZM14.125 7.875H12.7863C12.5081 6.79813 11.5388 6 10.375 6C9.21125 6 8.2425 6.79813 7.96375 7.875H1.625C1.28 7.875 1 8.155 1 8.5C1 8.84563 1.28 9.125 1.625 9.125H7.96375C8.24187 10.2019 9.21125 11 10.375 11C11.5388 11 12.5081 10.2019 12.7863 9.125H14.125C14.47 9.125 14.75 8.84563 14.75 8.5C14.75 8.155 14.47 7.875 14.125 7.875ZM4.75 5C3.92125 5 3.25 4.32813 3.25 3.5C3.25 2.67188 3.92125 2.00063 4.75 2.00063C5.57875 2.00063 6.25 2.67188 6.25 3.5C6.25 4.32813 5.57875 5 4.75 5ZM14.125 2.875H7.16125C6.88313 1.79813 5.91375 1 4.75 1C3.58625 1 2.61687 1.79813 2.33875 2.875H1.625C1.28 2.875 1 3.155 1 3.5C1 3.84563 1.28 4.125 1.625 4.125H2.33875C2.61687 5.20188 3.58625 6 4.75 6C5.91375 6 6.88313 5.20188 7.16125 4.125H14.125C14.47 4.125 14.75 3.84563 14.75 3.5C14.75 3.155 14.47 2.875 14.125 2.875ZM4.75 15C3.92125 15 3.25 14.3281 3.25 13.5C3.25 12.6719 3.92125 12.0006 4.75 12.0006C5.57875 12.0006 6.25 12.6719 6.25 13.5C6.25 14.3281 5.57875 15 4.75 15ZM14.125 12.875H7.16125C6.88313 11.7988 5.91375 11 4.75 11C3.58625 11 2.61687 11.7988 2.33875 12.875H1.625C1.28 12.875 1 13.1544 1 13.5C1 13.8456 1.28 14.125 1.625 14.125H2.33875C2.61687 15.2019 3.58625 16 4.75 16C5.91375 16 6.88313 15.2019 7.16125 14.125H14.125C14.47 14.125 14.75 13.8456 14.75 13.5C14.75 13.1544 14.47 12.875 14.125 12.875Z" fill="black"/>
</svg>
