<svg width="20" height="20" viewBox="0 0 20 20" fill="none" xmlns="http://www.w3.org/2000/svg">
<g clip-path="url(#clip0_46_12035)">
<path d="M4.38741 14.0237C2.79949 14.0237 1.59652 12.7245 1.59652 11.2328C1.59652 9.69303 2.84761 8.49006 4.38741 8.49006C4.38741 8.49006 4.38741 8.49006 4.43553 8.49006V9.06748C4.43553 9.06748 4.43553 9.06748 4.38741 9.06748C3.18444 9.06748 2.17394 10.0299 2.17394 11.2328C2.17394 12.4358 3.13632 13.4463 4.33929 13.4463C4.91672 13.4463 5.49414 13.2057 5.92721 12.8208C6.36028 12.3877 6.60088 11.8584 6.60088 11.2809C6.60088 10.4148 6.07157 9.59679 5.25355 9.21184L5.49414 8.68253C6.50464 9.1156 7.1783 10.1261 7.1783 11.2809C7.1783 12.0027 6.88959 12.7245 6.36028 13.2538C5.83097 13.735 5.10919 14.0237 4.38741 14.0237Z" fill="black"/>
<path d="M7.94822 18.7876V17.9696C7.94822 16.6223 7.1302 15.4674 5.97535 14.9381C6.6009 15.5155 6.98585 16.3817 6.93773 17.2959V18.7876" fill="black"/>
<path d="M7.90037 18.4508H7.32295V17.6327C7.32295 15.9967 6.02374 14.6494 4.3877 14.6494C4.3877 14.6494 4.3877 14.6494 4.33958 14.6494C2.75166 14.6494 1.40433 15.9486 1.40433 17.5846V18.4508H0.875023V17.5846C0.875023 15.6599 2.46294 14.1201 4.3877 14.1201H4.43582C6.36057 14.1201 7.94849 15.7561 7.90037 17.6809V18.4508Z" fill="black"/>
<path fill-rule="evenodd" clip-rule="evenodd" d="M12.8565 11.233C12.8565 12.7247 14.0595 14.0239 15.6474 14.0239C16.4173 14.0239 17.091 13.7352 17.5722 13.254C18.1015 12.7247 18.3902 12.0029 18.3902 11.2811C18.4383 10.5593 18.1496 9.83755 17.6203 9.30825C17.091 8.77894 16.3692 8.49023 15.6474 8.49023C14.9256 8.44211 14.2038 8.73082 13.6745 9.26013C13.1452 9.78943 12.8565 10.5112 12.8565 11.233ZM14.1076 9.64508C14.5407 9.26013 15.07 9.01953 15.6474 9.01953C16.273 9.01953 16.8504 9.26013 17.2353 9.64508C17.6203 10.0781 17.8609 10.6556 17.8609 11.233C17.8609 11.8104 17.6203 12.3879 17.1872 12.7728C16.7541 13.1578 16.1767 13.3983 15.5993 13.3983C14.3963 13.3983 13.4339 12.3879 13.4339 11.1849C13.4339 10.6075 13.6745 10.0781 14.1076 9.64508Z" fill="black"/>
<path d="M19.2082 18.7877V17.9696C19.2082 16.6223 18.3902 15.4675 17.2353 14.9381C17.8609 15.5156 18.2458 16.3817 18.1977 17.296V18.7877" fill="black"/>
<path d="M19.2082 18.4508H18.6308V17.6328C18.6308 15.9968 17.3316 14.6494 15.6955 14.6494C15.6955 14.6494 15.6955 14.6494 15.6474 14.6494C14.8775 14.6494 14.1557 14.9382 13.5783 15.4675C13.0009 15.9968 12.7122 16.7667 12.7122 17.5366V18.4027H12.1347V17.5366C12.1347 15.6118 13.7227 14.072 15.6474 14.072H15.6955C17.6203 14.072 19.2082 15.7081 19.1601 17.6328V18.4508H19.2082Z" fill="black"/>
<path d="M16.0326 7.38362L14.4928 5.98817H11.9906V5.41075H14.6853L15.4552 6.08441V1.41688H8.71854V3.96718H8.14112V0.839456H16.0326V7.38362Z" fill="black"/>
<path d="M10.4507 2.52342H11.3169V3.10084H10.4507V2.52342Z" fill="black"/>
<path d="M11.9424 2.52342H13.6747V3.10084H11.9424V2.52342Z" fill="black"/>
<path d="M12.9048 3.77451H13.6747V4.35193H12.9048V3.77451Z" fill="black"/>
<path fill-rule="evenodd" clip-rule="evenodd" d="M4.29148 3.77453V10.3187L5.8794 8.92324H12.183V3.77453H4.29148ZM4.8689 9.0676V4.35195H11.6055V8.34581H5.6388L4.8689 9.0676Z" fill="black"/>
<path d="M9.00715 5.45847H9.87329V6.03589H9.00715V5.45847Z" fill="black"/>
<path d="M6.64932 5.45847H8.3816V6.03589H6.64932V5.45847Z" fill="black"/>
<path d="M6.64932 6.70956H9.87328V7.28698H6.64932V6.70956Z" fill="black"/>
</g>
<defs>
<clipPath id="clip0_46_12035">
<rect width="20" height="20" fill="white"/>
</clipPath>
</defs>
</svg>
