<svg width="16" height="23" viewBox="0 0 16 23" fill="none" xmlns="http://www.w3.org/2000/svg">
<path fill-rule="evenodd" clip-rule="evenodd" d="M15.4528 12.6637C15.4523 12.6604 15.4509 12.6574 15.4495 12.6545C15.4482 12.6515 15.4468 12.6485 15.4463 12.6452C15.4389 12.6152 15.4295 12.5892 15.4175 12.5648C15.3812 12.4998 15.3383 12.4435 15.289 12.3941L15.276 12.3882C15.2342 12.3665 15.1844 12.3459 15.1328 12.3285L15.1252 12.3263L15.1122 12.3215L10.7737 11.6544C10.7547 11.6512 10.733 11.6495 10.7108 11.6495C10.4863 11.6495 10.304 11.8318 10.304 12.0563C10.304 12.2596 10.4532 12.4283 10.6484 12.4581L10.6506 12.4587L12.5292 12.7477L8.00027 13.5319L3.47192 12.7477L5.35051 12.4587C5.549 12.4294 5.69922 12.2602 5.69922 12.0563C5.69922 11.8318 5.517 11.6495 5.29248 11.6495C5.26916 11.6495 5.24638 11.6517 5.22415 11.6555L5.22632 11.655L0.872589 12.328C0.844389 12.3356 0.820527 12.3442 0.797207 12.3556L0.799376 12.3545C0.770633 12.3643 0.745687 12.3762 0.721825 12.3903L0.723452 12.3893L0.710979 12.3952C0.697421 12.4077 0.68549 12.4213 0.674101 12.4354L0.673559 12.4359C0.651324 12.4554 0.631258 12.4766 0.613904 12.4999L0.613361 12.501C0.602515 12.5194 0.592211 12.5411 0.583534 12.5633L0.582449 12.5661C0.571061 12.5888 0.561299 12.6149 0.554249 12.6425L0.553706 12.6452C0.552952 12.6485 0.551615 12.6514 0.550289 12.6543C0.548756 12.6577 0.547238 12.661 0.546656 12.6648L0.00433854 16.3259C0.00162695 16.3433 0 16.3639 0 16.3845C0 16.5803 0.138291 16.7441 0.322679 16.7831L0.325391 16.7837L1.10524 16.9431C1.09494 16.9724 1.08735 17.0066 1.08518 17.0418V17.0429V21.1271V21.1276C1.08518 21.3342 1.2392 21.5051 1.43931 21.5306H1.44148L7.87933 22.3261C7.91513 22.3397 7.95634 22.3484 7.99919 22.3505H8.00027C8.00567 22.3505 8.01062 22.3491 8.0156 22.3476C8.02012 22.3462 8.02465 22.3448 8.02956 22.3446L8.05125 22.3473L14.5591 21.5306C14.7608 21.5045 14.9148 21.3342 14.9148 21.1276V21.1271V17.0429C14.9121 17.0066 14.9051 16.9724 14.8937 16.9398L14.8948 16.9426L15.6746 16.7831C15.8617 16.7441 16 16.5808 16 16.3851C16 16.3639 15.9984 16.3438 15.9951 16.3238L15.9957 16.3259L15.4528 12.6637ZM1.29126 13.1951L7.41674 14.2554L6.1347 17.14L0.866624 16.0629L1.29126 13.1951ZM6.29197 18.0028L1.8992 17.1042V20.7675L7.59353 21.4823V15.8606L6.74535 17.7696L6.74426 17.7723C6.67973 17.9133 6.53764 18.0109 6.37278 18.0109C6.34457 18.0109 6.31637 18.0082 6.29197 18.0028ZM14.1013 20.7681L8.40701 21.4937V15.8601L9.25519 17.769C9.32027 17.9122 9.46236 18.0104 9.62722 18.0104C9.65651 18.0104 9.68417 18.0071 9.71183 18.0012L14.1019 17.1031L14.1013 20.7681ZM8.58381 14.2559L9.86639 17.1405L15.1339 16.0635L14.7093 13.1957L8.58381 14.2559Z" fill="black"/>
<path d="M9 9.14954L7.23664 10.0766L7.57342 8.11306L6.14683 6.72249L8.11832 6.43601L9 4.64954L9.88168 6.43601L11.8532 6.72249L10.4266 8.11306L10.7634 10.0766L9 9.14954Z" stroke="black" stroke-width="0.7"/>
<path d="M4 4.64954L2.82443 5.26757L3.04894 3.95855L2.09789 3.0315L3.41221 2.84052L4 1.64954L4.58779 2.84052L5.90211 3.0315L4.95106 3.95855L5.17557 5.26757L4 4.64954Z" stroke="black" stroke-width="0.7"/>
<path d="M2.5 9.89954L1.61832 10.3631L1.78671 9.3813L1.07342 8.68601L2.05916 8.54277L2.5 7.64954L2.94084 8.54277L3.92658 8.68601L3.21329 9.3813L3.38168 10.3631L2.5 9.89954Z" stroke="black" stroke-width="0.7"/>
</svg>
