<svg width="20" height="20" viewBox="0 0 20 20" fill="none" xmlns="http://www.w3.org/2000/svg">
<path fill-rule="evenodd" clip-rule="evenodd" d="M9.49 4.02161C10.5255 3.93324 11.5663 4.11536 12.5102 4.55015C13.4542 4.98493 14.2691 5.65746 14.875 6.50186V5.31236C14.875 5.16318 14.9343 5.0201 15.0398 4.91461C15.1452 4.80912 15.2883 4.74986 15.4375 4.74986C15.5867 4.74986 15.7298 4.80912 15.8352 4.91461C15.9407 5.0201 16 5.16318 16 5.31236V8.49986H12.8125C12.6633 8.49986 12.5202 8.4406 12.4148 8.33511C12.3093 8.22962 12.25 8.08654 12.25 7.93736C12.25 7.78818 12.3093 7.6451 12.4148 7.53961C12.5202 7.43412 12.6633 7.37486 12.8125 7.37486H14.1077C13.5948 6.57229 12.8581 5.93755 11.9884 5.54905C11.1188 5.16055 10.1544 5.03531 9.21436 5.18881C8.27434 5.3423 7.39987 5.7678 6.69898 6.41274C5.99809 7.05769 5.50148 7.89382 5.2705 8.81786C5.25346 8.89045 5.22216 8.95892 5.17843 9.0193C5.13469 9.07969 5.07938 9.13077 5.01572 9.16958C4.95206 9.2084 4.88132 9.23417 4.80761 9.2454C4.7339 9.25663 4.6587 9.2531 4.58637 9.235C4.51404 9.21691 4.44603 9.18462 4.38629 9.14C4.32655 9.09539 4.27628 9.03934 4.2384 8.97512C4.20052 8.9109 4.17578 8.83979 4.16562 8.76593C4.15547 8.69206 4.1601 8.61692 4.17925 8.54486C4.48266 7.33168 5.15755 6.24362 6.10959 5.43277C7.06164 4.62192 8.24324 4.12881 9.48925 4.02236L9.49 4.02161ZM6.94 15.1606C7.74399 15.6371 8.64819 15.9193 9.58051 15.9845C10.5128 16.0497 11.4475 15.8963 12.31 15.5363C13.1725 15.1764 13.939 14.6199 14.5484 13.9113C15.1578 13.2027 15.5932 12.3615 15.82 11.4549C15.8538 11.311 15.8296 11.1596 15.7526 11.0335C15.6757 10.9073 15.5522 10.8165 15.4089 10.7806C15.2656 10.7448 15.1139 10.7668 14.9866 10.8418C14.8593 10.9169 14.7667 11.0391 14.7288 11.1819C14.4976 12.1057 14.001 12.9416 13.3002 13.5864C12.5994 14.2312 11.725 14.6566 10.7852 14.8101C9.8453 14.9635 8.88107 14.8384 8.01153 14.45C7.142 14.0617 6.40524 13.4272 5.89225 12.6249H7.1875C7.33668 12.6249 7.47976 12.5656 7.58525 12.4601C7.69074 12.3546 7.75 12.2115 7.75 12.0624C7.75 11.9132 7.69074 11.7701 7.58525 11.6646C7.47976 11.5591 7.33668 11.4999 7.1875 11.4999H4V14.6874C4 14.8365 4.05926 14.9796 4.16475 15.0851C4.27024 15.1906 4.41332 15.2499 4.5625 15.2499C4.71168 15.2499 4.85476 15.1906 4.96025 15.0851C5.06574 14.9796 5.125 14.8365 5.125 14.6874V13.4979C5.60859 14.1716 6.22659 14.7377 6.94 15.1606Z" fill="black"/>
</svg>
