<svg width="20" height="20" viewBox="0 0 20 20" fill="none" xmlns="http://www.w3.org/2000/svg">
<g clip-path="url(#clip0_46_12053)">
<g clip-path="url(#clip1_46_12053)">
<path fill-rule="evenodd" clip-rule="evenodd" d="M15.4997 8.16657C15.4997 4.96215 13.4495 2.15435 10.3985 1.18022C10.2375 1.12797 10.0654 1.21719 10.0141 1.37791C9.96278 1.53895 10.0517 1.71067 10.2124 1.762C13.0095 2.65547 14.8886 5.22921 14.8886 8.16657C14.8886 11.8733 11.8731 14.8889 8.16642 14.8889C4.45973 14.8889 1.44421 11.8733 1.44421 8.16657C1.44421 5.22921 3.32337 2.65516 6.12042 1.762C6.28114 1.71067 6.37006 1.53895 6.31873 1.37822C6.26709 1.21719 6.09476 1.12735 5.93465 1.18022C2.88307 2.15435 0.833099 4.96215 0.833099 8.16657C0.833099 12.2101 4.12301 15.5 8.16642 15.5C12.2098 15.5 15.4997 12.2101 15.4997 8.16657ZM14.666 12.9381C14.5468 13.0575 14.5468 13.251 14.666 13.3701L15.3143 14.0185C15.3739 14.0784 15.4521 14.1081 15.5304 14.1081C15.6083 14.1081 15.6865 14.0784 15.7464 14.0185C15.8656 13.8994 15.8656 13.7059 15.7464 13.5865L15.0983 12.9381C14.9788 12.8189 14.7854 12.8189 14.666 12.9381ZM18.7188 18.7188C19.0072 18.4307 19.1664 18.0469 19.1664 17.6387C19.1664 17.2307 19.0072 16.847 18.7188 16.5585L16.5775 14.4171C16.5203 14.36 16.4427 14.3276 16.3614 14.3276C16.2805 14.3276 16.2022 14.3603 16.1448 14.4177L15.2831 15.2843C15.164 15.4041 15.1646 15.5972 15.2844 15.7164C15.4044 15.8358 15.5972 15.8349 15.7164 15.7152L16.362 15.0658L18.2867 16.9906C18.46 17.1638 18.5553 17.3939 18.5553 17.6387C18.5553 17.8837 18.46 18.1138 18.2867 18.2868C17.9295 18.644 17.3484 18.6443 16.9906 18.2871L13.3698 14.6662C13.2506 14.547 13.0572 14.547 12.9377 14.6662C12.8185 14.7856 12.8185 14.9791 12.9377 15.0985L16.5585 18.7191C16.8561 19.017 17.2472 19.1659 17.6384 19.1659C18.0295 19.1659 18.4212 19.017 18.7188 18.7188Z" fill="black"/>
<path d="M12.1388 10.6109C12.3077 10.6109 12.4443 10.4743 12.4443 10.3054V6.0275C12.4443 5.85853 12.3077 5.72194 12.1388 5.72194H10.3054C10.1368 5.72194 9.99987 5.85853 9.99987 6.0275V12.1387C9.99987 12.3077 10.1368 12.4443 10.3054 12.4443C10.4744 12.4443 10.611 12.3077 10.611 12.1387V6.33306H11.8332V10.3054C11.8332 10.4743 11.9698 10.6109 12.1388 10.6109Z" fill="black"/>
<path d="M7.24983 13.0555C7.4185 13.0555 7.55539 12.9189 7.55539 12.75V1.4442H8.77761V12.75C8.77761 12.9189 8.9145 13.0555 9.08316 13.0555C9.25183 13.0555 9.38872 12.9189 9.38872 12.75V1.13863C9.38872 0.969659 9.25183 0.833073 9.08316 0.833073H7.24983C7.08117 0.833073 6.94428 0.969659 6.94428 1.13863V12.75C6.94428 12.9189 7.08117 13.0555 7.24983 13.0555Z" fill="black"/>
<path d="M6.02757 3.27769H4.19424C4.02558 3.27769 3.88869 3.41428 3.88869 3.58325V10.3056C3.88869 10.4746 4.02558 10.6112 4.19424 10.6112C4.36291 10.6112 4.4998 10.4746 4.4998 10.3056V3.88882H5.72202V12.139C5.72202 12.3079 5.85891 12.4445 6.02757 12.4445C6.19624 12.4445 6.33313 12.3079 6.33313 12.139V3.58325C6.33313 3.41428 6.19624 3.27769 6.02757 3.27769Z" fill="black"/>
</g>
</g>
<defs>
<clipPath id="clip0_46_12053">
<rect width="20" height="20" fill="white"/>
</clipPath>
<clipPath id="clip1_46_12053">
<rect width="19.9998" height="19.9992" fill="white"/>
</clipPath>
</defs>
</svg>
