<svg width="24" height="24" viewBox="0 0 24 24" fill="none" xmlns="http://www.w3.org/2000/svg">
<path fill-rule="evenodd" clip-rule="evenodd" d="M15.3257 13.8144L19.7063 18.112C19.9547 18.3439 20.0555 18.6896 19.9696 19.0152C19.8837 19.3408 19.6245 19.5951 19.2926 19.6797C18.9606 19.7642 18.6081 19.6657 18.3714 19.4222L13.9948 15.1279L13.9902 15.1313C12.9185 15.9093 11.619 16.3267 10.2856 16.321C6.81886 16.3014 4.01485 13.5475 3.99986 10.1477C3.99008 8.5209 4.64416 6.95781 5.81638 5.80666C6.9886 4.65551 8.5816 4.01193 10.2405 4.01929C13.707 4.03892 16.5107 6.7925 16.5257 10.192C16.5316 11.4943 16.1109 12.7641 15.3257 13.8144ZM5.25245 10.1522C5.26463 12.8719 7.5078 15.0747 10.2811 15.0904C11.608 15.0958 12.8821 14.5807 13.8197 13.6599C14.7573 12.739 15.2806 11.4888 15.2731 10.1875C15.2609 7.46782 13.0178 5.26499 10.2445 5.24935C8.91755 5.24394 7.64347 5.75899 6.70587 6.67984C5.76827 7.6007 5.24497 8.85092 5.25245 10.1522Z" fill="black"/>
</svg>
