<svg width="20" height="20" viewBox="0 0 20 20" fill="none" xmlns="http://www.w3.org/2000/svg">
<path d="M11.615 14.0999L7.6403 11.9321C7.25877 12.3109 6.77365 12.5681 6.24611 12.6716C5.71857 12.775 5.17222 12.7199 4.67594 12.5132C4.17966 12.3066 3.75566 11.9577 3.45741 11.5104C3.15916 11.0631 3 10.5376 3 10C3 9.46242 3.15916 8.93687 3.45741 8.48961C3.75566 8.04235 4.17966 7.69341 4.67594 7.48677C5.17222 7.28012 5.71857 7.22504 6.24611 7.32846C6.77365 7.43187 7.25877 7.68916 7.6403 8.06788L11.615 5.90007C11.4787 5.26049 11.5771 4.59321 11.8924 4.02026C12.2076 3.44731 12.7185 3.00697 13.3317 2.77976C13.945 2.55256 14.6195 2.55368 15.2319 2.78292C15.8444 3.01215 16.3538 3.45418 16.6672 4.02818C16.9805 4.60218 17.0767 5.26978 16.9383 5.90891C16.7998 6.54803 16.436 7.11597 15.9132 7.50886C15.3904 7.90175 14.7437 8.09334 14.0913 8.04859C13.4389 8.00384 12.8244 7.72575 12.3602 7.26516L8.38546 9.43297C8.46464 9.80659 8.46464 10.1926 8.38546 10.5663L12.3602 12.7349C12.8244 12.2743 13.4389 11.9962 14.0913 11.9514C14.7437 11.9067 15.3904 12.0983 15.9132 12.4912C16.436 12.884 16.7998 13.452 16.9383 14.0911C17.0767 14.7302 16.9805 15.3978 16.6672 15.9718C16.3538 16.5458 15.8444 16.9879 15.2319 17.2171C14.6195 17.4463 13.945 17.4475 13.3317 17.2202C12.7185 16.993 12.2076 16.5527 11.8924 15.9798C11.5771 15.4068 11.4787 14.7395 11.615 14.0999Z" fill="black"/>
</svg>
