<svg width="20" height="20" viewBox="0 0 20 20" fill="none" xmlns="http://www.w3.org/2000/svg">
<g clip-path="url(#clip0_421_57802)">
<g clip-path="url(#clip1_421_57802)">
<path d="M6.70089 8.71782C6.40541 8.71782 6.12285 8.6735 5.85322 8.58486C5.58359 8.49252 5.37121 8.37433 5.21608 8.23028L5.42108 7.79813C5.56882 7.92741 5.75719 8.03452 5.98619 8.11947C6.21519 8.20442 6.45342 8.2469 6.70089 8.2469C6.9262 8.2469 7.10903 8.22104 7.24938 8.16933C7.38974 8.11762 7.49316 8.04745 7.55964 7.9588C7.62612 7.86646 7.65937 7.76304 7.65937 7.64854C7.65937 7.51558 7.61504 7.40846 7.5264 7.3272C7.44145 7.24595 7.32879 7.18131 7.18844 7.13329C7.05178 7.08158 6.90034 7.03726 6.73413 7.00033C6.56792 6.96339 6.39987 6.92091 6.22996 6.8729C6.06375 6.82119 5.91047 6.75655 5.77012 6.67899C5.63346 6.60142 5.52265 6.498 5.4377 6.36873C5.35275 6.23576 5.31027 6.06586 5.31027 5.85902C5.31027 5.65957 5.36198 5.47674 5.4654 5.31053C5.57251 5.14062 5.73503 5.00581 5.95295 4.90609C6.17456 4.80267 6.45527 4.75096 6.79508 4.75096C7.02038 4.75096 7.24384 4.7805 7.46545 4.8396C7.68707 4.8987 7.87913 4.98365 8.04165 5.09446L7.85882 5.53768C7.69261 5.42687 7.51716 5.34746 7.33249 5.29945C7.14781 5.24774 6.96867 5.22188 6.79508 5.22188C6.57716 5.22188 6.39802 5.24958 6.25766 5.30499C6.11731 5.36039 6.01389 5.43426 5.94741 5.5266C5.88462 5.61894 5.85322 5.72236 5.85322 5.83686C5.85322 5.97352 5.8957 6.08248 5.98065 6.16374C6.06929 6.245 6.18195 6.30963 6.31861 6.35765C6.45896 6.40566 6.61225 6.44999 6.77845 6.49062C6.94466 6.52755 7.11087 6.57003 7.27708 6.61804C7.44699 6.66606 7.60027 6.72885 7.73693 6.80641C7.87728 6.88398 7.98994 6.9874 8.07489 7.11667C8.15984 7.24595 8.20232 7.41216 8.20232 7.6153C8.20232 7.81106 8.14876 7.99389 8.04165 8.16379C7.93453 8.33 7.76833 8.46482 7.54302 8.56824C7.32141 8.66796 7.0407 8.71782 6.70089 8.71782Z" fill="black"/>
<path d="M9.01172 8.6735V4.79528H10.5242C10.864 4.79528 11.154 4.84883 11.3941 4.95595C11.6341 5.06306 11.8188 5.21819 11.9481 5.42133C12.0774 5.62448 12.142 5.86641 12.142 6.14712C12.142 6.42783 12.0774 6.66975 11.9481 6.8729C11.8188 7.07235 11.6341 7.22563 11.3941 7.33274C11.154 7.43986 10.864 7.49341 10.5242 7.49341H9.31644L9.56575 7.23856V8.6735H9.01172ZM11.6046 8.6735L10.6184 7.26626H11.2112L12.2085 8.6735H11.6046ZM9.56575 7.29396L9.31644 7.02249H10.5076C10.8622 7.02249 11.13 6.94677 11.311 6.79533C11.4956 6.6402 11.588 6.42413 11.588 6.14712C11.588 5.8701 11.4956 5.65587 11.311 5.50444C11.13 5.353 10.8622 5.27729 10.5076 5.27729H9.31644L9.56575 5.00027V7.29396Z" fill="black"/>
<path d="M13.8349 7.94772V5.52106H14.3003V7.94772H13.8349ZM12.8266 6.956V6.51832H15.3086V6.956H12.8266Z" fill="black"/>
<path fill-rule="evenodd" clip-rule="evenodd" d="M18.5666 0.712439H2.2668V19.2827H18.5666V0.712439ZM1.55192 -0.00244141V19.9976H19.2815V-0.00244141H1.55192Z" fill="black"/>
<path fill-rule="evenodd" clip-rule="evenodd" d="M3.9362 13.9532C3.9362 13.7492 4.10156 13.5838 4.30555 13.5838H16.5282C16.7322 13.5838 16.8976 13.7492 16.8976 13.9532C16.8976 14.1571 16.7322 14.3225 16.5282 14.3225H4.30555C4.10156 14.3225 3.9362 14.1571 3.9362 13.9532Z" fill="black"/>
<path fill-rule="evenodd" clip-rule="evenodd" d="M3.9362 16.5911C3.9362 16.3871 4.10156 16.2217 4.30555 16.2217H11.8272C12.0312 16.2217 12.1965 16.3871 12.1965 16.5911C12.1965 16.7951 12.0312 16.9604 11.8272 16.9604H4.30555C4.10156 16.9604 3.9362 16.7951 3.9362 16.5911Z" fill="black"/>
</g>
</g>
<defs>
<clipPath id="clip0_421_57802">
<rect width="20" height="20" fill="white"/>
</clipPath>
<clipPath id="clip1_421_57802">
<rect width="20" height="20" fill="white"/>
</clipPath>
</defs>
</svg>
