<svg width="16" height="16" viewBox="0 0 16 16" fill="none" xmlns="http://www.w3.org/2000/svg">
<path fill-rule="evenodd" clip-rule="evenodd" d="M12.3536 6.64645C12.5488 6.84171 12.5488 7.15829 12.3536 7.35355L8.49498 11.2121C8.22161 11.4855 7.77839 11.4855 7.50503 11.2121L5.64645 9.35355C5.45118 9.15829 5.45118 8.84171 5.64645 8.64645C5.84171 8.45118 6.15829 8.45118 6.35355 8.64645L8 10.2929L11.6464 6.64645C11.8417 6.45118 12.1583 6.45118 12.3536 6.64645Z" fill="black"/>
<path fill-rule="evenodd" clip-rule="evenodd" d="M14 4H4L4 14H14V4ZM4 3C3.44772 3 3 3.44772 3 4V14C3 14.5523 3.44772 15 4 15H14C14.5523 15 15 14.5523 15 14V4C15 3.44772 14.5523 3 14 3H4Z" fill="black"/>
<path fill-rule="evenodd" clip-rule="evenodd" d="M0.5 2C0.5 1.17157 1.17157 0.5 2 0.5H11C11.8284 0.5 12.5 1.17157 12.5 2V3.5H11.5V2C11.5 1.72386 11.2761 1.5 11 1.5H2C1.72386 1.5 1.5 1.72386 1.5 2V12C1.5 12.2761 1.72386 12.5 2 12.5H3.5V13.5H2C1.17157 13.5 0.5 12.8284 0.5 12V2Z" fill="black"/>
</svg>
