<svg width="55" height="47" viewBox="0 0 55 47" fill="none" xmlns="http://www.w3.org/2000/svg">
<path d="M49.293 46H10.9248C10.7658 46 10.6704 45.8234 10.7575 45.6904L12.5203 43H46.2019L49.3596 45.8255C49.428 45.8867 49.3848 46 49.293 46Z" fill="#EDE0DC"/>
<path d="M49.293 46H10.9248C10.7658 46 10.6704 45.8234 10.7575 45.6904L12.5203 43H46.2019L49.3596 45.8255C49.428 45.8867 49.3848 46 49.293 46Z" fill="#EDE0DC"/>
<path d="M10.0547 45V22L13.5547 24V42L10.0547 45Z" fill="#EDE0DC"/>
<path d="M10.0547 45V22L13.5547 24V42L10.0547 45Z" fill="#EDE0DC"/>
<path d="M13.5547 24.6355V20M46.5547 24.2106V20M35.5547 33.619L48.5547 22.5M48.5547 22.5C48.888 22.3333 49.5547 22.3 49.5547 23.5V44C49.5547 44.3102 49.4897 44.7647 49.2994 45.162M48.5547 22.5L46.5547 20M11.0547 22.5C10.2547 22.1 10.0547 23 10.0547 23.5V44C10.0547 44.4735 10.2623 44.8588 10.5547 45.162M11.0547 22.5L24.2734 33.7917M11.0547 22.5L13.5547 20M10.5547 45.162C11.0032 45.6272 11.6511 45.8991 12.0547 46H48.0547C48.6964 46 49.0807 45.6187 49.2994 45.162M10.5547 45.162L30.0547 29L49.2994 45.162M13.5547 20V11.5H22.0547M46.5547 20V11.5H37.5547M22.0547 11.5L30.0547 3.5L37.5547 11.5M22.0547 11.5H37.5547" stroke="#E3B8AB"/>
<circle cx="23.5547" cy="21.5" r="2" fill="#EDE0DC" stroke="#E3B8AB"/>
<circle cx="30.0547" cy="21.5" r="2" fill="#EDE0DC" stroke="#E3B8AB"/>
<circle cx="36.5547" cy="21.5" r="2" fill="#EDE0DC" stroke="#E3B8AB"/>
<path d="M4.55469 13.5V19" stroke="#E3B8AB" stroke-linecap="round"/>
<path d="M4.55469 13.5V19" stroke="#E3B8AB" stroke-linecap="round"/>
<path d="M44.0547 1V5" stroke="#E3B8AB" stroke-width="0.727273" stroke-linecap="round"/>
<path d="M44.0547 1V5" stroke="#E3B8AB" stroke-width="0.727273" stroke-linecap="round"/>
<path d="M52.0547 16V18" stroke="#E3B8AB" stroke-width="0.363636" stroke-linecap="round"/>
<path d="M52.0547 16V18" stroke="#E3B8AB" stroke-width="0.363636" stroke-linecap="round"/>
<path d="M1.80469 16.25H7.30469" stroke="#E3B8AB" stroke-linecap="round"/>
<path d="M1.80469 16.25H7.30469" stroke="#E3B8AB" stroke-linecap="round"/>
<path d="M42.0547 3L46.0547 3" stroke="#E3B8AB" stroke-width="0.727273" stroke-linecap="round"/>
<path d="M42.0547 3L46.0547 3" stroke="#E3B8AB" stroke-width="0.727273" stroke-linecap="round"/>
<path d="M51.0547 17H53.0547" stroke="#E3B8AB" stroke-width="0.363636" stroke-linecap="round"/>
<path d="M51.0547 17H53.0547" stroke="#E3B8AB" stroke-width="0.363636" stroke-linecap="round"/>
</svg>
