<svg width="24" height="24" viewBox="0 0 24 24" fill="none" xmlns="http://www.w3.org/2000/svg">
<path d="M23 8.96006C23 8.01166 22.3145 7.22091 21.413 7.05621C21.6332 6.74209 21.7631 6.35998 21.7631 5.94799C21.7631 5.14918 21.2767 4.46184 20.5847 4.16653C20.861 3.83176 21.0271 3.40281 21.0271 2.93591C21.0271 1.86848 20.159 1 19.0919 1H15.9577C15.955 1 15.9523 1.00034 15.9496 1.0005C15.9467 1.00034 15.9441 1 15.9414 1H11.4963C10.2908 1 9.13754 1.37389 8.16135 2.08103L7.49214 2.56589C7.49063 1.70227 6.78769 1 5.92395 1H2.56836C1.70361 1 1 1.70379 1 2.56874V6.02857C1 6.26597 1.19235 6.45836 1.42969 6.45836C1.66702 6.45836 1.85938 6.26597 1.85938 6.02857V2.56874C1.85938 2.17773 2.17744 1.85958 2.56836 1.85958H5.92395C6.31487 1.85958 6.63293 2.17773 6.63293 2.56874V12.9267C6.63293 13.3178 6.31487 13.6359 5.92395 13.6359H2.56836C2.17744 13.6359 1.85938 13.3178 1.85938 12.9267V9.46691C1.85938 9.22952 1.66702 9.03712 1.42969 9.03712C1.19235 9.03712 1 9.22952 1 9.46691V12.9267C1 13.7917 1.70361 14.4955 2.56836 14.4955H5.92395C6.68127 14.4955 7.31506 13.9557 7.46075 13.2405C9.39049 13.8179 10.7469 15.6032 10.7469 17.6548V19.696C10.7469 20.1699 11.1324 20.5556 11.6062 20.5556C13.394 20.5556 14.8485 19.1006 14.8485 17.3123V13.908H19.8277C20.8949 13.908 21.7631 13.0397 21.7631 11.9721C21.7631 11.5601 21.6334 11.1782 21.4132 10.8639C22.3145 10.6992 23 9.90846 23 8.96006ZM21.0646 10.0364H14.3868C14.1494 10.0364 13.9571 10.2288 13.9571 10.4662C13.9571 10.7036 14.1494 10.896 14.3868 10.896H19.8277C20.421 10.896 20.9038 11.3788 20.9038 11.9721C20.9038 12.5658 20.421 13.0485 19.8277 13.0485H14.4188C14.1815 13.0485 13.9892 13.241 13.9892 13.4783V17.3123C13.9892 18.6267 12.9201 19.696 11.6061 19.696V17.6548C11.6061 15.1449 9.89587 12.9699 7.49231 12.3566V3.62711L8.66539 2.77726C9.49405 2.17689 10.4729 1.85958 11.4963 1.85958H15.9414C15.9441 1.85958 15.9467 1.85908 15.9494 1.85908C15.9523 1.85908 15.9548 1.85958 15.9577 1.85958H19.0917C19.685 1.85958 20.1678 2.34243 20.1678 2.93591C20.1678 3.5294 19.685 4.01207 19.0917 4.01207H14.4509C14.2137 4.01207 14.0212 4.20464 14.0212 4.44187C14.0212 4.67926 14.2137 4.87166 14.4509 4.87166H19.8277C20.421 4.87166 20.9038 5.3545 20.9038 5.94799C20.9038 6.54147 20.421 7.02415 19.8277 7.02415H14.3868C14.1494 7.02415 13.9571 7.21671 13.9571 7.45394C13.9571 7.69133 14.1494 7.88373 14.3868 7.88373H21.0646C21.6579 7.88373 22.1406 8.36658 22.1406 8.96006C22.1406 9.55354 21.6579 10.0364 21.0646 10.0364Z" fill="black"/>
<path d="M5.88976 4.66668C5.88976 3.99276 5.34146 3.44446 4.66753 3.44446C3.99361 3.44446 3.44531 3.99276 3.44531 4.66668C3.44531 5.3406 3.99361 5.8889 4.66753 5.8889C5.34146 5.8889 5.88976 5.3406 5.88976 4.66668ZM4.2092 4.66668C4.2092 4.41394 4.41479 4.20835 4.66753 4.20835C4.92027 4.20835 5.12587 4.41394 5.12587 4.66668C5.12587 4.91942 4.92027 5.12501 4.66753 5.12501C4.41479 5.12501 4.2092 4.91942 4.2092 4.66668Z" fill="black"/>
<path d="M1.61111 8.33333C1.77177 8.33333 1.92956 8.26792 2.04319 8.1543C2.15681 8.04067 2.22222 7.88288 2.22222 7.72222C2.22222 7.56157 2.15681 7.40378 2.04319 7.29015C1.92956 7.17652 1.77177 7.11111 1.61111 7.11111C1.45046 7.11111 1.29266 7.17652 1.17904 7.29015C1.06541 7.40378 1 7.56157 1 7.72222C1 7.88288 1.06541 8.04067 1.17904 8.1543C1.29266 8.26792 1.45046 8.33333 1.61111 8.33333Z" fill="black"/>
</svg>
