<svg width="24" height="24" viewBox="0 0 24 24" fill="none" xmlns="http://www.w3.org/2000/svg">
<g clip-path="url(#clip0_1444_98101)">
<path d="M15.88 0.90747C15.88 0.682465 16.1829 0.5 16.5564 0.5C16.9299 0.5 17.2328 0.682465 17.2328 0.90747V2.78183C17.2328 3.00683 16.9299 3.1893 16.5564 3.1893C16.1829 3.1893 15.88 3.00683 15.88 2.78183V0.90747Z" fill="black"/>
<path fill-rule="evenodd" clip-rule="evenodd" d="M21.4973 11.6482C22.6 11.6482 23.4971 12.4803 23.4971 13.5029C23.4971 14.3189 22.9311 15.0033 22.1587 15.2539C22.3724 15.5489 22.4972 15.9036 22.4972 16.285C22.4972 17.101 21.9315 17.7838 21.1626 18.0348C21.3755 18.3312 21.4973 18.6871 21.4973 19.067C21.4973 19.883 20.9313 20.5674 20.159 20.8179C20.3726 21.113 20.4975 21.4677 20.4975 21.849C20.4975 22.8717 19.6004 23.7037 18.4977 23.7037H13.1214C10.7829 23.7037 9.82137 23.4709 8.07584 23.048C7.85842 22.9954 7.6229 22.9383 7.36918 22.878C7.13511 23.364 6.60932 23.7037 5.9993 23.7037H0.999937C0.723872 23.7037 0.5 23.4961 0.5 23.24V12.1119C0.5 11.8559 0.723872 11.6482 0.999937 11.6482H5.9993C6.61342 11.6482 7.14226 11.9925 7.37393 12.4837C10.438 11.7772 14.4982 10.1295 14.4982 7.19699V6.73331C14.4982 5.71064 15.3953 4.87862 16.498 4.87862C17.5836 4.87862 18.4706 5.6869 18.4965 6.68876C18.5118 6.78868 18.5232 6.94739 18.5318 7.22184C18.5769 8.66001 18.343 10.2756 17.7652 11.6482H21.4973ZM21.4982 14.4302H18.9985C18.7225 14.4302 18.4986 14.6379 18.4986 14.8939C18.4986 15.15 18.7225 15.3576 18.9985 15.3576H20.4983C21.0497 15.3576 21.4982 15.7736 21.4982 16.2849C21.4982 16.7971 21.0506 17.2123 20.4983 17.2123H17.9987C17.7226 17.2123 17.4987 17.4199 17.4987 17.6759C17.4987 17.932 17.7226 18.1396 17.9987 18.1396H19.4985C20.0433 18.1396 20.4983 18.5432 20.4983 19.067C20.4983 19.5791 20.0507 19.9943 19.4985 19.9943H16.9988C16.7227 19.9943 16.4989 20.2019 16.4989 20.458C16.4989 20.714 16.7227 20.9217 16.9988 20.9217H18.4986C19.0499 20.9217 19.4985 21.3377 19.4985 21.849C19.4985 22.3603 19.0499 22.7763 18.4986 22.7763H13.1223C10.9122 22.7763 10.049 22.5673 8.32939 22.1508C8.07748 22.0897 7.80116 22.0228 7.5 21.9516V13.4113C11.1179 12.612 15.499 10.6611 15.499 7.19695V6.73328C15.499 6.22194 15.9475 5.80593 16.4989 5.80593C17.0492 5.80593 17.4977 6.22129 17.4987 6.73184V6.73328C17.4987 6.75155 17.501 6.78851 17.5042 6.84228C17.5367 7.38143 17.6713 9.61105 16.6825 11.6482H14.999C14.723 11.6482 14.4991 11.8558 14.4991 12.1119C14.4991 12.3679 14.723 12.5756 14.999 12.5756H21.4982C22.0496 12.5756 22.4981 12.9916 22.4981 13.5029C22.4981 14.0151 22.0505 14.4302 21.4982 14.4302ZM5.98771 22.7763C6.26337 22.7763 6.48765 22.5683 6.48765 22.3126V13.0392C6.48765 12.7835 6.26337 12.5755 5.98771 12.5755H5.91136V16.4427C5.91136 16.7397 5.60847 16.9805 5.23497 16.9805C4.86147 16.9805 4.55859 16.7397 4.55859 16.4427V12.5755H1.48828V22.7763H5.98771Z" fill="black"/>
<path d="M12.2234 5.8786H10.4197C10.1707 5.8786 9.96875 6.17967 9.96875 6.55093C9.96875 6.92218 10.1707 7.22325 10.4197 7.22325H12.2234C12.4724 7.22325 12.6743 6.92218 12.6743 6.55093C12.6743 6.17967 12.4724 5.8786 12.2234 5.8786Z" fill="black"/>
<path d="M21.2439 5.8786H23.0476C23.2966 5.8786 23.4985 6.17967 23.4985 6.55093C23.4985 6.92218 23.2966 7.22325 23.0476 7.22325H21.2439C20.9949 7.22325 20.793 6.92218 20.793 6.55093C20.793 6.17967 20.9949 5.8786 21.2439 5.8786Z" fill="black"/>
<path d="M21.9711 2.00777C21.7522 1.7903 21.3975 1.7903 21.1785 2.00777L19.5938 3.58302C19.375 3.80055 19.375 4.15326 19.5938 4.37084C19.8128 4.58837 20.1674 4.58831 20.3864 4.37084L21.9711 2.79559C22.1899 2.57806 22.1899 2.22535 21.9711 2.00777Z" fill="black"/>
<path d="M12.2772 2.00778L13.8619 3.58304C14.0807 3.80062 14.0807 4.15333 13.8619 4.37086C13.643 4.58833 13.2883 4.58838 13.0693 4.37086L11.4846 2.7956C11.2658 2.57802 11.2658 2.22531 11.4846 2.00778C11.7035 1.79031 12.0583 1.79031 12.2772 2.00778Z" fill="black"/>
</g>
<defs>
<clipPath id="clip0_1444_98101">
<rect width="24" height="24" fill="white"/>
</clipPath>
</defs>
</svg>
