<svg width="20" height="20" viewBox="0 0 20 20" fill="none" xmlns="http://www.w3.org/2000/svg">
<path d="M2 9.43182C2 9.43182 5.04582 5.06818 10 5.06818C10.6887 5.06818 11.3375 5.15618 11.9476 5.30236L7.35273 9.89727C7.1812 9.52298 7.09192 9.11626 7.09091 8.70455C7.09091 8.02309 7.33455 7.40491 7.72727 6.90891C5.98764 7.49945 4.66255 8.64345 3.90618 9.43182C4.5505 10.104 5.27895 10.6902 6.07345 11.1758L5.01673 12.2325C3.08873 10.9809 2 9.43182 2 9.43182ZM18 9.43182C18 9.43182 14.9542 13.7955 10 13.7955C9.312 13.7955 8.66473 13.7053 8.05382 13.5605L4.90909 16.7045L3.81818 15.6136L16.1818 3.25L17.2727 4.34091L14.984 6.62964C16.9098 7.882 18 9.43182 18 9.43182ZM16.0982 9.43618C15.4527 8.7621 14.7225 8.17465 13.9258 7.68855L12.9091 8.70455C12.9091 9.47608 12.6026 10.216 12.057 10.7616C11.5115 11.3071 10.7715 11.6136 10 11.6136L9.31127 12.3024C9.53673 12.3249 9.76509 12.3409 10 12.3409C12.8931 12.3409 15.0495 10.5387 16.0982 9.43618Z" fill="black"/>
</svg>
