<svg width="20" height="20" viewBox="0 0 20 20" fill="none" xmlns="http://www.w3.org/2000/svg">
<g clip-path="url(#clip0_421_57870)">
<path d="M7.29458 14.1299V13.2426H8.75923C9.26433 13.2426 9.62489 13.1371 9.84172 12.9253C10.0644 12.7142 10.1757 12.4559 10.1757 12.1526C10.1757 12.1136 10.1744 12.0755 10.1719 12.0382H6.81437V11.4691H10.0004C9.94847 11.3852 9.88505 11.309 9.81015 11.2404C9.57089 11.0128 9.19621 10.9015 8.68612 10.9073H6.81439V10.3374H11.9984V10.9073H10.7256C10.8456 11.0145 10.9417 11.1362 11.0139 11.2728C11.0484 11.3369 11.0789 11.4023 11.1055 11.4691H11.9984V12.0382H11.2355C11.2395 12.0917 11.2416 12.1459 11.2416 12.2008C11.2416 12.6029 11.1444 12.9502 10.9491 13.2426C10.7539 13.5309 10.4764 13.7502 10.1184 13.9022C10.0736 13.9213 10.0277 13.9391 9.98056 13.9558L11.3472 16.0349H10.2065L8.96006 14.128C8.91559 14.1293 8.87052 14.1299 8.82486 14.1299H7.29458Z" fill="black"/>
<path fill-rule="evenodd" clip-rule="evenodd" d="M3.51921 14.6424C3.52049 14.6895 3.53066 14.7372 3.55064 14.7832C5.30315 18.8111 8.5603 19.788 10.9146 19.4925C12.0899 19.3445 13.3078 18.8484 14.3172 17.8162C15.3259 16.7847 16.1019 15.2432 16.4401 13.0455C16.4517 12.97 16.4402 12.8963 16.4109 12.8316C16.4133 12.8173 16.4156 12.8029 16.4177 12.7886C16.5423 11.9429 16.4044 11.1329 16.1452 10.3278C15.5997 8.63052 14.4263 7.47859 13.258 6.33169C13.1969 6.27166 13.1357 6.21163 13.0747 6.15155C12.7366 5.81841 12.4807 5.50521 12.6178 5.03333C12.8173 4.33347 13.1083 3.6803 13.3991 3.02749C13.5333 2.72637 13.6674 2.42533 13.7925 2.11982C13.8192 2.05467 13.8498 1.99005 13.8802 1.92599C14.0061 1.66087 14.1274 1.40533 13.942 1.16111C13.6986 0.839599 13.3497 0.904399 13.0406 1.05975C12.2929 1.4336 11.5428 1.33806 10.7776 1.15114C10.6551 1.12094 10.533 1.08791 10.411 1.05488C9.87491 0.909827 9.33894 0.764801 8.76714 0.859537C7.19948 1.11292 6.56311 2.45129 7.31745 3.9417C7.35294 4.01165 7.38771 4.08216 7.4225 4.1527C7.52775 4.36613 7.63308 4.57972 7.75859 4.77828C8.04105 5.22026 7.98622 5.47946 7.51351 5.73949C4.61744 7.3354 3.82655 10.3802 3.36464 13.3161C3.32046 13.8551 3.33022 13.9114 3.35024 14.0269C3.3547 14.0526 3.35965 14.0812 3.36464 14.1186C3.38275 14.2524 3.43544 14.4486 3.51921 14.6424ZM4.34981 14.7124C5.97471 18.2055 8.81023 18.9928 10.8203 18.7405C11.849 18.611 12.9012 18.1803 13.7754 17.2864C14.6502 16.3917 15.3713 15.0077 15.6911 12.9302C15.6926 12.9202 15.6945 12.9103 15.6968 12.9006C15.6992 12.8733 15.7019 12.8456 15.7046 12.8179C15.7095 12.7686 15.7143 12.7191 15.7174 12.6706C15.8561 10.5281 14.8301 9.00857 13.4652 7.66688C13.34 7.54384 13.2107 7.42488 13.0815 7.30597C12.8023 7.04911 12.5234 6.79249 12.2871 6.49549C11.8053 5.8965 11.0592 5.89733 10.4137 6.14075C10.4009 6.14562 10.3879 6.15058 10.3749 6.15557C10.0474 6.28083 9.65631 6.43037 9.5165 5.92226C9.39683 5.48301 9.71536 5.34845 10.0104 5.22381C10.0575 5.20394 10.1039 5.18432 10.1479 5.16376C10.1588 5.15859 10.1699 5.15314 10.1812 5.14761C10.2532 5.11234 10.3316 5.07395 10.4013 5.08401C11.7195 5.27507 12.0561 4.34114 12.3929 3.40682C12.4647 3.20765 12.5365 3.00847 12.6178 2.82016C12.7931 2.41723 12.828 2.09739 12.4475 2.1356C11.6051 2.22366 10.6231 2.01265 9.81724 1.80745C9.46665 1.71606 8.85687 1.69695 8.5013 1.80745C7.70542 2.05585 7.44206 2.67228 7.84416 3.45071C8.11914 3.98241 8.48468 4.62044 8.83028 5.09564C9.24982 5.67386 9.13684 5.86576 8.57191 6.0909C5.97077 7.12355 4.90821 9.28522 4.29676 12.0101C4.2887 12.0463 4.28018 12.0839 4.27134 12.123C4.13266 12.7356 3.9177 13.6853 4.22698 14.3031C4.22698 14.3995 4.28491 14.5526 4.34981 14.7124Z" fill="black"/>
</g>
<defs>
<clipPath id="clip0_421_57870">
<rect width="20" height="20" fill="white"/>
</clipPath>
</defs>
</svg>
