<svg width="138" height="24" viewBox="0 0 138 24" fill="none" xmlns="http://www.w3.org/2000/svg">
<path d="M51.7875 0.211426L50.8927 7.32944L49.4011 6.0548L38.8016 19.0607L27.8867 6.61928V1.12573L38.8016 13.0398L46.4348 3.51983L44.6694 2.01124L51.7875 0.211426Z" fill="#72BE43"/>
<path d="M81.2773 22.9051H86.1301V16.9191L87.6346 16.5478L90.8049 22.9051H95.8202L91.7925 14.2026L95.2697 6.6965H90.239L87.5857 12.6336L86.1301 12.9404V0.0812988L81.2773 0.340441V22.9051Z" fill="#3B5A9A"/>
<path d="M69.2802 6.6965V22.9051H74.1329V13.4574C74.2941 12.7251 74.57 12.132 74.9568 11.6782C75.3461 11.2257 75.7935 10.8892 76.3002 10.6687C76.8069 10.447 77.3484 10.3361 77.9259 10.3361C78.5022 10.3361 79.0721 10.4276 79.6316 10.6107L80.3446 7.13356C80.2685 7.09102 80.1448 7.033 79.972 6.96338C79.7992 6.89376 79.5839 6.82414 79.3261 6.75323C79.0657 6.68232 78.7665 6.6243 78.4275 6.57531C78.0871 6.52761 77.7132 6.50311 77.3032 6.50311C76.8816 6.50311 76.451 6.57531 76.0088 6.721C75.5666 6.86668 75.1566 7.0691 74.7801 7.32824C74.4024 7.58738 74.0672 7.89681 73.7771 8.2578C73.4857 8.61879 73.2756 9.02104 73.1466 9.46326L72.823 6.6965H69.2802Z" fill="#3B5A9A"/>
<path fill-rule="evenodd" clip-rule="evenodd" d="M105.591 19.5079C106.367 19.5079 107.143 19.4434 107.92 19.3132C108.697 19.1843 109.456 19.0167 110.201 18.8117L110.767 21.9987C109.957 22.4087 109.016 22.7375 107.944 22.9863C106.871 23.2339 105.645 23.3576 104.264 23.3576C101.783 23.3576 99.9012 22.6627 98.6184 21.2716C97.3355 19.8792 96.6935 17.7339 96.6935 14.833C96.6935 13.3452 96.8559 12.0624 97.1795 10.9833C97.5031 9.90546 97.9802 9.01329 98.6106 8.30678C99.2411 7.60026 100.029 7.0794 100.973 6.74548C101.915 6.41156 103.002 6.24396 104.232 6.24396C105.428 6.24396 106.458 6.42445 107.321 6.78674C108.183 7.14644 108.892 7.65699 109.448 8.31451C110.004 8.97204 110.416 9.76235 110.686 10.6842C110.955 11.606 111.091 12.6219 111.091 13.7333C111.091 13.9911 111.074 14.258 111.042 14.5339C111.009 14.8098 110.968 15.0677 110.921 15.3101C110.872 15.5524 110.824 15.7716 110.775 15.965C110.726 16.1597 110.681 16.3157 110.637 16.4343H101.756C101.789 16.9629 101.884 17.4193 102.04 17.8022C102.196 18.1838 102.428 18.5023 102.735 18.7562C103.043 19.0089 103.431 19.1985 103.9 19.3222C104.37 19.446 104.932 19.5079 105.591 19.5079ZM106.48 13.1828C106.48 12.1372 106.292 11.3778 105.914 10.9021C105.536 10.4276 104.959 10.1904 104.183 10.1904C103.374 10.1904 102.759 10.4366 102.339 10.9266C101.919 11.4178 101.697 12.1694 101.675 13.1828H106.48Z" fill="#3B5A9A"/>
<path d="M119.192 10.3852H122.184V6.69659H119.192V2.55548L115.083 2.91261L114.339 6.69659H112.755V10.3852H114.339V17.8577C114.339 18.7538 114.42 19.5428 114.583 20.2274C114.744 20.9133 115.006 21.487 115.367 21.9511C115.728 22.4153 116.207 22.7647 116.807 23.0019C117.405 23.2391 118.141 23.3577 119.014 23.3577C119.683 23.3577 120.324 23.2817 120.939 23.1321C121.554 22.9813 122.157 22.7866 122.75 22.5494L122.152 19.3133C121.937 19.401 121.71 19.4706 121.473 19.5248C121.235 19.5776 120.918 19.6047 120.519 19.6047C120.237 19.6047 120.011 19.5428 119.839 19.419C119.666 19.2953 119.532 19.1302 119.434 18.9252C119.338 18.7215 119.273 18.483 119.241 18.2136C119.209 17.9441 119.192 17.6592 119.192 17.3575V10.3852Z" fill="#3B5A9A"/>
<path d="M131.796 9.99669C131.117 9.99669 130.61 10.0973 130.276 10.2958C129.942 10.4956 129.774 10.8218 129.774 11.2744C129.774 11.4793 129.814 11.6547 129.896 11.8004C129.976 11.9461 130.114 12.075 130.308 12.1884C130.503 12.3019 130.756 12.4102 131.069 12.512C131.381 12.6139 131.769 12.7248 132.233 12.8434C132.999 13.0484 133.703 13.2701 134.344 13.5074C134.986 13.7446 135.535 14.0514 135.994 14.4292C136.452 14.8056 136.81 15.2775 137.069 15.8435C137.328 16.4108 137.457 17.1302 137.457 18.003C137.457 18.9094 137.299 19.6997 136.98 20.3727C136.662 21.0483 136.217 21.6052 135.646 22.0474C135.073 22.4896 134.395 22.8184 133.607 23.0337C132.82 23.249 131.957 23.3573 131.02 23.3573C130.319 23.3573 129.656 23.3225 129.029 23.2529C128.405 23.182 127.825 23.0943 127.291 22.986C126.758 22.8777 126.272 22.7591 125.834 22.6302C125.399 22.5 125.018 22.3775 124.695 22.2576L125.406 18.8449C126.215 19.0705 126.99 19.2549 127.728 19.3954C128.466 19.5347 129.127 19.6043 129.709 19.6043C130.561 19.6043 131.24 19.4805 131.747 19.233C132.254 18.9854 132.508 18.6077 132.508 18.101C132.508 17.8315 132.448 17.6188 132.33 17.4615C132.211 17.3055 132.025 17.174 131.772 17.0644C131.519 16.9574 131.195 16.8581 130.802 16.7653C130.407 16.6738 129.942 16.5526 129.403 16.4018C128.636 16.1864 127.971 15.9312 127.405 15.6346C126.839 15.3381 126.363 14.9849 125.981 14.5749C125.599 14.1649 125.312 13.693 125.124 13.1593C124.935 12.6255 124.84 12.0092 124.84 11.3066C124.84 10.368 125.016 9.5764 125.366 8.92919C125.717 8.28198 126.181 7.7624 126.758 7.36789C127.334 6.97466 127.995 6.68845 128.739 6.51053C129.483 6.33261 130.242 6.24365 131.02 6.24365C132.292 6.24365 133.386 6.34164 134.304 6.53503C135.22 6.72842 136.056 6.99916 136.81 7.34339L136.164 10.8218C135.332 10.5085 134.551 10.2932 133.818 10.1746C133.085 10.056 132.411 9.99669 131.796 9.99669Z" fill="#3B5A9A"/>
<path fill-rule="evenodd" clip-rule="evenodd" d="M66.2433 23.0302H62.3639V23.0431L62.0532 21.5205C61.834 21.7268 61.6148 21.9305 61.3918 22.12C61.1055 22.3637 60.7845 22.5764 60.43 22.7595C60.0728 22.9425 59.6654 23.0882 59.2078 23.1965C58.7501 23.3035 58.2073 23.3577 57.582 23.3577C55.8247 23.3577 54.4762 22.9206 53.5389 22.0478C52.6003 21.1737 52.131 19.8586 52.131 18.1001C52.131 16.4292 52.7021 15.1786 53.8457 14.3483C54.9893 13.518 56.7362 13.0591 59.0866 12.9727L61.3995 12.8438V12.0354C61.3995 11.8188 61.3698 11.6009 61.3105 11.3792C61.2512 11.1587 61.1404 10.9589 60.9792 10.7822C60.8167 10.603 60.5963 10.4612 60.3165 10.3529C60.0355 10.2446 59.6745 10.1905 59.2322 10.1905C58.38 10.1905 57.5201 10.2446 56.6524 10.3529C55.7848 10.4612 54.93 10.6713 54.0881 10.9833L53.2475 7.73183C54.315 7.20452 55.3683 6.82419 56.4101 6.59212C57.4505 6.36005 58.5528 6.24402 59.717 6.24402C60.7639 6.24402 61.6934 6.33298 62.5083 6.5109C63.3218 6.68881 64.0064 6.98534 64.5621 7.40049C65.1177 7.81563 65.538 8.3597 65.8242 9.03398C66.086 9.65283 66.2226 10.4109 66.2433 11.2966V23.0302ZM60.9142 19.3945C61.1076 19.2656 61.2701 19.1367 61.399 19.0065V15.8039L59.603 15.9329C58.7186 15.9973 58.0624 16.2088 57.6305 16.5646C57.1986 16.9192 56.9833 17.3897 56.9833 17.9712C56.9833 19.3739 57.6356 20.074 58.9404 20.074C59.1454 20.074 59.3632 20.0417 59.5953 19.9773C59.8274 19.9128 60.0569 19.8316 60.2838 19.7336C60.5094 19.6382 60.7195 19.5248 60.9142 19.3945Z" fill="#3B5A9A"/>
<path d="M27.8867 7.93378L32.7846 13.5137V23.3572H27.8867V7.93378Z" fill="#3B5A9A"/>
<path d="M44.8057 13.3389L49.7036 7.51013V23.3577H44.8057V13.3389Z" fill="#3B5A9A"/>
<path fill-rule="evenodd" clip-rule="evenodd" d="M0 22.9781H22.2789V0.699219H0V22.9781Z" fill="#E81F3D"/>
<path fill-rule="evenodd" clip-rule="evenodd" d="M5.62921 11.6491H7.80364C8.42903 11.6491 8.94066 11.177 8.94066 10.5281V9.8432C8.94117 9.82959 8.94169 9.81623 8.9422 9.80235C9.06059 9.80235 9.17794 9.80262 9.29633 9.80262V14.0022C9.17717 14.0022 9.0611 14.003 8.9422 14.003C8.94349 13.9301 8.94272 13.8596 8.94066 13.7917V13.2745C8.94066 12.6256 8.42903 12.1786 7.80364 12.1786H7.21712H6.4525H5.46296V14.5784H5.46785V16.434C5.47093 16.6965 5.50362 16.7373 5.53425 16.8156C5.62329 17.0028 6.20647 17.1016 6.39305 17.1112C7.23797 17.155 8.10372 17.1982 8.93345 16.9902C9.19596 16.9242 9.45229 16.8329 9.69807 16.708C10.4681 16.3168 11.0278 15.827 11.1231 14.7888H11.3097V17.559H2.41016V17.3769C2.69505 17.3769 3.58989 17.4129 3.78523 17.0158C3.821 16.9429 3.83876 16.7499 3.83876 16.4361V7.82688C3.83876 7.5019 3.81843 7.3003 3.77751 7.22179C3.75718 7.1772 3.69052 7.13234 3.57805 7.08748C3.2597 6.96064 2.75785 6.88587 2.41016 6.88587V6.72058H19.872V9.70088V9.75268H19.6571C19.6551 9.73586 19.6527 9.71877 19.6504 9.70195C19.5228 8.79752 19.4409 8.17668 18.8238 7.68482C18.3124 7.27707 17.3316 7.13955 16.5683 7.13955C16.3639 7.13955 16.2515 7.15076 16.2309 7.17319C16.1902 7.20684 16.1578 7.22553 16.1578 7.48295V16.4361C16.1578 16.7608 16.1784 16.968 16.219 17.0578C16.2396 17.1026 16.3112 17.1502 16.4337 17.2006C16.7819 17.3435 17.441 17.3769 17.8198 17.3769V17.559H12.8597V17.3769C13.2342 17.3769 13.8843 17.3416 14.2279 17.2006C14.3506 17.1502 14.4299 17.0885 14.4657 17.0158C14.5014 16.9429 14.5192 16.7499 14.5192 16.4361V7.49977C14.5192 7.20871 14.5004 7.1788 14.4391 7.15637C14.4085 7.14516 14.3009 7.13955 14.1169 7.13955C13.4452 7.13955 12.5231 7.28027 12.0449 7.6736C11.4911 8.12889 11.3094 8.99913 11.2111 9.70408H10.9964C10.936 9.27524 10.9005 8.91208 10.8508 8.60446C10.6747 7.51846 10.0159 7.38895 9.01092 7.23301C8.37936 7.13528 7.65515 7.13341 6.94818 7.13768C6.49857 7.14062 6.05308 7.17453 5.71311 7.2987C5.61737 7.33341 5.55715 7.4023 5.52138 7.47493C5.4856 7.54783 5.46785 7.62901 5.46785 7.95345V9.22423H5.46296V11.6491" fill="#FEFEFE"/>
</svg>
