<svg width="138" height="24" viewBox="0 0 138 24" fill="none" xmlns="http://www.w3.org/2000/svg">
<g clip-path="url(#clip0_799_17691)">
<path d="M51.7859 0.211426L50.8912 7.32944L49.3996 6.0548L38.8001 19.0607L27.8852 6.61928V1.12573L38.8001 13.0398L46.4332 3.51983L44.6679 2.01124L51.7859 0.211426Z" fill="#72BE43"/>
<path d="M81.2758 22.9051H86.1286V16.9191L87.6332 16.5478L90.8035 22.9051H95.8187L91.7911 14.2026L95.2682 6.6965H90.2375L87.5842 12.6336L86.1286 12.9404V0.0812988L81.2758 0.340441V22.9051Z" fill="#3B5A9A"/>
<path d="M69.2787 6.6965V22.9051H74.1315V13.4574C74.2926 12.7251 74.5685 12.132 74.9553 11.6782C75.3447 11.2257 75.792 10.8892 76.2987 10.6687C76.8054 10.447 77.3469 10.3361 77.9245 10.3361C78.5008 10.3361 79.0706 10.4276 79.6302 10.6107L80.3431 7.13356C80.2671 7.09102 80.1433 7.033 79.9705 6.96338C79.7978 6.89376 79.5825 6.82414 79.3246 6.75323C79.0642 6.68232 78.7651 6.6243 78.426 6.57531C78.0856 6.52761 77.7118 6.50311 77.3018 6.50311C76.8802 6.50311 76.4496 6.57531 76.0073 6.721C75.5651 6.86668 75.1551 7.0691 74.7787 7.32824C74.4009 7.58738 74.0657 7.89681 73.7756 8.2578C73.4843 8.61879 73.2741 9.02104 73.1452 9.46326L72.8216 6.6965H69.2787Z" fill="#3B5A9A"/>
<path fill-rule="evenodd" clip-rule="evenodd" d="M105.589 19.5079C106.365 19.5079 107.141 19.4434 107.919 19.3132C108.695 19.1843 109.454 19.0167 110.2 18.8117L110.766 21.9987C109.956 22.4087 109.015 22.7375 107.942 22.9863C106.869 23.2339 105.643 23.3576 104.263 23.3576C101.782 23.3576 99.8997 22.6627 98.6169 21.2716C97.3341 19.8792 96.692 17.7339 96.692 14.833C96.692 13.3452 96.8545 12.0624 97.1781 10.9833C97.5017 9.90546 97.9787 9.01329 98.6092 8.30678C99.2396 7.60026 100.027 7.0794 100.971 6.74548C101.914 6.41156 103 6.24396 104.23 6.24396C105.427 6.24396 106.457 6.42445 107.319 6.78674C108.182 7.14644 108.891 7.65699 109.447 8.31451C110.002 8.97204 110.415 9.76235 110.684 10.6842C110.954 11.606 111.089 12.6219 111.089 13.7333C111.089 13.9911 111.072 14.258 111.04 14.5339C111.008 14.8098 110.967 15.0677 110.919 15.3101C110.87 15.5524 110.822 15.7716 110.773 15.965C110.724 16.1597 110.679 16.3157 110.635 16.4343H101.755C101.787 16.9629 101.883 17.4193 102.039 17.8022C102.195 18.1838 102.427 18.5023 102.734 18.7562C103.042 19.0089 103.43 19.1985 103.899 19.3222C104.368 19.446 104.93 19.5079 105.589 19.5079ZM106.479 13.1828C106.479 12.1372 106.29 11.3778 105.913 10.9021C105.535 10.4276 104.957 10.1904 104.181 10.1904C103.373 10.1904 102.758 10.4366 102.338 10.9266C101.917 11.4178 101.695 12.1694 101.674 13.1828H106.479Z" fill="#3B5A9A"/>
<path d="M119.19 10.3852H122.183V6.69659H119.19V2.55548L115.082 2.91261L114.338 6.69659H112.753V10.3852H114.338V17.8577C114.338 18.7538 114.419 19.5428 114.581 20.2274C114.742 20.9133 115.004 21.487 115.365 21.9511C115.726 22.4153 116.206 22.7647 116.805 23.0019C117.403 23.2391 118.14 23.3577 119.012 23.3577C119.682 23.3577 120.322 23.2817 120.937 23.1321C121.552 22.9813 122.156 22.7866 122.749 22.5494L122.151 19.3133C121.935 19.401 121.708 19.4706 121.471 19.5248C121.234 19.5776 120.917 19.6047 120.517 19.6047C120.236 19.6047 120.009 19.5428 119.838 19.419C119.665 19.2953 119.531 19.1302 119.433 18.9252C119.336 18.7215 119.272 18.483 119.239 18.2136C119.207 17.9441 119.19 17.6592 119.19 17.3575V10.3852Z" fill="#3B5A9A"/>
<path d="M131.795 9.99669C131.115 9.99669 130.608 10.0973 130.275 10.2958C129.941 10.4956 129.773 10.8218 129.773 11.2744C129.773 11.4793 129.813 11.6547 129.894 11.8004C129.974 11.9461 130.112 12.075 130.307 12.1884C130.501 12.3019 130.754 12.4102 131.067 12.512C131.379 12.6139 131.767 12.7248 132.232 12.8434C132.997 13.0484 133.701 13.2701 134.342 13.5074C134.984 13.7446 135.533 14.0514 135.992 14.4292C136.45 14.8056 136.808 15.2775 137.068 15.8435C137.327 16.4108 137.456 17.1302 137.456 18.003C137.456 18.9094 137.297 19.6997 136.979 20.3727C136.66 21.0483 136.215 21.6052 135.644 22.0474C135.072 22.4896 134.394 22.8184 133.606 23.0337C132.818 23.249 131.956 23.3573 131.018 23.3573C130.317 23.3573 129.654 23.3225 129.028 23.2529C128.404 23.182 127.824 23.0943 127.29 22.986C126.756 22.8777 126.27 22.7591 125.833 22.6302C125.397 22.5 125.017 22.3775 124.693 22.2576L125.405 18.8449C126.213 19.0705 126.988 19.2549 127.727 19.3954C128.464 19.5347 129.126 19.6043 129.707 19.6043C130.559 19.6043 131.239 19.4805 131.746 19.233C132.252 18.9854 132.506 18.6077 132.506 18.101C132.506 17.8315 132.447 17.6188 132.328 17.4615C132.21 17.3055 132.024 17.174 131.77 17.0644C131.517 16.9574 131.194 16.8581 130.801 16.7653C130.406 16.6738 129.941 16.5526 129.402 16.4018C128.635 16.1864 127.969 15.9312 127.403 15.6346C126.837 15.3381 126.362 14.9849 125.98 14.5749C125.597 14.1649 125.311 13.693 125.123 13.1593C124.933 12.6255 124.839 12.0092 124.839 11.3066C124.839 10.368 125.014 9.5764 125.365 8.92919C125.716 8.28198 126.18 7.7624 126.756 7.36789C127.332 6.97466 127.994 6.68845 128.738 6.51053C129.482 6.33261 130.241 6.24365 131.018 6.24365C132.291 6.24365 133.384 6.34164 134.302 6.53503C135.219 6.72842 136.054 6.99916 136.808 7.34339L136.163 10.8218C135.331 10.5085 134.55 10.2932 133.816 10.1746C133.084 10.056 132.41 9.99669 131.795 9.99669Z" fill="#3B5A9A"/>
<path fill-rule="evenodd" clip-rule="evenodd" d="M66.2418 23.0302H62.3624V23.0431L62.0517 21.5205C61.8325 21.7268 61.6133 21.9305 61.3903 22.12C61.1041 22.3637 60.7831 22.5764 60.4285 22.7595C60.0714 22.9425 59.664 23.0882 59.2063 23.1965C58.7486 23.3035 58.2058 23.3577 57.5805 23.3577C55.8233 23.3577 54.4747 22.9206 53.5374 22.0478C52.5988 21.1737 52.1295 19.8586 52.1295 18.1001C52.1295 16.4292 52.7007 15.1786 53.8442 14.3483C54.9878 13.518 56.7348 13.0591 59.0851 12.9727L61.398 12.8438V12.0354C61.398 11.8188 61.3684 11.6009 61.3091 11.3792C61.2498 11.1587 61.1389 10.9589 60.9777 10.7822C60.8153 10.603 60.5948 10.4612 60.3151 10.3529C60.034 10.2446 59.673 10.1905 59.2308 10.1905C58.3786 10.1905 57.5186 10.2446 56.651 10.3529C55.7833 10.4612 54.9285 10.6713 54.0866 10.9833L53.246 7.73183C54.3135 7.20452 55.3669 6.82419 56.4086 6.59212C57.449 6.36005 58.5513 6.24402 59.7155 6.24402C60.7624 6.24402 61.692 6.33298 62.5068 6.5109C63.3203 6.68881 64.0049 6.98534 64.5606 7.40049C65.1163 7.81563 65.5366 8.3597 65.8228 9.03398C66.0845 9.65283 66.2212 10.4109 66.2418 11.2966V23.0302ZM60.9128 19.3945C61.1061 19.2656 61.2686 19.1367 61.3975 19.0065V15.8039L59.6016 15.9329C58.7171 15.9973 58.0609 16.2088 57.629 16.5646C57.1971 16.9192 56.9818 17.3897 56.9818 17.9712C56.9818 19.3739 57.6342 20.074 58.9389 20.074C59.1439 20.074 59.3618 20.0417 59.5938 19.9773C59.8259 19.9128 60.0554 19.8316 60.2823 19.7336C60.5079 19.6382 60.7181 19.5248 60.9128 19.3945Z" fill="#3B5A9A"/>
<path d="M27.8853 7.93378L32.7832 13.5137V23.3572H27.8853V7.93378Z" fill="#3B5A9A"/>
<path d="M44.8042 13.3389L49.7021 7.51013V23.3577H44.8042V13.3389Z" fill="#3B5A9A"/>
<path fill-rule="evenodd" clip-rule="evenodd" d="M0 22.9781H22.2789V0.699219H0V22.9781Z" fill="#E81F3D"/>
<path fill-rule="evenodd" clip-rule="evenodd" d="M5.62799 11.6491H7.80242C8.42781 11.6491 8.93944 11.177 8.93944 10.5281V9.8432C8.93995 9.82959 8.94047 9.81623 8.94098 9.80235C9.05937 9.80235 9.17672 9.80262 9.29511 9.80262V14.0022C9.17595 14.0022 9.05988 14.003 8.94098 14.003C8.94227 13.9301 8.9415 13.8596 8.93944 13.7917V13.2745C8.93944 12.6256 8.42781 12.1786 7.80242 12.1786H7.2159H6.45128H5.46174V14.5784H5.46663V16.434C5.46971 16.6965 5.5024 16.7373 5.53302 16.8156C5.62207 17.0028 6.20525 17.1016 6.39183 17.1112C7.23675 17.155 8.1025 17.1982 8.93223 16.9902C9.19474 16.9242 9.45107 16.8329 9.69685 16.708C10.4669 16.3168 11.0266 15.827 11.1218 14.7888H11.3084V17.559H2.40894V17.3769C2.69383 17.3769 3.58867 17.4129 3.78401 17.0158C3.81978 16.9429 3.83754 16.7499 3.83754 16.4361V7.82688C3.83754 7.5019 3.81721 7.3003 3.77629 7.22179C3.75596 7.1772 3.6893 7.13234 3.57683 7.08748C3.25848 6.96064 2.75663 6.88587 2.40894 6.88587V6.72058H19.8708V9.70088V9.75268H19.6559C19.6538 9.73586 19.6515 9.71877 19.6492 9.70195C19.5216 8.79752 19.4397 8.17668 18.8226 7.68482C18.3112 7.27707 17.3304 7.13955 16.5671 7.13955C16.3627 7.13955 16.2503 7.15076 16.2297 7.17319C16.189 7.20684 16.1566 7.22553 16.1566 7.48295V16.4361C16.1566 16.7608 16.1772 16.968 16.2178 17.0578C16.2384 17.1026 16.31 17.1502 16.4325 17.2006C16.7807 17.3435 17.4398 17.3769 17.8186 17.3769V17.559H12.8585V17.3769C13.233 17.3769 13.8831 17.3416 14.2266 17.2006C14.3494 17.1502 14.4287 17.0885 14.4644 17.0158C14.5002 16.9429 14.518 16.7499 14.518 16.4361V7.49977C14.518 7.20871 14.4992 7.1788 14.4379 7.15637C14.4073 7.14516 14.2997 7.13955 14.1157 7.13955C13.444 7.13955 12.5219 7.28027 12.0437 7.6736C11.4899 8.12889 11.3082 8.99913 11.2099 9.70408H10.9952C10.9347 9.27524 10.8992 8.91208 10.8496 8.60446C10.6735 7.51846 10.0147 7.38895 9.0097 7.23301C8.37814 7.13528 7.65392 7.13341 6.94696 7.13768C6.49735 7.14062 6.05186 7.17453 5.71189 7.2987C5.61615 7.33341 5.55593 7.4023 5.52016 7.47493C5.48438 7.54783 5.46663 7.62901 5.46663 7.95345V9.22423H5.46174V11.6491" fill="#FEFEFE"/>
</g>
<defs>
<clipPath id="clip0_799_17691">
<rect width="138" height="24" fill="white"/>
</clipPath>
</defs>
</svg>
