<svg width="104" height="29" viewBox="0 0 104 29" fill="none" xmlns="http://www.w3.org/2000/svg">
<mask id="mask0_11112_105829" style="mask-type:luminance" maskUnits="userSpaceOnUse" x="0" y="0" width="26" height="29">
<path d="M19.0358 10.4808L12.9836 6.9867C12.9836 6.9867 1.95781 0.620144 1.30961 0.245934C0.661439 -0.128276 0.015625 0.0984546 0.015625 0.880464V28.3429C0.015625 28.9292 0.477199 29.1819 1.04035 28.857C1.60324 28.5316 12.9836 21.9609 12.9836 21.9609L19.0355 18.467C19.0355 18.467 24.1705 15.5025 24.8531 15.1086C25.5356 14.7142 25.47 14.1736 24.894 13.8634C24.3183 13.5529 19.0358 10.4808 19.0358 10.4808V10.4808Z" fill="white"/>
</mask>
<g mask="url(#mask0_11112_105829)">
<path d="M0.015625 -0.392639V29.3402L15.0087 14.4739L0.015625 -0.392639Z" fill="url(#paint0_linear_11112_105829)"/>
</g>
<mask id="mask1_11112_105829" style="mask-type:luminance" maskUnits="userSpaceOnUse" x="0" y="0" width="26" height="29">
<path d="M19.0358 10.4808L12.9836 6.9867C12.9836 6.9867 1.95781 0.620144 1.30961 0.245934C0.661439 -0.128276 0.015625 0.0984546 0.015625 0.880464V28.3429C0.015625 28.9292 0.477199 29.1819 1.04035 28.857C1.60324 28.5316 12.9836 21.9609 12.9836 21.9609L19.0355 18.467C19.0355 18.467 24.1705 15.5025 24.8531 15.1086C25.5356 14.7142 25.47 14.1736 24.894 13.8634C24.3183 13.5529 19.0358 10.4808 19.0358 10.4808V10.4808Z" fill="white"/>
</mask>
<g mask="url(#mask1_11112_105829)">
<path d="M19.0355 10.4807L12.9833 6.98661L0.015625 -0.500732V-0.392616L15.0087 14.474L19.0355 10.4807Z" fill="url(#paint1_linear_11112_105829)"/>
</g>
<mask id="mask2_11112_105829" style="mask-type:luminance" maskUnits="userSpaceOnUse" x="0" y="0" width="26" height="29">
<path d="M19.0358 10.4808L12.9836 6.9867C12.9836 6.9867 1.95781 0.620144 1.30961 0.245934C0.661439 -0.128276 0.015625 0.0984546 0.015625 0.880464V28.3429C0.015625 28.9292 0.477199 29.1819 1.04035 28.857C1.60324 28.5316 12.9836 21.9609 12.9836 21.9609L19.0355 18.467C19.0355 18.467 24.1705 15.5025 24.8531 15.1086C25.5356 14.7142 25.47 14.1736 24.894 13.8634C24.3183 13.5529 19.0358 10.4808 19.0358 10.4808V10.4808Z" fill="white"/>
</mask>
<g mask="url(#mask2_11112_105829)">
<path d="M0.015625 29.3403V29.4484L12.9833 21.9608L19.0352 18.4667L15.0087 14.474L0.015625 29.3403Z" fill="url(#paint2_linear_11112_105829)"/>
</g>
<mask id="mask3_11112_105829" style="mask-type:luminance" maskUnits="userSpaceOnUse" x="0" y="0" width="26" height="29">
<path d="M19.0358 10.4808L12.9836 6.9867C12.9836 6.9867 1.95781 0.620144 1.30961 0.245934C0.661439 -0.128276 0.015625 0.0984546 0.015625 0.880464V28.3429C0.015625 28.9292 0.477199 29.1819 1.04035 28.857C1.60324 28.5316 12.9836 21.9609 12.9836 21.9609L19.0355 18.467C19.0355 18.467 24.1705 15.5025 24.8531 15.1086C25.5356 14.7142 25.47 14.1736 24.894 13.8634C24.3183 13.5529 19.0358 10.4808 19.0358 10.4808V10.4808Z" fill="white"/>
</mask>
<g mask="url(#mask3_11112_105829)">
<path d="M19.0268 10.4808L15 14.4741L19.0266 18.4668L25.9431 14.4738L19.0268 10.4808Z" fill="url(#paint3_linear_11112_105829)"/>
</g>
<path fill-rule="evenodd" clip-rule="evenodd" d="M72.962 20.7863C72.962 21.4604 73.0813 21.5634 73.6513 21.6153C73.793 21.6319 73.9347 21.6444 74.0764 21.6569C74.2285 21.6703 74.3806 21.6837 74.5324 21.7022L73.8936 22.081H70.8376C70.8748 22.0325 70.9092 21.9882 70.9408 21.9472C71.2473 21.5513 71.3033 21.479 71.3033 21.1666V10.5085L71.3043 10.5147V10.507H69.9844L71.2795 9.88538H73.7491C73.2133 10.1965 73.0408 10.3001 72.9712 10.904C72.9694 10.9225 72.968 10.9416 72.9665 10.9608C72.9651 10.9789 72.9637 10.9973 72.962 11.0153V20.7863ZM80.4916 21.8789C80.5531 21.8433 80.6147 21.8078 80.6761 21.774L81.5848 20.9171C81.0021 21.2081 80.3675 21.516 79.4933 21.516C77.864 21.516 76.3896 20.2483 75.9616 18.0709L77.282 17.9681L81.31 16.3388L81.3099 16.3386C81.1906 15.944 80.9677 15.207 80.1114 14.6424C79.5971 14.3159 78.962 14.162 78.3446 14.162C76.5787 14.162 74.4186 15.4649 74.4186 18.1218C74.4186 19.4073 74.9502 20.8816 76.1665 21.7396C77.0417 22.3732 77.8996 22.4086 78.4469 22.4086C78.9622 22.4086 79.5449 22.3398 80.1117 22.0827C80.2381 22.0255 80.3649 21.9522 80.4916 21.8789ZM79.5616 16.2015C79.5616 16.4414 79.3902 16.5447 79.0651 16.6642L75.9446 18.0198C75.9387 17.9156 75.9308 17.8116 75.923 17.7083C75.9076 17.5045 75.8925 17.3036 75.8925 17.1102C75.8925 15.259 77.1774 14.7272 77.8639 14.7272C78.7905 14.7272 79.5616 15.5163 79.5616 16.2015ZM82.3309 15.4105V14.2792H82.705V14.1619H81.8191V14.2792H82.1934V15.4105H82.3309ZM83.8732 14.2688V15.4105H83.9967V14.162H83.7798L83.4666 15.1711H83.4621L83.1442 14.162H82.9304V15.4105H83.0551V14.2688H83.0596L83.411 15.4105H83.5186L83.8669 14.2688H83.8732ZM68.1879 15.0203C68.5834 15.3476 69.4085 16.0348 69.4085 17.3424C69.4085 18.6144 68.686 19.2175 67.9635 19.7843C67.9548 19.793 67.946 19.8018 67.9371 19.8106C67.7201 20.0267 67.4819 20.264 67.4819 20.628C67.4819 21.0019 67.7348 21.2082 67.9241 21.3627L67.9296 21.3672L68.549 21.8478C69.3056 22.4844 69.9929 23.0696 69.9929 24.2567C69.9929 25.8733 68.4277 27.5066 65.47 27.5066C62.9758 27.5066 61.7724 26.3203 61.7724 25.0468C61.7724 24.4279 62.0806 23.5512 63.0968 22.9486C64.1388 22.3095 65.5441 22.214 66.3292 22.1606C66.347 22.1594 66.3645 22.1582 66.3816 22.157C66.3715 22.144 66.3613 22.131 66.3511 22.118C66.1175 21.82 65.8656 21.4986 65.8656 20.9886C65.8656 20.7264 65.9352 20.5608 66.0114 20.3796C66.0201 20.359 66.0288 20.3382 66.0375 20.3171C65.8476 20.3345 65.6587 20.3518 65.4865 20.3518C63.664 20.3518 62.6322 18.9929 62.6322 17.6521C62.6322 16.8608 62.9938 15.9831 63.7324 15.3475C64.7132 14.5392 65.8825 14.4012 66.8122 14.4012H70.3543L69.2535 15.0203H68.1879ZM66.571 22.6389C66.7422 22.6389 66.8286 22.6389 66.9661 22.6569C68.2737 23.586 68.8415 24.0484 68.8414 24.9273C68.8414 25.9927 67.9633 26.7855 66.3133 26.7855C64.4728 26.7855 63.2854 25.907 63.2854 24.6865C63.2854 23.4647 64.3865 23.0519 64.7648 22.9154C65.4862 22.6741 66.4163 22.6389 66.571 22.6389ZM67.8942 18.1327C67.8942 18.4427 67.8602 18.9924 67.4652 19.3885C67.1889 19.664 66.7255 19.8704 66.2955 19.8704C64.8157 19.8704 64.1449 17.9611 64.1449 16.8089C64.1449 16.3612 64.2317 15.8973 64.5237 15.5362C64.799 15.1918 65.2801 14.9684 65.7278 14.9684C67.155 14.9684 67.8942 16.8947 67.8942 18.1327ZM53.1704 18.3286C53.1704 20.2522 54.63 22.3816 57.3598 22.3816C60.1596 22.3816 61.7215 20.2342 61.7213 18.2088C61.7213 16.1306 60.1413 14.1566 57.6184 14.1566C55.0073 14.1566 53.1704 16.0789 53.1704 18.3286ZM60.0218 19.0841C60.0218 19.7543 59.9188 20.4409 59.506 20.9909C59.1119 21.5396 58.4249 21.8653 57.7554 21.8653C55.6771 21.8653 54.8356 19.0671 54.8356 17.3684C54.8356 16.6292 54.9564 15.8733 55.6262 15.2731C56.0382 14.9118 56.6047 14.6882 57.1712 14.6882C59.3006 14.6882 60.0218 17.5725 60.0218 19.0841ZM43.8625 18.3286C43.8625 20.2522 45.3224 22.3816 48.0528 22.3816C50.852 22.3816 52.4142 20.2342 52.4139 18.2088C52.4139 16.1306 50.8343 14.1566 48.3106 14.1566C45.7002 14.1566 43.8625 16.0789 43.8625 18.3286ZM50.7148 19.0841C50.7148 19.7543 50.6114 20.4409 50.1994 20.9909C49.8047 21.5396 49.1181 21.8653 48.4483 21.8653C46.3698 21.8653 45.5288 19.0671 45.5288 17.3684C45.5288 16.6292 45.6488 15.8733 46.3186 15.2731C46.7304 14.9118 47.2974 14.6882 47.8636 14.6882C49.993 14.6882 50.7148 17.5725 50.7148 19.0841ZM40.0818 22.6821L42.5509 22.1123L42.5504 22.1124V20.0054C42.5504 19.833 42.5666 19.3319 42.5846 19.1761C42.6191 19.0394 42.6358 19.0044 42.7575 18.9004L43.206 18.4689H39.5458L38.1653 19.2121L40.7716 19.0741V21.8528C40.2533 22.0605 39.6848 22.2845 38.5788 22.2845C34.8161 22.2845 32.4678 19.2288 32.4678 15.9841C32.4678 12.9633 34.5226 10.8907 37.2504 10.8907C39.2732 10.8907 40.3438 11.9296 40.933 12.5014L40.9448 12.5128L40.5133 13.2036L41.1172 13.0661L42.5507 11.7023C42.5283 11.6871 42.5052 11.6712 42.4813 11.6547C42.0973 11.3906 41.4904 10.9733 40.2717 10.632C39.4605 10.4074 38.5636 10.2696 37.631 10.2696C33.2281 10.2696 30.6562 13.3763 30.6562 16.725C30.6562 19.4701 32.4682 22.9748 37.2337 22.9748C38.1827 22.9748 39.0801 22.8378 40.0818 22.6821Z" fill="#0E0E0E"/>
<path d="M36.2494 6.84202H34.8456C34.8456 6.64889 34.7125 6.10218 34.4463 5.20146H32.4199C32.1451 6.08748 32.0075 6.63416 32.0075 6.84202H30.6875C30.6875 6.72807 31.0288 5.79224 31.7115 4.03494C32.3942 2.27761 32.7355 1.30949 32.7355 1.13151H34.3937C34.3937 1.29809 34.7027 2.25189 35.3213 3.9933C35.9399 5.7347 36.2494 6.68401 36.2494 6.84202ZM34.223 4.36363C33.7228 2.85492 33.4729 2.03916 33.4729 1.91623H33.4027C33.4027 2.03018 33.1438 2.84593 32.6265 4.36363H34.223ZM41.9052 6.84202H40.822C40.822 6.72198 40.4198 6.08911 39.6158 4.94301C38.7739 3.73525 38.2942 2.90966 38.1774 2.46506H38.1072C38.1803 3.10524 38.2171 3.68421 38.2171 4.20197C38.2171 4.92426 38.2375 5.80456 38.2783 6.84246H37.1992C37.2428 5.93603 37.2649 4.94059 37.2649 3.85573C37.2649 2.78847 37.2429 1.88037 37.1992 1.13195H38.5016C38.5016 1.2871 38.8626 1.90568 39.5848 2.98727C40.3537 4.13624 40.7955 4.91568 40.9094 5.32521H40.9751C40.905 4.67315 40.8698 4.08843 40.8698 3.57074C40.8698 2.77867 40.8494 1.96529 40.8086 1.13195H41.9053C41.864 1.85709 41.844 2.76516 41.844 3.85573C41.8435 4.95444 41.864 5.94988 41.9052 6.84202ZM48.2621 3.78918C48.2621 4.61963 47.9959 5.34481 47.4638 5.96461C46.9314 6.58482 46.1858 6.89432 45.2267 6.89432C44.7939 6.89432 44.1974 6.87673 43.4371 6.84161C43.4751 5.95849 43.4943 4.96261 43.4943 3.85492C43.4943 2.79088 43.4751 1.88282 43.4371 1.1311H44.2048C44.3305 1.1311 44.5175 1.12661 44.7662 1.11803C45.0144 1.10946 45.1769 1.10497 45.2529 1.10497C46.3084 1.10497 47.0735 1.36832 47.5492 1.89462C48.0244 2.42093 48.2621 3.05216 48.2621 3.78918ZM47.0649 3.97775C47.0649 3.41633 46.9011 2.94352 46.5737 2.55849C46.2462 2.17428 45.7461 1.982 45.0736 1.982C44.9479 1.982 44.7755 1.99507 44.5559 2.02161C44.5848 2.60667 44.5995 3.21749 44.5995 3.85488C44.5995 4.5539 44.6142 5.24679 44.6432 5.93396C44.8308 5.97176 45.0218 5.99091 45.2132 5.99112C45.842 5.99112 46.3074 5.79558 46.61 5.4052C46.9126 5.01487 47.0649 4.53916 47.0649 3.97775ZM54.124 6.84202H52.8256C52.4863 5.80698 52.2263 5.16798 52.045 4.92545C51.8637 4.68251 51.5714 4.56125 51.168 4.56125C50.9981 4.56125 50.836 4.56288 50.6813 4.56574C50.6813 5.31745 50.6943 6.07605 50.7209 6.84202H49.5017C49.5396 5.95886 49.5588 4.96301 49.5588 3.85529C49.5588 2.79129 49.5397 1.88319 49.5017 1.13151H50.2603C50.3481 1.13151 50.5314 1.12702 50.8107 1.11844C51.09 1.10987 51.348 1.10534 51.5848 1.10534C52.9269 1.10534 53.5982 1.56427 53.5982 2.48258C53.5982 3.21058 53.2152 3.71769 52.4492 4.00473V4.07047C52.7444 4.15213 53.0033 4.38282 53.2254 4.76091C53.4471 5.1394 53.7468 5.83311 54.124 6.84202ZM52.4794 2.80674C52.4794 2.22491 52.105 1.93382 51.3566 1.93382C51.0818 1.93382 50.8388 1.95424 50.6286 1.99507C50.6608 2.44828 50.6767 3.0391 50.6767 3.7671C50.8376 3.77322 50.9736 3.77567 51.0846 3.77567C52.0143 3.77608 52.4794 3.45311 52.4794 2.80674ZM60.411 3.88139C60.411 4.77887 60.1363 5.52317 59.5863 6.11398C59.0363 6.70442 58.3565 7 57.5468 7C56.7748 7 56.1284 6.72889 55.6082 6.18625C55.0876 5.64403 54.8275 4.95444 54.8275 4.11861C54.8275 3.22116 55.1023 2.47683 55.6523 1.88602C56.2019 1.29561 56.8817 1 57.6917 1C58.4638 1 59.1098 1.2703 59.6304 1.8113C60.151 2.35233 60.411 3.04195 60.411 3.88139ZM59.2009 4.0084C59.2009 3.39718 59.0445 2.9015 58.7317 2.52137C58.4186 2.14124 58.0327 1.95138 57.5738 1.95138C57.1467 1.95138 56.7841 2.14287 56.4861 2.52586C56.188 2.90885 56.0382 3.39272 56.0382 3.97778C56.0382 4.58574 56.1954 5.08061 56.5097 5.4624C56.8241 5.84416 57.2092 6.03484 57.6656 6.03484C58.0923 6.03484 58.4553 5.84253 58.7534 5.45788C59.0514 5.07366 59.2009 4.5902 59.2009 4.0084ZM62.8911 6.84202H61.6499C61.6878 5.93559 61.707 4.94015 61.707 3.85529C61.707 2.78799 61.6879 1.87992 61.6499 1.13151H62.8911C62.8531 1.86849 62.8339 2.77615 62.8339 3.85529C62.8339 4.9573 62.8531 5.95315 62.8911 6.84202ZM69.2484 3.78918C69.2484 4.61963 68.9822 5.34481 68.4501 5.96461C67.9177 6.58482 67.1721 6.89432 66.213 6.89432C65.7802 6.89432 65.1837 6.87673 64.4234 6.84161C64.4614 5.95849 64.4806 4.96261 64.4806 3.85492C64.4806 2.79088 64.4615 1.88282 64.4234 1.1311H65.1911C65.3168 1.1311 65.5038 1.12661 65.7525 1.11803C66.0008 1.10946 66.1632 1.10497 66.2392 1.10497C67.2947 1.10497 68.0598 1.36832 68.5355 1.89462C69.0107 2.42093 69.2484 3.05216 69.2484 3.78918ZM68.0512 3.97775C68.0512 3.41633 67.8875 2.94352 67.56 2.55849C67.2325 2.17428 66.7324 1.982 66.0599 1.982C65.9341 1.982 65.7618 1.99507 65.5422 2.02161C65.5712 2.60667 65.5858 3.21749 65.5858 3.85488C65.5858 4.5539 65.6006 5.24679 65.6295 5.93396C65.8172 5.97176 66.0081 5.99091 66.1995 5.99112C66.8283 5.99112 67.2938 5.79558 67.5963 5.4052C67.8989 5.01487 68.0512 4.53916 68.0512 3.97775ZM77.6823 6.84202H76.2785C76.2785 6.64889 76.1454 6.10218 75.8788 5.20146H73.8524C73.5776 6.08748 73.44 6.63416 73.44 6.84202H72.1204C72.1204 6.72807 72.4617 5.79224 73.1444 4.03494C73.8271 2.27761 74.1684 1.30949 74.1684 1.13151H75.8265C75.8265 1.29809 76.136 2.25189 76.7542 3.9933C77.3724 5.7347 77.6823 6.68401 77.6823 6.84202ZM75.6559 4.36363C75.1557 2.85492 74.9054 2.03916 74.9054 1.91623H74.8351C74.8351 2.03018 74.5767 2.84593 74.0594 4.36363H75.6559ZM82.7983 2.62671C82.7983 3.32572 82.5386 3.84182 82.0196 4.17499C81.5007 4.50817 80.8641 4.67513 80.1095 4.67513C79.972 4.67513 79.8744 4.67227 79.8156 4.66655C79.8156 5.21654 79.8315 5.94131 79.8638 6.84202H78.6311C78.669 5.99724 78.6882 5.00136 78.6882 3.85529C78.6882 2.80269 78.6691 1.89462 78.6311 1.13151H79.3942C79.5024 1.13151 79.7098 1.12702 80.0169 1.11844C80.3239 1.10987 80.5897 1.10534 80.8151 1.10534C81.3704 1.10534 81.8399 1.2311 82.2229 1.48261C82.6059 1.73416 82.7983 2.11511 82.7983 2.62671ZM81.6669 2.86802C81.6669 2.24246 81.2516 1.92933 80.4211 1.92933C80.2133 1.92933 79.9941 1.95134 79.7634 1.99507C79.7956 2.54791 79.8116 3.17343 79.8116 3.87244C79.8846 3.87856 79.9696 3.88101 80.0659 3.88101C81.1332 3.88139 81.6669 3.54376 81.6669 2.86802ZM88.0588 2.62671C88.0588 3.32572 87.7992 3.84182 87.2806 4.17499C86.7617 4.50817 86.1247 4.67513 85.3702 4.67513C85.2326 4.67513 85.135 4.67227 85.0762 4.66655C85.0762 5.21654 85.0921 5.94131 85.1244 6.84202H83.8917C83.9297 5.99724 83.9489 5.00136 83.9489 3.85529C83.9489 2.80269 83.9297 1.89462 83.8917 1.13151H84.6548C84.7631 1.13151 84.9704 1.12702 85.2775 1.11844C85.5845 1.10987 85.8503 1.10534 86.0757 1.10534C86.631 1.10534 87.1006 1.2311 87.4835 1.48261C87.8665 1.73416 88.0588 2.11511 88.0588 2.62671ZM86.9274 2.86802C86.9274 2.24246 86.5122 1.92933 85.6817 1.92933C85.4739 1.92933 85.2546 1.95134 85.024 1.99507C85.0562 2.54791 85.0721 3.17343 85.0721 3.87244C85.1452 3.87856 85.2302 3.88101 85.3265 3.88101C86.3938 3.88139 86.9274 3.54376 86.9274 2.86802ZM96.6597 3.88139C96.6597 4.77887 96.3849 5.52317 95.835 6.11398C95.285 6.7048 94.6051 7 93.7955 7C93.0234 7 92.377 6.72889 91.8569 6.18625C91.3367 5.64403 91.0762 4.95444 91.0762 4.11861C91.0762 3.22116 91.351 2.47683 91.901 1.88602C92.4509 1.2952 93.1308 1 93.9404 1C94.7125 1 95.3589 1.2703 95.8791 1.8113C96.3992 2.35233 96.6597 3.04195 96.6597 3.88139ZM95.4491 4.0084C95.4491 3.39718 95.2927 2.9015 94.98 2.52137C94.6672 2.14124 94.281 1.95138 93.8221 1.95138C93.3949 1.95138 93.0324 2.14287 92.7343 2.52586C92.4362 2.90885 92.2868 3.39272 92.2868 3.97778C92.2868 4.58574 92.444 5.08061 92.7584 5.4624C93.0728 5.84416 93.4578 6.03484 93.9139 6.03484C94.341 6.03484 94.7035 5.84253 95.0016 5.45791C95.3001 5.07366 95.4491 4.5902 95.4491 4.0084ZM102.605 6.84202H101.521C101.521 6.72198 101.12 6.08911 100.315 4.94301C99.4733 3.73525 98.9935 2.90966 98.8768 2.46506H98.8066C98.8797 3.10524 98.9164 3.68421 98.9164 4.20197C98.9164 4.92426 98.9369 5.80456 98.9777 6.84246H97.8986C97.9422 5.93603 97.9643 4.94059 97.9643 3.85573C97.9643 2.78847 97.9423 1.88037 97.8986 1.13195H99.201C99.201 1.2871 99.5624 1.90568 100.284 2.98727C101.053 4.13624 101.495 4.91568 101.609 5.32521H101.675C101.604 4.67315 101.569 4.08843 101.569 3.57074C101.569 2.77867 101.549 1.96529 101.508 1.13195H102.605C102.563 1.85709 102.543 2.76516 102.543 3.85573C102.543 4.95444 102.564 5.94988 102.605 6.84202Z" fill="#0E0E0E"/>
<defs>
<linearGradient id="paint0_linear_11112_105829" x1="7.51213" y1="-0.392595" x2="7.51213" y2="29.3403" gradientUnits="userSpaceOnUse">
<stop stop-color="#257CB0"/>
<stop offset="0.286" stop-color="#4A93B5"/>
<stop offset="0.767" stop-color="#78BCBB"/>
<stop offset="1" stop-color="#89CFBD"/>
</linearGradient>
<linearGradient id="paint1_linear_11112_105829" x1="0.0158656" y1="6.9864" x2="19.0357" y2="6.9864" gradientUnits="userSpaceOnUse">
<stop stop-color="#52C1AD"/>
<stop offset="1" stop-color="#DEE89A"/>
</linearGradient>
<linearGradient id="paint2_linear_11112_105829" x1="9.52541" y1="14.474" x2="9.52541" y2="29.4485" gradientUnits="userSpaceOnUse">
<stop stop-color="#EC413D"/>
<stop offset="0.167" stop-color="#DA4452"/>
<stop offset="0.575" stop-color="#B0487A"/>
<stop offset="0.862" stop-color="#954A92"/>
<stop offset="1" stop-color="#8A4A9D"/>
</linearGradient>
<linearGradient id="paint3_linear_11112_105829" x1="20.4717" y1="10.4809" x2="20.4717" y2="18.4666" gradientUnits="userSpaceOnUse">
<stop stop-color="#F58879"/>
<stop offset="0.119" stop-color="#F69079"/>
<stop offset="0.713" stop-color="#FCB877"/>
<stop offset="1" stop-color="#FEC874"/>
</linearGradient>
</defs>
</svg>
