<svg width="109" height="30" viewBox="0 0 109 30" fill="none" xmlns="http://www.w3.org/2000/svg">
<path d="M17.2349 13.9842C17.2061 10.7809 19.8585 9.22246 19.9798 9.14991C18.4776 6.96035 16.1493 6.66118 15.3311 6.63733C13.3756 6.43159 11.4787 7.80715 10.4825 7.80715C9.46651 7.80715 7.93252 6.65721 6.27923 6.691C4.15172 6.7238 2.1614 7.95524 1.06981 9.8675C-1.18296 13.7666 0.497177 19.4964 2.6555 22.6481C3.73516 24.1926 4.99676 25.915 6.64806 25.8544C8.26358 25.7888 8.86703 24.8257 10.8166 24.8257C12.7482 24.8257 13.3149 25.8544 14.999 25.8156C16.7328 25.7888 17.8244 24.2651 18.8663 22.7077C20.114 20.9395 20.6151 19.1962 20.6349 19.1068C20.5952 19.0929 17.2687 17.8227 17.2349 13.9842ZM14.0536 4.56405C14.9225 3.47772 15.517 1.99979 15.352 0.5C14.0943 0.555658 12.5216 1.36966 11.6159 2.43214C10.8146 3.36839 10.0988 4.90297 10.2837 6.34612C11.6964 6.45147 13.1469 5.63349 14.0536 4.56405Z" fill="black"/>
<path d="M40.6382 25.6327H38.3804L37.1437 21.7475H32.8449L31.6668 25.6327H29.4688L33.7287 12.4059H36.3593L40.6382 25.6327ZM36.7709 20.1175L35.6524 16.6637C35.5341 16.3109 35.3114 15.48 34.9854 14.172H34.9456C34.8144 14.7346 34.6046 15.5655 34.3173 16.6637L33.2177 20.1175H36.7709ZM51.572 20.7467C51.572 22.3687 51.1316 23.6509 50.2497 24.5921C49.4604 25.4299 48.4791 25.8484 47.309 25.8484C46.0454 25.8484 45.1368 25.3981 44.585 24.4957V29.5H42.4654V19.23C42.4654 18.2112 42.4386 17.1667 42.3869 16.0952H44.251L44.3693 17.607H44.409C45.1159 16.4679 46.1886 15.8984 47.6281 15.8984C48.7535 15.8984 49.693 16.3427 50.4446 17.2323C51.1952 18.1238 51.572 19.2946 51.572 20.7467ZM49.4127 20.8242C49.4127 19.8959 49.2039 19.1306 48.7843 18.5273C48.326 17.9002 47.7106 17.5861 46.9392 17.5861C46.4162 17.5861 45.941 17.761 45.5165 18.1059C45.091 18.4538 44.8127 18.908 44.6824 19.4705C44.6243 19.6809 44.5912 19.8974 44.584 20.1156V21.7068C44.584 22.3995 44.7968 22.9849 45.2223 23.464C45.6478 23.9411 46.2005 24.1806 46.8805 24.1806C47.6788 24.1806 48.3002 23.8715 48.7446 23.2583C49.19 22.643 49.4127 21.832 49.4127 20.8242ZM62.5445 20.7467C62.5445 22.3687 62.1041 23.6509 61.2223 24.5921C60.432 25.4299 59.4517 25.8484 58.2806 25.8484C57.017 25.8484 56.1083 25.3981 55.5566 24.4957V29.5H53.437V19.23C53.437 18.2112 53.4102 17.1667 53.3585 16.0952H55.2225L55.3408 17.607H55.3806C56.0865 16.4679 57.1592 15.8984 58.5997 15.8984C59.7241 15.8984 60.6636 16.3427 61.4172 17.2323C62.1668 18.1238 62.5445 19.2946 62.5445 20.7467ZM60.3842 20.8242C60.3842 19.8959 60.1745 19.1306 59.7549 18.5273C59.2966 17.9002 58.6832 17.5861 57.9117 17.5861C57.3888 17.5861 56.9136 17.761 56.4871 18.1059C56.0616 18.4538 55.7842 18.908 55.654 19.4705C55.5894 19.7329 55.5546 19.9466 55.5546 20.1156V21.7068C55.5546 22.3995 55.7683 22.9849 56.1918 23.464C56.6173 23.9401 57.1701 24.1806 57.8521 24.1806C58.6514 24.1806 59.2728 23.8715 59.7162 23.2583C60.1615 22.643 60.3842 21.832 60.3842 20.8242ZM74.8125 21.9225C74.8125 23.0486 74.4188 23.9639 73.6364 24.6706C72.7755 25.4419 71.5735 25.8285 70.0326 25.8285C68.6089 25.8285 67.4676 25.5542 66.6067 25.0046L67.0968 23.2384C68.0264 23.789 69.0474 24.0633 70.1588 24.0633C70.9581 24.0633 71.5795 23.8824 72.0229 23.5236C72.4673 23.1638 72.692 22.6828 72.692 22.0825C72.692 21.5448 72.5061 21.0946 72.1412 20.7278C71.7744 20.362 71.1679 20.0211 70.3159 19.7081C67.9995 18.8444 66.8403 17.5811 66.8403 15.9193C66.8403 14.834 67.2499 13.9454 68.0671 13.2507C68.8843 12.557 69.968 12.2101 71.316 12.2101C72.52 12.2101 73.5231 12.4198 74.3194 12.8382L73.7875 14.5656C73.0379 14.1601 72.1919 13.9574 71.2455 13.9574C70.4979 13.9574 69.9113 14.1412 69.4918 14.507C69.1388 14.834 68.9599 15.2325 68.9599 15.7056C68.9599 16.2274 69.1637 16.6608 69.5693 17.0007C69.9212 17.3138 70.5635 17.6547 71.492 18.0204C72.6313 18.4796 73.4684 19.0143 74.0043 19.6285C74.5441 20.2428 74.8125 21.0091 74.8125 21.9225ZM81.8383 17.6855H79.502V22.3161C79.502 23.4938 79.9136 24.0812 80.7387 24.0812C81.1175 24.0812 81.4316 24.0494 81.6802 23.9828L81.7389 25.5919C81.3213 25.748 80.7715 25.8265 80.0905 25.8265C79.2534 25.8265 78.5993 25.5711 78.1271 25.0602C77.6568 24.5493 77.4202 23.6936 77.4202 22.489V17.6815H76.0284V16.0913H77.4202V14.345L79.502 13.7168V16.0913H81.8383V17.6855ZM92.3585 20.7854C92.3585 22.2514 91.939 23.4551 91.1019 24.3963C90.226 25.3653 89.0609 25.8484 87.6084 25.8484C86.2066 25.8484 85.0922 25.3842 84.261 24.4569C83.4299 23.5276 83.0144 22.3568 83.0144 20.9445C83.0144 19.4665 83.4438 18.256 84.2998 17.3148C85.1578 16.3725 86.313 15.9014 87.7655 15.9014C89.1652 15.9014 90.2896 16.3666 91.1406 17.2949C91.9539 18.1953 92.3585 19.3582 92.3585 20.7854ZM90.1614 20.8341C90.1614 19.9605 89.9725 19.2111 89.5937 18.584C89.1493 17.8266 88.5131 17.4479 87.6889 17.4479C86.8399 17.4479 86.1887 17.8266 85.7453 18.584C85.3656 19.2111 85.1767 19.9734 85.1767 20.8739C85.1767 21.7485 85.3656 22.4999 85.7453 23.1251C86.2036 23.8824 86.8429 24.2611 87.671 24.2611C88.4813 24.2611 89.1165 23.8745 89.5758 23.1062C89.9655 22.4641 90.1614 21.7098 90.1614 20.8341ZM99.251 17.9588C99.0306 17.919 98.807 17.8994 98.5829 17.9002C97.8373 17.9002 97.2607 18.1804 96.8551 18.745C96.5032 19.2419 96.3262 19.8701 96.3262 20.6284V25.6327H94.2066V19.0988C94.2085 18.0976 94.188 17.0965 94.145 16.0962H95.9912L96.0687 17.921H96.1274C96.352 17.2939 96.704 16.788 97.1871 16.4093C97.6294 16.0784 98.1668 15.8992 98.7191 15.8984C98.915 15.8984 99.092 15.9124 99.249 15.9372L99.251 17.9588ZM108.73 20.4127C108.736 20.7349 108.71 21.0567 108.653 21.3738H102.294C102.318 22.3161 102.626 23.0376 103.217 23.5346C103.753 23.9779 104.446 24.2005 105.297 24.2005C106.238 24.2005 107.097 24.0514 107.869 23.7502L108.201 25.2202C107.299 25.6138 106.233 25.8096 105.003 25.8096C103.524 25.8096 102.363 25.3743 101.518 24.5056C100.675 23.636 100.252 22.4671 100.252 21.0031C100.252 19.5659 100.645 18.3683 101.431 17.4131C102.254 16.3934 103.367 15.8835 104.767 15.8835C106.142 15.8835 107.182 16.3934 107.889 17.4131C108.449 18.2212 108.73 19.223 108.73 20.4127ZM106.709 19.8631C106.724 19.234 106.585 18.6923 106.298 18.2341C105.931 17.6437 105.366 17.3495 104.61 17.3495C103.917 17.3495 103.352 17.6368 102.922 18.2132C102.57 18.6714 102.36 19.222 102.295 19.8611L106.709 19.8631Z" fill="black"/>
<path d="M32.235 7.72966C31.6454 7.72966 31.1354 7.70084 30.7109 7.65214V1.25739C31.3047 1.16569 31.9046 1.1205 32.5054 1.12222C34.9361 1.12222 36.0556 2.31788 36.0556 4.26691C36.0556 6.51511 34.7333 7.72966 32.235 7.72966ZM32.5909 1.94218C32.2628 1.94218 31.9835 1.96206 31.7518 2.00977V6.87093C31.8771 6.89081 32.1177 6.89975 32.4557 6.89975C34.0483 6.89975 34.955 5.99332 34.955 4.29574C34.955 2.78203 34.1348 1.94218 32.5909 1.94218ZM39.5441 7.77836C38.1741 7.77836 37.2863 6.75564 37.2863 5.36716C37.2863 3.92004 38.193 2.88837 39.6216 2.88837C40.9717 2.88837 41.8794 3.8624 41.8794 5.29063C41.8794 6.75564 40.9439 7.77836 39.5441 7.77836ZM39.5838 3.6497C38.8313 3.6497 38.3491 4.35338 38.3491 5.33734C38.3491 6.30242 38.8412 7.0061 39.5739 7.0061C40.3066 7.0061 40.7987 6.25372 40.7987 5.31747C40.7987 4.36332 40.3165 3.6497 39.5838 3.6497ZM49.6915 2.98478L48.2251 7.67201H47.2697L46.6623 5.63651C46.5112 5.13861 46.3855 4.63339 46.2855 4.1228H46.2656C46.1891 4.63366 46.0439 5.14552 45.8898 5.63651L45.2436 7.67201H44.2783L42.8984 2.98478H43.9691L44.5 5.21311C44.6252 5.74385 44.7306 6.24477 44.8181 6.71787H44.838C44.9145 6.32329 45.0398 5.83032 45.2237 5.22304L45.8898 2.98578H46.7388L47.3761 5.17534C47.5302 5.70608 47.6554 6.22688 47.7529 6.71886H47.7807C47.8483 6.23682 47.9547 5.72496 48.0988 5.17534L48.6685 2.98578L49.6915 2.98478ZM55.0898 7.67201H54.0479V4.98053C54.0479 4.15162 53.7298 3.73617 53.1025 3.73617C52.4851 3.73617 52.0606 4.26691 52.0606 4.88413V7.67201H51.0187V4.32456C51.0187 3.9101 51.0088 3.46583 50.9799 2.98379H51.8965L51.9453 3.70735H51.9741C52.2544 3.20642 52.8231 2.88837 53.4604 2.88837C54.4446 2.88837 55.0908 3.64076 55.0908 4.86524L55.0898 7.67201ZM57.9629 7.67201H56.92V0.833984H57.9629V7.67201ZM61.7616 7.77836C60.3927 7.77836 59.5039 6.75564 59.5039 5.36716C59.5039 3.92004 60.4106 2.88837 61.8382 2.88837C63.1892 2.88837 64.0959 3.8624 64.0959 5.29063C64.0969 6.75564 63.1604 7.77836 61.7616 7.77836ZM61.8004 3.6497C61.0478 3.6497 60.5656 4.35338 60.5656 5.33734C60.5656 6.30242 61.0588 7.0061 61.7895 7.0061C62.5232 7.0061 63.0143 6.25372 63.0143 5.31747C63.0153 4.36332 62.5341 3.6497 61.8004 3.6497ZM68.2038 7.67201L68.1282 7.13233H68.1004C67.7823 7.56666 67.318 7.77836 66.7294 7.77836C65.8894 7.77836 65.2929 7.18997 65.2929 6.39883C65.2929 5.24193 66.296 4.6436 68.0328 4.6436V4.55713C68.0328 3.93992 67.7057 3.63082 67.0595 3.63082C66.5972 3.63082 66.1916 3.7471 65.8347 3.97868L65.6229 3.29389C66.0564 3.02354 66.5972 2.88837 67.2325 2.88837C68.4573 2.88837 69.0757 3.53441 69.0757 4.82747V6.55388C69.0757 7.02697 69.0966 7.39372 69.1433 7.67301L68.2038 7.67201ZM68.0606 5.33734C66.9034 5.33734 66.3228 5.61762 66.3228 6.28254C66.3228 6.77452 66.6221 7.01505 67.0376 7.01505C67.5675 7.01505 68.0606 6.61053 68.0606 6.0609V5.33734ZM74.135 7.67201L74.0863 6.91963H74.0574C73.7582 7.48814 73.2551 7.77836 72.5523 7.77836C71.4219 7.77836 70.5848 6.78446 70.5848 5.38604C70.5848 3.92004 71.4527 2.88738 72.6378 2.88738C73.2651 2.88738 73.7095 3.09908 73.96 3.52447H73.9809V0.833984H75.0238V6.40877C75.0238 6.86198 75.0347 7.28638 75.0625 7.67201H74.135ZM73.9809 4.91394C73.9809 4.25797 73.5464 3.6984 72.8833 3.6984C72.1109 3.6984 71.6386 4.3832 71.6386 5.34728C71.6386 6.29248 72.1288 6.93951 72.8624 6.93951C73.5176 6.93951 73.9809 6.37001 73.9809 5.69515V4.91394ZM81.6359 7.77836C80.267 7.77836 79.3792 6.75564 79.3792 5.36716C79.3792 3.92004 80.2859 2.88837 81.7135 2.88837C83.0645 2.88837 83.9712 3.8624 83.9712 5.29063C83.9722 6.75564 83.0367 7.77836 81.6359 7.77836ZM81.6747 3.6497C80.9231 3.6497 80.4409 4.35338 80.4409 5.33734C80.4409 6.30242 80.9331 7.0061 81.6648 7.0061C82.3985 7.0061 82.8896 6.25372 82.8896 5.31747C82.8916 4.36332 82.4094 3.6497 81.6747 3.6497ZM89.5743 7.67201H88.5314V4.98053C88.5314 4.15162 88.2133 3.73617 87.586 3.73617C86.9686 3.73617 86.5451 4.26691 86.5451 4.88413V7.67201H85.5022V4.32456C85.5022 3.9101 85.4923 3.46583 85.4635 2.98379H86.3801L86.4288 3.70735H86.4576C86.737 3.20642 87.3066 2.88738 87.9429 2.88738C88.9271 2.88738 89.5743 3.63976 89.5743 4.86425V7.67201ZM96.5842 3.76599H95.4379V6.04202C95.4379 6.62146 95.6387 6.91069 96.0443 6.91069C96.2282 6.91069 96.3823 6.89081 96.5066 6.86199L96.5354 7.65313C96.3336 7.73065 96.0632 7.76942 95.7272 7.76942C94.906 7.76942 94.4149 7.3162 94.4149 6.12948V3.76599H93.7309V2.98478H94.4149V2.12605L95.4379 1.81695V2.98379H96.5842V3.76599ZM102.1 7.67201H101.059V5.00041C101.059 4.16156 100.742 3.73716 100.113 3.73716C99.5736 3.73716 99.0706 4.10391 99.0706 4.84636V7.67201H98.0297V0.833984H99.0706V3.6497H99.0914C99.4195 3.13884 99.8947 2.88738 100.501 2.88738C101.493 2.88738 102.1 3.65865 102.1 4.88413V7.67201ZM107.751 5.57886H104.624C104.644 6.46641 105.231 6.96734 106.101 6.96734C106.564 6.96734 106.989 6.88981 107.365 6.7457L107.527 7.46926C107.084 7.66207 106.562 7.75848 105.954 7.75848C104.488 7.75848 103.62 6.83217 103.62 5.39598C103.62 3.9588 104.509 2.87844 105.837 2.87844C107.035 2.87844 107.786 3.76599 107.786 5.10676C107.793 5.26499 107.781 5.42346 107.751 5.57886ZM106.795 4.83642C106.795 4.11286 106.43 3.60199 105.764 3.60199C105.166 3.60199 104.693 4.1228 104.625 4.83642H106.795Z" fill="black"/>
</svg>
