<svg width="142" height="110" viewBox="0 0 142 110" fill="none" xmlns="http://www.w3.org/2000/svg">
<g id="stocks">
<g id="Group 7851">
<g id="Mask group">
<mask id="mask0_9613_206450" style="mask-type:luminance" maskUnits="userSpaceOnUse" x="119" y="7" width="23" height="10">
<g id="Group">
<path id="Vector" fill-rule="evenodd" clip-rule="evenodd" d="M120.386 8.27296C119.915 8.53811 119.565 8.98781 119.44 9.53007C119.261 10.2867 119.207 11.4749 119.981 12.8005C120.472 13.635 121.47 13.9562 122.333 13.5754C123.665 12.9855 125.104 13.1194 126.507 13.6434C127.479 14.0073 128.437 14.5611 129.329 15.1928C130.982 16.3605 132.975 16.9623 134.957 16.6821C138.238 16.2141 141.253 13.7422 141.999 10.2062L141.956 10.1795C140.277 13.3071 136.749 14.7813 133.5 14.284C131.521 13.9833 129.769 12.8307 128.495 11.228C126.942 9.2765 124.97 7.61816 122.761 7.61816C121.995 7.61816 121.201 7.81746 120.386 8.27296Z" fill="white"/>
</g>
</mask>
<g mask="url(#mask0_9613_206450)">
<g id="Group_2">
<path id="Vector_2" fill-rule="evenodd" clip-rule="evenodd" d="M120.386 8.27296C119.915 8.53811 119.565 8.98781 119.44 9.53007C119.261 10.2867 119.207 11.4749 119.981 12.8005C120.472 13.635 121.47 13.9562 122.333 13.5754C123.665 12.9855 125.104 13.1194 126.507 13.6434C127.479 14.0073 128.437 14.5611 129.329 15.1928C130.982 16.3605 132.975 16.9623 134.957 16.6821C138.238 16.2141 141.253 13.7422 141.999 10.2062L141.956 10.1795C140.277 13.3071 136.749 14.7813 133.5 14.284C131.521 13.9833 129.769 12.8307 128.495 11.228C126.942 9.2765 124.97 7.61816 122.761 7.61816C121.995 7.61816 121.201 7.81746 120.386 8.27296Z" fill="url(#paint0_linear_9613_206450)"/>
</g>
</g>
</g>
<g id="Mask group_2">
<mask id="mask1_9613_206450" style="mask-type:luminance" maskUnits="userSpaceOnUse" x="93" y="1" width="34" height="35">
<g id="Group_3">
<path id="Vector_3" fill-rule="evenodd" clip-rule="evenodd" d="M106.205 15.6269C105.049 22.0345 108.999 26.0364 108.999 26.0364C110.332 28.0856 113.225 29.0561 114.84 29.9748C116.454 30.8905 116.646 32.1277 116.88 33.4597C117.112 34.7891 118.639 35.027 118.639 35.027C119.626 34.9871 120.237 34.1516 120.237 34.1516C124.591 35.6675 124.965 32.8741 124.965 32.8741C124.965 32.8741 124.243 28.6171 124.706 23.9894C125.171 19.3586 126.824 15.7962 126.824 15.7962C126.593 15.2368 125.617 13.3535 125.617 13.3535C124.254 12.8485 122.855 12.716 121.561 13.2845C120.722 13.6514 119.752 13.3419 119.275 12.5377C118.522 11.2602 118.575 10.1151 118.748 9.38592C118.871 8.86337 119.211 8.42995 119.668 8.17446C111.773 7.03755 101.422 3.54368 93.5742 1.54297C102.543 3.98912 107.215 10.0435 106.205 15.6269Z" fill="white"/>
</g>
</mask>
<g mask="url(#mask1_9613_206450)">
<g id="Group_4">
<path id="Vector_4" fill-rule="evenodd" clip-rule="evenodd" d="M106.205 15.6269C105.049 22.0345 108.999 26.0364 108.999 26.0364C110.332 28.0856 113.225 29.0561 114.84 29.9748C116.454 30.8905 116.646 32.1277 116.88 33.4597C117.112 34.7891 118.639 35.027 118.639 35.027C119.626 34.9871 120.237 34.1516 120.237 34.1516C124.591 35.6675 124.965 32.8741 124.965 32.8741C124.965 32.8741 124.243 28.6171 124.706 23.9894C125.171 19.3586 126.824 15.7962 126.824 15.7962C126.593 15.2368 125.617 13.3535 125.617 13.3535C124.254 12.8485 122.855 12.716 121.561 13.2845C120.722 13.6514 119.752 13.3419 119.275 12.5377C118.522 11.2602 118.575 10.1151 118.748 9.38592C118.871 8.86337 119.211 8.42995 119.668 8.17446C111.773 7.03755 101.422 3.54368 93.5742 1.54297C102.543 3.98912 107.215 10.0435 106.205 15.6269Z" fill="url(#paint1_linear_9613_206450)"/>
</g>
</g>
</g>
<g id="Mask group_3">
<mask id="mask2_9613_206450" style="mask-type:luminance" maskUnits="userSpaceOnUse" x="98" y="36" width="19" height="30">
<g id="Group_5">
<path id="Vector_5" fill-rule="evenodd" clip-rule="evenodd" d="M99.5939 41.5795C99.5939 41.5795 99.1742 42.3529 98.2188 43.4792C100.496 45.5392 102.338 46.7558 102.338 46.7558C102.326 47.0416 102.299 47.3131 102.266 47.5726C105.377 47.0915 108.236 47.0595 109.004 47.062C108.893 47.3739 108.546 48.5302 108.6 50.4095C108.664 52.6324 111.126 53.6886 111.34 56.3756C111.34 56.3756 109.176 58.2523 109.236 59.8684C109.236 59.8684 108.489 63.1505 116.248 65.4442C116.248 65.4442 115.275 60.8718 116.355 58.5381C116.355 58.5381 114.048 48.2907 113.852 43.7649C113.828 43.2222 113.543 42.7232 113.087 42.4112C112.334 41.8981 111.052 41.0487 109.37 40.0478C106.963 39.2892 104.123 38.1629 101.561 36.5264C100.891 38.0056 100.228 39.6831 99.5939 41.5795Z" fill="white"/>
</g>
</mask>
<g mask="url(#mask2_9613_206450)">
<g id="Group_6">
<path id="Vector_6" fill-rule="evenodd" clip-rule="evenodd" d="M99.5939 41.5795C99.5939 41.5795 99.1742 42.3529 98.2188 43.4792C100.496 45.5392 102.338 46.7558 102.338 46.7558C102.326 47.0416 102.299 47.3131 102.266 47.5726C105.377 47.0915 108.236 47.0595 109.004 47.062C108.893 47.3739 108.546 48.5302 108.6 50.4095C108.664 52.6324 111.126 53.6886 111.34 56.3756C111.34 56.3756 109.176 58.2523 109.236 59.8684C109.236 59.8684 108.489 63.1505 116.248 65.4442C116.248 65.4442 115.275 60.8718 116.355 58.5381C116.355 58.5381 114.048 48.2907 113.852 43.7649C113.828 43.2222 113.543 42.7232 113.087 42.4112C112.334 41.8981 111.052 41.0487 109.37 40.0478C106.963 39.2892 104.123 38.1629 101.561 36.5264C100.891 38.0056 100.228 39.6831 99.5939 41.5795Z" fill="url(#paint2_linear_9613_206450)"/>
</g>
</g>
</g>
<g id="Mask group_4">
<mask id="mask3_9613_206450" style="mask-type:luminance" maskUnits="userSpaceOnUse" x="36" y="0" width="75" height="66">
<g id="Group_7">
<path id="Vector_7" fill-rule="evenodd" clip-rule="evenodd" d="M85.8773 0C78.8509 0 73.504 1.52487 63.6849 15.363C55.0177 27.5817 39.7571 36.9373 36.2969 38.9594C41.1152 36.3678 47.4907 36.5788 54.1039 41.6586C60.5869 46.6355 59.534 57.7705 56.6625 61.5007C55.9197 62.4599 55.014 63.8061 54.0526 65.3984C54.0489 65.4059 54.0449 65.4105 54.0449 65.4105L54.1039 65.4459C54.1241 65.4263 54.1403 65.4059 54.1597 65.3863C65.2343 53.1243 75.3874 53.2038 86.354 50.7793C89.4641 50.0946 91.9944 49.0317 94.0318 47.8575C92.4032 47.1844 90.1119 46.3448 87.7959 45.8466C83.4825 44.927 75.5382 43.6054 76.6938 33.9232C77.8182 24.5479 83.8084 23.3535 84.1812 23.2895C84.1933 23.2856 84.2014 23.2856 84.2014 23.2856C89.23 22.5851 89.9489 28.0631 93.3016 34.7634C94.9812 38.1273 97.615 41.0099 99.8239 43.0522C100.745 41.9414 101.15 41.1809 101.15 41.1809C101.762 39.3097 102.401 37.6537 103.049 36.1963C106.616 28.1271 110.354 26.0049 110.354 26.0049C110.354 26.0049 106.286 21.992 107.478 15.5663C108.519 9.96881 103.704 3.90157 94.4689 1.44923C93.9805 1.32932 93.5078 1.21414 93.0473 1.10669C90.1713 0.434079 87.6968 0 85.8773 0Z" fill="white"/>
</g>
</mask>
<g mask="url(#mask3_9613_206450)">
<g id="Group_8">
<path id="Vector_8" fill-rule="evenodd" clip-rule="evenodd" d="M85.8773 0C78.8509 0 73.504 1.52487 63.6849 15.363C55.0177 27.5817 39.7571 36.9373 36.2969 38.9594C41.1152 36.3678 47.4907 36.5788 54.1039 41.6586C60.5869 46.6355 59.534 57.7705 56.6625 61.5007C55.9197 62.4599 55.014 63.8061 54.0526 65.3984C54.0489 65.4059 54.0449 65.4105 54.0449 65.4105L54.1039 65.4459C54.1241 65.4263 54.1403 65.4059 54.1597 65.3863C65.2343 53.1243 75.3874 53.2038 86.354 50.7793C89.4641 50.0946 91.9944 49.0317 94.0318 47.8575C92.4032 47.1844 90.1119 46.3448 87.7959 45.8466C83.4825 44.927 75.5382 43.6054 76.6938 33.9232C77.8182 24.5479 83.8084 23.3535 84.1812 23.2895C84.1933 23.2856 84.2014 23.2856 84.2014 23.2856C89.23 22.5851 89.9489 28.0631 93.3016 34.7634C94.9812 38.1273 97.615 41.0099 99.8239 43.0522C100.745 41.9414 101.15 41.1809 101.15 41.1809C101.762 39.3097 102.401 37.6537 103.049 36.1963C106.616 28.1271 110.354 26.0049 110.354 26.0049C110.354 26.0049 106.286 21.992 107.478 15.5663C108.519 9.96881 103.704 3.90157 94.4689 1.44923C93.9805 1.32932 93.5078 1.21414 93.0473 1.10669C90.1713 0.434079 87.6968 0 85.8773 0Z" fill="url(#paint3_linear_9613_206450)"/>
</g>
</g>
</g>
<g id="Mask group_5">
<mask id="mask4_9613_206450" style="mask-type:luminance" maskUnits="userSpaceOnUse" x="75" y="22" width="28" height="41">
<g id="Group_9">
<path id="Vector_9" fill-rule="evenodd" clip-rule="evenodd" d="M83.1952 22.9051C83.1952 22.9051 76.8517 23.8441 75.692 33.297C74.5349 42.7528 82.4743 44.0427 86.786 44.9423C89.1024 45.4259 91.3962 46.2464 93.0208 46.9045C94.4181 47.4693 95.3226 47.9108 95.3226 47.9108C95.3226 47.9108 94.0454 48.0545 92.1567 49.1337C90.2677 50.2154 90.4949 52.7427 88.2727 54.1622C88.2727 54.1622 85.6551 53.2376 84.2857 54.0331C84.2857 54.0331 81.1052 54.9294 82.7156 62.4179C82.7156 62.4179 86.2123 59.4998 88.7264 59.3199C88.7264 59.3199 97.576 51.7527 101.029 50.0271C101.029 50.0271 102.37 48.7118 102.714 46.1565C102.746 45.9066 102.771 45.645 102.783 45.3697C102.783 45.3697 101.006 44.1976 98.81 42.213C96.6031 40.2175 93.9706 37.401 92.2918 34.118C89.1332 27.9531 88.3132 22.8459 84.0265 22.8459C83.7633 22.8459 83.4863 22.8652 83.1952 22.9051Z" fill="white"/>
</g>
</mask>
<g mask="url(#mask4_9613_206450)">
<g id="Group_10">
<path id="Vector_10" fill-rule="evenodd" clip-rule="evenodd" d="M83.1952 22.9051C83.1952 22.9051 76.8517 23.8441 75.692 33.297C74.5349 42.7528 82.4743 44.0427 86.786 44.9423C89.1024 45.4259 91.3962 46.2464 93.0208 46.9045C94.4181 47.4693 95.3226 47.9108 95.3226 47.9108C95.3226 47.9108 94.0454 48.0545 92.1567 49.1337C90.2677 50.2154 90.4949 52.7427 88.2727 54.1622C88.2727 54.1622 85.6551 53.2376 84.2857 54.0331C84.2857 54.0331 81.1052 54.9294 82.7156 62.4179C82.7156 62.4179 86.2123 59.4998 88.7264 59.3199C88.7264 59.3199 97.576 51.7527 101.029 50.0271C101.029 50.0271 102.37 48.7118 102.714 46.1565C102.746 45.9066 102.771 45.645 102.783 45.3697C102.783 45.3697 101.006 44.1976 98.81 42.213C96.6031 40.2175 93.9706 37.401 92.2918 34.118C89.1332 27.9531 88.3132 22.8459 84.0265 22.8459C83.7633 22.8459 83.4863 22.8652 83.1952 22.9051Z" fill="url(#paint4_linear_9613_206450)"/>
</g>
</g>
</g>
<g id="Mask group_6">
<mask id="mask5_9613_206450" style="mask-type:luminance" maskUnits="userSpaceOnUse" x="28" y="38" width="30" height="72">
<g id="Group_11">
<path id="Vector_11" fill-rule="evenodd" clip-rule="evenodd" d="M35.3161 39.8778C35.2965 39.8907 35.2741 39.9032 35.2545 39.9194C35.2461 39.9256 35.2378 39.9318 35.2295 39.9351C34.9504 40.1203 34.7637 40.2453 34.6771 40.2997C34.6687 40.303 34.6633 40.3087 34.655 40.3125C34.6463 40.3188 34.6354 40.3254 34.6267 40.3311C34.6267 40.3311 34.1972 40.6604 33.5669 41.2869C31.938 42.9067 28.9694 46.5269 28.6932 51.5983C28.5787 53.6682 28.9136 55.9846 29.9738 58.5058C31.0648 61.1038 32.1442 63.0177 33.1428 64.5257L33.1457 64.5323C36.4068 69.4589 38.8057 70.1112 37.9356 76.2713C37.3275 80.5788 36.4959 82.413 35.9435 83.6591L35.9381 83.6652C35.4611 84.7454 35.1903 85.3846 35.4528 86.8129C36.0214 89.8927 48.4833 102.268 48.7927 104.697C49.1028 107.125 48.6899 108.959 48.6899 108.959C48.6899 108.959 53.1865 111.269 56.9613 108.959C56.9613 108.959 58.2527 105.703 56.3419 104.46C54.4278 103.218 44.5529 95.3409 45.7941 87.522C46.7144 81.719 49.8585 74.3509 52.559 69.2419C53.4962 67.4687 54.3805 65.97 55.1002 64.903C57.8925 60.7585 58.9138 48.3995 52.6176 42.8749C48.7797 39.5043 45.0243 38.0637 41.6235 38.0637C39.3318 38.0637 37.2009 38.7184 35.3161 39.8778Z" fill="white"/>
</g>
</mask>
<g mask="url(#mask5_9613_206450)">
<g id="Group_12">
<path id="Vector_12" fill-rule="evenodd" clip-rule="evenodd" d="M35.3161 39.8778C35.2965 39.8907 35.2741 39.9032 35.2545 39.9194C35.2461 39.9256 35.2378 39.9318 35.2295 39.9351C34.9504 40.1203 34.7637 40.2453 34.6771 40.2997C34.6687 40.303 34.6633 40.3087 34.655 40.3125C34.6463 40.3188 34.6354 40.3254 34.6267 40.3311C34.6267 40.3311 34.1972 40.6604 33.5669 41.2869C31.938 42.9067 28.9694 46.5269 28.6932 51.5983C28.5787 53.6682 28.9136 55.9846 29.9738 58.5058C31.0648 61.1038 32.1442 63.0177 33.1428 64.5257L33.1457 64.5323C36.4068 69.4589 38.8057 70.1112 37.9356 76.2713C37.3275 80.5788 36.4959 82.413 35.9435 83.6591L35.9381 83.6652C35.4611 84.7454 35.1903 85.3846 35.4528 86.8129C36.0214 89.8927 48.4833 102.268 48.7927 104.697C49.1028 107.125 48.6899 108.959 48.6899 108.959C48.6899 108.959 53.1865 111.269 56.9613 108.959C56.9613 108.959 58.2527 105.703 56.3419 104.46C54.4278 103.218 44.5529 95.3409 45.7941 87.522C46.7144 81.719 49.8585 74.3509 52.559 69.2419C53.4962 67.4687 54.3805 65.97 55.1002 64.903C57.8925 60.7585 58.9138 48.3995 52.6176 42.8749C48.7797 39.5043 45.0243 38.0637 41.6235 38.0637C39.3318 38.0637 37.2009 38.7184 35.3161 39.8778Z" fill="url(#paint5_linear_9613_206450)"/>
</g>
</g>
</g>
<g id="Mask group_7">
<mask id="mask6_9613_206450" style="mask-type:luminance" maskUnits="userSpaceOnUse" x="25" y="63" width="13" height="47">
<g id="Group_13">
<path id="Vector_13" fill-rule="evenodd" clip-rule="evenodd" d="M32.6341 73.4871C31.2924 75.6521 25.7974 79.8726 25.6474 81.6716C25.4975 83.4734 27.8809 100.017 27.8809 102.509C27.8809 105.002 27.2862 109.119 27.2862 109.119C27.2862 109.119 29.143 109.986 31.6268 109.993H31.6887C32.9304 109.99 34.3257 109.769 35.7213 109.119C35.7213 109.119 36.2196 105.213 34.8299 103.952C33.4399 102.691 31.1773 99.2421 31.1289 95.4304C31.0889 92.5071 33.3007 86.8771 35.6413 83.166L35.6466 83.1595C36.1768 81.8951 36.975 80.0347 37.559 75.6653C38.3943 69.4166 36.0912 68.755 32.9608 63.7576C32.9956 64.0322 33.949 71.3675 32.6341 73.4871Z" fill="white"/>
</g>
</mask>
<g mask="url(#mask6_9613_206450)">
<g id="Group_14">
<path id="Vector_14" fill-rule="evenodd" clip-rule="evenodd" d="M32.6341 73.4871C31.2924 75.6521 25.7974 79.8726 25.6474 81.6716C25.4975 83.4734 27.8809 100.017 27.8809 102.509C27.8809 105.002 27.2862 109.119 27.2862 109.119C27.2862 109.119 29.143 109.986 31.6268 109.993H31.6887C32.9304 109.99 34.3257 109.769 35.7213 109.119C35.7213 109.119 36.2196 105.213 34.8299 103.952C33.4399 102.691 31.1773 99.2421 31.1289 95.4304C31.0889 92.5071 33.3007 86.8771 35.6413 83.166L35.6466 83.1595C36.1768 81.8951 36.975 80.0347 37.559 75.6653C38.3943 69.4166 36.0912 68.755 32.9608 63.7576C32.9956 64.0322 33.949 71.3675 32.6341 73.4871Z" fill="url(#paint6_linear_9613_206450)"/>
</g>
</g>
</g>
<path id="Vector_15" fill-rule="evenodd" clip-rule="evenodd" d="M116.256 64.8083C108.804 62.5662 109.522 59.357 109.522 59.357C109.464 57.7764 111.543 55.9421 111.543 55.9421C111.337 53.3147 108.973 52.2822 108.91 50.1085C108.859 48.2716 109.193 47.1417 109.299 46.8364C108.562 46.8339 105.815 46.8647 102.828 47.3357C102.86 47.0817 102.886 46.8164 102.897 46.5369C102.897 46.5369 101.128 45.3473 98.9414 43.3331C99.8588 42.2323 100.262 41.4763 100.262 41.4763C100.87 39.622 101.508 37.9819 102.151 36.5352C104.612 38.1356 107.339 39.2368 109.651 39.9785C111.265 40.9571 112.497 41.7874 113.22 42.2893C113.657 42.5946 113.932 43.0824 113.955 43.6126C114.143 48.0376 116.358 58.0559 116.358 58.0559C115.321 60.3383 116.256 64.8083 116.256 64.8083Z" fill="#962351"/>
<g id="Mask group_8">
<mask id="mask7_9613_206450" style="mask-type:luminance" maskUnits="userSpaceOnUse" x="25" y="64" width="14" height="46">
<g id="Group_15">
<path id="Vector_16" fill-rule="evenodd" clip-rule="evenodd" d="M25.6406 64.2156H38.5448V110H25.6406V64.2156Z" fill="white"/>
</g>
</mask>
<g mask="url(#mask7_9613_206450)">
<g id="Group_16">
<path id="Vector_17" fill-rule="evenodd" clip-rule="evenodd" d="M33.4532 64.2156C36.7942 69.1652 39.2523 69.8198 38.3604 76.008C37.7373 80.3348 36.8856 82.1765 36.3201 83.4286L36.3141 83.4347C33.8164 87.1101 31.4554 92.6853 31.4985 95.58C31.5497 99.3547 33.965 102.77 35.4481 104.018C36.9316 105.267 36.3999 109.134 36.3999 109.134C31.8928 111.082 27.3969 109.134 27.3969 109.134C27.3969 109.134 28.0316 105.058 28.0316 102.59C28.0316 100.121 25.4878 83.7393 25.6479 81.9553C25.8079 80.174 31.6726 75.9949 33.1045 73.8509C34.5079 71.752 33.4904 64.4883 33.4532 64.2156Z" fill="#962351"/>
</g>
</g>
</g>
<path id="Vector_18" fill-rule="evenodd" clip-rule="evenodd" d="M23.8237 46.9784C19.8308 48.7627 15.2133 49.4241 11.1609 47.7956C9.85532 47.2716 8.64589 46.5148 7.56641 45.5776C7.60607 45.6972 7.65419 45.8138 7.70525 45.9309C8.56106 47.8764 10.387 49.1426 12.2434 50.0052C17.8044 52.5884 24.4765 52.2985 29.8341 49.275C30.1139 44.5235 33.121 41.1317 34.771 39.6139L34.7457 39.584C31.3035 42.3743 27.8136 45.194 23.8237 46.9784Z" fill="#CA2D65"/>
<path id="Vector_19" fill-rule="evenodd" clip-rule="evenodd" d="M92.1471 47.7011C90.1445 48.8894 87.6579 49.9649 84.6015 50.6575C73.8245 53.1108 63.8473 53.03 52.9644 65.4361L52.8516 65.4603C52.8516 65.4603 52.8552 65.4565 52.8592 65.4486C53.23 64.8963 65.1274 47.1776 70.4678 35.2185C75.7217 23.4565 82.0684 22.8686 82.4663 22.8442C82.1 22.9086 76.2133 24.117 75.1087 33.603C73.9729 43.399 81.7797 44.7364 86.0187 45.6669C88.2943 46.1705 90.5464 47.0205 92.1471 47.7011Z" fill="#962351"/>
<g id="Mask group_9">
<mask id="mask8_9613_206450" style="mask-type:luminance" maskUnits="userSpaceOnUse" x="0" y="15" width="19" height="31">
<g id="Group_17">
<path id="Vector_20" fill-rule="evenodd" clip-rule="evenodd" d="M15.1585 17.4716C14.0427 17.8986 12.8617 18.1015 11.7539 18.5525C9.07225 19.6373 6.99307 22.2133 6.42118 25.1591C6.32055 25.6755 6.26228 26.2036 6.06396 26.6866C5.86563 27.1705 5.49628 27.6132 5.00656 27.7232C4.13236 27.9139 3.35127 26.9225 3.35503 25.988C3.35879 25.0574 3.88373 24.2203 4.38478 23.4484C1.62762 26.2746 0.0109007 30.2807 0 34.318V34.3947C0 34.4355 0.000420584 34.4758 0.000841087 34.5161C0.0394141 38.62 3.08627 42.8496 5.94699 45.6611C3.81289 42.9812 3.02967 40.7786 2.27458 37.4256C1.67375 34.7563 1.44692 31.5992 3.06323 29.3603C2.97812 30.3842 3.49089 31.3594 4.1089 32.1558C4.72272 32.9562 5.46147 33.6592 5.96292 34.5407C6.4602 35.4265 6.68197 36.5801 6.18809 37.4664C7.28827 36.2917 7.69995 34.5937 7.88279 32.9601C8.06559 31.327 8.06975 29.6526 8.55151 28.0888C9.03703 26.524 10.1292 25.0329 11.6684 24.6919C10.767 25.2972 10.3976 26.5201 10.4479 27.6417C10.4986 28.7633 10.8952 29.8275 11.2097 30.9001C11.5246 31.9726 11.7694 33.1188 11.5091 34.2075C11.0391 36.1738 9.13431 37.3322 8.01109 38.9816C6.70923 40.8952 6.05474 43.5848 7.10838 45.6611C6.73523 44.1579 8.15867 42.6305 9.26261 41.5938C10.3665 40.5542 11.7032 39.7416 12.543 38.4613C13.6273 36.8115 13.7048 34.691 13.8683 32.6962C14.0356 30.7011 14.4163 28.5354 15.8695 27.2314C14.6067 27.4142 13.4679 28.3404 12.99 29.5799C12.403 28.3163 12.8885 26.7681 13.6931 25.6426C14.4939 24.517 15.5823 23.6479 16.4137 22.5468C17.9491 20.5192 18.5089 17.7237 17.8871 15.2209C17.3663 16.3386 16.2737 17.0452 15.1585 17.4716Z" fill="white"/>
</g>
</mask>
<g mask="url(#mask8_9613_206450)">
<g id="Group_18">
<path id="Vector_21" fill-rule="evenodd" clip-rule="evenodd" d="M15.1585 17.4716C14.0427 17.8986 12.8617 18.1015 11.7539 18.5525C9.07225 19.6373 6.99307 22.2133 6.42118 25.1591C6.32055 25.6755 6.26228 26.2036 6.06396 26.6866C5.86563 27.1705 5.49628 27.6132 5.00656 27.7232C4.13236 27.9139 3.35127 26.9225 3.35503 25.988C3.35879 25.0574 3.88373 24.2203 4.38478 23.4484C1.62762 26.2746 0.0109007 30.2807 0 34.318V34.3947C0 34.4355 0.000420584 34.4758 0.000841087 34.5161C0.0394141 38.62 3.08627 42.8496 5.94699 45.6611C3.81289 42.9812 3.02967 40.7786 2.27458 37.4256C1.67375 34.7563 1.44692 31.5992 3.06323 29.3603C2.97812 30.3842 3.49089 31.3594 4.1089 32.1558C4.72272 32.9562 5.46147 33.6592 5.96292 34.5407C6.4602 35.4265 6.68197 36.5801 6.18809 37.4664C7.28827 36.2917 7.69995 34.5937 7.88279 32.9601C8.06559 31.327 8.06975 29.6526 8.55151 28.0888C9.03703 26.524 10.1292 25.0329 11.6684 24.6919C10.767 25.2972 10.3976 26.5201 10.4479 27.6417C10.4986 28.7633 10.8952 29.8275 11.2097 30.9001C11.5246 31.9726 11.7694 33.1188 11.5091 34.2075C11.0391 36.1738 9.13431 37.3322 8.01109 38.9816C6.70923 40.8952 6.05474 43.5848 7.10838 45.6611C6.73523 44.1579 8.15867 42.6305 9.26261 41.5938C10.3665 40.5542 11.7032 39.7416 12.543 38.4613C13.6273 36.8115 13.7048 34.691 13.8683 32.6962C14.0356 30.7011 14.4163 28.5354 15.8695 27.2314C14.6067 27.4142 13.4679 28.3404 12.99 29.5799C12.403 28.3163 12.8885 26.7681 13.6931 25.6426C14.4939 24.517 15.5823 23.6479 16.4137 22.5468C17.9491 20.5192 18.5089 17.7237 17.8871 15.2209C17.3663 16.3386 16.2737 17.0452 15.1585 17.4716Z" fill="url(#paint7_linear_9613_206450)"/>
</g>
</g>
</g>
</g>
</g>
<defs>
<linearGradient id="paint0_linear_9613_206450" x1="141.998" y1="16.7501" x2="141.998" y2="7.61821" gradientUnits="userSpaceOnUse">
<stop stop-color="#90214F"/>
<stop offset="1" stop-color="#DB316B"/>
</linearGradient>
<linearGradient id="paint1_linear_9613_206450" x1="159.997" y1="101.874" x2="159.997" y2="1.57782" gradientUnits="userSpaceOnUse">
<stop stop-color="#DB316B"/>
<stop offset="1" stop-color="#E8A852"/>
</linearGradient>
<linearGradient id="paint2_linear_9613_206450" x1="135.516" y1="103.05" x2="135.516" y2="13.0306" gradientUnits="userSpaceOnUse">
<stop stop-color="#90214F"/>
<stop offset="1" stop-color="#DB316B"/>
</linearGradient>
<linearGradient id="paint3_linear_9613_206450" x1="123.563" y1="101.811" x2="123.563" y2="13.0187" gradientUnits="userSpaceOnUse">
<stop stop-color="#90214F"/>
<stop offset="1" stop-color="#DB316B"/>
</linearGradient>
<linearGradient id="paint4_linear_9613_206450" x1="122.937" y1="99.8175" x2="122.937" y2="1.61307" gradientUnits="userSpaceOnUse">
<stop stop-color="#DB316B"/>
<stop offset="1" stop-color="#E8A852"/>
</linearGradient>
<linearGradient id="paint5_linear_9613_206450" x1="65.3156" y1="109.903" x2="65.3156" y2="-1.73046" gradientUnits="userSpaceOnUse">
<stop stop-color="#DB316B"/>
<stop offset="1" stop-color="#E8A852"/>
</linearGradient>
<linearGradient id="paint6_linear_9613_206450" x1="44.7613" y1="109.532" x2="44.7613" y2="9.5328" gradientUnits="userSpaceOnUse">
<stop stop-color="#90214F"/>
<stop offset="1" stop-color="#DB316B"/>
</linearGradient>
<linearGradient id="paint7_linear_9613_206450" x1="13.5755" y1="50.563" x2="27.9612" y2="26.2589" gradientUnits="userSpaceOnUse">
<stop stop-color="#DB316B"/>
<stop offset="1" stop-color="#E8A852"/>
</linearGradient>
</defs>
</svg>
