<svg width="600" height="112" viewBox="0 0 600 112" fill="none" xmlns="http://www.w3.org/2000/svg">
<path d="M5.16663 23.5684C5.16663 19.1501 8.74835 15.5684 13.1666 15.5684H187.167C191.585 15.5684 195.167 19.1501 195.167 23.5684V81.5684C195.167 85.9866 191.585 89.5684 187.167 89.5684H13.1666C8.74835 89.5684 5.16663 85.9866 5.16663 81.5684V23.5684Z" fill="white"/>
<path d="M88.4492 40.2387C91.0072 40.2387 92.8912 40.7486 94.1011 41.7684C95.3282 42.7881 95.9418 44.1535 95.9418 45.8647C95.9418 46.9708 95.6653 47.9819 95.1122 48.898C94.5591 49.7968 93.7122 50.5227 92.5714 51.0758C91.448 51.6116 90.0566 51.8795 88.3974 51.8795C87.1184 51.8795 85.8566 51.7153 84.6122 51.3869C83.385 51.0412 82.3393 50.5572 81.4751 49.935L83.1344 46.7202C83.8258 47.2387 84.6208 47.6449 85.5196 47.9387C86.4183 48.2153 87.343 48.3535 88.2937 48.3535C89.348 48.3535 90.1776 48.1461 90.7825 47.7313C91.3875 47.3165 91.69 46.7375 91.69 45.9943C91.69 45.2165 91.3702 44.6288 90.7307 44.2313C90.1085 43.8338 89.0196 43.635 87.464 43.635H82.8233L83.7566 33.4202H94.827V36.7906H87.2566L86.9714 40.2387H88.4492ZM101.593 43.2202C100.262 43.2202 99.1729 42.7708 98.326 41.8721C97.4964 40.956 97.0815 39.7375 97.0815 38.2165C97.0815 36.6955 97.4964 35.4856 98.326 34.5869C99.1729 33.6708 100.262 33.2128 101.593 33.2128C102.924 33.2128 104.004 33.6708 104.833 34.5869C105.663 35.4856 106.078 36.6955 106.078 38.2165C106.078 39.7375 105.663 40.956 104.833 41.8721C104.004 42.7708 102.924 43.2202 101.593 43.2202ZM112.404 33.4202H115.489L103.096 51.5684H100.011L112.404 33.4202ZM101.593 41.0943C102.18 41.0943 102.638 40.8523 102.967 40.3684C103.312 39.8844 103.485 39.1671 103.485 38.2165C103.485 37.2659 103.312 36.5486 102.967 36.0646C102.638 35.5807 102.18 35.3387 101.593 35.3387C101.022 35.3387 100.564 35.5893 100.219 36.0906C99.8729 36.5745 99.7001 37.2832 99.7001 38.2165C99.7001 39.1498 99.8729 39.8671 100.219 40.3684C100.564 40.8523 101.022 41.0943 101.593 41.0943ZM113.907 51.7758C113.043 51.7758 112.265 51.577 111.574 51.1795C110.9 50.7647 110.373 50.177 109.993 49.4165C109.612 48.656 109.422 47.7745 109.422 46.7721C109.422 45.7696 109.612 44.8881 109.993 44.1276C110.373 43.3671 110.9 42.7881 111.574 42.3906C112.265 41.9758 113.043 41.7684 113.907 41.7684C115.238 41.7684 116.319 42.2264 117.148 43.1424C117.995 44.0412 118.419 45.2511 118.419 46.7721C118.419 48.293 117.995 49.5116 117.148 50.4276C116.319 51.3264 115.238 51.7758 113.907 51.7758ZM113.907 49.6498C114.495 49.6498 114.953 49.4079 115.282 48.9239C115.627 48.4227 115.8 47.7054 115.8 46.7721C115.8 45.8387 115.627 45.1301 115.282 44.6461C114.953 44.1449 114.495 43.8943 113.907 43.8943C113.337 43.8943 112.879 44.1363 112.533 44.6202C112.188 45.1042 112.015 45.8214 112.015 46.7721C112.015 47.7227 112.188 48.44 112.533 48.9239C112.879 49.4079 113.337 49.6498 113.907 49.6498ZM35.4811 71.5684H28.9996L27.7219 74.5684H25.2404L31.0737 61.6054H33.4441L39.2959 74.5684H36.7774L35.4811 71.5684ZM34.6848 69.6795L32.2404 64.0128L29.8145 69.6795H34.6848ZM49.4752 64.6795L45.2345 74.5684H42.8456L38.6048 64.6795H41.0122L44.0863 72.0128L47.253 64.6795H49.4752ZM59.947 69.6795C59.947 69.84 59.9346 70.0684 59.91 70.3647H52.1507C52.2865 71.093 52.6383 71.6733 53.2063 72.1054C53.7865 72.5251 54.5025 72.735 55.3544 72.735C56.4408 72.735 57.3359 72.377 58.0396 71.661L59.2803 73.0869C58.8359 73.6177 58.2742 74.019 57.5951 74.2906C56.9161 74.5622 56.1507 74.698 55.2988 74.698C54.2124 74.698 53.2556 74.4819 52.4285 74.0498C51.6013 73.6177 50.9593 73.019 50.5025 72.2535C50.0581 71.4758 49.8359 70.5992 49.8359 69.6239C49.8359 68.6609 50.0519 67.7968 50.484 67.0313C50.9285 66.2535 51.5396 65.6486 52.3174 65.2165C53.0951 64.7844 53.9717 64.5684 54.947 64.5684C55.91 64.5684 56.768 64.7844 57.5211 65.2165C58.2865 65.6363 58.8791 66.235 59.2988 67.0128C59.7309 67.7782 59.947 68.6671 59.947 69.6795ZM54.947 66.4202C54.2063 66.4202 53.5766 66.6424 53.0581 67.0869C52.5519 67.519 52.2433 68.0992 52.1322 68.8276H57.7433C57.6445 68.1116 57.3421 67.5313 56.8359 67.0869C56.3297 66.6424 55.7001 66.4202 54.947 66.4202ZM64.3742 66.1239C65.0409 65.0869 66.2137 64.5684 67.8927 64.5684V66.7721C67.6952 66.735 67.5162 66.7165 67.3557 66.7165C66.4545 66.7165 65.7508 66.9819 65.2446 67.5128C64.7384 68.0313 64.4853 68.7844 64.4853 69.7721V74.5684H62.1705V64.6795H64.3742V66.1239ZM73.58 64.5684C75.0367 64.5684 76.1479 64.9202 76.9133 65.6239C77.6911 66.3153 78.08 67.3647 78.08 68.7721V74.5684H75.8948V73.3647C75.6108 73.7968 75.2034 74.1301 74.6725 74.3647C74.154 74.5869 73.5244 74.698 72.7837 74.698C72.0429 74.698 71.3948 74.5745 70.8392 74.3276C70.2837 74.0684 69.8516 73.7165 69.5429 73.2721C69.2466 72.8153 69.0985 72.3029 69.0985 71.735C69.0985 70.8461 69.4256 70.1363 70.08 69.6054C70.7466 69.0622 71.7898 68.7906 73.2096 68.7906H75.7651V68.6424C75.7651 67.9511 75.5553 67.4202 75.1355 67.0498C74.7281 66.6795 74.117 66.4943 73.3022 66.4943C72.7466 66.4943 72.1972 66.5807 71.654 66.7535C71.1232 66.9264 70.6725 67.1671 70.3022 67.4758L69.3948 65.7906C69.9133 65.3955 70.5367 65.093 71.2651 64.8832C71.9935 64.6733 72.7651 64.5684 73.58 64.5684ZM73.2651 73.0128C73.8454 73.0128 74.3577 72.8832 74.8022 72.6239C75.259 72.3523 75.58 71.9696 75.7651 71.4758V70.3276H73.3763C72.0429 70.3276 71.3763 70.7659 71.3763 71.6424C71.3763 72.0622 71.5429 72.3955 71.8763 72.6424C72.2096 72.8893 72.6725 73.0128 73.2651 73.0128ZM90.956 64.6795V73.0684C90.956 76.5498 89.1782 78.2906 85.6226 78.2906C84.672 78.2906 83.7708 78.1671 82.9189 77.9202C82.0671 77.6856 81.3634 77.34 80.8078 76.8832L81.8449 75.1424C82.277 75.5005 82.8202 75.7844 83.4745 75.9943C84.1412 76.2165 84.814 76.3276 85.493 76.3276C86.5794 76.3276 87.3757 76.0807 87.8819 75.5869C88.3881 75.0931 88.6412 74.34 88.6412 73.3276V72.8091C88.2461 73.2412 87.7646 73.5684 87.1967 73.7906C86.6288 74.0128 86.0054 74.1239 85.3263 74.1239C84.3881 74.1239 83.5362 73.9264 82.7708 73.5313C82.0177 73.1239 81.4189 72.556 80.9745 71.8276C80.5424 71.0992 80.3263 70.2659 80.3263 69.3276C80.3263 68.3893 80.5424 67.5622 80.9745 66.8461C81.4189 66.1177 82.0177 65.556 82.7708 65.1609C83.5362 64.7659 84.3881 64.5684 85.3263 64.5684C86.0424 64.5684 86.6905 64.6856 87.2708 64.9202C87.8634 65.1548 88.3572 65.5128 88.7523 65.9943V64.6795H90.956ZM85.6782 72.161C86.5547 72.161 87.2708 71.9017 87.8263 71.3832C88.3942 70.8523 88.6782 70.1671 88.6782 69.3276C88.6782 68.5005 88.3942 67.8276 87.8263 67.3091C87.2708 66.7906 86.5547 66.5313 85.6782 66.5313C84.7893 66.5313 84.0609 66.7906 83.493 67.3091C82.9375 67.8276 82.6597 68.5005 82.6597 69.3276C82.6597 70.1671 82.9375 70.8523 83.493 71.3832C84.0609 71.9017 84.7893 72.161 85.6782 72.161ZM103.296 69.6795C103.296 69.84 103.283 70.0684 103.258 70.3647H95.4992C95.635 71.093 95.9869 71.6733 96.5548 72.1054C97.135 72.5251 97.8511 72.735 98.7029 72.735C99.7894 72.735 100.684 72.377 101.388 71.661L102.629 73.0869C102.184 73.6177 101.623 74.019 100.944 74.2906C100.265 74.5622 99.4992 74.698 98.6474 74.698C97.561 74.698 96.6042 74.4819 95.777 74.0498C94.9498 73.6177 94.3079 73.019 93.8511 72.2535C93.4066 71.4758 93.1844 70.5992 93.1844 69.6239C93.1844 68.6609 93.4005 67.7968 93.8326 67.0313C94.277 66.2535 94.8881 65.6486 95.6659 65.2165C96.4437 64.7844 97.3202 64.5684 98.2955 64.5684C99.2585 64.5684 100.117 64.7844 100.87 65.2165C101.635 65.6363 102.228 66.235 102.647 67.0128C103.079 67.7782 103.296 68.6671 103.296 69.6795ZM98.2955 66.4202C97.5548 66.4202 96.9252 66.6424 96.4066 67.0869C95.9005 67.519 95.5918 68.0992 95.4807 68.8276H101.092C100.993 68.1116 100.691 67.5313 100.184 67.0869C99.6782 66.6424 99.0486 66.4202 98.2955 66.4202ZM119.341 74.5684L116.693 70.7721C116.581 70.7844 116.415 70.7906 116.193 70.7906H113.267V74.5684H110.859V61.6054H116.193C117.316 61.6054 118.291 61.7906 119.118 62.1609C119.958 62.5313 120.6 63.0622 121.044 63.7535C121.489 64.4449 121.711 65.2659 121.711 66.2165C121.711 67.1918 121.47 68.0313 120.989 68.735C120.52 69.4387 119.841 69.9634 118.952 70.3091L121.933 74.5684H119.341ZM119.285 66.2165C119.285 65.3893 119.014 64.7535 118.47 64.3091C117.927 63.8647 117.131 63.6424 116.081 63.6424H113.267V68.8091H116.081C117.131 68.8091 117.927 68.5869 118.47 68.1424C119.014 67.6856 119.285 67.0437 119.285 66.2165ZM133.479 69.6795C133.479 69.84 133.466 70.0684 133.442 70.3647H125.682C125.818 71.093 126.17 71.6733 126.738 72.1054C127.318 72.5251 128.034 72.735 128.886 72.735C129.972 72.735 130.867 72.377 131.571 71.661L132.812 73.0869C132.367 73.6177 131.806 74.019 131.127 74.2906C130.448 74.5622 129.682 74.698 128.83 74.698C127.744 74.698 126.787 74.4819 125.96 74.0498C125.133 73.6177 124.491 73.019 124.034 72.2535C123.59 71.4758 123.367 70.5992 123.367 69.6239C123.367 68.6609 123.583 67.7968 124.016 67.0313C124.46 66.2535 125.071 65.6486 125.849 65.2165C126.627 64.7844 127.503 64.5684 128.479 64.5684C129.442 64.5684 130.3 64.7844 131.053 65.2165C131.818 65.6363 132.411 66.235 132.83 67.0128C133.263 67.7782 133.479 68.6671 133.479 69.6795ZM128.479 66.4202C127.738 66.4202 127.108 66.6424 126.59 67.0869C126.083 67.519 125.775 68.0992 125.664 68.8276H131.275C131.176 68.1116 130.874 67.5313 130.367 67.0869C129.861 66.6424 129.232 66.4202 128.479 66.4202ZM141.647 74.0313C141.375 74.2535 141.042 74.4202 140.647 74.5313C140.264 74.6424 139.856 74.698 139.424 74.698C138.338 74.698 137.498 74.414 136.906 73.8461C136.313 73.2782 136.017 72.4511 136.017 71.3647V66.6054H134.387V64.7535H136.017V62.4943H138.332V64.7535H140.98V66.6054H138.332V71.3091C138.332 71.7906 138.449 72.161 138.684 72.4202C138.918 72.6671 139.258 72.7906 139.702 72.7906C140.221 72.7906 140.653 72.6548 140.998 72.3832L141.647 74.0313ZM153.125 64.6795V74.5684H150.921V73.3091C150.551 73.7535 150.088 74.0992 149.532 74.3461C148.977 74.5807 148.378 74.698 147.736 74.698C146.415 74.698 145.372 74.3338 144.606 73.6054C143.853 72.8647 143.477 71.7721 143.477 70.3276V64.6795H145.791V70.0128C145.791 70.9017 145.989 71.5684 146.384 72.0128C146.791 72.4449 147.366 72.661 148.106 72.661C148.933 72.661 149.588 72.4079 150.069 71.9017C150.563 71.3832 150.81 70.6424 150.81 69.6795V64.6795H153.125ZM158.359 66.1239C159.026 65.0869 160.199 64.5684 161.878 64.5684V66.7721C161.68 66.735 161.501 66.7165 161.341 66.7165C160.44 66.7165 159.736 66.9819 159.23 67.5128C158.724 68.0313 158.47 68.7844 158.47 69.7721V74.5684H156.156V64.6795H158.359V66.1239ZM169.453 64.5684C170.7 64.5684 171.7 64.9326 172.453 65.6609C173.206 66.3893 173.582 67.4696 173.582 68.9017V74.5684H171.267V69.198C171.267 68.3338 171.064 67.6856 170.656 67.2535C170.249 66.8091 169.669 66.5869 168.916 66.5869C168.064 66.5869 167.391 66.8461 166.897 67.3647C166.403 67.8708 166.156 68.6054 166.156 69.5684V74.5684H163.842V64.6795H166.045V65.9572C166.428 65.5005 166.909 65.1548 167.49 64.9202C168.07 64.6856 168.724 64.5684 169.453 64.5684Z" fill="#134590"/>
<path d="M208.13 45.1611L206.734 45.1611C206.734 45.5028 206.86 45.8327 207.087 46.0881L208.13 45.1611ZM215.537 53.4944L216.491 54.5124C217.043 53.9952 217.082 53.1326 216.58 52.5674L215.537 53.4944ZM208.13 60.4389L207.175 59.4209L206.734 59.8344L206.734 60.4389L208.13 60.4389ZM206.734 26.6426L206.734 45.1611L209.525 45.1611L209.525 26.6426L206.734 26.6426ZM207.087 46.0881L214.494 54.4214L216.58 52.5674L209.172 44.2341L207.087 46.0881ZM214.583 52.4765L207.175 59.4209L209.084 61.4568L216.491 54.5124L214.583 52.4765ZM206.734 60.4389L206.734 78.4944L209.525 78.4944L209.525 60.4389L206.734 60.4389Z" fill="#195BBD"/>
<path d="M228.5 23.5684C228.5 19.1501 232.082 15.5684 236.5 15.5684H388.5C392.918 15.5684 396.5 19.1501 396.5 23.5684V81.5684C396.5 85.9866 392.918 89.5684 388.5 89.5684H236.5C232.082 89.5684 228.5 85.9866 228.5 81.5684V23.5684Z" fill="white"/>
<path d="M306.637 33.4202V51.5684H302.437V36.7906H298.807V33.4202H306.637ZM317.567 51.8795C316.063 51.8795 314.724 51.5079 313.549 50.7647C312.373 50.0214 311.449 48.9498 310.775 47.5498C310.118 46.1326 309.789 44.4474 309.789 42.4943C309.789 40.5412 310.118 38.8646 310.775 37.4646C311.449 36.0474 312.373 34.9671 313.549 34.2239C314.724 33.4807 316.063 33.1091 317.567 33.1091C319.071 33.1091 320.41 33.4807 321.586 34.2239C322.761 34.9671 323.677 36.0474 324.334 37.4646C325.008 38.8646 325.345 40.5412 325.345 42.4943C325.345 44.4474 325.008 46.1326 324.334 47.5498C323.677 48.9498 322.761 50.0214 321.586 50.7647C320.41 51.5079 319.071 51.8795 317.567 51.8795ZM317.567 48.3276C318.673 48.3276 319.537 47.8523 320.16 46.9017C320.799 45.9511 321.119 44.4819 321.119 42.4943C321.119 40.5066 320.799 39.0375 320.16 38.0869C319.537 37.1363 318.673 36.6609 317.567 36.6609C316.478 36.6609 315.614 37.1363 314.975 38.0869C314.352 39.0375 314.041 40.5066 314.041 42.4943C314.041 44.4819 314.352 45.9511 314.975 46.9017C315.614 47.8523 316.478 48.3276 317.567 48.3276ZM261.975 61.6054V74.5684H259.568V69.0128H252.864V74.5684H250.457V61.6054H252.864V66.9572H259.568V61.6054H261.975ZM269.671 74.698C268.671 74.698 267.77 74.4819 266.967 74.0498C266.165 73.6177 265.535 73.019 265.078 72.2535C264.634 71.4758 264.412 70.5992 264.412 69.6239C264.412 68.6486 264.634 67.7782 265.078 67.0128C265.535 66.2474 266.165 65.6486 266.967 65.2165C267.77 64.7844 268.671 64.5684 269.671 64.5684C270.683 64.5684 271.591 64.7844 272.393 65.2165C273.196 65.6486 273.819 66.2474 274.264 67.0128C274.72 67.7782 274.949 68.6486 274.949 69.6239C274.949 70.5992 274.72 71.4758 274.264 72.2535C273.819 73.019 273.196 73.6177 272.393 74.0498C271.591 74.4819 270.683 74.698 269.671 74.698ZM269.671 72.7165C270.523 72.7165 271.227 72.4326 271.782 71.8647C272.338 71.2968 272.615 70.5498 272.615 69.6239C272.615 68.698 272.338 67.9511 271.782 67.3832C271.227 66.8153 270.523 66.5313 269.671 66.5313C268.819 66.5313 268.115 66.8153 267.56 67.3832C267.017 67.9511 266.745 68.698 266.745 69.6239C266.745 70.5498 267.017 71.2968 267.56 71.8647C268.115 72.4326 268.819 72.7165 269.671 72.7165ZM277.162 60.8276H279.477V74.5684H277.162V60.8276ZM292.201 60.8276V74.5684H289.978V73.2906C289.596 73.7597 289.12 74.1116 288.552 74.3461C287.997 74.5807 287.38 74.698 286.701 74.698C285.75 74.698 284.892 74.4881 284.126 74.0684C283.373 73.6486 282.781 73.056 282.349 72.2906C281.917 71.5128 281.701 70.6239 281.701 69.6239C281.701 68.6239 281.917 67.7412 282.349 66.9758C282.781 66.2103 283.373 65.6177 284.126 65.198C284.892 64.7782 285.75 64.5684 286.701 64.5684C287.355 64.5684 287.954 64.6795 288.497 64.9017C289.04 65.1239 289.503 65.4572 289.886 65.9017V60.8276H292.201ZM286.978 72.7165C287.534 72.7165 288.034 72.5931 288.478 72.3461C288.923 72.0869 289.275 71.7227 289.534 71.2535C289.793 70.7844 289.923 70.2412 289.923 69.6239C289.923 69.0066 289.793 68.4634 289.534 67.9943C289.275 67.5251 288.923 67.1671 288.478 66.9202C288.034 66.6609 287.534 66.5313 286.978 66.5313C286.423 66.5313 285.923 66.6609 285.478 66.9202C285.034 67.1671 284.682 67.5251 284.423 67.9943C284.163 68.4634 284.034 69.0066 284.034 69.6239C284.034 70.2412 284.163 70.7844 284.423 71.2535C284.682 71.7227 285.034 72.0869 285.478 72.3461C285.923 72.5931 286.423 72.7165 286.978 72.7165ZM295.229 64.6795H297.544V74.5684H295.229V64.6795ZM296.395 63.0498C295.976 63.0498 295.624 62.9202 295.34 62.6609C295.056 62.3893 294.914 62.056 294.914 61.6609C294.914 61.2659 295.056 60.9387 295.34 60.6795C295.624 60.4079 295.976 60.2721 296.395 60.2721C296.815 60.2721 297.167 60.4017 297.451 60.6609C297.735 60.9079 297.877 61.2227 297.877 61.6054C297.877 62.0128 297.735 62.3585 297.451 62.6424C297.179 62.914 296.827 63.0498 296.395 63.0498ZM306.193 64.5684C307.44 64.5684 308.44 64.9326 309.193 65.6609C309.946 66.3893 310.322 67.4696 310.322 68.9017V74.5684H308.008V69.198C308.008 68.3338 307.804 67.6856 307.397 67.2535C306.989 66.8091 306.409 66.5869 305.656 66.5869C304.804 66.5869 304.131 66.8461 303.637 67.3647C303.143 67.8708 302.897 68.6054 302.897 69.5684V74.5684H300.582V64.6795H302.785V65.9572C303.168 65.5005 303.65 65.1548 304.23 64.9202C304.81 64.6856 305.464 64.5684 306.193 64.5684ZM323.164 64.6795V73.0684C323.164 76.5498 321.386 78.2906 317.831 78.2906C316.88 78.2906 315.979 78.1671 315.127 77.9202C314.275 77.6856 313.572 77.34 313.016 76.8832L314.053 75.1424C314.485 75.5005 315.028 75.7844 315.683 75.9943C316.349 76.2165 317.022 76.3276 317.701 76.3276C318.788 76.3276 319.584 76.0807 320.09 75.5869C320.596 75.0931 320.849 74.34 320.849 73.3276V72.8091C320.454 73.2412 319.973 73.5684 319.405 73.7906C318.837 74.0128 318.214 74.1239 317.535 74.1239C316.596 74.1239 315.744 73.9264 314.979 73.5313C314.226 73.1239 313.627 72.556 313.183 71.8276C312.751 71.0992 312.535 70.2659 312.535 69.3276C312.535 68.3893 312.751 67.5622 313.183 66.8461C313.627 66.1177 314.226 65.556 314.979 65.1609C315.744 64.7659 316.596 64.5684 317.535 64.5684C318.251 64.5684 318.899 64.6856 319.479 64.9202C320.072 65.1548 320.565 65.5128 320.961 65.9943V64.6795H323.164ZM317.886 72.161C318.763 72.161 319.479 71.9017 320.035 71.3832C320.602 70.8523 320.886 70.1671 320.886 69.3276C320.886 68.5005 320.602 67.8276 320.035 67.3091C319.479 66.7906 318.763 66.5313 317.886 66.5313C316.998 66.5313 316.269 66.7906 315.701 67.3091C315.146 67.8276 314.868 68.5005 314.868 69.3276C314.868 70.1671 315.146 70.8523 315.701 71.3832C316.269 71.9017 316.998 72.161 317.886 72.161ZM331.548 61.6054H337.214C338.597 61.6054 339.825 61.877 340.899 62.4202C341.974 62.9511 342.807 63.7103 343.399 64.698C343.992 65.6733 344.288 66.8029 344.288 68.0869C344.288 69.3708 343.992 70.5066 343.399 71.4943C342.807 72.4696 341.974 73.2289 340.899 73.7721C339.825 74.3029 338.597 74.5684 337.214 74.5684H331.548V61.6054ZM337.103 72.5313C338.054 72.5313 338.887 72.3523 339.603 71.9943C340.332 71.6239 340.887 71.1054 341.27 70.4387C341.665 69.7597 341.862 68.9758 341.862 68.0869C341.862 67.198 341.665 66.4202 341.27 65.7535C340.887 65.0745 340.332 64.556 339.603 64.198C338.887 63.8276 338.054 63.6424 337.103 63.6424H333.955V72.5313H337.103ZM350.403 64.5684C351.859 64.5684 352.971 64.9202 353.736 65.6239C354.514 66.3153 354.903 67.3647 354.903 68.7721V74.5684H352.717V73.3647C352.434 73.7968 352.026 74.1301 351.495 74.3647C350.977 74.5869 350.347 74.698 349.606 74.698C348.866 74.698 348.217 74.5745 347.662 74.3276C347.106 74.0684 346.674 73.7165 346.366 73.2721C346.069 72.8153 345.921 72.3029 345.921 71.735C345.921 70.8461 346.248 70.1363 346.903 69.6054C347.569 69.0622 348.613 68.7906 350.032 68.7906H352.588V68.6424C352.588 67.9511 352.378 67.4202 351.958 67.0498C351.551 66.6795 350.94 66.4943 350.125 66.4943C349.569 66.4943 349.02 66.5807 348.477 66.7535C347.946 66.9264 347.495 67.1671 347.125 67.4758L346.217 65.7906C346.736 65.3955 347.359 65.093 348.088 64.8832C348.816 64.6733 349.588 64.5684 350.403 64.5684ZM350.088 73.0128C350.668 73.0128 351.18 72.8832 351.625 72.6239C352.082 72.3523 352.403 71.9696 352.588 71.4758V70.3276H350.199C348.866 70.3276 348.199 70.7659 348.199 71.6424C348.199 72.0622 348.366 72.3955 348.699 72.6424C349.032 72.8893 349.495 73.0128 350.088 73.0128ZM366.952 64.6795L362.322 75.3647C361.89 76.4387 361.365 77.1918 360.748 77.6239C360.131 78.0684 359.384 78.2906 358.507 78.2906C358.014 78.2906 357.526 78.2103 357.044 78.0498C356.563 77.8893 356.168 77.6671 355.859 77.3832L356.785 75.6795C357.007 75.8893 357.267 76.056 357.563 76.1795C357.872 76.3029 358.18 76.3647 358.489 76.3647C358.896 76.3647 359.23 76.2597 359.489 76.0498C359.76 75.84 360.007 75.4881 360.23 74.9943L360.396 74.6054L356.081 64.6795H358.489L361.6 71.9943L364.73 64.6795H366.952ZM371.328 74.698C370.525 74.698 369.741 74.5931 368.976 74.3832C368.21 74.1733 367.599 73.9079 367.142 73.5869L368.031 71.8276C368.476 72.1239 369.007 72.3647 369.624 72.5498C370.253 72.7227 370.871 72.8091 371.476 72.8091C372.858 72.8091 373.55 72.4449 373.55 71.7165C373.55 71.3708 373.371 71.1301 373.013 70.9943C372.667 70.8585 372.105 70.7289 371.328 70.6054C370.513 70.4819 369.846 70.34 369.328 70.1795C368.821 70.019 368.377 69.7412 367.994 69.3461C367.624 68.9387 367.439 68.377 367.439 67.6609C367.439 66.7227 367.828 65.9758 368.605 65.4202C369.395 64.8523 370.457 64.5684 371.791 64.5684C372.47 64.5684 373.149 64.6486 373.828 64.8091C374.507 64.9572 375.062 65.1609 375.494 65.4202L374.605 67.1795C373.766 66.6856 372.821 66.4387 371.772 66.4387C371.093 66.4387 370.574 66.5437 370.216 66.7535C369.871 66.9511 369.698 67.2165 369.698 67.5498C369.698 67.9202 369.883 68.1856 370.253 68.3461C370.636 68.4943 371.223 68.6363 372.013 68.7721C372.803 68.8955 373.451 69.0375 373.957 69.198C374.463 69.3585 374.895 69.6301 375.253 70.0128C375.624 70.3955 375.809 70.9387 375.809 71.6424C375.809 72.5684 375.408 73.3091 374.605 73.8647C373.803 74.4202 372.71 74.698 371.328 74.698Z" fill="#134590"/>
<path d="M409.463 45.1611L408.068 45.1611C408.068 45.5028 408.193 45.8327 408.42 46.0881L409.463 45.1611ZM416.87 53.4944L417.825 54.5124C418.376 53.9952 418.416 53.1326 417.913 52.5674L416.87 53.4944ZM409.463 60.4389L408.509 59.4209L408.068 59.8344L408.068 60.4389L409.463 60.4389ZM408.068 26.6426L408.068 45.1611L410.858 45.1611L410.858 26.6426L408.068 26.6426ZM408.42 46.0881L415.827 54.4214L417.913 52.5674L410.506 44.2341L408.42 46.0881ZM415.916 52.4765L408.509 59.4209L410.417 61.4568L417.825 54.5124L415.916 52.4765ZM408.068 60.4389L408.068 78.4944L410.858 78.4944L410.858 60.4389L408.068 60.4389Z" fill="#195BBD"/>
<path d="M429.833 23.5684C429.833 19.1501 433.415 15.5684 437.833 15.5684H586.833C591.252 15.5684 594.833 19.1501 594.833 23.5684V81.5684C594.833 85.9866 591.252 89.5684 586.833 89.5684H437.833C433.415 89.5684 429.833 85.9866 429.833 81.5684V23.5684Z" fill="white"/>
<path d="M499.6 33.4202V36.1424L492.86 51.5684H488.297L494.804 36.8424H488.789V39.798H485.056V33.4202H499.6ZM508.742 51.8795C507.238 51.8795 505.898 51.5079 504.723 50.7647C503.548 50.0214 502.623 48.9498 501.949 47.5498C501.292 46.1326 500.964 44.4474 500.964 42.4943C500.964 40.5412 501.292 38.8646 501.949 37.4646C502.623 36.0474 503.548 34.9671 504.723 34.2239C505.898 33.4807 507.238 33.1091 508.742 33.1091C510.245 33.1091 511.585 33.4807 512.76 34.2239C513.935 34.9671 514.851 36.0474 515.508 37.4646C516.182 38.8646 516.519 40.5412 516.519 42.4943C516.519 44.4474 516.182 46.1326 515.508 47.5498C514.851 48.9498 513.935 50.0214 512.76 50.7647C511.585 51.5079 510.245 51.8795 508.742 51.8795ZM508.742 48.3276C509.848 48.3276 510.712 47.8523 511.334 46.9017C511.974 45.9511 512.293 44.4819 512.293 42.4943C512.293 40.5066 511.974 39.0375 511.334 38.0869C510.712 37.1363 509.848 36.6609 508.742 36.6609C507.653 36.6609 506.789 37.1363 506.149 38.0869C505.527 39.0375 505.216 40.5066 505.216 42.4943C505.216 44.4819 505.527 45.9511 506.149 46.9017C506.789 47.8523 507.653 48.3276 508.742 48.3276ZM522.76 43.2202C521.429 43.2202 520.34 42.7708 519.493 41.8721C518.664 40.956 518.249 39.7375 518.249 38.2165C518.249 36.6955 518.664 35.4856 519.493 34.5869C520.34 33.6708 521.429 33.2128 522.76 33.2128C524.091 33.2128 525.171 33.6708 526.001 34.5869C526.83 35.4856 527.245 36.6955 527.245 38.2165C527.245 39.7375 526.83 40.956 526.001 41.8721C525.171 42.7708 524.091 43.2202 522.76 43.2202ZM533.571 33.4202H536.656L524.264 51.5684H521.179L533.571 33.4202ZM522.76 41.0943C523.348 41.0943 523.806 40.8523 524.134 40.3684C524.48 39.8844 524.653 39.1671 524.653 38.2165C524.653 37.2659 524.48 36.5486 524.134 36.0646C523.806 35.5807 523.348 35.3387 522.76 35.3387C522.19 35.3387 521.732 35.5893 521.386 36.0906C521.04 36.5745 520.867 37.2832 520.867 38.2165C520.867 39.1498 521.04 39.8671 521.386 40.3684C521.732 40.8523 522.19 41.0943 522.76 41.0943ZM535.075 51.7758C534.211 51.7758 533.433 51.577 532.742 51.1795C532.067 50.7647 531.54 50.177 531.16 49.4165C530.78 48.656 530.59 47.7745 530.59 46.7721C530.59 45.7696 530.78 44.8881 531.16 44.1276C531.54 43.3671 532.067 42.7881 532.742 42.3906C533.433 41.9758 534.211 41.7684 535.075 41.7684C536.406 41.7684 537.486 42.2264 538.316 43.1424C539.163 44.0412 539.586 45.2511 539.586 46.7721C539.586 48.293 539.163 49.5116 538.316 50.4276C537.486 51.3264 536.406 51.7758 535.075 51.7758ZM535.075 49.6498C535.663 49.6498 536.121 49.4079 536.449 48.9239C536.795 48.4227 536.967 47.7054 536.967 46.7721C536.967 45.8387 536.795 45.1301 536.449 44.6461C536.121 44.1449 535.663 43.8943 535.075 43.8943C534.505 43.8943 534.046 44.1363 533.701 44.6202C533.355 45.1042 533.182 45.8214 533.182 46.7721C533.182 47.7227 533.355 48.44 533.701 48.9239C534.046 49.4079 534.505 49.6498 535.075 49.6498ZM455.629 74.7535C454.629 74.7535 453.66 74.6116 452.721 74.3276C451.795 74.0437 451.061 73.6671 450.518 73.198L451.351 71.3276C451.882 71.7474 452.53 72.093 453.295 72.3647C454.073 72.6239 454.851 72.7535 455.629 72.7535C456.592 72.7535 457.308 72.5992 457.777 72.2906C458.258 71.9819 458.499 71.5745 458.499 71.0684C458.499 70.698 458.363 70.3955 458.092 70.161C457.832 69.914 457.499 69.7227 457.092 69.5869C456.684 69.4511 456.129 69.2968 455.425 69.1239C454.437 68.8893 453.635 68.6548 453.018 68.4202C452.413 68.1856 451.888 67.8214 451.444 67.3276C451.011 66.8214 450.795 66.1424 450.795 65.2906C450.795 64.5745 450.987 63.9264 451.37 63.3461C451.765 62.7535 452.351 62.2844 453.129 61.9387C453.919 61.593 454.882 61.4202 456.018 61.4202C456.808 61.4202 457.586 61.519 458.351 61.7165C459.116 61.914 459.777 62.198 460.332 62.5684L459.573 64.4387C459.005 64.1054 458.413 63.8523 457.795 63.6795C457.178 63.5066 456.579 63.4202 455.999 63.4202C455.049 63.4202 454.339 63.5807 453.87 63.9017C453.413 64.2227 453.184 64.6486 453.184 65.1795C453.184 65.5498 453.314 65.8523 453.573 66.0869C453.845 66.3214 454.184 66.5066 454.592 66.6424C454.999 66.7782 455.555 66.9326 456.258 67.1054C457.221 67.3276 458.012 67.5622 458.629 67.8091C459.246 68.0437 459.771 68.4079 460.203 68.9017C460.647 69.3955 460.87 70.0622 460.87 70.9017C460.87 71.6177 460.672 72.2659 460.277 72.8461C459.894 73.4264 459.308 73.8893 458.518 74.235C457.728 74.5807 456.765 74.7535 455.629 74.7535ZM472.609 64.6795V74.5684H470.405V73.3091C470.034 73.7535 469.571 74.0992 469.016 74.3461C468.46 74.5807 467.862 74.698 467.22 74.698C465.899 74.698 464.855 74.3338 464.09 73.6054C463.337 72.8647 462.96 71.7721 462.96 70.3276V64.6795H465.275V70.0128C465.275 70.9017 465.473 71.5684 465.868 72.0128C466.275 72.4449 466.849 72.661 467.59 72.661C468.417 72.661 469.071 72.4079 469.553 71.9017C470.047 71.3832 470.294 70.6424 470.294 69.6795V64.6795H472.609ZM480.176 74.698C479.152 74.698 478.232 74.4819 477.417 74.0498C476.602 73.6177 475.967 73.019 475.51 72.2535C475.053 71.4758 474.825 70.5992 474.825 69.6239C474.825 68.6486 475.053 67.7782 475.51 67.0128C475.967 66.2474 476.596 65.6486 477.399 65.2165C478.213 64.7844 479.139 64.5684 480.176 64.5684C481.152 64.5684 482.004 64.7659 482.732 65.1609C483.473 65.556 484.028 66.1239 484.399 66.8647L482.621 67.9017C482.337 67.4449 481.979 67.1054 481.547 66.8832C481.127 66.6486 480.664 66.5313 480.158 66.5313C479.294 66.5313 478.578 66.8153 478.01 67.3832C477.442 67.9387 477.158 68.6856 477.158 69.6239C477.158 70.5622 477.436 71.3153 477.991 71.8832C478.559 72.4387 479.281 72.7165 480.158 72.7165C480.664 72.7165 481.127 72.6054 481.547 72.3832C481.979 72.1486 482.337 71.8029 482.621 71.3461L484.399 72.3832C484.016 73.1239 483.454 73.698 482.713 74.1054C481.985 74.5005 481.139 74.698 480.176 74.698ZM490.792 74.698C489.767 74.698 488.848 74.4819 488.033 74.0498C487.218 73.6177 486.582 73.019 486.125 72.2535C485.669 71.4758 485.44 70.5992 485.44 69.6239C485.44 68.6486 485.669 67.7782 486.125 67.0128C486.582 66.2474 487.212 65.6486 488.014 65.2165C488.829 64.7844 489.755 64.5684 490.792 64.5684C491.767 64.5684 492.619 64.7659 493.348 65.1609C494.088 65.556 494.644 66.1239 495.014 66.8647L493.236 67.9017C492.952 67.4449 492.594 67.1054 492.162 66.8832C491.743 66.6486 491.28 66.5313 490.773 66.5313C489.909 66.5313 489.193 66.8153 488.625 67.3832C488.057 67.9387 487.773 68.6856 487.773 69.6239C487.773 70.5622 488.051 71.3153 488.607 71.8832C489.175 72.4387 489.897 72.7165 490.773 72.7165C491.28 72.7165 491.743 72.6054 492.162 72.3832C492.594 72.1486 492.952 71.8029 493.236 71.3461L495.014 72.3832C494.631 73.1239 494.07 73.698 493.329 74.1054C492.601 74.5005 491.755 74.698 490.792 74.698ZM506.167 69.6795C506.167 69.84 506.155 70.0684 506.13 70.3647H498.371C498.506 71.093 498.858 71.6733 499.426 72.1054C500.006 72.5251 500.722 72.735 501.574 72.735C502.661 72.735 503.556 72.377 504.259 71.661L505.5 73.0869C505.056 73.6177 504.494 74.019 503.815 74.2906C503.136 74.5622 502.371 74.698 501.519 74.698C500.432 74.698 499.475 74.4819 498.648 74.0498C497.821 73.6177 497.179 73.019 496.722 72.2535C496.278 71.4758 496.056 70.5992 496.056 69.6239C496.056 68.6609 496.272 67.7968 496.704 67.0313C497.148 66.2535 497.759 65.6486 498.537 65.2165C499.315 64.7844 500.192 64.5684 501.167 64.5684C502.13 64.5684 502.988 64.7844 503.741 65.2165C504.506 65.6363 505.099 66.235 505.519 67.0128C505.951 67.7782 506.167 68.6671 506.167 69.6795ZM501.167 66.4202C500.426 66.4202 499.796 66.6424 499.278 67.0869C498.772 67.519 498.463 68.0992 498.352 68.8276H503.963C503.864 68.1116 503.562 67.5313 503.056 67.0869C502.55 66.6424 501.92 66.4202 501.167 66.4202ZM511.446 74.698C510.643 74.698 509.86 74.5931 509.094 74.3832C508.329 74.1733 507.718 73.9079 507.261 73.5869L508.15 71.8276C508.594 72.1239 509.125 72.3647 509.742 72.5498C510.372 72.7227 510.989 72.8091 511.594 72.8091C512.977 72.8091 513.668 72.4449 513.668 71.7165C513.668 71.3708 513.489 71.1301 513.131 70.9943C512.785 70.8585 512.224 70.7289 511.446 70.6054C510.631 70.4819 509.964 70.34 509.446 70.1795C508.94 70.019 508.495 69.7412 508.113 69.3461C507.742 68.9387 507.557 68.377 507.557 67.6609C507.557 66.7227 507.946 65.9758 508.724 65.4202C509.514 64.8523 510.576 64.5684 511.909 64.5684C512.588 64.5684 513.267 64.6486 513.946 64.8091C514.625 64.9572 515.181 65.1609 515.613 65.4202L514.724 67.1795C513.884 66.6856 512.94 66.4387 511.89 66.4387C511.211 66.4387 510.693 66.5437 510.335 66.7535C509.989 66.9511 509.816 67.2165 509.816 67.5498C509.816 67.9202 510.001 68.1856 510.372 68.3461C510.755 68.4943 511.341 68.6363 512.131 68.7721C512.921 68.8955 513.569 69.0375 514.076 69.198C514.582 69.3585 515.014 69.6301 515.372 70.0128C515.742 70.3955 515.927 70.9387 515.927 71.6424C515.927 72.5684 515.526 73.3091 514.724 73.8647C513.921 74.4202 512.829 74.698 511.446 74.698ZM520.976 74.698C520.174 74.698 519.39 74.5931 518.625 74.3832C517.859 74.1733 517.248 73.9079 516.791 73.5869L517.68 71.8276C518.125 72.1239 518.655 72.3647 519.273 72.5498C519.902 72.7227 520.52 72.8091 521.125 72.8091C522.507 72.8091 523.199 72.4449 523.199 71.7165C523.199 71.3708 523.02 71.1301 522.662 70.9943C522.316 70.8585 521.754 70.7289 520.976 70.6054C520.162 70.4819 519.495 70.34 518.976 70.1795C518.47 70.019 518.026 69.7412 517.643 69.3461C517.273 68.9387 517.088 68.377 517.088 67.6609C517.088 66.7227 517.476 65.9758 518.254 65.4202C519.044 64.8523 520.106 64.5684 521.439 64.5684C522.118 64.5684 522.797 64.6486 523.476 64.8091C524.155 64.9572 524.711 65.1609 525.143 65.4202L524.254 67.1795C523.415 66.6856 522.47 66.4387 521.421 66.4387C520.742 66.4387 520.223 66.5437 519.865 66.7535C519.52 66.9511 519.347 67.2165 519.347 67.5498C519.347 67.9202 519.532 68.1856 519.902 68.3461C520.285 68.4943 520.872 68.6363 521.662 68.7721C522.452 68.8955 523.1 69.0375 523.606 69.198C524.112 69.3585 524.544 69.6301 524.902 70.0128C525.273 70.3955 525.458 70.9387 525.458 71.6424C525.458 72.5684 525.057 73.3091 524.254 73.8647C523.452 74.4202 522.359 74.698 520.976 74.698ZM541.273 74.5684L538.625 70.7721C538.514 70.7844 538.347 70.7906 538.125 70.7906H535.199V74.5684H532.792V61.6054H538.125C539.248 61.6054 540.224 61.7906 541.051 62.1609C541.89 62.5313 542.532 63.0622 542.977 63.7535C543.421 64.4449 543.643 65.2659 543.643 66.2165C543.643 67.1918 543.403 68.0313 542.921 68.735C542.452 69.4387 541.773 69.9634 540.884 70.3091L543.866 74.5684H541.273ZM541.217 66.2165C541.217 65.3893 540.946 64.7535 540.403 64.3091C539.859 63.8647 539.063 63.6424 538.014 63.6424H535.199V68.8091H538.014C539.063 68.8091 539.859 68.5869 540.403 68.1424C540.946 67.6856 541.217 67.0437 541.217 66.2165ZM549.802 64.5684C551.259 64.5684 552.37 64.9202 553.135 65.6239C553.913 66.3153 554.302 67.3647 554.302 68.7721V74.5684H552.117V73.3647C551.833 73.7968 551.425 74.1301 550.895 74.3647C550.376 74.5869 549.746 74.698 549.006 74.698C548.265 74.698 547.617 74.5745 547.061 74.3276C546.506 74.0684 546.074 73.7165 545.765 73.2721C545.469 72.8153 545.321 72.3029 545.321 71.735C545.321 70.8461 545.648 70.1363 546.302 69.6054C546.969 69.0622 548.012 68.7906 549.432 68.7906H551.987V68.6424C551.987 67.9511 551.777 67.4202 551.358 67.0498C550.95 66.6795 550.339 66.4943 549.524 66.4943C548.969 66.4943 548.419 66.5807 547.876 66.7535C547.345 66.9264 546.895 67.1671 546.524 67.4758L545.617 65.7906C546.135 65.3955 546.759 65.093 547.487 64.8832C548.216 64.6733 548.987 64.5684 549.802 64.5684ZM549.487 73.0128C550.067 73.0128 550.58 72.8832 551.024 72.6239C551.481 72.3523 551.802 71.9696 551.987 71.4758V70.3276H549.598C548.265 70.3276 547.598 70.7659 547.598 71.6424C547.598 72.0622 547.765 72.3955 548.098 72.6424C548.432 72.8893 548.895 73.0128 549.487 73.0128ZM563.217 74.0313C562.946 74.2535 562.612 74.4202 562.217 74.5313C561.834 74.6424 561.427 74.698 560.995 74.698C559.909 74.698 559.069 74.414 558.476 73.8461C557.884 73.2782 557.588 72.4511 557.588 71.3647V66.6054H555.958V64.7535H557.588V62.4943H559.902V64.7535H562.551V66.6054H559.902V71.3091C559.902 71.7906 560.02 72.161 560.254 72.4202C560.489 72.6671 560.828 72.7906 561.273 72.7906C561.791 72.7906 562.223 72.6548 562.569 72.3832L563.217 74.0313ZM574.092 69.6795C574.092 69.84 574.08 70.0684 574.055 70.3647H566.296C566.432 71.093 566.784 71.6733 567.351 72.1054C567.932 72.5251 568.648 72.735 569.5 72.735C570.586 72.735 571.481 72.377 572.185 71.661L573.426 73.0869C572.981 73.6177 572.419 74.019 571.74 74.2906C571.061 74.5622 570.296 74.698 569.444 74.698C568.358 74.698 567.401 74.4819 566.574 74.0498C565.747 73.6177 565.105 73.019 564.648 72.2535C564.203 71.4758 563.981 70.5992 563.981 69.6239C563.981 68.6609 564.197 67.7968 564.629 67.0313C565.074 66.2535 565.685 65.6486 566.463 65.2165C567.24 64.7844 568.117 64.5684 569.092 64.5684C570.055 64.5684 570.913 64.7844 571.666 65.2165C572.432 65.6363 573.024 66.235 573.444 67.0128C573.876 67.7782 574.092 68.6671 574.092 69.6795ZM569.092 66.4202C568.351 66.4202 567.722 66.6424 567.203 67.0869C566.697 67.519 566.389 68.0992 566.277 68.8276H571.889C571.79 68.1116 571.487 67.5313 570.981 67.0869C570.475 66.6424 569.845 66.4202 569.092 66.4202Z" fill="#134590"/>
</svg>
