<svg width="12" height="12" viewBox="0 0 12 12" fill="none" xmlns="http://www.w3.org/2000/svg">
<circle cx="6" cy="6" r="6" fill="#0D0D0D"/>
<path fill-rule="evenodd" clip-rule="evenodd" d="M4.05324 4.05327C4.12423 3.98226 4.23935 3.98224 4.31036 4.05324L6 5.74239L7.68964 4.05324C7.76065 3.98224 7.87577 3.98226 7.94676 4.05327C8.01776 4.12429 8.01774 4.23941 7.94673 4.3104L6.25717 5.99948L7.94673 7.68857C8.01774 7.75956 8.01776 7.87468 7.94676 7.9457C7.87577 8.01671 7.76065 8.01673 7.68964 7.94573L6 6.25658L4.31036 7.94573C4.23935 8.01673 4.12423 8.01671 4.05324 7.9457C3.98224 7.87468 3.98226 7.75956 4.05327 7.68857L5.74283 5.99948L4.05327 4.3104C3.98226 4.23941 3.98224 4.12429 4.05324 4.05327Z" fill="white" stroke="white" stroke-linecap="round"/>
</svg>
