<svg width="12" height="12" viewBox="0 0 12 12" fill="none" xmlns="http://www.w3.org/2000/svg">
<path fill-rule="evenodd" clip-rule="evenodd" d="M0.646396 0.646497C0.841631 0.451207 1.15821 0.451162 1.3535 0.646396L6 5.29157L10.6465 0.646396C10.8418 0.451162 11.1584 0.451207 11.3536 0.646497C11.5488 0.841787 11.5488 1.15837 11.3535 1.3536L6.70721 5.99858L11.3535 10.6436C11.5488 10.8388 11.5488 11.1554 11.3536 11.3507C11.1584 11.546 10.8418 11.546 10.6465 11.3508L6 6.70559L1.3535 11.3508C1.15821 11.546 0.841631 11.546 0.646396 11.3507C0.451162 11.1554 0.451207 10.8388 0.646497 10.6436L5.29279 5.99858L0.646497 1.3536C0.451207 1.15837 0.451162 0.841787 0.646396 0.646497Z" fill="black"/>
</svg>
