<svg width="161" height="50" viewBox="0 0 161 50" fill="none" xmlns="http://www.w3.org/2000/svg">
<path d="M44.1997 13.9947H34.4622V20.5878H45.8902V24.6619H29.3906V0.0478516H45.8563V4.15578H34.4622V10.022H44.1997V13.9947Z" fill="#231F20"/>
<path d="M67.7293 4.15578H60.1896V24.6619H55.1181V4.15578H47.6797V0.0478516H67.7293V4.15578Z" fill="#231F20"/>
<path d="M75.6966 15.9895V24.6619H70.625V0.0478516H80.2272C82.0756 0.0478516 83.7013 0.385951 85.1044 1.06211C86.5075 1.73839 87.5867 2.69909 88.3417 3.9445C89.0969 5.1898 89.4744 6.60704 89.4744 8.19612C89.4744 10.6079 88.6489 12.5099 86.9978 13.9018C85.3467 15.2935 83.0617 15.9895 80.1427 15.9895H75.6966ZM75.6966 11.8815H80.2272C81.5683 11.8815 82.5912 11.5659 83.2955 10.9349C84 10.3037 84.3521 9.40212 84.3521 8.23C84.3521 7.02415 83.9972 6.04919 83.2871 5.30532C82.5771 4.56157 81.5966 4.17835 80.3456 4.15578H75.6966V11.8815Z" fill="#231F20"/>
<path d="M102.911 10.9517C102.246 10.8615 101.66 10.8164 101.153 10.8164C99.3047 10.8164 98.0932 11.4419 97.5185 12.6929V24.6618H92.6328V6.37036H97.248L97.3832 8.55113C98.3637 6.87189 99.7217 6.03229 101.457 6.03229C101.998 6.03229 102.505 6.10545 102.979 6.25204L102.911 10.9517Z" fill="#231F20"/>
<path d="M105.227 2.51884C105.227 1.78625 105.472 1.1833 105.962 0.710034C106.452 0.236649 107.12 0 107.965 0C108.799 0 109.464 0.236649 109.96 0.710034C110.456 1.1833 110.704 1.78625 110.704 2.51884C110.704 3.26271 110.453 3.8713 109.952 4.34457C109.45 4.81795 108.788 5.05456 107.965 5.05456C107.143 5.05456 106.48 4.81795 105.979 4.34457C105.477 3.8713 105.227 3.26271 105.227 2.51884Z" fill="#231F20"/>
<path d="M110.418 6.37042H105.516V24.6619H110.418V6.37042Z" fill="#231F20"/>
<path d="M119.019 6.37036L119.171 8.41584C120.467 6.82677 122.22 6.03229 124.428 6.03229C126.784 6.03229 128.401 6.96205 129.28 8.82162C130.565 6.96205 132.397 6.03229 134.774 6.03229C136.758 6.03229 138.234 6.60978 139.204 7.76503C140.173 8.92016 140.658 10.6586 140.658 12.9803V24.6618H135.755V12.9972C135.755 11.9604 135.552 11.2024 135.146 10.7234C134.741 10.2444 134.025 10.005 133 10.005C131.534 10.005 130.52 10.7038 129.957 12.1012L129.973 24.6618H125.088V13.0141C125.088 11.9547 124.879 11.1883 124.462 10.715C124.045 10.2417 123.335 10.005 122.332 10.005C120.946 10.005 119.943 10.5798 119.323 11.7293V24.6618H114.438V6.37036H119.019Z" fill="#231F20"/>
<path d="M152.828 25C150.146 25 147.962 24.1772 146.277 22.5317C144.592 20.8863 143.75 18.6943 143.75 15.9557V15.4823C143.75 13.6453 144.105 12.0026 144.815 10.5544C145.525 9.1062 146.531 7.99039 147.833 7.2072C149.134 6.42388 150.619 6.03229 152.287 6.03229C154.789 6.03229 156.759 6.82117 158.196 8.39896C159.633 9.97675 160.351 12.214 160.351 15.1103V17.1052H148.703C148.861 18.2998 149.337 19.2578 150.132 19.979C150.926 20.7003 151.932 21.061 153.149 21.061C155.031 21.061 156.502 20.3792 157.562 19.0155L159.962 21.7034C159.23 22.7402 158.238 23.5489 156.987 24.1293C155.736 24.7097 154.35 25 152.828 25ZM152.27 9.97116C151.301 9.97116 150.515 10.2994 149.912 10.9559C149.309 11.6124 148.923 12.5521 148.754 13.7749H155.55V13.3846C155.527 12.2971 155.234 11.4575 154.671 10.863C154.107 10.2684 153.307 9.97116 152.27 9.97116Z" fill="#231F20"/>
<path d="M19.9147 0.109314H4.46081C2.00712 0.109314 0 2.11671 0 4.57017V20.0242C0 22.4776 2.00712 24.4851 4.46081 24.4851H19.9147C22.3682 24.4851 24.3757 22.4776 24.3757 20.0242V4.57017C24.3757 2.11671 22.3682 0.109314 19.9147 0.109314Z" fill="white"/>
<path d="M10.4294 16.2532L16.5917 11.6498L10.4294 7.45815V16.2532Z" fill="#ED1C24"/>
<path d="M19.9147 0.109314H4.46081C2.00712 0.109314 0 2.11671 0 4.57017V20.0242C0 22.4776 2.00712 24.4851 4.46081 24.4851H8.14608V3.12765L20.4873 11.574L10.4294 19.1166V24.4851H19.9147C22.3682 24.4851 24.3757 22.4776 24.3757 20.0242V4.57017C24.3757 2.11671 22.3682 0.109314 19.9147 0.109314Z" fill="#ED1C24"/>
<rect y="31" width="160" height="19" rx="3" fill="#00338F"/>
<path d="M6.316 46V36.2H10.908C12.084 36.2 12.98 36.4333 13.596 36.9C14.212 37.3573 14.52 37.9733 14.52 38.748C14.52 39.2707 14.3987 39.7187 14.156 40.092C13.9133 40.456 13.5867 40.7407 13.176 40.946C12.7747 41.142 12.336 41.24 11.86 41.24L12.112 40.736C12.6627 40.736 13.1573 40.8387 13.596 41.044C14.0347 41.24 14.38 41.5293 14.632 41.912C14.8933 42.2947 15.024 42.7707 15.024 43.34C15.024 44.18 14.702 44.8333 14.058 45.3C13.414 45.7667 12.4573 46 11.188 46H6.316ZM8.136 44.572H11.076C11.7573 44.572 12.28 44.46 12.644 44.236C13.008 44.012 13.19 43.6527 13.19 43.158C13.19 42.6727 13.008 42.318 12.644 42.094C12.28 41.8607 11.7573 41.744 11.076 41.744H7.996V40.33H10.712C11.3467 40.33 11.832 40.218 12.168 39.994C12.5133 39.77 12.686 39.434 12.686 38.986C12.686 38.5287 12.5133 38.188 12.168 37.964C11.832 37.74 11.3467 37.628 10.712 37.628H8.136V44.572ZM18.6464 40.274H23.5184V41.772H18.6464V40.274ZM18.7864 44.474H24.3164V46H16.9664V36.2H24.1204V37.726H18.7864V44.474ZM30.8813 46.14C30.1346 46.14 29.4393 46.0187 28.7953 45.776C28.1606 45.524 27.6053 45.174 27.1293 44.726C26.6626 44.2687 26.2986 43.732 26.0373 43.116C25.776 42.5 25.6453 41.828 25.6453 41.1C25.6453 40.372 25.776 39.7 26.0373 39.084C26.2986 38.468 26.6673 37.936 27.1433 37.488C27.6193 37.0307 28.1746 36.6807 28.8093 36.438C29.444 36.186 30.1393 36.06 30.8953 36.06C31.698 36.06 32.4306 36.2 33.0933 36.48C33.756 36.7507 34.316 37.1567 34.7733 37.698L33.5973 38.804C33.2426 38.4213 32.846 38.1367 32.4073 37.95C31.9686 37.754 31.4926 37.656 30.9793 37.656C30.466 37.656 29.9946 37.74 29.5653 37.908C29.1453 38.076 28.7766 38.314 28.4593 38.622C28.1513 38.93 27.9086 39.294 27.7313 39.714C27.5633 40.134 27.4793 40.596 27.4793 41.1C27.4793 41.604 27.5633 42.066 27.7313 42.486C27.9086 42.906 28.1513 43.27 28.4593 43.578C28.7766 43.886 29.1453 44.124 29.5653 44.292C29.9946 44.46 30.466 44.544 30.9793 44.544C31.4926 44.544 31.9686 44.4507 32.4073 44.264C32.846 44.068 33.2426 43.774 33.5973 43.382L34.7733 44.502C34.316 45.034 33.756 45.44 33.0933 45.72C32.4306 46 31.6933 46.14 30.8813 46.14ZM40.9041 46.14C40.1388 46.14 39.4341 46.014 38.7901 45.762C38.1461 45.51 37.5861 45.16 37.1101 44.712C36.6341 44.2547 36.2654 43.7227 36.0041 43.116C35.7428 42.5 35.6121 41.828 35.6121 41.1C35.6121 40.372 35.7428 39.7047 36.0041 39.098C36.2654 38.482 36.6341 37.95 37.1101 37.502C37.5861 37.0447 38.1461 36.69 38.7901 36.438C39.4341 36.186 40.1341 36.06 40.8901 36.06C41.6554 36.06 42.3554 36.186 42.9901 36.438C43.6341 36.69 44.1941 37.0447 44.6701 37.502C45.1461 37.95 45.5148 38.482 45.7761 39.098C46.0374 39.7047 46.1681 40.372 46.1681 41.1C46.1681 41.828 46.0374 42.5 45.7761 43.116C45.5148 43.732 45.1461 44.264 44.6701 44.712C44.1941 45.16 43.6341 45.51 42.9901 45.762C42.3554 46.014 41.6601 46.14 40.9041 46.14ZM40.8901 44.544C41.3848 44.544 41.8421 44.46 42.2621 44.292C42.6821 44.124 43.0461 43.886 43.3541 43.578C43.6621 43.2607 43.9001 42.8967 44.0681 42.486C44.2454 42.066 44.3341 41.604 44.3341 41.1C44.3341 40.596 44.2454 40.1387 44.0681 39.728C43.9001 39.308 43.6621 38.944 43.3541 38.636C43.0461 38.3187 42.6821 38.076 42.2621 37.908C41.8421 37.74 41.3848 37.656 40.8901 37.656C40.3954 37.656 39.9381 37.74 39.5181 37.908C39.1074 38.076 38.7434 38.3187 38.4261 38.636C38.1181 38.944 37.8754 39.308 37.6981 39.728C37.5301 40.1387 37.4461 40.596 37.4461 41.1C37.4461 41.5947 37.5301 42.052 37.6981 42.472C37.8754 42.892 38.1181 43.2607 38.4261 43.578C38.7341 43.886 39.0981 44.124 39.5181 44.292C39.9381 44.46 40.3954 44.544 40.8901 44.544ZM48.0973 46V36.2H49.5953L53.8793 43.354H53.0953L57.3093 36.2H58.8073L58.8213 46H57.0993L57.0853 38.902H57.4493L53.8653 44.88H53.0533L49.4133 38.902H49.8333V46H48.0973ZM63.1483 40.274H68.0203V41.772H63.1483V40.274ZM63.2883 44.474H68.8183V46H61.4683V36.2H68.6223V37.726H63.2883V44.474ZM73.3304 46L77.7404 36.2H79.5324L83.9564 46H82.0524L78.2584 37.166H78.9864L75.2064 46H73.3304ZM75.3604 43.732L75.8504 42.304H81.1424L81.6324 43.732H75.3604ZM89.0719 46V36.2H90.5699L94.8539 43.354H94.0699L98.2839 36.2H99.7819L99.7959 46H98.0739L98.0599 38.902H98.4239L94.8399 44.88H94.0279L90.3879 38.902H90.8079V46H89.0719ZM104.123 40.274H108.995V41.772H104.123V40.274ZM104.263 44.474H109.793V46H102.443V36.2H109.597V37.726H104.263V44.474ZM111.822 46V36.2H113.32L117.604 43.354H116.82L121.034 36.2H122.532L122.546 46H120.824L120.81 38.902H121.174L117.59 44.88H116.778L113.138 38.902H113.558V46H111.822ZM125.193 46V36.2H129.785C130.961 36.2 131.857 36.4333 132.473 36.9C133.089 37.3573 133.397 37.9733 133.397 38.748C133.397 39.2707 133.276 39.7187 133.033 40.092C132.79 40.456 132.464 40.7407 132.053 40.946C131.652 41.142 131.213 41.24 130.737 41.24L130.989 40.736C131.54 40.736 132.034 40.8387 132.473 41.044C132.912 41.24 133.257 41.5293 133.509 41.912C133.77 42.2947 133.901 42.7707 133.901 43.34C133.901 44.18 133.579 44.8333 132.935 45.3C132.291 45.7667 131.334 46 130.065 46H125.193ZM127.013 44.572H129.953C130.634 44.572 131.157 44.46 131.521 44.236C131.885 44.012 132.067 43.6527 132.067 43.158C132.067 42.6727 131.885 42.318 131.521 42.094C131.157 41.8607 130.634 41.744 129.953 41.744H126.873V40.33H129.589C130.224 40.33 130.709 40.218 131.045 39.994C131.39 39.77 131.563 39.434 131.563 38.986C131.563 38.5287 131.39 38.188 131.045 37.964C130.709 37.74 130.224 37.628 129.589 37.628H127.013V44.572ZM137.523 40.274H142.395V41.772H137.523V40.274ZM137.663 44.474H143.193V46H135.843V36.2H142.997V37.726H137.663V44.474ZM145.222 46V36.2H149.254C150.122 36.2 150.864 36.34 151.48 36.62C152.106 36.9 152.586 37.3013 152.922 37.824C153.258 38.3467 153.426 38.9673 153.426 39.686C153.426 40.4047 153.258 41.0253 152.922 41.548C152.586 42.0613 152.106 42.458 151.48 42.738C150.864 43.0087 150.122 43.144 149.254 43.144H146.23L147.042 42.318V46H145.222ZM151.634 46L149.156 42.444H151.102L153.594 46H151.634ZM147.042 42.514L146.23 41.646H149.17C149.973 41.646 150.575 41.4733 150.976 41.128C151.387 40.7827 151.592 40.302 151.592 39.686C151.592 39.0607 151.387 38.58 150.976 38.244C150.575 37.908 149.973 37.74 149.17 37.74H146.23L147.042 36.844V42.514Z" fill="white"/>
</svg>
