<svg width="12" height="12" viewBox="0 0 12 12" fill="none" xmlns="http://www.w3.org/2000/svg">
<path d="M9.80391 0H2.19603C0.988094 0 0 0.988232 0 2.19605V9.80397C0 11.0118 0.988094 12.0001 2.19603 12.0001H9.80391C11.0117 12.0001 12 11.0118 12 9.80397V2.19605C12 0.988232 11.0117 0 9.80391 0Z" fill="white"/>
<path d="M5.13281 7.94732L8.16646 5.68108L5.13281 3.61755V7.94732Z" fill="#ED1C24"/>
<path d="M9.80391 0H2.19603C0.988094 0 0 0.988232 0 2.19605V9.80397C0 11.0118 0.988094 12.0001 2.19603 12.0001H4.01027V1.48591L10.0858 5.64398L5.13435 9.35718V12.0001H9.80391C11.0117 12.0001 12 11.0118 12 9.80397V2.19605C12 0.988232 11.0117 0 9.80391 0Z" fill="#ED1C24"/>
</svg>
