<svg xmlns="http://www.w3.org/2000/svg" xmlns:xlink="http://www.w3.org/1999/xlink" viewBox="0 0 150 23" height="17" width="111"><defs><path d="M0 23h150V0H0z" id="pfg50vio1a"></path></defs><g fill-rule="evenodd" fill="none"><mask fill="#fff" id="w7bp8hepnb"><use xlink:href="#pfg50vio1a"></use></mask><path mask="url(#w7bp8hepnb)" fill="#E91A3B" d="m22.596 7.083-3.105 1.78a.226.226 0 0 1-.34-.199v-3.56c0-.175.188-.285.34-.199l3.105 1.78a.23.23 0 0 1 0 .398m3.302-.852L15.691.38a.745.745 0 0 0-1.112.654v11.699c0 .575.616.937 1.112.653l10.207-5.849a.755.755 0 0 0 0-1.307"></path><path d="M12.428 22.9H0V1.93h4.787v17.098h7.442zM46.577 13.364c0-.984-.176-1.7-.528-2.146-.352-.446-.89-.67-1.614-.67-.754 0-1.327.231-1.72.693-.39.462-.597 1.17-.618 2.123h4.48zm-.83 5.952c.724 0 1.448-.06 2.172-.183a20.877 20.877 0 0 0 2.127-.471l.527 2.998c-.754.386-1.632.695-2.632.929-1 .233-2.144.35-3.43.35-2.313 0-4.067-.655-5.263-1.964-1.197-1.309-1.795-3.328-1.795-6.058 0-1.4.15-2.608.452-3.623.302-1.014.746-1.854 1.335-2.518a5.244 5.244 0 0 1 2.202-1.47c.88-.314 1.892-.471 3.038-.471 1.117 0 2.077.17 2.88.51.805.34 1.466.82 1.984 1.438.518.619.902 1.362 1.154 2.23.25.868.377 1.824.377 2.87 0 .243-.015.494-.045.752-.031.259-.068.503-.114.731a13.5 13.5 0 0 1-.135.616c-.045.183-.088.33-.129.442h-8.28c.03.497.12.926.265 1.286.145.36.362.66.648.898.287.239.649.416 1.086.533.438.117.963.175 1.576.175z" mask="url(#w7bp8hepnb)" fill="#3B5A97"></path><path mask="url(#w7bp8hepnb)" fill="#73BB44" d="M65.713 5.404c-.975 0-1.714.16-2.217.48-.503.319-.754.794-.754 1.422 0 .315.045.587.136.815.09.228.277.452.558.67.281.218.689.45 1.222.7.532.248 1.246.545 2.14.89.825.325 1.564.668 2.218 1.027.653.361 1.212.77 1.674 1.226a4.75 4.75 0 0 1 1.063 1.575c.247.594.37 1.281.37 2.063 0 1.116-.176 2.09-.528 2.922a5.337 5.337 0 0 1-1.538 2.078c-.674.553-1.499.969-2.474 1.248-.975.28-2.086.418-3.333.418-.724 0-1.417-.042-2.081-.129a18.395 18.395 0 0 1-1.863-.335 13.453 13.453 0 0 1-1.582-.471 11.06 11.06 0 0 1-1.245-.541l.95-3.577c1.93.751 3.805 1.126 5.625 1.126.453 0 .872-.05 1.26-.152a3.183 3.183 0 0 0 1.01-.449c.287-.197.51-.44.671-.73.161-.29.241-.622.241-.997 0-.376-.058-.698-.173-.967a1.943 1.943 0 0 0-.558-.723c-.256-.213-.596-.408-1.018-.586a29.004 29.004 0 0 0-1.538-.586c-1.106-.396-2.046-.796-2.82-1.202-.774-.406-1.405-.858-1.893-1.355a4.573 4.573 0 0 1-1.063-1.667c-.221-.614-.332-1.316-.332-2.108 0-1.035.168-1.928.505-2.679a4.814 4.814 0 0 1 1.47-1.872c.644-.497 1.428-.865 2.353-1.103.926-.239 1.97-.358 3.137-.358.473 0 .937.018 1.395.053.457.036.925.097 1.403.183.477.086.98.195 1.508.327.527.132 1.093.294 1.696.487l-.814 3.623a27.96 27.96 0 0 0-2.64-.57 13.843 13.843 0 0 0-2.14-.176M81.874 10.731h-2.79v6.56c0 .285.015.553.045.808.03.253.09.476.181.669.09.193.216.348.377.464.16.117.372.175.634.175.371 0 .668-.025.89-.076.22-.05.432-.116.633-.198l.558 3.045c-.553.223-1.116.405-1.689.548a7.443 7.443 0 0 1-1.795.213c-.814 0-1.5-.112-2.059-.335a3.113 3.113 0 0 1-1.342-.99c-.336-.436-.58-.976-.731-1.621-.15-.644-.226-1.387-.226-2.23v-7.032h-1.478v-3.47h1.478l.693-3.562 3.83-.335v3.897h2.79v3.47zM85.273 22.512V7.26h3.303l.302 2.604c.12-.417.316-.794.587-1.134.272-.34.584-.632.936-.876a4.482 4.482 0 0 1 1.146-.57 3.82 3.82 0 0 1 1.207-.206 7.389 7.389 0 0 1 1.884.236c.241.066.443.132.604.198.16.066.276.12.346.16l-.663 3.272a5.057 5.057 0 0 0-1.591-.258 3.72 3.72 0 0 0-1.515.312c-.473.208-.89.525-1.252.951-.363.426-.619.984-.77 1.675v8.888h-4.524zM105.617 13.364c0-.984-.176-1.7-.528-2.146-.351-.446-.89-.67-1.613-.67-.754 0-1.327.231-1.72.693-.391.462-.598 1.17-.618 2.123h4.48zm-.83 5.952c.725 0 1.449-.06 2.173-.183a20.877 20.877 0 0 0 2.126-.471l.528 2.998c-.755.386-1.632.695-2.632.929-1 .233-2.144.35-3.431.35-2.312 0-4.067-.655-5.263-1.964-1.196-1.309-1.795-3.328-1.795-6.058 0-1.4.15-2.608.453-3.623.301-1.014.746-1.854 1.334-2.518a5.244 5.244 0 0 1 2.202-1.47c.88-.314 1.893-.471 3.039-.471 1.116 0 2.076.17 2.88.51.805.34 1.466.82 1.984 1.438.518.619.902 1.362 1.153 2.23.251.868.378 1.824.378 2.87 0 .243-.015.494-.046.752-.03.259-.068.503-.113.731a13.5 13.5 0 0 1-.136.616c-.045.183-.088.33-.128.442h-8.28c.03.497.119.926.264 1.286.146.36.363.66.649.898.286.239.649.416 1.086.533.437.117.962.175 1.576.175zM117.953 19.849c.191 0 .395-.03.611-.092.216-.06.43-.136.641-.228.211-.092.407-.198.588-.32.182-.121.332-.243.453-.365V15.83l-1.674.122c-.824.06-1.438.259-1.84.594-.402.334-.603.776-.603 1.324 0 1.319.608 1.979 1.824 1.979zm6.817-1.949c0 .66.116 1.19.347 1.591.231.401.488.677.769.83l-.77 2.435c-.35.05-.73.058-1.138.023a4.936 4.936 0 0 1-1.184-.252 3.552 3.552 0 0 1-1.04-.562 2.47 2.47 0 0 1-.724-.913c-.262.253-.525.494-.791.722a4.743 4.743 0 0 1-.898.601 4.95 4.95 0 0 1-1.139.412 6.635 6.635 0 0 1-1.516.152c-1.638 0-2.895-.412-3.77-1.234-.875-.821-1.311-2.059-1.311-3.713 0-1.573.532-2.75 1.598-3.532 1.065-.781 2.694-1.212 4.886-1.294l2.157-.121v-.761c0-.203-.028-.409-.083-.617a1.346 1.346 0 0 0-.31-.563 1.586 1.586 0 0 0-.617-.403c-.262-.102-.599-.152-1.011-.152-.795 0-1.596.05-2.405.152-.81.101-1.607.3-2.39.593l-.785-3.06a13.02 13.02 0 0 1 2.948-1.072c.97-.218 1.999-.328 3.084-.328.975 0 1.843.084 2.602.252.759.167 1.397.446 1.915.837.518.39.91.904 1.176 1.537.267.635.4 1.419.4 2.352V17.9zM132.808 23h-4.524V7.748h3.574l.271 1.598a7.05 7.05 0 0 1 2.142-1.49c.794-.356 1.664-.534 2.609-.534.463 0 .887.061 1.274.183.387.121.734.28 1.041.472.306.193.573.416.8.67.225.253.409.507.55.76.27-.284.583-.552.934-.806a7.503 7.503 0 0 1 1.109-.662 6.561 6.561 0 0 1 1.184-.441c.402-.108.799-.16 1.192-.16 1.035 0 1.882.154 2.54.464.659.31 1.172.748 1.538 1.316.368.569.619 1.256.754 2.063.137.806.204 1.702.204 2.686V23h-4.524v-9.833c0-.852-.16-1.45-.482-1.796-.323-.345-.75-.518-1.282-.518-.242 0-.478.034-.71.1a4.735 4.735 0 0 0-.663.243c-.21.097-.405.203-.58.32l-.475.312c.01.081.022.22.038.418.014.198.027.43.037.693.01.264.017.548.023.852l.015.876c.004.278.007.535.007.768V23h-4.524v-9.544a6.8 6.8 0 0 0-.068-.981 2.666 2.666 0 0 0-.249-.822 1.502 1.502 0 0 0-.49-.571c-.206-.142-.47-.214-.792-.214-.25 0-.497.032-.739.092a4.21 4.21 0 0 0-.686.236 4.458 4.458 0 0 0-.595.32 4.422 4.422 0 0 0-.453.327V23z"></path><path d="M15.144 15.544V22.9h4.604v-9.958zM31.777 7.383l-2.378 9.833-.138 1.41h-.2l-.138-1.41-2.018-8.293-4.009 2.308 3.22 11.67h6.09l4.282-15.518zM12.428 22.9H0V1.93h4.787v17.098h7.442zM46.577 13.364c0-.984-.176-1.7-.528-2.146-.352-.446-.89-.67-1.614-.67-.754 0-1.327.231-1.72.693-.39.462-.597 1.17-.618 2.123h4.48zm-.83 5.952c.724 0 1.448-.06 2.172-.183a20.877 20.877 0 0 0 2.127-.471l.527 2.998c-.754.386-1.632.695-2.632.929-1 .233-2.144.35-3.43.35-2.313 0-4.067-.655-5.263-1.964-1.197-1.309-1.795-3.328-1.795-6.058 0-1.4.15-2.608.452-3.623.302-1.014.746-1.854 1.335-2.518a5.244 5.244 0 0 1 2.202-1.47c.88-.314 1.892-.471 3.038-.471 1.117 0 2.077.17 2.88.51.805.34 1.466.82 1.984 1.438.518.619.902 1.362 1.154 2.23.25.868.377 1.824.377 2.87 0 .243-.015.494-.045.752-.031.259-.068.503-.114.731a13.5 13.5 0 0 1-.135.616c-.045.183-.088.33-.129.442h-8.28c.03.497.12.926.265 1.286.145.36.362.66.648.898.287.239.649.416 1.086.533.438.117.963.175 1.576.175z" mask="url(#w7bp8hepnb)" fill="#3B5A97"></path><path d="M15.144 15.544V22.9h4.604v-9.958zM31.777 7.383l-2.378 9.833-.138 1.41h-.2l-.138-1.41-2.018-8.293-4.009 2.308 3.22 11.67h6.09l4.282-15.518z" mask="url(#w7bp8hepnb)" fill="#3B5A97"></path></g></svg>