<svg width="212" height="41" viewBox="0 0 212 41" fill="none" xmlns="http://www.w3.org/2000/svg">
<path d="M37.98 26.7874C38.8307 27.0661 39.5053 27.5354 40.004 28.1954C40.5027 28.8407 40.752 29.6474 40.752 30.6154C40.752 31.9501 40.2387 32.9841 39.212 33.7174C38.1853 34.4361 36.6893 34.7954 34.724 34.7954H27.068V19.3954H34.284C36.1027 19.3954 37.5033 19.7547 38.486 20.4734C39.4687 21.1774 39.96 22.1527 39.96 23.3994C39.96 24.1621 39.784 24.8367 39.432 25.4234C39.08 26.0101 38.596 26.4647 37.98 26.7874ZM29.928 21.6394V25.8854H33.976C34.9733 25.8854 35.736 25.7094 36.264 25.3574C36.8067 24.9907 37.078 24.4627 37.078 23.7734C37.078 23.0694 36.8067 22.5414 36.264 22.1894C35.736 21.8227 34.9733 21.6394 33.976 21.6394H29.928ZM34.548 32.5514C36.7627 32.5514 37.87 31.8107 37.87 30.3294C37.87 28.8481 36.7627 28.1074 34.548 28.1074H29.928V32.5514H34.548ZM43.5403 23.0474H46.2903V34.7954H43.5403V23.0474ZM44.9263 21.1114C44.4277 21.1114 44.0097 20.9574 43.6723 20.6494C43.335 20.3267 43.1663 19.9307 43.1663 19.4614C43.1663 18.9921 43.335 18.6034 43.6723 18.2954C44.0097 17.9727 44.4277 17.8114 44.9263 17.8114C45.425 17.8114 45.843 17.9654 46.1803 18.2734C46.5177 18.5667 46.6863 18.9407 46.6863 19.3954C46.6863 19.8794 46.5177 20.2901 46.1803 20.6274C45.8577 20.9501 45.4397 21.1114 44.9263 21.1114ZM61.5597 23.0474V33.0134C61.5597 37.1494 59.4477 39.2174 55.2237 39.2174C54.0944 39.2174 53.0237 39.0707 52.0117 38.7774C50.9997 38.4987 50.1637 38.0881 49.5037 37.5454L50.7357 35.4774C51.249 35.9027 51.8944 36.2401 52.6717 36.4894C53.4637 36.7534 54.263 36.8854 55.0697 36.8854C56.3604 36.8854 57.3064 36.5921 57.9077 36.0054C58.509 35.4187 58.8097 34.5241 58.8097 33.3214V32.7054C58.3404 33.2187 57.7684 33.6074 57.0937 33.8714C56.419 34.1354 55.6784 34.2674 54.8717 34.2674C53.757 34.2674 52.745 34.0327 51.8357 33.5634C50.941 33.0794 50.2297 32.4047 49.7017 31.5394C49.1884 30.6741 48.9317 29.6841 48.9317 28.5694C48.9317 27.4547 49.1884 26.4721 49.7017 25.6214C50.2297 24.7561 50.941 24.0887 51.8357 23.6194C52.745 23.1501 53.757 22.9154 54.8717 22.9154C55.7224 22.9154 56.4924 23.0547 57.1817 23.3334C57.8857 23.6121 58.4724 24.0374 58.9417 24.6094V23.0474H61.5597ZM55.2897 31.9354C56.331 31.9354 57.1817 31.6274 57.8417 31.0114C58.5164 30.3807 58.8537 29.5667 58.8537 28.5694C58.8537 27.5867 58.5164 26.7874 57.8417 26.1714C57.1817 25.5554 56.331 25.2474 55.2897 25.2474C54.2337 25.2474 53.3684 25.5554 52.6937 26.1714C52.0337 26.7874 51.7037 27.5867 51.7037 28.5694C51.7037 29.5667 52.0337 30.3807 52.6937 31.0114C53.3684 31.6274 54.2337 31.9354 55.2897 31.9354Z" fill="#24CB24"/>
<path d="M76.3511 26.7874C77.2018 27.0661 77.8764 27.5354 78.3751 28.1954C78.8738 28.8407 79.1231 29.6474 79.1231 30.6154C79.1231 31.9501 78.6098 32.9841 77.5831 33.7174C76.5564 34.4361 75.0604 34.7954 73.0951 34.7954H65.4391V19.3954H72.6551C74.4738 19.3954 75.8744 19.7547 76.8571 20.4734C77.8398 21.1774 78.3311 22.1527 78.3311 23.3994C78.3311 24.1621 78.1551 24.8367 77.8031 25.4234C77.4511 26.0101 76.9671 26.4647 76.3511 26.7874ZM68.2991 21.6394V25.8854H72.3471C73.3444 25.8854 74.1071 25.7094 74.6351 25.3574C75.1778 24.9907 75.4491 24.4627 75.4491 23.7734C75.4491 23.0694 75.1778 22.5414 74.6351 22.1894C74.1071 21.8227 73.3444 21.6394 72.3471 21.6394H68.2991ZM72.9191 32.5514C75.1338 32.5514 76.2411 31.8107 76.2411 30.3294C76.2411 28.8481 75.1338 28.1074 72.9191 28.1074H68.2991V32.5514H72.9191ZM93.2854 23.0474V34.7954H90.6674V33.2994C90.2274 33.8274 89.6774 34.2381 89.0174 34.5314C88.3574 34.8101 87.6461 34.9494 86.8834 34.9494C85.3141 34.9494 84.0748 34.5167 83.1654 33.6514C82.2708 32.7714 81.8234 31.4734 81.8234 29.7574V23.0474H84.5734V29.3834C84.5734 30.4394 84.8081 31.2314 85.2774 31.7594C85.7614 32.2727 86.4434 32.5294 87.3234 32.5294C88.3061 32.5294 89.0834 32.2287 89.6554 31.6274C90.2421 31.0114 90.5354 30.1314 90.5354 28.9874V23.0474H93.2854ZM96.886 18.4714H99.636V34.7954H96.886V18.4714ZM103.245 18.4714H105.995V34.7954H103.245V18.4714ZM122.285 19.3954C123.62 19.3954 124.778 19.6154 125.761 20.0554C126.758 20.4954 127.521 21.1261 128.049 21.9474C128.577 22.7687 128.841 23.7441 128.841 24.8734C128.841 25.9881 128.577 26.9634 128.049 27.7994C127.521 28.6207 126.758 29.2514 125.761 29.6914C124.778 30.1314 123.62 30.3514 122.285 30.3514H118.809V34.7954H115.949V19.3954H122.285ZM122.153 27.9314C123.4 27.9314 124.346 27.6674 124.991 27.1394C125.636 26.6114 125.959 25.8561 125.959 24.8734C125.959 23.8907 125.636 23.1354 124.991 22.6074C124.346 22.0794 123.4 21.8154 122.153 21.8154H118.809V27.9314H122.153ZM136.67 34.9494C135.482 34.9494 134.411 34.6927 133.458 34.1794C132.505 33.6661 131.757 32.9547 131.214 32.0454C130.686 31.1214 130.422 30.0801 130.422 28.9214C130.422 27.7627 130.686 26.7287 131.214 25.8194C131.757 24.9101 132.505 24.1987 133.458 23.6854C134.411 23.1721 135.482 22.9154 136.67 22.9154C137.873 22.9154 138.951 23.1721 139.904 23.6854C140.857 24.1987 141.598 24.9101 142.126 25.8194C142.669 26.7287 142.94 27.7627 142.94 28.9214C142.94 30.0801 142.669 31.1214 142.126 32.0454C141.598 32.9547 140.857 33.6661 139.904 34.1794C138.951 34.6927 137.873 34.9494 136.67 34.9494ZM136.67 32.5954C137.682 32.5954 138.518 32.2581 139.178 31.5834C139.838 30.9087 140.168 30.0214 140.168 28.9214C140.168 27.8214 139.838 26.9341 139.178 26.2594C138.518 25.5847 137.682 25.2474 136.67 25.2474C135.658 25.2474 134.822 25.5847 134.162 26.2594C133.517 26.9341 133.194 27.8214 133.194 28.9214C133.194 30.0214 133.517 30.9087 134.162 31.5834C134.822 32.2581 135.658 32.5954 136.67 32.5954ZM148.188 24.7634C148.98 23.5314 150.373 22.9154 152.368 22.9154V25.5334C152.133 25.4894 151.92 25.4674 151.73 25.4674C150.659 25.4674 149.823 25.7827 149.222 26.4134C148.62 27.0294 148.32 27.9241 148.32 29.0974V34.7954H145.57V23.0474H148.188V24.7634ZM162.192 34.1574C161.87 34.4214 161.474 34.6194 161.004 34.7514C160.55 34.8834 160.066 34.9494 159.552 34.9494C158.262 34.9494 157.264 34.6121 156.56 33.9374C155.856 33.2627 155.504 32.2801 155.504 30.9894V25.3354H153.568V23.1354H155.504V20.4514H158.254V23.1354H161.4V25.3354H158.254V30.9234C158.254 31.4954 158.394 31.9354 158.672 32.2434C158.951 32.5367 159.354 32.6834 159.882 32.6834C160.498 32.6834 161.012 32.5221 161.422 32.1994L162.192 34.1574ZM169.228 20.5394C168.07 20.5394 167.49 21.1701 167.49 22.4314V23.1354H170.724V25.3354H167.578V34.7954H164.828V25.3354H162.892V23.1354H164.828V22.3874C164.828 21.1261 165.195 20.1361 165.928 19.4174C166.662 18.6841 167.696 18.3174 169.03 18.3174C170.086 18.3174 170.915 18.5301 171.516 18.9554L170.746 21.0234C170.277 20.7007 169.771 20.5394 169.228 20.5394ZM177.684 34.9494C176.496 34.9494 175.425 34.6927 174.472 34.1794C173.518 33.6661 172.77 32.9547 172.228 32.0454C171.7 31.1214 171.436 30.0801 171.436 28.9214C171.436 27.7627 171.7 26.7287 172.228 25.8194C172.77 24.9101 173.518 24.1987 174.472 23.6854C175.425 23.1721 176.496 22.9154 177.684 22.9154C178.886 22.9154 179.964 23.1721 180.918 23.6854C181.871 24.1987 182.612 24.9101 183.14 25.8194C183.682 26.7287 183.954 27.7627 183.954 28.9214C183.954 30.0801 183.682 31.1214 183.14 32.0454C182.612 32.9547 181.871 33.6661 180.918 34.1794C179.964 34.6927 178.886 34.9494 177.684 34.9494ZM177.684 32.5954C178.696 32.5954 179.532 32.2581 180.192 31.5834C180.852 30.9087 181.182 30.0214 181.182 28.9214C181.182 27.8214 180.852 26.9341 180.192 26.2594C179.532 25.5847 178.696 25.2474 177.684 25.2474C176.672 25.2474 175.836 25.5847 175.176 26.2594C174.53 26.9341 174.208 27.8214 174.208 28.9214C174.208 30.0214 174.53 30.9087 175.176 31.5834C175.836 32.2581 176.672 32.5954 177.684 32.5954ZM186.583 18.4714H189.333V34.7954H186.583V18.4714ZM192.943 23.0474H195.693V34.7954H192.943V23.0474ZM194.329 21.1114C193.83 21.1114 193.412 20.9574 193.075 20.6494C192.737 20.3267 192.569 19.9307 192.569 19.4614C192.569 18.9921 192.737 18.6034 193.075 18.2954C193.412 17.9727 193.83 17.8114 194.329 17.8114C194.827 17.8114 195.245 17.9654 195.583 18.2734C195.92 18.5667 196.089 18.9407 196.089 19.3954C196.089 19.8794 195.92 20.2901 195.583 20.6274C195.26 20.9501 194.842 21.1114 194.329 21.1114ZM204.582 34.9494C203.394 34.9494 202.323 34.6927 201.37 34.1794C200.417 33.6661 199.669 32.9547 199.126 32.0454C198.598 31.1214 198.334 30.0801 198.334 28.9214C198.334 27.7627 198.598 26.7287 199.126 25.8194C199.669 24.9101 200.417 24.1987 201.37 23.6854C202.323 23.1721 203.394 22.9154 204.582 22.9154C205.785 22.9154 206.863 23.1721 207.816 23.6854C208.769 24.1987 209.51 24.9101 210.038 25.8194C210.581 26.7287 210.852 27.7627 210.852 28.9214C210.852 30.0801 210.581 31.1214 210.038 32.0454C209.51 32.9547 208.769 33.6661 207.816 34.1794C206.863 34.6927 205.785 34.9494 204.582 34.9494ZM204.582 32.5954C205.594 32.5954 206.43 32.2581 207.09 31.5834C207.75 30.9087 208.08 30.0214 208.08 28.9214C208.08 27.8214 207.75 26.9341 207.09 26.2594C206.43 25.5847 205.594 25.2474 204.582 25.2474C203.57 25.2474 202.734 25.5847 202.074 26.2594C201.429 26.9341 201.106 27.8214 201.106 28.9214C201.106 30.0214 201.429 30.9087 202.074 31.5834C202.734 32.2581 203.57 32.5954 204.582 32.5954Z" fill="black"/>
<mask id="mask0_14158_167350" style="mask-type:luminance" maskUnits="userSpaceOnUse" x="38" y="2" width="8" height="3">
<path fill-rule="evenodd" clip-rule="evenodd" d="M38.8885 2.22225C38.7366 2.29346 38.6235 2.41424 38.5829 2.55988C38.5253 2.76311 38.5078 3.08221 38.7579 3.43824C38.9163 3.66237 39.2386 3.74863 39.5176 3.64636C39.9476 3.48794 40.4126 3.5239 40.8657 3.66464C41.1796 3.76237 41.4891 3.91111 41.7772 4.08076C42.3109 4.39437 42.9548 4.55602 43.595 4.48075C44.6549 4.35507 45.6285 3.69116 45.8695 2.74148L45.8556 2.73431C45.3135 3.57432 44.1739 3.97024 43.1244 3.83668C42.4852 3.75591 41.9191 3.44637 41.5076 3.01591C41.0061 2.49178 40.3692 2.04639 39.6556 2.04639C39.4084 2.04639 39.1518 2.09991 38.8885 2.22225Z" fill="white"/>
</mask>
<g mask="url(#mask0_14158_167350)">
<path fill-rule="evenodd" clip-rule="evenodd" d="M38.8885 2.22225C38.7366 2.29346 38.6235 2.41424 38.5829 2.55988C38.5253 2.76311 38.5078 3.08221 38.7579 3.43824C38.9163 3.66237 39.2386 3.74863 39.5176 3.64636C39.9476 3.48794 40.4126 3.5239 40.8657 3.66464C41.1796 3.76237 41.4891 3.91111 41.7772 4.08076C42.3109 4.39437 42.9548 4.55602 43.595 4.48075C44.6549 4.35507 45.6285 3.69116 45.8695 2.74148L45.8556 2.73431C45.3135 3.57432 44.1739 3.97024 43.1244 3.83668C42.4852 3.75591 41.9191 3.44637 41.5076 3.01591C41.0061 2.49178 40.3692 2.04639 39.6556 2.04639C39.4084 2.04639 39.1518 2.09991 38.8885 2.22225Z" fill="url(#paint0_linear_14158_167350)"/>
</g>
<mask id="mask1_14158_167350" style="mask-type:luminance" maskUnits="userSpaceOnUse" x="30" y="0" width="11" height="10">
<path fill-rule="evenodd" clip-rule="evenodd" d="M34.3065 4.19717C33.9328 5.91813 35.2088 6.99294 35.2088 6.99294C35.6392 7.5433 36.5739 7.80398 37.0953 8.05072C37.6166 8.29664 37.6788 8.62894 37.7544 8.98667C37.8292 9.34371 38.3226 9.40761 38.3226 9.40761C38.6414 9.39691 38.8386 9.1725 38.8386 9.1725C40.245 9.57963 40.3658 8.82939 40.3658 8.82939C40.3658 8.82939 40.1326 7.68607 40.282 6.44316C40.4324 5.19944 40.9663 4.24264 40.9663 4.24264C40.8916 4.0924 40.5765 3.5866 40.5765 3.5866C40.1361 3.45097 39.6842 3.41539 39.2663 3.56805C38.9952 3.66662 38.6819 3.58349 38.5279 3.36749C38.2847 3.02438 38.3019 2.71685 38.3577 2.52099C38.3973 2.38065 38.5071 2.26424 38.6549 2.19562C36.1047 1.89027 32.7613 0.951898 30.2266 0.414551C33.1234 1.07153 34.6324 2.69762 34.3065 4.19717Z" fill="white"/>
</mask>
<g mask="url(#mask1_14158_167350)">
<path fill-rule="evenodd" clip-rule="evenodd" d="M34.3065 4.19717C33.9328 5.91813 35.2088 6.99294 35.2088 6.99294C35.6392 7.5433 36.5739 7.80398 37.0953 8.05072C37.6166 8.29664 37.6788 8.62894 37.7544 8.98667C37.8292 9.34371 38.3226 9.40761 38.3226 9.40761C38.6414 9.39691 38.8386 9.1725 38.8386 9.1725C40.245 9.57963 40.3658 8.82939 40.3658 8.82939C40.3658 8.82939 40.1326 7.68607 40.282 6.44316C40.4324 5.19944 40.9663 4.24264 40.9663 4.24264C40.8916 4.0924 40.5765 3.5866 40.5765 3.5866C40.1361 3.45097 39.6842 3.41539 39.2663 3.56805C38.9952 3.66662 38.6819 3.58349 38.5279 3.36749C38.2847 3.02438 38.3019 2.71685 38.3577 2.52099C38.3973 2.38065 38.5071 2.26424 38.6549 2.19562C36.1047 1.89027 32.7613 0.951898 30.2266 0.414551C33.1234 1.07153 34.6324 2.69762 34.3065 4.19717Z" fill="url(#paint1_linear_14158_167350)"/>
</g>
<mask id="mask2_14158_167350" style="mask-type:luminance" maskUnits="userSpaceOnUse" x="31" y="9" width="7" height="9">
<path fill-rule="evenodd" clip-rule="evenodd" d="M32.1707 11.1672C32.1707 11.1672 32.0352 11.3749 31.7266 11.6774C32.462 12.2307 33.057 12.5575 33.057 12.5575C33.0531 12.6342 33.0444 12.7071 33.034 12.7768C34.0385 12.6476 34.9621 12.639 35.2101 12.6397C35.1745 12.7235 35.0622 13.034 35.0795 13.5387C35.1004 14.1358 35.8957 14.4195 35.9647 15.1411C35.9647 15.1411 35.2659 15.6452 35.2851 16.0792C35.2851 16.0792 35.0439 16.9607 37.5499 17.5767C37.5499 17.5767 37.2356 16.3487 37.5846 15.7219C37.5846 15.7219 36.8395 12.9697 36.7762 11.7542C36.7683 11.6084 36.6762 11.4744 36.5291 11.3906C36.2859 11.2528 35.8716 11.0247 35.3285 10.7558C34.5509 10.5521 33.6337 10.2496 32.806 9.81006C32.5898 10.2074 32.3755 10.6579 32.1707 11.1672Z" fill="white"/>
</mask>
<g mask="url(#mask2_14158_167350)">
<path fill-rule="evenodd" clip-rule="evenodd" d="M32.1707 11.1672C32.1707 11.1672 32.0352 11.3749 31.7266 11.6774C32.462 12.2307 33.057 12.5575 33.057 12.5575C33.0531 12.6342 33.0444 12.7071 33.034 12.7768C34.0385 12.6476 34.9621 12.639 35.2101 12.6397C35.1745 12.7235 35.0622 13.034 35.0795 13.5387C35.1004 14.1358 35.8957 14.4195 35.9647 15.1411C35.9647 15.1411 35.2659 15.6452 35.2851 16.0792C35.2851 16.0792 35.0439 16.9607 37.5499 17.5767C37.5499 17.5767 37.2356 16.3487 37.5846 15.7219C37.5846 15.7219 36.8395 12.9697 36.7762 11.7542C36.7683 11.6084 36.6762 11.4744 36.5291 11.3906C36.2859 11.2528 35.8716 11.0247 35.3285 10.7558C34.5509 10.5521 33.6337 10.2496 32.806 9.81006C32.5898 10.2074 32.3755 10.6579 32.1707 11.1672Z" fill="url(#paint2_linear_14158_167350)"/>
</g>
<mask id="mask3_14158_167350" style="mask-type:luminance" maskUnits="userSpaceOnUse" x="11" y="0" width="25" height="18">
<path fill-rule="evenodd" clip-rule="evenodd" d="M27.741 0C25.4715 0 23.7445 0.409546 20.5729 4.12617C17.7734 7.40784 12.8442 9.92052 11.7266 10.4636C13.2829 9.76758 15.3422 9.82425 17.4782 11.1886C19.5722 12.5252 19.2322 15.5159 18.3047 16.5177C18.0648 16.7753 17.7722 17.1369 17.4616 17.5646C17.4605 17.5666 17.4592 17.5678 17.4592 17.5678L17.4782 17.5773C17.4848 17.5721 17.49 17.5666 17.4963 17.5613C21.0733 14.268 24.3528 14.2894 27.895 13.6382C28.8996 13.4543 29.7169 13.1688 30.375 12.8535C29.8489 12.6727 29.1088 12.4472 28.3607 12.3134C26.9675 12.0664 24.4015 11.7114 24.7748 9.11101C25.138 6.59302 27.0728 6.27224 27.1932 6.25504C27.1971 6.254 27.1997 6.254 27.1997 6.254C28.824 6.06586 29.0562 7.53712 30.1391 9.33667C30.6816 10.2402 31.5323 11.0143 32.2458 11.5629C32.5433 11.2645 32.6741 11.0603 32.6741 11.0603C32.8719 10.5577 33.0783 10.1129 33.2874 9.72152C34.4397 7.55432 35.647 6.98433 35.647 6.98433C35.647 6.98433 34.333 5.90656 34.718 4.18076C35.0543 2.6774 33.4991 1.04787 30.5161 0.38923C30.3584 0.357025 30.2057 0.32609 30.057 0.297232C29.128 0.116584 28.3287 0 27.741 0Z" fill="white"/>
</mask>
<g mask="url(#mask3_14158_167350)">
<path fill-rule="evenodd" clip-rule="evenodd" d="M27.741 0C25.4715 0 23.7445 0.409546 20.5729 4.12617C17.7734 7.40784 12.8442 9.92052 11.7266 10.4636C13.2829 9.76758 15.3422 9.82425 17.4782 11.1886C19.5722 12.5252 19.2322 15.5159 18.3047 16.5177C18.0648 16.7753 17.7722 17.1369 17.4616 17.5646C17.4605 17.5666 17.4592 17.5678 17.4592 17.5678L17.4782 17.5773C17.4848 17.5721 17.49 17.5666 17.4963 17.5613C21.0733 14.268 24.3528 14.2894 27.895 13.6382C28.8996 13.4543 29.7169 13.1688 30.375 12.8535C29.8489 12.6727 29.1088 12.4472 28.3607 12.3134C26.9675 12.0664 24.4015 11.7114 24.7748 9.11101C25.138 6.59302 27.0728 6.27224 27.1932 6.25504C27.1971 6.254 27.1997 6.254 27.1997 6.254C28.824 6.06586 29.0562 7.53712 30.1391 9.33667C30.6816 10.2402 31.5323 11.0143 32.2458 11.5629C32.5433 11.2645 32.6741 11.0603 32.6741 11.0603C32.8719 10.5577 33.0783 10.1129 33.2874 9.72152C34.4397 7.55432 35.647 6.98433 35.647 6.98433C35.647 6.98433 34.333 5.90656 34.718 4.18076C35.0543 2.6774 33.4991 1.04787 30.5161 0.38923C30.3584 0.357025 30.2057 0.32609 30.057 0.297232C29.128 0.116584 28.3287 0 27.741 0Z" fill="url(#paint3_linear_14158_167350)"/>
</g>
<mask id="mask4_14158_167350" style="mask-type:luminance" maskUnits="userSpaceOnUse" x="24" y="6" width="10" height="11">
<path fill-rule="evenodd" clip-rule="evenodd" d="M26.8705 6.15164C26.8705 6.15164 24.8215 6.40383 24.447 8.94267C24.0732 11.4823 26.6376 11.8287 28.0303 12.0703C28.7785 12.2002 29.5194 12.4206 30.0441 12.5973C30.4955 12.749 30.7876 12.8676 30.7876 12.8676C30.7876 12.8676 30.3751 12.9062 29.765 13.196C29.1549 13.4866 29.2283 14.1654 28.5105 14.5466C28.5105 14.5466 27.665 14.2982 27.2227 14.5119C27.2227 14.5119 26.1954 14.7526 26.7156 16.7639C26.7156 16.7639 27.845 15.9801 28.6571 15.9318C28.6571 15.9318 31.5155 13.8995 32.6309 13.436C32.6309 13.436 33.0638 13.0827 33.1751 12.3964C33.1853 12.3293 33.1935 12.2591 33.1973 12.1851C33.1973 12.1851 32.6233 11.8703 31.914 11.3373C31.2012 10.8014 30.3509 10.0449 29.8087 9.16317C28.7884 7.50741 28.5236 6.13574 27.139 6.13574C27.054 6.13574 26.9645 6.14092 26.8705 6.15164Z" fill="white"/>
</mask>
<g mask="url(#mask4_14158_167350)">
<path fill-rule="evenodd" clip-rule="evenodd" d="M26.8705 6.15164C26.8705 6.15164 24.8215 6.40383 24.447 8.94267C24.0732 11.4823 26.6376 11.8287 28.0303 12.0703C28.7785 12.2002 29.5194 12.4206 30.0441 12.5973C30.4955 12.749 30.7876 12.8676 30.7876 12.8676C30.7876 12.8676 30.3751 12.9062 29.765 13.196C29.1549 13.4866 29.2283 14.1654 28.5105 14.5466C28.5105 14.5466 27.665 14.2982 27.2227 14.5119C27.2227 14.5119 26.1954 14.7526 26.7156 16.7639C26.7156 16.7639 27.845 15.9801 28.6571 15.9318C28.6571 15.9318 31.5155 13.8995 32.6309 13.436C32.6309 13.436 33.0638 13.0827 33.1751 12.3964C33.1853 12.3293 33.1935 12.2591 33.1973 12.1851C33.1973 12.1851 32.6233 11.8703 31.914 11.3373C31.2012 10.8014 30.3509 10.0449 29.8087 9.16317C28.7884 7.50741 28.5236 6.13574 27.139 6.13574C27.054 6.13574 26.9645 6.14092 26.8705 6.15164Z" fill="url(#paint4_linear_14158_167350)"/>
</g>
<mask id="mask5_14158_167350" style="mask-type:luminance" maskUnits="userSpaceOnUse" x="9" y="10" width="10" height="20">
<path fill-rule="evenodd" clip-rule="evenodd" d="M11.4078 10.7104C11.4015 10.7138 11.3942 10.7172 11.3879 10.7215C11.3852 10.7232 11.3825 10.7249 11.3798 10.7258C11.2897 10.7755 11.2294 10.8091 11.2014 10.8237C11.1987 10.8246 11.197 10.8261 11.1943 10.8271C11.1914 10.8288 11.1879 10.8306 11.1851 10.8321C11.1851 10.8321 11.0464 10.9206 10.8428 11.0888C10.3167 11.5239 9.35783 12.4962 9.26862 13.8582C9.23161 14.4142 9.3398 15.0363 9.68224 15.7134C10.0346 16.4112 10.3833 16.9252 10.7058 17.3302L10.7068 17.332C11.7601 18.6552 12.535 18.8304 12.2539 20.4848C12.0575 21.6418 11.7889 22.1344 11.6105 22.469L11.6087 22.4707C11.4546 22.7608 11.3672 22.9325 11.452 23.3161C11.6356 24.1433 15.6608 27.4669 15.7607 28.1192C15.8609 28.7714 15.7276 29.2641 15.7276 29.2641C15.7276 29.2641 17.1799 29.8846 18.3992 29.2641C18.3992 29.2641 18.8163 28.3896 18.1991 28.0557C17.5809 27.722 14.3913 25.6065 14.7922 23.5065C15.0895 21.948 16.105 19.9691 16.9773 18.5969C17.28 18.1207 17.5656 17.7181 17.7981 17.4316C18.7 16.3184 19.0299 12.9991 16.9962 11.5153C15.7566 10.61 14.5436 10.2231 13.4451 10.2231C12.7049 10.2231 12.0166 10.399 11.4078 10.7104Z" fill="white"/>
</mask>
<g mask="url(#mask5_14158_167350)">
<path fill-rule="evenodd" clip-rule="evenodd" d="M11.4078 10.7104C11.4015 10.7138 11.3942 10.7172 11.3879 10.7215C11.3852 10.7232 11.3825 10.7249 11.3798 10.7258C11.2897 10.7755 11.2294 10.8091 11.2014 10.8237C11.1987 10.8246 11.197 10.8261 11.1943 10.8271C11.1914 10.8288 11.1879 10.8306 11.1851 10.8321C11.1851 10.8321 11.0464 10.9206 10.8428 11.0888C10.3167 11.5239 9.35783 12.4962 9.26862 13.8582C9.23161 14.4142 9.3398 15.0363 9.68224 15.7134C10.0346 16.4112 10.3833 16.9252 10.7058 17.3302L10.7068 17.332C11.7601 18.6552 12.535 18.8304 12.2539 20.4848C12.0575 21.6418 11.7889 22.1344 11.6105 22.469L11.6087 22.4707C11.4546 22.7608 11.3672 22.9325 11.452 23.3161C11.6356 24.1433 15.6608 27.4669 15.7607 28.1192C15.8609 28.7714 15.7276 29.2641 15.7276 29.2641C15.7276 29.2641 17.1799 29.8846 18.3992 29.2641C18.3992 29.2641 18.8163 28.3896 18.1991 28.0557C17.5809 27.722 14.3913 25.6065 14.7922 23.5065C15.0895 21.948 16.105 19.9691 16.9773 18.5969C17.28 18.1207 17.5656 17.7181 17.7981 17.4316C18.7 16.3184 19.0299 12.9991 16.9962 11.5153C15.7566 10.61 14.5436 10.2231 13.4451 10.2231C12.7049 10.2231 12.0166 10.399 11.4078 10.7104Z" fill="url(#paint5_linear_14158_167350)"/>
</g>
<mask id="mask6_14158_167350" style="mask-type:luminance" maskUnits="userSpaceOnUse" x="8" y="17" width="5" height="13">
<path fill-rule="evenodd" clip-rule="evenodd" d="M10.5401 19.7367C10.1068 20.3182 8.33188 21.4517 8.28344 21.9348C8.235 22.4188 9.00484 26.8621 9.00484 27.5314C9.00484 28.2009 8.81277 29.3066 8.81277 29.3066C8.81277 29.3066 9.41251 29.5394 10.2148 29.5413H10.2348C10.6359 29.5404 11.0865 29.4811 11.5373 29.3066C11.5373 29.3066 11.6983 28.2575 11.2494 27.9189C10.8004 27.5801 10.0696 26.6539 10.054 25.6301C10.041 24.845 10.7555 23.3329 11.5115 22.3362L11.5132 22.3345C11.6844 21.9949 11.9423 21.4952 12.1309 20.3217C12.4007 18.6434 11.6568 18.4657 10.6457 17.1235C10.6569 17.1973 10.9649 19.1674 10.5401 19.7367Z" fill="white"/>
</mask>
<g mask="url(#mask6_14158_167350)">
<path fill-rule="evenodd" clip-rule="evenodd" d="M10.5401 19.7367C10.1068 20.3182 8.33188 21.4517 8.28344 21.9348C8.235 22.4188 9.00484 26.8621 9.00484 27.5314C9.00484 28.2009 8.81277 29.3066 8.81277 29.3066C8.81277 29.3066 9.41251 29.5394 10.2148 29.5413H10.2348C10.6359 29.5404 11.0865 29.4811 11.5373 29.3066C11.5373 29.3066 11.6983 28.2575 11.2494 27.9189C10.8004 27.5801 10.0696 26.6539 10.054 25.6301C10.041 24.845 10.7555 23.3329 11.5115 22.3362L11.5132 22.3345C11.6844 21.9949 11.9423 21.4952 12.1309 20.3217C12.4007 18.6434 11.6568 18.4657 10.6457 17.1235C10.6569 17.1973 10.9649 19.1674 10.5401 19.7367Z" fill="url(#paint6_linear_14158_167350)"/>
</g>
<path fill-rule="evenodd" clip-rule="evenodd" d="M37.5534 17.406C35.1466 16.8039 35.3784 15.942 35.3784 15.942C35.3599 15.5174 36.0312 15.0248 36.0312 15.0248C35.9646 14.3191 35.2011 14.0418 35.1808 13.458C35.1644 12.9647 35.2723 12.6612 35.3065 12.5792C35.0683 12.5785 34.1811 12.5868 33.2164 12.7133C33.2266 12.6451 33.2349 12.5738 33.2386 12.4987C33.2386 12.4987 32.6672 12.1793 31.9609 11.6383C32.2573 11.3426 32.3875 11.1396 32.3875 11.1396C32.584 10.6415 32.7898 10.2011 32.9976 9.8125C33.7926 10.2424 34.6732 10.5381 35.4201 10.7373C35.9416 11.0001 36.3394 11.2231 36.5729 11.3579C36.7142 11.4399 36.8029 11.5709 36.8102 11.7133C36.8712 12.9018 37.5866 15.5925 37.5866 15.5925C37.2515 16.2055 37.5534 17.406 37.5534 17.406Z" fill="#962351"/>
<mask id="mask7_14158_167350" style="mask-type:luminance" maskUnits="userSpaceOnUse" x="8" y="17" width="5" height="13">
<path fill-rule="evenodd" clip-rule="evenodd" d="M8.28125 17.2466H12.4493V29.5433H8.28125V17.2466Z" fill="white"/>
</mask>
<g mask="url(#mask7_14158_167350)">
<path fill-rule="evenodd" clip-rule="evenodd" d="M10.8047 17.2466C11.8839 18.5759 12.6778 18.7518 12.3897 20.4138C12.1885 21.5758 11.9134 22.0705 11.7307 22.4068L11.7288 22.4084C10.922 23.3955 10.1594 24.8929 10.1733 25.6704C10.1899 26.6842 10.97 27.6013 11.4491 27.9368C11.9282 28.272 11.7565 29.3108 11.7565 29.3108C10.3007 29.834 8.84853 29.3108 8.84853 29.3108C8.84853 29.3108 9.05352 28.2159 9.05352 27.5531C9.05352 26.8901 8.2319 22.4902 8.28359 22.0111C8.33529 21.5327 10.2296 20.4102 10.6921 19.8344C11.1454 19.2707 10.8167 17.3198 10.8047 17.2466Z" fill="#962351"/>
</g>
<path fill-rule="evenodd" clip-rule="evenodd" d="M7.69251 12.6173C6.4028 13.0965 4.91136 13.2742 3.60244 12.8368C3.18072 12.6961 2.79008 12.4928 2.44141 12.2411C2.45422 12.2732 2.46976 12.3045 2.48625 12.336C2.76268 12.8585 3.35246 13.1986 3.95206 13.4302C5.74828 14.124 7.90337 14.0462 9.63388 13.2341C9.72424 11.958 10.6955 11.047 11.2285 10.6394L11.2203 10.6313C10.1085 11.3808 8.98125 12.1381 7.69251 12.6173Z" fill="#CA2D65"/>
<path fill-rule="evenodd" clip-rule="evenodd" d="M29.7628 12.8117C29.1159 13.1309 28.3128 13.4197 27.3256 13.6058C23.8446 14.2647 20.6219 14.243 17.1068 17.575L17.0703 17.5815C17.0703 17.5815 17.0715 17.5805 17.0728 17.5783C17.1926 17.43 21.0354 12.6711 22.7604 9.45918C24.4574 6.30017 26.5074 6.14228 26.6359 6.13574C26.5175 6.15303 24.6162 6.47758 24.2594 9.02531C23.8925 11.6563 26.4141 12.0155 27.7833 12.2654C28.5183 12.4006 29.2457 12.629 29.7628 12.8117Z" fill="#962351"/>
<mask id="mask8_14158_167350" style="mask-type:luminance" maskUnits="userSpaceOnUse" x="0" y="4" width="6" height="9">
<path fill-rule="evenodd" clip-rule="evenodd" d="M4.89618 4.69238C4.53581 4.80704 4.15432 4.86154 3.79652 4.98268C2.93034 5.27403 2.25876 5.96587 2.07404 6.75706C2.04154 6.89574 2.02272 7.03759 1.95866 7.16732C1.8946 7.29728 1.7753 7.41617 1.61712 7.44573C1.33475 7.49693 1.08246 7.23065 1.08368 6.97967C1.08489 6.72976 1.25445 6.50491 1.41628 6.29761C0.52572 7.05666 0.00352093 8.13261 0 9.21693V9.23753C0 9.24848 0.000135849 9.25931 0.000271671 9.27014C0.0127308 10.3723 0.996867 11.5083 1.92088 12.2634C1.23156 11.5437 0.978583 10.9521 0.73469 10.0516C0.540621 9.33465 0.467355 8.48672 0.989422 7.8854C0.961931 8.1604 1.12756 8.42232 1.32718 8.63622C1.52544 8.85118 1.76405 9.03999 1.92602 9.27674C2.08664 9.51464 2.15828 9.82448 1.99875 10.0625C2.35411 9.74702 2.48709 9.29098 2.54614 8.85224C2.60519 8.41362 2.60653 7.96392 2.76214 7.5439C2.91896 7.12364 3.27175 6.72316 3.7689 6.63157C3.47773 6.79414 3.35842 7.12258 3.37467 7.42382C3.39106 7.72508 3.51917 8.01089 3.62074 8.29896C3.72244 8.58701 3.80153 8.89485 3.71744 9.18727C3.56562 9.71536 2.95038 10.0265 2.58758 10.4695C2.16708 10.9834 1.95568 11.7058 2.29601 12.2634C2.17548 11.8597 2.63525 11.4495 2.99182 11.1711C3.34839 10.8918 3.78014 10.6736 4.05139 10.3297C4.40161 9.88664 4.42665 9.31711 4.47947 8.78136C4.53351 8.24551 4.65648 7.66385 5.12586 7.31364C4.71795 7.36273 4.35014 7.61148 4.19576 7.94439C4.00617 7.605 4.16299 7.18921 4.42287 6.8869C4.68153 6.5846 5.03309 6.35117 5.30164 6.05545C5.79757 5.51088 5.97836 4.76007 5.77752 4.08789C5.60933 4.38807 5.25641 4.57784 4.89618 4.69238Z" fill="white"/>
</mask>
<g mask="url(#mask8_14158_167350)">
<path fill-rule="evenodd" clip-rule="evenodd" d="M4.89618 4.69238C4.53581 4.80704 4.15432 4.86154 3.79652 4.98268C2.93034 5.27403 2.25876 5.96587 2.07404 6.75706C2.04154 6.89574 2.02272 7.03759 1.95866 7.16732C1.8946 7.29728 1.7753 7.41617 1.61712 7.44573C1.33475 7.49693 1.08246 7.23065 1.08368 6.97967C1.08489 6.72976 1.25445 6.50491 1.41628 6.29761C0.52572 7.05666 0.00352093 8.13261 0 9.21693V9.23753C0 9.24848 0.000135849 9.25931 0.000271671 9.27014C0.0127308 10.3723 0.996867 11.5083 1.92088 12.2634C1.23156 11.5437 0.978583 10.9521 0.73469 10.0516C0.540621 9.33465 0.467355 8.48672 0.989422 7.8854C0.961931 8.1604 1.12756 8.42232 1.32718 8.63622C1.52544 8.85118 1.76405 9.03999 1.92602 9.27674C2.08664 9.51464 2.15828 9.82448 1.99875 10.0625C2.35411 9.74702 2.48709 9.29098 2.54614 8.85224C2.60519 8.41362 2.60653 7.96392 2.76214 7.5439C2.91896 7.12364 3.27175 6.72316 3.7689 6.63157C3.47773 6.79414 3.35842 7.12258 3.37467 7.42382C3.39106 7.72508 3.51917 8.01089 3.62074 8.29896C3.72244 8.58701 3.80153 8.89485 3.71744 9.18727C3.56562 9.71536 2.95038 10.0265 2.58758 10.4695C2.16708 10.9834 1.95568 11.7058 2.29601 12.2634C2.17548 11.8597 2.63525 11.4495 2.99182 11.1711C3.34839 10.8918 3.78014 10.6736 4.05139 10.3297C4.40161 9.88664 4.42665 9.31711 4.47947 8.78136C4.53351 8.24551 4.65648 7.66385 5.12586 7.31364C4.71795 7.36273 4.35014 7.61148 4.19576 7.94439C4.00617 7.605 4.16299 7.18921 4.42287 6.8869C4.68153 6.5846 5.03309 6.35117 5.30164 6.05545C5.79757 5.51088 5.97836 4.76007 5.77752 4.08789C5.60933 4.38807 5.25641 4.57784 4.89618 4.69238Z" fill="url(#paint7_linear_14158_167350)"/>
</g>
<path d="M51.809 12.5964V13.7954H46.034V6.09541H51.655V7.29441H47.464V9.29641H51.182V10.4734H47.464V12.5964H51.809ZM54.9651 7.30541H52.4131V6.09541H58.9471V7.30541H56.3951V13.7954H54.9651V7.30541ZM63.1883 6.09541C63.8557 6.09541 64.435 6.20541 64.9263 6.42541C65.425 6.64541 65.8063 6.96074 66.0703 7.37141C66.3343 7.78208 66.4663 8.26974 66.4663 8.83441C66.4663 9.39174 66.3343 9.87941 66.0703 10.2974C65.8063 10.7081 65.425 11.0234 64.9263 11.2434C64.435 11.4634 63.8557 11.5734 63.1883 11.5734H61.4503V13.7954H60.0203V6.09541H63.1883ZM63.1223 10.3634C63.7457 10.3634 64.2187 10.2314 64.5413 9.96741C64.864 9.70341 65.0253 9.32574 65.0253 8.83441C65.0253 8.34308 64.864 7.96541 64.5413 7.70141C64.2187 7.43741 63.7457 7.30541 63.1223 7.30541H61.4503V10.3634H63.1223ZM69.0176 8.77941C69.4136 8.16341 70.1103 7.85541 71.1076 7.85541V9.16441C70.9903 9.14241 70.884 9.13141 70.7886 9.13141C70.2533 9.13141 69.8353 9.28908 69.5346 9.60441C69.234 9.91241 69.0836 10.3597 69.0836 10.9464V13.7954H67.7086V7.92141H69.0176V8.77941ZM72.2741 7.92141H73.6491V13.7954H72.2741V7.92141ZM72.9671 6.95341C72.7177 6.95341 72.5087 6.87641 72.3401 6.72241C72.1714 6.56108 72.0871 6.36308 72.0871 6.12841C72.0871 5.89374 72.1714 5.69941 72.3401 5.54541C72.5087 5.38408 72.7177 5.30341 72.9671 5.30341C73.2164 5.30341 73.4254 5.38041 73.5941 5.53441C73.7627 5.68108 73.8471 5.86808 73.8471 6.09541C73.8471 6.33741 73.7627 6.54274 73.5941 6.71141C73.4327 6.87274 73.2237 6.95341 72.9671 6.95341ZM82.8678 7.85541C83.6084 7.85541 84.1951 8.07174 84.6278 8.50441C85.0604 8.92974 85.2768 9.57141 85.2768 10.4294V13.7954H83.9018V10.6054C83.9018 10.0921 83.7881 9.70708 83.5608 9.45041C83.3334 9.18641 83.0071 9.05441 82.5818 9.05441C82.1198 9.05441 81.7494 9.20841 81.4708 9.51641C81.1921 9.81708 81.0528 10.2497 81.0528 10.8144V13.7954H79.6778V10.6054C79.6778 10.0921 79.5641 9.70708 79.3368 9.45041C79.1094 9.18641 78.7831 9.05441 78.3578 9.05441C77.8884 9.05441 77.5144 9.20474 77.2358 9.50541C76.9644 9.80608 76.8288 10.2424 76.8288 10.8144V13.7954H75.4538V7.92141H76.7628V8.66941C76.9828 8.40541 77.2578 8.20374 77.5878 8.06441C77.9178 7.92508 78.2844 7.85541 78.6878 7.85541C79.1278 7.85541 79.5164 7.93974 79.8538 8.10841C80.1984 8.26974 80.4698 8.51174 80.6678 8.83441C80.9098 8.52641 81.2214 8.28808 81.6028 8.11941C81.9841 7.94341 82.4058 7.85541 82.8678 7.85541ZM92.6095 10.8914C92.6095 10.9867 92.6022 11.1224 92.5875 11.2984H87.9785C88.0592 11.7311 88.2682 12.0757 88.6055 12.3324C88.9502 12.5817 89.3755 12.7064 89.8815 12.7064C90.5269 12.7064 91.0585 12.4937 91.4765 12.0684L92.2135 12.9154C91.9495 13.2307 91.6159 13.4691 91.2125 13.6304C90.8092 13.7917 90.3545 13.8724 89.8485 13.8724C89.2032 13.8724 88.6349 13.7441 88.1435 13.4874C87.6522 13.2307 87.2709 12.8751 86.9995 12.4204C86.7355 11.9584 86.6035 11.4377 86.6035 10.8584C86.6035 10.2864 86.7319 9.77308 86.9885 9.31841C87.2525 8.85641 87.6155 8.49708 88.0775 8.24041C88.5395 7.98374 89.0602 7.85541 89.6395 7.85541C90.2115 7.85541 90.7212 7.98374 91.1685 8.24041C91.6232 8.48974 91.9752 8.84541 92.2245 9.30741C92.4812 9.76208 92.6095 10.2901 92.6095 10.8914ZM89.6395 8.95541C89.1995 8.95541 88.8255 9.08741 88.5175 9.35141C88.2169 9.60808 88.0335 9.95274 87.9675 10.3854H91.3005C91.2419 9.96008 91.0622 9.61541 90.7615 9.35141C90.4609 9.08741 90.0869 8.95541 89.6395 8.95541Z" fill="#ED193B"/>
<defs>
<linearGradient id="paint0_linear_14158_167350" x1="45.8693" y1="4.49901" x2="45.8693" y2="2.0464" gradientUnits="userSpaceOnUse">
<stop stop-color="#90214F"/>
<stop offset="1" stop-color="#DB316B"/>
</linearGradient>
<linearGradient id="paint1_linear_14158_167350" x1="51.681" y1="27.3612" x2="51.681" y2="0.423911" gradientUnits="userSpaceOnUse">
<stop stop-color="#DB316B"/>
<stop offset="1" stop-color="#E8A852"/>
</linearGradient>
<linearGradient id="paint2_linear_14158_167350" x1="43.7735" y1="27.6769" x2="43.7735" y2="3.49961" gradientUnits="userSpaceOnUse">
<stop stop-color="#90214F"/>
<stop offset="1" stop-color="#DB316B"/>
</linearGradient>
<linearGradient id="paint3_linear_14158_167350" x1="39.9135" y1="27.3443" x2="39.9135" y2="3.49655" gradientUnits="userSpaceOnUse">
<stop stop-color="#90214F"/>
<stop offset="1" stop-color="#DB316B"/>
</linearGradient>
<linearGradient id="paint4_linear_14158_167350" x1="39.707" y1="26.8086" x2="39.707" y2="0.433064" gradientUnits="userSpaceOnUse">
<stop stop-color="#DB316B"/>
<stop offset="1" stop-color="#E8A852"/>
</linearGradient>
<linearGradient id="paint5_linear_14158_167350" x1="21.0976" y1="29.5175" x2="21.0976" y2="-0.46468" gradientUnits="userSpaceOnUse">
<stop stop-color="#DB316B"/>
<stop offset="1" stop-color="#E8A852"/>
</linearGradient>
<linearGradient id="paint6_linear_14158_167350" x1="14.4572" y1="29.4176" x2="14.4572" y2="2.55997" gradientUnits="userSpaceOnUse">
<stop stop-color="#90214F"/>
<stop offset="1" stop-color="#DB316B"/>
</linearGradient>
<linearGradient id="paint7_linear_14158_167350" x1="4.3849" y1="13.58" x2="7.87717" y2="6.48432" gradientUnits="userSpaceOnUse">
<stop stop-color="#DB316B"/>
<stop offset="1" stop-color="#E8A852"/>
</linearGradient>
</defs>
</svg>
