<svg width="35" height="36" viewBox="0 0 35 36" fill="none" xmlns="http://www.w3.org/2000/svg">
<circle cx="18" cy="18" r="18" fill="black"/>
<path fill-rule="evenodd" clip-rule="evenodd" d="M13.1331 13.1332C13.3106 12.9556 13.5984 12.9556 13.7759 13.1331L18 17.3571L22.2241 13.1331C22.4016 12.9556 22.6894 12.9556 22.8669 13.1332C23.0444 13.3108 23.0444 13.5987 22.8668 13.7762L18.6429 18L22.8668 22.2238C23.0444 22.4013 23.0444 22.6892 22.8669 22.8668C22.6894 23.0444 22.4016 23.0444 22.2241 22.8669L18 18.6429L13.7759 22.8669C13.5984 23.0444 13.3106 23.0444 13.1331 22.8668C12.9556 22.6892 12.9556 22.4013 13.1332 22.2238L17.3571 18L13.1332 13.7762C12.9556 13.5987 12.9556 13.3108 13.1331 13.1332Z" fill="white" stroke="white" stroke-linecap="round"/>
</svg>
