<svg width="31" height="31" viewBox="0 0 31 31" fill="none" xmlns="http://www.w3.org/2000/svg">
<circle cx="15.5" cy="15.5" r="15.5" fill="black"/>
<path fill-rule="evenodd" clip-rule="evenodd" d="M12.1065 11.1066C12.2485 10.9645 12.4787 10.9645 12.6207 11.1065L16 14.4857L19.3793 11.1065C19.5213 10.9645 19.7515 10.9645 19.8935 11.1066C20.0355 11.2486 20.0355 11.4789 19.8935 11.621L16.5143 15L19.8935 18.379C20.0355 18.5211 20.0355 18.7514 19.8935 18.8934C19.7515 19.0355 19.5213 19.0355 19.3793 18.8935L16 15.5143L12.6207 18.8935C12.4787 19.0355 12.2485 19.0355 12.1065 18.8934C11.9645 18.7514 11.9645 18.5211 12.1065 18.379L15.4857 15L12.1065 11.621C11.9645 11.4789 11.9645 11.2486 12.1065 11.1066Z" fill="white" stroke="white" stroke-linecap="round"/>
</svg>
