<svg width="16" height="16" viewBox="0 0 16 16" fill="none" xmlns="http://www.w3.org/2000/svg">
<path d="M1.60156 7.18182C1.60156 7.18182 4.03822 2.81818 8.00156 2.81818C8.55254 2.81818 9.07153 2.90618 9.55967 3.05236L5.88374 7.64727C5.74652 7.27298 5.6751 6.86626 5.67429 6.45454C5.67429 5.77309 5.8692 5.15491 6.18338 4.65891C4.79167 5.24945 3.7316 6.39345 3.12651 7.18182C3.64196 7.85404 4.22473 8.44022 4.86033 8.92582L4.01494 9.98254C2.47254 8.73091 1.60156 7.18182 1.60156 7.18182ZM14.4016 7.18182C14.4016 7.18182 11.9649 11.5455 8.00156 11.5455C7.45116 11.5455 6.93334 11.4553 6.44462 11.3105L3.92884 14.4545L3.05611 13.3636L12.947 1L13.8197 2.09091L11.9888 4.37964C13.5294 5.632 14.4016 7.18182 14.4016 7.18182ZM12.8801 7.18618C12.3637 6.5121 11.7796 5.92465 11.1422 5.43854L10.3288 6.45454C10.3288 7.22608 10.0836 7.96602 9.64719 8.51158C9.21074 9.05714 8.61879 9.36364 8.00156 9.36364L7.45058 10.0524C7.63094 10.0749 7.81363 10.0909 8.00156 10.0909C10.316 10.0909 12.0411 8.28873 12.8801 7.18618Z" fill="#999999"/>
</svg>
