<svg width="164" height="138" viewBox="0 0 164 138" fill="none" xmlns="http://www.w3.org/2000/svg">
<path d="M81.7794 136.489C126.393 136.489 162.559 131.796 162.559 126.006C162.559 120.217 126.393 115.523 81.7794 115.523C37.1662 115.523 1 120.217 1 126.006C1 131.796 37.1662 136.489 81.7794 136.489Z" fill="#F5F5F5"/>
<path d="M147.041 98.3671L66.0357 86.4201C63.6108 86.061 61.9314 83.8036 62.2906 81.3787L70.9506 22.6666C71.3097 20.2416 73.5671 18.5623 75.9921 18.9214L156.997 30.8684C159.422 31.2275 161.101 33.4849 160.742 35.9098L152.082 94.6219C151.723 97.0468 149.466 98.7262 147.041 98.3671Z" fill="#F5F5F5"/>
<path d="M143.024 92.7168L61.7833 102.919C59.3481 103.224 57.1284 101.5 56.824 99.0648L49.4294 40.1783C49.125 37.743 50.8488 35.5233 53.284 35.2189L134.525 25.0163C136.96 24.7119 139.18 26.4357 139.485 28.8709L146.879 87.7574C147.184 90.1892 145.46 92.4124 143.024 92.7168Z" fill="#F5F5F5"/>
<path d="M63.5243 98.3517C63.155 98.3996 62.8164 98.1362 62.7719 97.7668L55.9314 43.2993C55.8835 42.93 56.1469 42.5914 56.5163 42.5469C56.8856 42.499 57.2243 42.7624 57.2687 43.1318L64.1092 97.5993C64.1571 97.9686 63.8937 98.3038 63.5243 98.3517Z" fill="#D6D6D6"/>
<path d="M71.954 97.1086C71.5846 97.1565 71.246 96.8931 71.2016 96.5237L64.3611 42.0562C64.3132 41.6869 64.5766 41.3483 64.946 41.3038C65.3153 41.2559 65.6539 41.5193 65.6984 41.8887L72.5389 96.3561C72.5868 96.7255 72.3234 97.0607 71.954 97.1086Z" fill="#D6D6D6"/>
<path d="M80.3876 95.8608C80.0182 95.9087 79.6796 95.6453 79.6352 95.2759L72.7947 40.8084C72.7468 40.439 73.0102 40.1004 73.3795 40.056C73.7489 40.0081 74.0875 40.2714 74.132 40.6408L80.9725 95.1083C81.0204 95.4743 80.757 95.8129 80.3876 95.8608Z" fill="#D6D6D6"/>
<path d="M88.8173 94.6132C88.4479 94.6611 88.1093 94.3977 88.0649 94.0283L81.2244 39.5608C81.1765 39.1914 81.4398 38.8528 81.8092 38.8084C82.1786 38.7605 82.5172 39.0238 82.5617 39.3932L89.4022 93.8607C89.4501 94.2301 89.1901 94.5687 88.8173 94.6132Z" fill="#D6D6D6"/>
<path d="M97.2548 93.3701C96.8854 93.418 96.5468 93.1546 96.5024 92.7852L89.6619 38.3177C89.614 37.9483 89.8773 37.6097 90.2467 37.5653C90.6161 37.5174 90.9547 37.7807 90.9992 38.1501L97.8397 92.6176C97.8841 92.987 97.6242 93.3256 97.2548 93.3701Z" fill="#D6D6D6"/>
<path d="M105.685 92.1223C105.315 92.1701 104.977 91.9068 104.932 91.5374L98.0916 37.0699C98.0437 36.7005 98.307 36.3619 98.6764 36.3174C99.0458 36.2696 99.3844 36.5329 99.4289 36.9023L106.269 91.3698C106.317 91.7392 106.054 92.0744 105.685 92.1223Z" fill="#D6D6D6"/>
<path d="M114.118 90.879C113.749 90.9269 113.41 90.6636 113.366 90.2942L106.525 35.8267C106.477 35.4573 106.741 35.1187 107.11 35.0742C107.479 35.0263 107.818 35.2897 107.862 35.6591L114.703 90.1266C114.751 90.4925 114.487 90.8311 114.118 90.879Z" fill="#D6D6D6"/>
<path d="M122.544 89.6314C122.174 89.6793 121.836 89.416 121.791 89.0466L114.951 34.5791C114.903 34.2097 115.166 33.8711 115.536 33.8266C115.905 33.7787 116.244 34.0421 116.288 34.4115L123.129 88.879C123.177 89.2484 122.913 89.587 122.544 89.6314Z" fill="#D6D6D6"/>
<path d="M130.981 88.3837C130.612 88.4316 130.273 88.1683 130.229 87.7989L123.388 33.3314C123.341 32.962 123.604 32.6234 123.973 32.5789C124.343 32.531 124.681 32.7944 124.726 33.1638L131.566 87.6313C131.611 88.0007 131.351 88.3393 130.981 88.3837Z" fill="#D6D6D6"/>
<path d="M139.411 87.1405C139.042 87.1884 138.703 86.925 138.659 86.5557L131.818 32.0882C131.77 31.7188 132.034 31.3802 132.403 31.3357C132.772 31.2878 133.111 31.5512 133.155 31.9206L139.996 86.3881C140.044 86.7574 139.78 87.0926 139.411 87.1405Z" fill="#D6D6D6"/>
<path d="M69.2305 33.2162L133.449 24.8331C136.681 24.4124 139.629 26.7245 139.992 29.9635L143.06 57.5136" stroke="#262626" stroke-width="0.4147" stroke-miterlimit="10" stroke-linecap="round" stroke-linejoin="round"/>
<path d="M154.105 124.169L72.4334 119.924C69.9572 119.794 68.0521 117.684 68.1821 115.208L71.3355 54.5119C71.4655 52.0357 73.5758 50.1306 76.052 50.2605L157.724 54.5051C160.2 54.6351 162.105 56.7453 161.975 59.2216L158.822 119.921C158.692 122.394 156.582 124.299 154.105 124.169Z" fill="#F5F5F5"/>
<path d="M154.105 124.169L72.4334 119.924C69.9572 119.794 68.0521 117.684 68.1821 115.208L71.3355 54.5119C71.4655 52.0357 73.5758 50.1306 76.052 50.2605L157.724 54.5051C160.2 54.6351 162.105 56.7453 161.975 59.2216L158.822 119.921C158.692 122.394 156.582 124.299 154.105 124.169Z" stroke="#262626" stroke-width="0.4147" stroke-miterlimit="10" stroke-linecap="round" stroke-linejoin="round"/>
<path d="M85.8622 57.5171L76.8499 45.8608C75.8785 44.6056 74.3873 43.8497 72.8755 43.8497H49.5973C47.0971 43.8497 45.2844 45.8779 45.5443 48.3747L46.502 57.5136L46.5362 57.8557L53.1578 121.069C53.4212 123.569 55.658 125.594 58.1582 125.594H150.744C153.244 125.594 155.057 123.566 154.797 121.069L148.613 62.0386C148.35 59.5384 146.113 57.5136 143.613 57.5136H85.8622V57.5171Z" fill="#FFC001"/>
<path d="M97.296 99.9313C96.783 97.9783 96.5231 96.405 96.506 95.2147C96.4923 94.0245 96.7864 92.93 97.385 91.9381C97.727 91.343 98.1545 90.83 98.671 90.399C99.1874 89.9681 99.6457 89.5132 100.053 89.0343C100.456 88.5555 100.761 88.0151 100.969 87.42C101.178 86.8249 101.158 86.045 100.904 85.0874C100.48 83.4662 99.7347 82.3306 98.671 81.6842C97.6073 81.0378 96.4649 80.7163 95.2405 80.7163C93.4859 80.7163 92.4051 81.2054 91.9981 82.1802C91.5911 83.1583 91.5227 84.4717 91.7895 86.1271H85.3833C84.9592 84.5059 84.8361 83.0318 85.0208 81.7082C85.2021 80.3845 85.6604 79.2593 86.3957 78.3324C87.1277 77.4055 88.1195 76.6941 89.3611 76.1981C90.6026 75.7022 92.0528 75.4525 93.7116 75.4525C97.2858 75.4525 100.299 76.181 102.751 77.6381C105.2 79.0951 106.856 81.4619 107.714 84.7385C107.991 85.7988 108.128 86.7257 108.121 87.5192C108.114 88.3127 107.977 89.0343 107.718 89.6808C107.454 90.3272 107.085 90.9292 106.603 91.4935C106.12 92.0578 105.559 92.6359 104.923 93.231C104.342 93.7953 103.89 94.3152 103.569 94.794C103.247 95.2729 103.039 95.7791 102.946 96.3092C102.854 96.8394 102.851 97.3934 102.936 97.9715C103.022 98.5495 103.158 99.2062 103.35 99.9347H97.296V99.9313ZM99.6081 109.518L97.9048 103.013H104.609L106.312 109.518H99.6081Z" fill="#E8A600"/>
<path d="M46.5195 57.5156L46.5572 57.8577" stroke="#262626" stroke-width="0.4657" stroke-miterlimit="10" stroke-linecap="round" stroke-linejoin="round"/>
<path d="M154.797 121.072L148.613 62.042C148.349 59.5418 146.113 57.5171 143.612 57.5171H85.8547L76.8424 45.8608C75.871 44.6056 74.3798 43.8497 72.868 43.8497H49.5898" stroke="#262626" stroke-width="0.4657" stroke-miterlimit="10" stroke-linecap="round" stroke-linejoin="round"/>
<path d="M40.2953 68.1487V70.7754C40.2953 70.7754 44.5843 88.7625 45.4189 91.1669C46.2568 93.5714 42.4911 116.733 42.4911 116.733H29.9457L31.5395 90.9583L17.8756 115.037L6.66406 108.422C6.66406 108.422 17.5678 87.9109 17.8756 84.2067C18.1834 80.5026 17.0855 63.4424 17.0855 63.4424L40.2953 68.1487Z" fill="#3897E9"/>
<path d="M23.8414 64.8093C23.8414 64.8093 25.1137 82.8066 24.2108 85.9704C23.3078 89.1341 12.6914 111.971 12.6914 111.971" stroke="#262626" stroke-width="0.4147" stroke-miterlimit="10" stroke-linecap="round" stroke-linejoin="round"/>
<path d="M31.5054 90.5661C30.9787 99.2877 30.4486 108.009 29.9219 116.731H35.4285L33.455 85.9658C33.3421 86.732 33.0993 87.7717 32.5452 88.8936C32.2134 89.5708 31.8441 90.1248 31.5054 90.5661Z" fill="#1775AF"/>
<path d="M29.5729 75.6134L27.5447 74.1325H28.5297C29.1454 74.1325 29.5866 73.5305 29.3985 72.9422C29.354 72.802 29.2206 72.7062 29.0736 72.7028C28.4442 72.6925 27.9175 72.6617 27.5276 72.6344C26.6007 72.5694 26.1287 72.5352 25.7286 72.3916C25.0684 72.1556 24.9795 71.9196 24.3023 71.687C23.8953 71.5433 23.5191 71.4886 23.2113 71.4681C21.7098 70.1821 20.4887 68.7456 19.6132 67.1688L17.7389 74.0538C17.691 74.0435 17.8004 74.6865 17.7697 74.7105C18.8128 75.2167 19.6713 75.48 20.6016 75.7981C20.6974 76.1607 20.8479 76.5711 21.101 76.9815C21.4943 77.6211 21.9321 77.9563 22.7598 78.5891C22.924 78.7156 22.7974 78.6096 24.8496 79.7383C25.0411 79.8443 25.4036 80.0427 25.6636 79.899C25.879 79.7793 25.9577 79.4578 25.9646 79.427C25.9988 79.2765 25.9851 79.1465 25.9714 79.0679C26.0193 79.1055 26.0911 79.1602 26.1869 79.2047C26.4468 79.3244 26.9256 79.4099 27.2129 79.126C27.466 78.8764 27.4216 78.4864 27.4113 78.3941C27.3942 78.2333 27.3395 78.1068 27.2984 78.0281L27.6644 78.1752C27.9244 78.2778 28.2219 78.2368 28.4408 78.0658C28.8581 77.7442 28.8512 77.1149 28.4305 76.8003L28.304 76.7079L29.0017 76.8687C29.2685 76.9302 29.549 76.831 29.7166 76.6121C29.956 76.2975 29.891 75.846 29.5729 75.6134Z" fill="#1775AF"/>
<path d="M39.5198 38.3836C39.5198 38.3836 49.1786 57.4652 50.2628 59.661C51.3505 61.8568 59.2821 70.7529 59.2821 70.7529L54.2714 74.05C52.1337 72.2407 49.9927 70.4314 47.855 68.622C46.4527 67.3668 45.0504 65.9235 43.7096 64.2681C36.0586 54.8247 34.7999 43.856 34.6562 37.7782L39.5198 38.3836Z" fill="#F7A99C"/>
<path d="M47.2648 53.503C47.087 54.7959 46.6766 56.6736 45.6436 58.7223C44.7852 60.4256 43.4957 61.9476 42.692 62.8164C42.5517 62.6864 42.0832 62.2178 41.9771 61.4483C41.8882 60.7847 42.1174 60.2785 42.2131 60.0938L46.2319 51.1738L47.2648 53.503Z" fill="#FF7769"/>
<path d="M30.437 25.0793C29.7974 25.7429 29.1989 26.1157 28.7611 26.338C27.5743 26.94 26.8595 27.86 26.5756 29.1871C26.3464 30.261 26.4285 31.3966 26.7876 32.4363C26.9689 32.963 27.222 33.4692 27.5367 33.9275C27.8479 34.3756 28.1626 34.7279 28.0052 35.323C27.7932 36.1233 26.7158 36.373 26.172 36.9032C25.5016 37.5564 25.1425 38.5073 25.1083 39.4342C25.0878 40.0019 25.1767 40.5834 25.4606 41.0724C25.8129 41.6813 26.4148 42.0677 27.0065 42.4132C27.6427 42.786 28.2618 43.1896 28.915 43.5282" stroke="#262626" stroke-width="0.4147" stroke-miterlimit="10" stroke-linecap="round" stroke-linejoin="round"/>
<path d="M40.957 25.578C41.5761 26.2039 42.2328 26.9016 42.3183 27.7806C42.3525 28.1398 42.2875 28.5023 42.1952 28.8478C42.0242 29.4839 41.7642 30.0893 41.6035 30.7289C41.4803 31.2214 41.4188 31.7447 41.5385 32.2372C41.6479 32.6853 41.8976 33.0855 42.1917 33.4412C43.0229 34.457 43.9771 35.1615 44.1686 36.5433C44.2747 37.2958 44.1857 38.0619 44.0489 38.811C43.9634 39.2761 43.854 39.7515 43.5667 40.1278C43.0365 40.8186 42.0413 41.0546 41.2341 41.2188" stroke="#262626" stroke-width="0.4147" stroke-miterlimit="10" stroke-linecap="round" stroke-linejoin="round"/>
<path d="M34.8596 24.0672C34.2132 24.0638 33.6523 24.0809 33.4471 24.1014C30.7622 24.3477 28.2483 25.8594 27.4548 28.5443C27.0922 29.7756 27.1572 30.8154 27.2769 31.3934C27.5813 32.8812 28.58 33.4387 28.327 34.5229C28.2756 34.7452 28.2072 34.8376 27.6976 35.5729C26.5313 37.2523 25.9465 38.0937 25.8952 38.2407C25.389 39.5952 25.9123 41.2266 26.7058 42.2048C27.2051 42.817 27.9097 43.3472 28.8674 43.6789C30.5433 44.2604 35.6189 46.2852 40.2465 43.5216C41.3923 42.8376 43.2769 41.7123 43.7762 39.602C44.3919 36.9992 42.5449 34.4306 42.261 34.0338C41.5804 33.0898 41.4333 33.3122 41.0571 32.6486C40.2773 31.2668 40.7048 29.7688 41.105 28.3459C41.4949 26.9607 41.3478 26.2014 41.1016 25.7739C40.4586 24.6487 38.7177 24.4058 37.3119 24.2109C36.3611 24.0775 35.2598 24.0706 34.8596 24.0672Z" fill="#262626"/>
<path d="M36.168 38.0546C39.5882 39.2688 41.6027 41.1054 42.6117 42.1862C44.3766 44.0811 45.4539 46.2529 46.2577 47.8707C46.7878 48.9378 47.1743 49.8647 47.4343 50.5385L41.8011 62.8138L36.168 38.0546Z" fill="#FDB6D6"/>
<path d="M31.3579 37.9878H36.1463C36.1463 37.9878 42.5113 42.6564 43.9034 46.7368C45.2954 50.8137 40.254 69.0163 40.254 69.0163C36.8098 69.1087 32.7876 68.9684 28.3447 68.3494C22.2293 67.4977 17.051 65.9791 12.9844 64.4605C13.8702 60.2844 14.8005 56.7787 15.5735 54.1074C17.7488 46.5795 19.0758 44.2434 20.9843 42.3452C22.7526 40.5803 24.5174 39.6945 25.0544 39.4346C27.6264 38.1964 29.9932 37.9981 31.3579 37.9878Z" fill="#FDB6D6"/>
<path d="M40.3009 43.5204C40.3009 43.5204 40.5266 53.186 39.6374 56.6884C38.7481 60.1907 36.4805 69.0149 36.4805 69.0149H40.3043C40.3043 69.0149 42.3838 61.2099 42.5411 59.2501C42.6985 57.2903 42.914 53.918 42.6472 52.4678C42.3838 51.0176 41.8434 47.9359 41.4843 46.6739C41.1286 45.4084 40.3009 43.5204 40.3009 43.5204Z" fill="#FF97CB"/>
<path d="M23.8004 55.4681C23.2634 55.7759 21.4541 56.8978 20.6811 59.1722C19.4635 62.7498 22.0937 67.0525 22.2442 67.2304L14.0938 65.209C14.0938 65.209 14.3024 59.4048 14.9557 57.2603C15.6089 55.1158 18.7726 51.675 18.7726 51.675L23.8004 55.4681Z" fill="#FF97CB"/>
<path d="M33.7101 40.377C32.3865 40.3804 31.3125 39.3133 31.3057 37.9897L31.2852 32.8353L36.0769 32.8182L36.0974 37.9726C36.1009 39.2928 35.0303 40.3702 33.7101 40.377Z" fill="#F7A99C"/>
<path d="M36.1232 36.5288L33.0039 34.9247C33.0347 35.1949 33.2125 36.4604 34.3241 37.3325C35.0355 37.89 35.7811 38.0166 36.1266 38.0542L36.1232 36.5288Z" fill="#FF7769"/>
<path d="M31.2181 31.2365C31.2044 31.1578 30.9992 31.0415 30.9342 31.0005C30.8282 30.9321 30.7119 30.8773 30.5922 30.8397C30.3596 30.7645 30.1031 30.7474 29.8603 30.8021C29.3814 30.9115 28.9607 31.3117 28.8787 31.8042C28.8308 32.0881 28.8992 32.3857 29.0223 32.6456C29.207 33.0389 29.5182 33.3707 29.8945 33.5862C30.2057 33.7674 30.5614 33.8666 30.9205 33.8906C30.9924 33.894 31.7277 33.8769 31.7243 33.8495C31.5567 32.9808 31.3857 32.1086 31.2181 31.2365Z" fill="#F7A99C"/>
<path d="M30.5713 31.2875C30.6294 31.6706 30.9646 33.7022 32.7944 35.1353C33.1296 35.3987 35.3699 37.1532 37.4186 36.2982C40.0522 35.1969 39.7649 30.8737 39.7444 30.6411C39.6828 29.851 39.4981 27.5184 37.5657 26.2734C35.9889 25.2576 34.2822 25.6304 34.0394 25.6886C33.7829 25.7501 32.1583 26.1571 31.163 27.751C30.2634 29.1943 30.4789 30.6582 30.5713 31.2875Z" fill="#F7A99C"/>
<path d="M38.2048 30.6417C38.2458 30.9803 38.5092 31.2232 38.7862 31.189C39.0632 31.1548 39.2548 30.8504 39.2137 30.5152C39.1727 30.1766 38.9127 29.9337 38.6323 29.9679C38.3552 30.0021 38.1637 30.3031 38.2048 30.6417Z" fill="#262626"/>
<path d="M35.2009 31.0215C35.2419 31.3601 35.5018 31.6029 35.7823 31.5687C36.0593 31.5345 36.2509 31.2301 36.2098 30.8949C36.1688 30.5563 35.9054 30.3135 35.6284 30.3477C35.3513 30.3819 35.1598 30.6863 35.2009 31.0215Z" fill="#262626"/>
<path d="M37.3238 31.1429L37.7889 31.7722C37.8744 31.8885 37.8436 32.0526 37.7205 32.1279L37.293 32.3878" stroke="#262626" stroke-width="0.733" stroke-miterlimit="10" stroke-linecap="round" stroke-linejoin="round"/>
<path d="M34.1931 32.61C34.2409 32.9896 34.5864 33.2564 34.966 33.2085C35.3457 33.1606 35.6125 32.8152 35.5646 32.4355C35.5167 32.0559 35.1712 31.7891 34.7916 31.837C34.412 31.8849 34.1452 32.2303 34.1931 32.61Z" fill="#FF7769"/>
<path d="M30.8563 32.9713C30.8597 32.8961 30.8665 32.3796 30.4527 32.0102C30.1278 31.7195 29.755 31.699 29.6523 31.699" stroke="#262626" stroke-width="0.733" stroke-miterlimit="10" stroke-linecap="round" stroke-linejoin="round"/>
<path d="M30.5291 32.1086C30.5052 32.1052 30.2281 32.0676 30.0366 32.2762C29.8793 32.4472 29.8929 32.6593 29.8964 32.6969" stroke="#262626" stroke-width="0.733" stroke-miterlimit="10" stroke-linecap="round" stroke-linejoin="round"/>
<path d="M30.4663 30.8155C30.4663 30.8155 30.8083 30.8463 31.0648 31.0994C31.3214 31.3525 31.4137 31.7903 31.4137 31.7903C32.0704 31.7116 33.5719 31.4346 34.9331 30.2512C35.6719 29.6116 36.1234 28.9173 36.3867 28.4179C36.6364 28.6402 37.0605 28.9754 37.6591 29.2354C38.4423 29.574 39.4171 29.7347 39.547 29.4714C39.571 29.4235 39.5436 29.2832 39.4923 28.9994C39.4718 28.8968 39.4513 28.7463 39.4034 28.6026C39.3076 28.3187 39.1811 28.0485 39.0306 27.7886C38.7296 27.2721 38.3294 26.8138 37.8574 26.4444C37.5496 26.205 37.2144 26.0066 36.8587 25.8527C35.7232 25.3705 34.1465 25.3705 32.7886 26.0922C32.7886 26.0922 31.2735 26.8993 30.6065 28.4829C30.3774 29.0267 30.3192 29.5706 30.3055 29.7587C30.2782 30.1315 30.3192 30.3743 30.3774 30.5624C30.4047 30.6719 30.4389 30.7574 30.4663 30.8155Z" fill="#262626"/>
<path d="M39.3462 31.5215C39.4762 31.5044 39.6027 31.5283 39.7156 31.5796C39.7019 31.9524 39.6677 32.4005 39.5856 32.8793C39.5651 32.8827 39.5412 32.893 39.5207 32.893C39.141 32.9409 38.7956 32.6707 38.7477 32.2944C38.6998 31.9148 38.97 31.5659 39.3462 31.5215Z" fill="#FF7769"/>
<path d="M37.5873 33.3274L36.332 33.8404" stroke="#262626" stroke-width="0.733" stroke-miterlimit="10" stroke-linecap="round" stroke-linejoin="round"/>
<path d="M40.433 70.9072L20.0278 76.3352C18.4784 76.7456 17.5584 78.336 17.9688 79.8854C18.3792 81.4348 19.9696 82.3548 21.519 81.9444L41.7292 76.5712L40.433 70.9072Z" fill="#1775AF"/>
<path d="M17.9688 79.2008C17.5584 77.6514 18.4784 76.061 20.0278 75.6505L60.0515 65.0067L61.5427 70.6159L21.519 81.2598C19.9696 81.6702 18.3826 80.7501 17.9688 79.2008Z" fill="#4450E4"/>
<path d="M29.5078 75.6122L27.4796 74.1313H28.4646C29.0803 74.1313 29.5215 73.5293 29.3333 72.941C29.2889 72.8008 29.1555 72.705 29.0084 72.7016C28.3791 72.6914 27.8524 72.6606 27.4625 72.6332C26.5356 72.5682 26.0636 72.534 25.6634 72.3904C25.0033 72.1544 24.9144 71.9184 24.2372 71.6858C23.8302 71.5422 23.4539 71.4874 23.1461 71.4669C22.9477 71.2959 22.7562 71.1249 22.5681 70.9504L20.0234 75.6225C20.191 75.6806 20.362 75.7354 20.5365 75.7969C20.6322 76.1595 20.7827 76.5699 21.0358 76.9803C21.4292 77.6199 21.867 77.9551 22.6947 78.5879C22.8588 78.7144 22.7323 78.6084 24.7844 79.7371C24.976 79.8431 25.3385 80.0415 25.5984 79.8978C25.8139 79.7781 25.8926 79.4566 25.8994 79.4258C25.9336 79.2753 25.9199 79.1454 25.9063 79.0667C25.9541 79.1043 26.026 79.159 26.1217 79.2035C26.3817 79.3232 26.8605 79.4087 27.1478 79.1248C27.4009 78.8752 27.3564 78.4853 27.3462 78.3929C27.3291 78.2322 27.2744 78.1056 27.2333 78.0269L27.5993 78.174C27.8592 78.2766 28.1568 78.2356 28.3757 78.0646C28.7929 77.7431 28.7861 77.1137 28.3654 76.7991L28.2389 76.7067L28.9366 76.8675C29.2034 76.929 29.4838 76.8299 29.6514 76.611C29.8908 76.2963 29.8259 75.8448 29.5078 75.6122Z" fill="#3041BF"/>
<path d="M24.1804 41.219C15.2194 45.0565 9.11426 52.1741 9.1211 59.4387C9.12452 63.9432 11.4811 67.9483 12.2575 69.2685C15.2639 74.3783 21.2014 75.0077 23.3322 76.1877L25.7572 72.7195C20.5139 69.3677 17.2886 64.6853 18.219 58.8128C19.4092 51.3156 26.0616 47.933 26.6977 47.6251L24.1804 41.219Z" fill="#F7A99C"/>
<path d="M14.3599 47.8671L21.0054 52.4023L19.8015 54.2493C18.772 53.9312 17.3355 53.36 15.8237 52.3066C14.4762 51.366 13.5185 50.357 12.8789 49.5704C13.3714 49.0026 13.8639 48.4348 14.3599 47.8671Z" fill="#FF7769"/>
<path d="M12.9844 47.3104L23.806 55.4677C26.4293 50.074 28.4644 46.1236 29.9248 43.3634C30.561 42.1595 32.1754 39.1155 31.2177 38.1475C30.9714 37.9013 30.2292 37.85 28.7483 37.7542C27.5683 37.679 26.8671 37.6345 25.9266 37.7542C25.9266 37.7542 24.8116 37.8944 23.6008 38.3151C21.771 38.9547 17.6222 42.1561 12.9844 47.3104Z" fill="#FDB6D6"/>
<path d="M32.4805 116.732V125.054H45.8228L45.474 122.66C45.474 122.66 41.291 120.313 40.6378 119.776C39.9879 119.243 39.2902 118.196 39.1499 117.871C39.0097 117.546 39.1499 116.732 39.1499 116.732H32.4805Z" fill="#F7A99C"/>
<path d="M31.8359 119.87C32.0001 119.826 32.2464 119.785 32.5097 119.86C33.1938 120.055 33.3716 120.845 33.6658 121.266L41.3203 121.351C41.3032 120.965 41.2895 120.575 41.2724 120.188C41.6692 120.058 42.0693 119.928 42.4661 119.802C43.3006 120.732 44.1112 121.272 44.7269 121.601C45.6674 122.103 46.8919 122.5 47.3878 123.348C47.6306 123.759 47.6409 124.18 47.6443 124.255C47.6477 124.47 47.6546 124.775 47.4357 124.973C47.2749 125.124 47.0663 125.144 46.9705 125.147C42.0317 125.117 37.0894 125.086 32.1506 125.055C31.9762 125.055 31.8359 124.915 31.8359 124.74V119.87Z" fill="#FFC001"/>
<path d="M46.9876 126.008H32.4242C32.0993 126.008 31.8359 125.744 31.8359 125.419V124.766H47.5759V125.419C47.5759 125.744 47.3125 126.008 46.9876 126.008Z" fill="#5D1113"/>
<path d="M32.4805 116.732H39.1534L39.0952 117.563H32.4805V116.732Z" fill="#FF7769"/>
<path d="M8.8642 109.635L4.55469 116.756L15.9715 123.665L16.912 121.435C16.912 121.435 14.5486 117.258 14.2682 116.465C13.9877 115.671 13.933 114.413 13.9809 114.064C14.0288 113.712 14.5692 113.089 14.5692 113.089L8.8642 109.635Z" fill="#F7A99C"/>
<path d="M6.68216 111.97C6.84633 112.015 7.07549 112.107 7.2636 112.309C7.74586 112.829 7.49276 113.598 7.52354 114.112L14.0288 118.147C14.217 117.809 14.4017 117.467 14.5898 117.128C14.9968 117.224 15.4038 117.32 15.8142 117.415C16.0468 118.643 16.4606 119.526 16.8163 120.124C17.3636 121.041 18.2015 122.012 18.1879 122.997C18.181 123.476 17.9758 123.839 17.9348 123.907C17.8253 124.095 17.6748 124.355 17.3841 124.413C17.1686 124.458 16.9805 124.369 16.895 124.321C12.6847 121.739 8.47437 119.153 4.26405 116.571C4.11698 116.482 4.06909 116.287 4.15802 116.14L6.68216 111.97Z" fill="#FFC001"/>
<path d="M16.5086 125.065L4.04867 117.527C3.77163 117.359 3.68271 116.997 3.8503 116.72L4.1889 116.162L17.6544 124.309L17.3158 124.867C17.1482 125.144 16.7857 125.233 16.5086 125.065Z" fill="#5D1113"/>
<path d="M8.91972 109.635L14.6281 113.086L14.1493 113.77L8.49219 110.346L8.91972 109.635Z" fill="#FF7769"/>
<path d="M28.8714 43.6794C28.738 45.2151 28.3652 47.452 27.2981 49.9453C26.2173 52.4729 24.8321 54.3062 23.806 55.4691C20.1977 52.75 16.5893 50.0309 12.9844 47.3118" stroke="#262626" stroke-width="0.4147" stroke-miterlimit="10" stroke-linecap="round" stroke-linejoin="round"/>
<path d="M40.293 43.2002C40.847 44.5204 41.3601 46.0014 41.7739 47.6328C43.2788 53.5807 42.7453 58.841 42.0099 62.3878" stroke="#262626" stroke-width="0.4147" stroke-miterlimit="10" stroke-linecap="round" stroke-linejoin="round"/>
<path d="M25.7544 39.1428C25.7544 39.1428 23.0968 39.3275 21.2909 40.7777C19.4885 42.2279 17.0156 44.7384 17.0156 44.7384" stroke="white" stroke-width="0.4147" stroke-miterlimit="10" stroke-linecap="round" stroke-linejoin="round"/>
<path d="M20.5609 52.9823C19.5622 54.4222 19.0184 55.7664 18.714 56.707C18.2385 58.1845 18.1257 59.3713 18.0983 59.7407C18.0231 60.6744 17.917 62.0152 18.3754 63.5543C18.5669 64.2007 19.0389 65.4867 19.0423 65.4867" stroke="#262626" stroke-width="0.4147" stroke-miterlimit="10" stroke-linecap="round" stroke-linejoin="round"/>
<path d="M20.3633 74.2634C20.3941 74.7354 20.5138 75.5186 21.0029 76.3155C21.3962 76.9551 21.834 77.2903 22.6617 77.923C22.8259 78.0496 22.6993 77.9436 24.7515 79.0722C24.943 79.1783 25.3055 79.3766 25.5655 79.233C25.7809 79.1133 25.8596 78.7918 25.8665 78.761C25.9007 78.6105 25.887 78.4805 25.8733 78.4019C25.9212 78.4395 25.993 78.4942 26.0888 78.5387C26.3487 78.6584 26.8275 78.7439 27.1148 78.46C27.3679 78.2103 27.3235 77.8204 27.3132 77.7281C27.2961 77.5673 27.2414 77.4408 27.2004 77.3621L27.5663 77.5092C27.8263 77.6118 28.1238 77.5707 28.3427 77.4032C28.76 77.0816 28.7531 76.4523 28.3325 76.1377L28.2059 76.0453L28.9036 76.2061C29.1704 76.2676 29.4509 76.1684 29.6185 75.9495C29.8613 75.6349 29.7963 75.1834 29.4782 74.9508L27.45 73.4699H28.4351C29.0541 73.4699 29.4919 72.8679 29.3038 72.2796C29.2593 72.1394 29.1259 72.0436 28.9789 72.0402C28.3496 72.0299 27.8228 71.9992 27.4329 71.9718C26.506 71.9068 26.034 71.8726 25.6339 71.729C24.9738 71.493 24.8848 71.257 24.2076 71.0244C23.6399 70.826 23.1303 70.7918 22.7882 70.7986L20.3633 74.2634Z" fill="#F7A99C"/>
<path d="M25.8968 78.3997C25.5548 77.9996 25.1135 77.5515 24.5663 77.1035C24.0977 76.7238 23.6497 76.4228 23.2461 76.1868" stroke="#262626" stroke-width="0.4147" stroke-miterlimit="10" stroke-linecap="round" stroke-linejoin="round"/>
<path d="M27.1973 77.3629C26.8553 76.9593 26.4209 76.5044 25.8737 76.0495C25.2683 75.5467 24.6834 75.1739 24.1875 74.9003" stroke="#262626" stroke-width="0.4147" stroke-miterlimit="10" stroke-linecap="round" stroke-linejoin="round"/>
<path d="M28.1949 76.0399C27.7571 75.6055 27.1962 75.1164 26.495 74.6547C26.0367 74.3503 25.5989 74.1074 25.1953 73.9159" stroke="#262626" stroke-width="0.4147" stroke-miterlimit="10" stroke-linecap="round" stroke-linejoin="round"/>
<path d="M24.1875 103.89L32.4611 88.8548C33.1793 87.5483 33.5248 86.0707 33.4598 84.5829L33.1793 78.1597" stroke="#262626" stroke-width="0.4147" stroke-miterlimit="10" stroke-linecap="round" stroke-linejoin="round"/>
<path d="M54.2044 74.1429C53.7495 74.4063 53.1714 74.2489 52.9081 73.7975L51.4716 71.311C51.2082 70.8561 51.3656 70.278 51.817 70.0147C52.2719 69.7513 52.8499 69.9087 53.1133 70.3635L54.5498 72.8501C54.8132 73.3015 54.6593 73.8796 54.2044 74.1429Z" fill="#F7A99C"/>
<path d="M55.6855 73.6654C55.2306 73.9288 54.6526 73.7714 54.3893 73.3199L52.6278 70.2657C52.3645 69.8108 52.5218 69.2327 52.9733 68.9694C53.4282 68.706 54.0062 68.8634 54.2695 69.3148L56.031 72.3691C56.2943 72.824 56.1404 73.4055 55.6855 73.6654Z" fill="#F7A99C"/>
<path d="M57.0596 72.8711C56.6047 73.1344 56.0267 72.9771 55.7633 72.5256L53.913 69.3208C53.6496 68.8659 53.807 68.2879 54.2584 68.0246C54.7133 67.7612 55.2913 67.9185 55.5547 68.37L57.4051 71.5748C57.6684 72.0297 57.5145 72.6077 57.0596 72.8711Z" fill="#F7A99C"/>
<path d="M58.022 72.3589C57.5261 72.5299 56.9857 72.2666 56.8147 71.7706L55.6107 68.2751C55.4397 67.7792 55.7031 67.2388 56.199 67.0678C56.695 66.8968 57.2354 67.1601 57.4064 67.6561L58.6103 71.1516C58.7813 71.6475 58.518 72.1879 58.022 72.3589Z" fill="#F7A99C"/>
<path d="M52.8577 69.0405C52.6388 69.2663 52.5635 69.4715 52.5293 69.5946C52.3754 70.176 52.8337 70.8738 53.7538 72.2453C53.9624 72.5566 54.2736 73.0012 54.2736 73.0012" stroke="#262626" stroke-width="0.4147" stroke-miterlimit="10" stroke-linecap="round" stroke-linejoin="round"/>
<path d="M54.2748 68.0233C54.1209 68.1738 53.9431 68.3961 53.8781 68.7005C53.796 69.0939 53.9602 69.3743 54.8529 70.9237C55.1504 71.4367 55.5643 72.155 55.5643 72.155" stroke="#262626" stroke-width="0.4147" stroke-miterlimit="10" stroke-linecap="round" stroke-linejoin="round"/>
<path d="M55.9543 67.2509C55.8551 67.3466 55.7012 67.5176 55.6499 67.7639C55.602 68.0033 55.667 68.1983 55.6977 68.2872C55.8517 68.7421 56.1937 69.7784 56.6691 71.1499" stroke="#262626" stroke-width="0.4147" stroke-miterlimit="10" stroke-linecap="round" stroke-linejoin="round"/>
<path opacity="0.5" d="M86.6694 78.6513C96.8671 74.5961 101.847 63.0417 97.7915 52.8439C93.7363 42.6461 82.182 37.6666 71.9842 41.7218C61.7865 45.777 56.8069 57.3313 60.8621 67.5291C64.9173 77.7269 76.4716 82.7065 86.6694 78.6513Z" fill="#CDEBF5"/>
<path d="M79.3024 37.9901C67.0408 37.9901 57.1016 47.9294 57.1016 60.191C57.1016 72.4526 67.0408 82.3918 79.3024 82.3918C91.564 82.3918 101.503 72.4526 101.503 60.191C101.503 47.9294 91.5606 37.9901 79.3024 37.9901ZM79.3024 78.7869C69.0314 78.7869 60.7065 70.462 60.7065 60.191C60.7065 49.9199 69.0314 41.5951 79.3024 41.5951C89.5734 41.5951 97.8983 49.9199 97.8983 60.191C97.8983 70.4586 89.57 78.7869 79.3024 78.7869Z" fill="#4450E4"/>
<path d="M83.194 73.3079C82.958 73.0993 82.804 72.7983 82.7835 72.4597C82.7425 71.7757 83.2624 71.1908 83.943 71.1498C85.1845 71.0745 86.409 70.7291 87.4864 70.1511C88.6903 69.5046 89.4769 68.7043 89.8395 68.287C90.267 67.7911 91.1597 66.7547 91.4846 65.2191C91.9361 63.0814 90.9955 61.2379 90.568 60.5436C90.2089 59.9621 90.3936 59.1994 90.975 58.8403C91.5565 58.4812 92.3226 58.6659 92.6783 59.2473C93.4 60.4239 94.5184 62.8283 93.9062 65.7287C93.4513 67.8869 92.2337 69.2994 91.7138 69.9014C91.1358 70.5717 90.1336 71.5397 88.6561 72.3332C87.264 73.0788 85.6873 73.5234 84.0935 73.6226C83.7515 73.6431 83.4334 73.52 83.194 73.3079Z" fill="white"/>
<path d="M67.3516 43.5649C68.7402 42.5285 73.3028 39.399 79.9005 39.4879C86.2826 39.5734 90.6537 42.614 92.056 43.6777" stroke="#262626" stroke-width="0.4147" stroke-miterlimit="10" stroke-linecap="round" stroke-linejoin="round"/>
<path d="M45.631 15.1435C45.8431 14.0525 46.0927 13.1906 46.3903 12.5544C46.6844 11.9217 47.1256 11.371 47.7139 10.9093C48.0559 10.6288 48.4253 10.4031 48.8221 10.2321C49.2188 10.061 49.5916 9.86609 49.9405 9.65745C50.2894 9.4454 50.5972 9.1923 50.864 8.89816C51.1308 8.60402 51.3189 8.19017 51.4215 7.65319C51.5959 6.74682 51.4694 6.06619 51.0384 5.60787C50.6075 5.14956 50.05 4.85542 49.3659 4.72545C48.3843 4.53734 47.6558 4.68099 47.1804 5.15298C46.705 5.6284 46.3322 6.31929 46.062 7.22565L42.4844 6.53476C42.6588 5.6284 42.9666 4.8349 43.4044 4.15085C43.8422 3.4668 44.386 2.91956 45.0325 2.50571C45.6789 2.09186 46.4108 1.82166 47.2317 1.69169C48.0525 1.56172 48.9247 1.58566 49.8516 1.76351C51.849 2.15 53.3471 2.86142 54.3492 3.89775C55.3479 4.93409 55.6728 6.37059 55.3205 8.20043C55.2077 8.79213 55.0469 9.29833 54.8417 9.71902C54.6365 10.1397 54.3766 10.5091 54.0687 10.8203C53.7575 11.135 53.3984 11.4155 52.9845 11.6617C52.5707 11.908 52.1124 12.1542 51.6027 12.4039C51.1342 12.6399 50.7511 12.8691 50.4501 13.088C50.1491 13.3069 49.9029 13.5531 49.7182 13.8233C49.5301 14.0935 49.3898 14.3877 49.2907 14.7057C49.1915 15.0238 49.1025 15.3864 49.0239 15.79L45.631 15.1435ZM44.4886 20.4791L45.1898 16.8434L48.935 17.5651L48.2338 21.2008L44.4886 20.4791Z" fill="#4450E4"/>
<path d="M15.2003 26.8849C15.0909 26.0059 15.0669 25.2876 15.1353 24.7335C15.2037 24.1795 15.4021 23.6527 15.7339 23.1568C15.9254 22.8593 16.1477 22.5959 16.4077 22.3667C16.6676 22.1376 16.9036 21.8982 17.1157 21.6519C17.3277 21.4056 17.4987 21.1389 17.6287 20.8481C17.7587 20.5574 17.7963 20.1983 17.7416 19.7639C17.6492 19.032 17.3824 18.5463 16.9447 18.3069C16.5034 18.0675 16.0075 17.982 15.4568 18.0504C14.6668 18.1496 14.1469 18.4403 13.9041 18.9157C13.6612 19.3945 13.5483 20.0102 13.5689 20.7661L10.6822 21.1286C10.5898 20.3967 10.6275 19.7195 10.7916 19.0901C10.9558 18.4642 11.2328 17.9136 11.6193 17.4382C12.0058 16.9662 12.4949 16.5762 13.0866 16.2753C13.6783 15.9743 14.3453 15.7759 15.0943 15.6836C16.7052 15.4818 18.0186 15.6494 19.0344 16.1898C20.0502 16.7302 20.6488 17.7391 20.8369 19.2167C20.8985 19.6955 20.9019 20.1196 20.8506 20.489C20.7993 20.8584 20.6932 21.2038 20.5359 21.5185C20.3786 21.8332 20.1734 22.1376 19.9237 22.4249C19.6706 22.7156 19.3833 23.0166 19.0584 23.3278C18.7608 23.622 18.5248 23.8922 18.3504 24.1316C18.1759 24.3744 18.0528 24.6207 17.9776 24.8738C17.9023 25.1269 17.8681 25.3834 17.8715 25.6502C17.875 25.917 17.8955 26.2111 17.9365 26.5394L15.2003 26.8849ZM15.6552 31.2183L15.2858 28.2838L18.3093 27.9041L18.6787 30.8387L15.6552 31.2183Z" fill="#4450E4"/>
</svg>
