<svg width="826" height="210" viewBox="0 0 826 210" fill="none" xmlns="http://www.w3.org/2000/svg">
<g opacity="0.7">
<g clip-path="url(#clip0_21656_104200)">
<path d="M825.432 323.622H824.287V322.522H825.432V323.622ZM820.974 323.589C819.874 323.578 818.773 323.545 817.661 323.523L817.694 322.423C818.795 322.456 819.896 322.478 820.996 322.489L820.974 323.589ZM814.359 323.413C813.259 323.369 812.158 323.325 811.057 323.27L811.112 322.169C812.213 322.224 813.314 322.268 814.403 322.301L814.359 323.402V323.413ZM807.744 323.105C806.644 323.039 805.543 322.973 804.442 322.896L804.519 321.795C805.62 321.872 806.71 321.938 807.81 322.004L807.744 323.105ZM801.151 322.665C800.051 322.577 798.961 322.489 797.86 322.39L797.959 321.289C799.06 321.388 800.15 321.476 801.25 321.564L801.162 322.665H801.151ZM794.558 322.081C793.469 321.971 792.368 321.861 791.267 321.74L791.388 320.65C792.489 320.772 793.579 320.882 794.668 320.981L794.558 322.081ZM787.987 321.388C786.898 321.256 785.797 321.124 784.707 320.992L784.839 319.902C785.929 320.034 787.019 320.177 788.108 320.298L787.976 321.388H787.987ZM781.427 320.562C780.338 320.419 779.248 320.265 778.147 320.111L778.301 319.022C779.391 319.176 780.481 319.33 781.57 319.473L781.427 320.562ZM774.878 319.627C773.789 319.462 772.699 319.286 771.609 319.11L771.785 318.02C772.875 318.196 773.965 318.361 775.043 318.526L774.878 319.616V319.627ZM768.351 318.57C767.262 318.383 766.183 318.196 765.093 318.009L765.292 316.93C766.37 317.128 767.46 317.315 768.539 317.492L768.351 318.581V318.57ZM761.835 317.415C760.757 317.216 759.667 317.007 758.589 316.798L758.798 315.72C759.876 315.929 760.955 316.138 762.034 316.336L761.835 317.415ZM755.353 316.149C754.274 315.929 753.195 315.708 752.117 315.477L752.348 314.399C753.426 314.63 754.505 314.85 755.573 315.07L755.353 316.149ZM748.881 314.784C747.802 314.553 746.734 314.311 745.656 314.069L745.898 313.001C746.976 313.243 748.044 313.485 749.112 313.716L748.881 314.795V314.784ZM742.431 313.32C741.363 313.067 740.284 312.814 739.217 312.561L739.47 311.493C740.538 311.757 741.605 312.01 742.684 312.252L742.431 313.32ZM736.003 311.768C734.935 311.504 733.868 311.229 732.8 310.954L733.075 309.886C734.143 310.161 735.21 310.425 736.267 310.689L736.003 311.757V311.768ZM729.597 310.128C728.529 309.853 727.473 309.567 726.405 309.27L726.691 308.213C727.759 308.499 728.815 308.785 729.872 309.06L729.586 310.128H729.597ZM723.224 308.4C722.167 308.103 721.1 307.806 720.043 307.509L720.34 306.452C721.397 306.749 722.454 307.046 723.51 307.343L723.213 308.4H723.224ZM716.862 306.595C715.806 306.287 714.749 305.979 713.692 305.659L714.012 304.603C715.068 304.922 716.125 305.23 717.17 305.538L716.862 306.595ZM710.522 304.702C709.477 304.383 708.42 304.063 707.363 303.733L707.694 302.677C708.75 303.007 709.796 303.326 710.842 303.645L710.522 304.702ZM704.216 302.743C703.17 302.412 702.113 302.071 701.068 301.73L701.409 300.684C702.455 301.026 703.5 301.356 704.546 301.697L704.216 302.743ZM697.931 300.706C696.885 300.365 695.84 300.013 694.794 299.661L695.146 298.615C696.192 298.967 697.237 299.309 698.272 299.661L697.931 300.706ZM691.657 298.593C690.611 298.241 689.577 297.878 688.531 297.514L688.894 296.469C689.94 296.832 690.975 297.195 692.009 297.548L691.657 298.593ZM685.416 296.425C684.382 296.051 683.347 295.687 682.301 295.313L682.676 294.279C683.71 294.653 684.745 295.016 685.779 295.39L685.416 296.425ZM679.197 294.19C678.163 293.816 677.128 293.431 676.094 293.046L676.479 292.011C677.513 292.396 678.548 292.771 679.572 293.156L679.197 294.19ZM673.001 291.89C671.966 291.505 670.942 291.109 669.908 290.723L670.304 289.7C671.328 290.096 672.362 290.481 673.386 290.866L673.001 291.901V291.89ZM666.826 289.535C665.802 289.138 664.779 288.742 663.744 288.335L664.151 287.311C665.175 287.719 666.199 288.115 667.222 288.511L666.826 289.535ZM660.673 287.113C659.65 286.706 658.626 286.299 657.602 285.88L658.021 284.857C659.044 285.275 660.068 285.682 661.081 286.09L660.673 287.113ZM654.543 284.648C653.53 284.229 652.506 283.811 651.483 283.393L651.901 282.38C652.914 282.799 653.937 283.217 654.95 283.635L654.531 284.659L654.543 284.648ZM648.434 282.116C647.421 281.687 646.409 281.269 645.385 280.839L645.814 279.827C646.827 280.256 647.839 280.685 648.852 281.104L648.423 282.116H648.434ZM642.358 279.541C641.346 279.111 640.333 278.671 639.32 278.231L639.761 277.218C640.773 277.658 641.786 278.088 642.787 278.528L642.358 279.541ZM636.293 276.921C635.281 276.481 634.279 276.04 633.267 275.589L633.707 274.588C634.72 275.039 635.721 275.479 636.723 275.919L636.283 276.932L636.293 276.921ZM630.251 274.246L627.235 272.893L627.686 271.891L630.702 273.245L630.251 274.246ZM624.219 271.528C623.218 271.076 622.216 270.614 621.214 270.152L621.677 269.15C622.678 269.613 623.68 270.064 624.681 270.526L624.23 271.528H624.219ZM618.221 268.765L615.227 267.367L615.689 266.366L618.683 267.763L618.221 268.765ZM612.244 265.958C611.253 265.485 610.252 265.012 609.261 264.538L609.734 263.548C610.725 264.021 611.727 264.494 612.717 264.968L612.244 265.958ZM606.278 263.108C605.288 262.634 604.297 262.15 603.307 261.666L603.791 260.675C604.781 261.159 605.772 261.633 606.763 262.117L606.289 263.108H606.278ZM600.324 260.224C599.333 259.74 598.354 259.255 597.363 258.771L597.847 257.78C598.838 258.265 599.817 258.749 600.808 259.233L600.324 260.224ZM594.402 257.307L591.441 255.832L591.937 254.853L594.886 256.327L594.391 257.307H594.402ZM588.492 254.346L585.542 252.849L586.037 251.87L588.976 253.367L588.481 254.346H588.492ZM582.614 251.341L579.675 249.834L580.182 248.854L583.12 250.362L582.614 251.341ZM576.736 248.315C575.757 247.808 574.788 247.302 573.809 246.785L574.315 245.805C575.295 246.311 576.263 246.829 577.243 247.335L576.736 248.315ZM570.881 245.255C569.912 244.748 568.933 244.231 567.964 243.714L568.481 242.745C569.45 243.263 570.43 243.78 571.398 244.286L570.892 245.255H570.881ZM565.047 242.151L562.131 240.588L562.648 239.619L565.554 241.171L565.036 242.14L565.047 242.151ZM559.225 239.025L556.319 237.451L556.847 236.482L559.753 238.056L559.225 239.025ZM553.424 235.866L550.53 234.27L551.058 233.302L553.953 234.886L553.424 235.855V235.866ZM547.635 232.685L544.751 231.078L545.29 230.121L548.174 231.728L547.646 232.696L547.635 232.685ZM541.867 229.471L538.984 227.853L539.523 226.896L542.396 228.514L541.856 229.471H541.867ZM536.111 226.224L533.238 224.595L533.777 223.638L536.65 225.267L536.111 226.224ZM530.365 222.966L527.504 221.326L528.054 220.369L530.916 222.009L530.365 222.966ZM524.642 219.664L521.78 218.013L522.331 217.067L525.181 218.718L524.631 219.675L524.642 219.664ZM518.93 216.351L516.079 214.678L516.64 213.732L519.491 215.394L518.94 216.34L518.93 216.351ZM513.228 213.005L510.388 211.321L510.95 210.375L513.789 212.048L513.228 212.994V213.005ZM507.538 209.648L504.698 207.953L505.259 207.007L508.099 208.702L507.538 209.648ZM501.869 206.258L499.04 204.552L499.613 203.606L502.441 205.301L501.88 206.247L501.869 206.258ZM496.212 202.846L493.383 201.129L493.955 200.193L496.773 201.899L496.201 202.846H496.212ZM490.565 199.412L487.748 197.695L488.32 196.759L491.138 198.476L490.565 199.412ZM484.93 195.967L482.123 194.239L482.707 193.303L485.513 195.031L484.941 195.967H484.93ZM479.306 192.5L476.499 190.761L477.082 189.825L479.889 191.564L479.306 192.5ZM473.703 189.011L470.907 187.261L471.491 186.325L474.286 188.075L473.703 189.011ZM468.101 185.5L465.305 183.738L465.888 182.803L468.684 184.564L468.101 185.5ZM462.52 181.977L459.725 180.205L460.319 179.281L463.104 181.053L462.509 181.977H462.52ZM456.94 178.433L454.155 176.65L454.75 175.726L457.534 177.498L456.94 178.422V178.433ZM451.371 174.878L448.586 173.095L449.18 172.17L451.954 173.954L451.36 174.878H451.371ZM445.823 171.301L443.05 169.507L443.644 168.582L446.418 170.376L445.823 171.301ZM440.276 167.713L437.513 165.908L438.108 164.983L440.87 166.788L440.276 167.713ZM434.74 164.103L431.977 162.297L432.582 161.373L435.345 163.178L434.74 164.103ZM429.214 160.481L426.452 158.665L427.057 157.752L429.809 159.568L429.203 160.492L429.214 160.481ZM423.7 156.849L420.948 155.044L421.554 154.119L424.305 155.936L423.7 156.849ZM418.186 153.228L415.423 151.423L416.028 150.498L418.791 152.303L418.186 153.228ZM412.66 149.618L409.898 147.824L410.492 146.899L413.266 148.704L412.66 149.629V149.618ZM407.124 146.03L404.35 144.236L404.945 143.311L407.718 145.105L407.124 146.03ZM401.565 142.452L398.792 140.669L399.386 139.745L402.171 141.528L401.577 142.452H401.565ZM396.007 138.897L393.222 137.125L393.817 136.201L396.602 137.973L396.007 138.897ZM390.438 135.353L387.642 133.592L388.225 132.656L391.021 134.418L390.438 135.353ZM384.846 131.842L382.051 130.092L382.634 129.156L385.441 130.906L384.857 131.842H384.846ZM379.244 128.353L376.437 126.614L377.01 125.678L379.816 127.417L379.233 128.353H379.244ZM373.62 124.886L370.802 123.169L371.374 122.233L374.192 123.961L373.62 124.897V124.886ZM367.984 121.452L365.155 119.746L365.728 118.799L368.557 120.505L367.984 121.452ZM362.327 118.051L359.498 116.356L360.059 115.409L362.899 117.104L362.338 118.051H362.327ZM356.658 114.683L353.819 113.01L354.38 112.063L357.231 113.736L356.669 114.683H356.658ZM350.968 111.348C350.01 110.797 349.064 110.247 348.117 109.697L348.668 108.739C349.614 109.289 350.572 109.84 351.529 110.39L350.979 111.337L350.968 111.348ZM345.244 108.046C344.287 107.495 343.329 106.956 342.383 106.417L342.922 105.459C343.88 105.998 344.837 106.549 345.795 107.099L345.244 108.057V108.046ZM339.51 104.788C338.552 104.248 337.595 103.709 336.626 103.17L337.166 102.212C338.123 102.751 339.081 103.291 340.049 103.83L339.51 104.788ZM333.742 101.574C332.774 101.045 331.816 100.506 330.848 99.9777L331.376 99.0091C332.345 99.5374 333.302 100.066 334.271 100.605L333.742 101.574ZM327.964 98.4037C326.995 97.8754 326.027 97.3581 325.058 96.8408L325.576 95.8722C326.544 96.3895 327.513 96.9178 328.481 97.4461L327.953 98.4147L327.964 98.4037ZM322.141 95.2778C321.173 94.7605 320.193 94.2432 319.225 93.7369L319.731 92.7683C320.7 93.2746 321.679 93.7919 322.648 94.3092L322.13 95.2778H322.141ZM316.308 92.2069C315.328 91.7006 314.349 91.1943 313.38 90.688L313.886 89.7084C314.866 90.2147 315.846 90.721 316.825 91.2273L316.319 92.2069H316.308ZM310.441 89.1911C309.462 88.6958 308.471 88.2005 307.492 87.7052L307.987 86.7256C308.966 87.2209 309.957 87.7162 310.937 88.2115L310.441 89.1911ZM304.542 86.2303C303.551 85.746 302.572 85.2507 301.581 84.7774L302.065 83.7868C303.056 84.2711 304.047 84.7554 305.026 85.2507L304.542 86.2413V86.2303ZM298.609 83.3356C297.619 82.8623 296.628 82.378 295.637 81.9157L296.111 80.9251C297.101 81.3984 298.092 81.8717 299.094 82.356L298.62 83.3466L298.609 83.3356ZM292.655 80.5068C291.653 80.0446 290.662 79.5713 289.661 79.12L290.123 78.1184C291.125 78.5807 292.115 79.043 293.117 79.5162L292.655 80.5179V80.5068ZM286.667 77.7442C285.665 77.2929 284.664 76.8416 283.662 76.3904L284.113 75.3887C285.115 75.84 286.117 76.2913 287.129 76.7426L286.678 77.7442H286.667ZM280.646 75.0475C279.634 74.6073 278.632 74.167 277.62 73.7267L278.06 72.7141C279.072 73.1544 280.074 73.5947 281.087 74.0349L280.646 75.0475ZM274.593 72.4279C273.58 71.9987 272.567 71.5694 271.555 71.1512L271.973 70.1386C272.986 70.5568 273.998 70.9861 275.022 71.4263L274.593 72.4389V72.4279ZM268.506 69.8964C267.482 69.4782 266.47 69.0709 265.446 68.6527L265.853 67.629C266.877 68.0363 267.89 68.4545 268.913 68.8728L268.495 69.8964H268.506ZM262.386 67.4309C261.363 67.0237 260.339 66.6274 259.315 66.2312L259.712 65.2076C260.735 65.6038 261.77 66 262.794 66.4073L262.386 67.4309ZM256.223 65.0645C255.199 64.6792 254.164 64.294 253.13 63.9088L253.515 62.8742C254.55 63.2594 255.584 63.6446 256.608 64.0299L256.223 65.0645ZM250.037 62.7751C249.002 62.4009 247.968 62.0376 246.933 61.6634L247.296 60.6288C248.331 60.992 249.376 61.3662 250.411 61.7405L250.037 62.7751ZM243.818 60.5848C242.772 60.2215 241.738 59.8693 240.692 59.5281L241.044 58.4825C242.09 58.8347 243.136 59.1869 244.17 59.5501L243.807 60.5958L243.818 60.5848ZM237.566 58.4935C236.521 58.1523 235.486 57.8221 234.44 57.4809L234.771 56.4352C235.816 56.7654 236.862 57.1067 237.908 57.4479L237.566 58.4935ZM231.315 56.5013C230.269 56.1821 229.223 55.8629 228.167 55.5437L228.486 54.4871C229.542 54.8063 230.588 55.1255 231.634 55.4446L231.304 56.5013H231.315ZM225.019 54.6081C223.962 54.2999 222.916 54.0028 221.86 53.6946L222.157 52.6379C223.214 52.9351 224.27 53.2433 225.327 53.5515L225.019 54.6081ZM0.0536292 54.0028L-0.199524 52.9351C0.879129 52.682 1.94677 52.4398 3.02543 52.1977L3.26757 53.2763C2.19993 53.5185 1.12128 53.7606 0.0536292 54.0138V54.0028ZM218.679 52.814C217.622 52.5279 216.566 52.2417 215.498 51.9555L215.784 50.8879C216.852 51.1741 217.908 51.4602 218.976 51.7464L218.69 52.803L218.679 52.814ZM6.49252 52.5499L6.25038 51.4712C7.32903 51.2291 8.40768 50.9979 9.47533 50.7668L9.70647 51.8455C8.63882 52.0766 7.56017 52.3077 6.48152 52.5499H6.49252ZM12.9424 51.152L12.7113 50.0734C13.7899 49.8422 14.8686 49.6221 15.9472 49.402L16.1674 50.4806C15.0887 50.7008 14.0211 50.9209 12.9424 51.152ZM212.317 51.13C211.249 50.8549 210.193 50.5907 209.125 50.3265L209.389 49.2589C210.457 49.5231 211.525 49.7872 212.592 50.0624L212.317 51.13ZM19.4033 49.8202L19.1832 48.7416C20.2619 48.5214 21.3515 48.3123 22.4302 48.1032L22.6393 49.1818C21.5606 49.391 20.482 49.6001 19.4033 49.8202ZM205.922 49.5561C204.855 49.3029 203.787 49.0498 202.708 48.8076L202.95 47.74C204.029 47.9821 205.097 48.2353 206.175 48.4884L205.922 49.5561ZM25.8752 48.5545L25.6661 47.4758C26.7558 47.2667 27.8344 47.0686 28.9131 46.8704L29.1112 47.9491C28.0326 48.1472 26.9539 48.3453 25.8642 48.5545H25.8752ZM199.494 48.0812C198.416 47.85 197.348 47.6189 196.269 47.3878L196.5 46.3091C197.579 46.5402 198.658 46.7714 199.736 47.0025L199.505 48.0812H199.494ZM32.3692 47.3657L32.1711 46.2871C33.2607 46.089 34.3394 45.9019 35.429 45.7147L35.6161 46.8044C34.5375 46.9915 33.4478 47.1786 32.3692 47.3768V47.3657ZM193.033 46.7274C191.955 46.5072 190.876 46.2981 189.797 46.089L190.007 45.0103C191.096 45.2194 192.175 45.4286 193.253 45.6487L193.033 46.7274ZM38.8741 46.2431L38.698 45.1534C39.7877 44.9663 40.8773 44.7902 41.956 44.6141L42.1321 45.7037C41.0534 45.8798 39.9638 46.0559 38.8741 46.2321V46.2431ZM186.55 45.4836C185.472 45.2855 184.382 45.0874 183.292 44.9002L183.48 43.8106C184.569 43.9977 185.659 44.1958 186.738 44.3939L186.539 45.4726L186.55 45.4836ZM45.379 45.1974L45.2139 44.1078C46.3036 43.9427 47.3933 43.7776 48.4829 43.6125L48.648 44.7021C47.5694 44.8672 46.4797 45.0323 45.3901 45.1974H45.379ZM180.035 44.3499C178.945 44.1738 177.855 43.9977 176.766 43.8326L176.931 42.7429C178.02 42.908 179.121 43.0841 180.211 43.2713L180.035 44.3609V44.3499ZM51.906 44.2178L51.7519 43.1282C52.8416 42.9741 53.9312 42.82 55.0209 42.6659L55.175 43.7556C54.0853 43.8986 52.9957 44.0527 51.906 44.2068V44.2178ZM173.497 43.3373C172.407 43.1832 171.328 43.0291 170.239 42.875L170.393 41.7854C171.482 41.9395 172.572 42.0935 173.662 42.2476L173.508 43.3373H173.497ZM58.444 43.3263L58.3009 42.2366C59.4015 42.0935 60.4912 41.9505 61.5808 41.8184L61.7129 42.908C60.6233 43.0401 59.5336 43.1832 58.444 43.3263ZM64.9929 42.5228L64.8608 41.4331C65.9615 41.3011 67.0512 41.18 68.1408 41.0589L68.2619 42.1486C67.1722 42.2697 66.0826 42.3907 64.9819 42.5228H64.9929ZM166.97 42.4348C165.88 42.2917 164.79 42.1596 163.701 42.0275L163.833 40.9378C164.933 41.0699 166.023 41.202 167.113 41.3451L166.97 42.4348ZM71.5529 41.7964L71.4428 40.7067C72.5435 40.5966 73.6441 40.4866 74.7338 40.3765L74.8439 41.4772C73.7542 41.5872 72.6535 41.6973 71.5639 41.8074L71.5529 41.7964ZM160.421 41.6533C159.331 41.5322 158.241 41.4111 157.141 41.3011L157.251 40.2004C158.351 40.3105 159.441 40.4315 160.542 40.5526L160.421 41.6423V41.6533ZM78.1128 41.158L78.0138 40.0573C79.1145 39.9582 80.2151 39.8592 81.3048 39.7711L81.3928 40.8718C80.3032 40.9599 79.2025 41.0589 78.1128 41.158ZM153.861 40.9929C152.771 40.8938 151.67 40.7948 150.581 40.7067L150.669 39.606C151.769 39.6941 152.87 39.7932 153.96 39.8922L153.861 40.9929ZM84.6838 40.6076L84.5958 39.507C85.6964 39.4189 86.7971 39.3419 87.8978 39.2648L87.9748 40.3655C86.8852 40.4425 85.7845 40.5196 84.6838 40.6076ZM147.29 40.4425C146.2 40.3545 145.099 40.2774 143.999 40.2114L144.076 39.1107C145.176 39.1878 146.277 39.2648 147.378 39.3419L147.29 40.4425ZM91.2658 40.1564L91.1998 39.0557C92.3004 38.9897 93.4011 38.9236 94.5018 38.8686L94.5568 39.9693C93.4671 40.0243 92.3665 40.0903 91.2658 40.1564ZM140.708 40.0023C139.618 39.9362 138.517 39.8812 137.417 39.8262L137.472 38.7255C138.572 38.7805 139.673 38.8356 140.774 38.9016L140.708 40.0023ZM97.8478 39.8042L97.7928 38.7035C98.8934 38.6485 99.9941 38.6044 101.095 38.5604L101.139 39.6611C100.038 39.7051 98.9485 39.7491 97.8478 39.8042ZM134.126 39.6721C133.025 39.6281 131.935 39.584 130.835 39.551L130.868 38.4503C131.968 38.4834 133.069 38.5274 134.17 38.5714L134.126 39.6721ZM104.441 39.551L104.408 38.4503C105.508 38.4173 106.609 38.3843 107.71 38.3623L107.732 39.463C106.631 39.485 105.541 39.518 104.441 39.551ZM127.533 39.4519C126.432 39.4299 125.342 39.4079 124.242 39.3859L124.264 38.2852C125.364 38.3073 126.465 38.3293 127.566 38.3513L127.544 39.4519H127.533ZM111.045 39.3859L111.023 38.2852C112.134 38.2632 113.235 38.2522 114.336 38.2412V39.3419C113.246 39.3419 112.145 39.3639 111.034 39.3859H111.045ZM120.94 39.3529C119.85 39.3529 118.749 39.3419 117.649 39.3419V38.2412H117.737C118.749 38.2412 119.85 38.2412 120.94 38.2412V39.3419V39.3529Z" fill="#CBE3FE"/>
<path d="M135.659 396.176C134.91 396.176 134.162 396.154 133.413 396.121L133.468 395.02C134.547 395.075 135.637 395.086 136.726 395.053L136.759 396.154C136.396 396.154 136.033 396.165 135.659 396.165V396.176ZM140.072 395.933L139.951 394.844C141.019 394.734 142.098 394.569 143.143 394.371L143.352 395.449C142.274 395.658 141.173 395.823 140.072 395.944V395.933ZM130.1 395.845C129 395.713 127.888 395.537 126.809 395.328L127.019 394.249C128.075 394.459 129.154 394.624 130.232 394.756L130.1 395.845ZM146.599 394.69L146.302 393.633C147.337 393.347 148.371 393.006 149.384 392.642L149.758 393.677C148.724 394.062 147.656 394.404 146.588 394.701L146.599 394.69ZM123.562 394.58C122.495 394.293 121.427 393.963 120.382 393.6L120.745 392.554C121.768 392.907 122.814 393.226 123.86 393.512L123.573 394.569L123.562 394.58ZM117.278 392.422C116.265 391.993 115.241 391.531 114.251 391.035L114.735 390.045C115.715 390.529 116.705 390.991 117.707 391.41L117.278 392.422ZM152.84 392.4L152.389 391.399C153.368 390.958 154.337 390.463 155.295 389.946L155.823 390.914C154.843 391.443 153.842 391.949 152.84 392.4ZM111.312 389.461C110.365 388.922 109.408 388.339 108.472 387.733L109.067 386.809C109.991 387.403 110.927 387.976 111.862 388.504L111.312 389.461ZM158.685 389.23L158.09 388.295C158.993 387.722 159.906 387.106 160.787 386.468L161.436 387.359C160.534 388.009 159.598 388.647 158.685 389.23ZM105.721 385.862C104.829 385.224 103.938 384.553 103.068 383.859L103.75 382.99C104.609 383.672 105.489 384.321 106.37 384.96L105.732 385.851L105.721 385.862ZM164.089 385.345L163.396 384.486C164.221 383.826 165.058 383.111 165.883 382.362L166.621 383.188C165.773 383.947 164.925 384.663 164.089 385.345ZM100.503 381.757C99.667 381.041 98.8415 380.304 98.027 379.555L98.7754 378.752C99.5899 379.5 100.404 380.227 101.23 380.931L100.514 381.768L100.503 381.757ZM169.042 380.909L168.272 380.128C169.042 379.368 169.801 378.587 170.561 377.783L171.364 378.543C170.594 379.357 169.823 380.15 169.042 380.92V380.909ZM95.6165 377.266C94.835 376.496 94.0536 375.703 93.2941 374.9L94.0866 374.14C94.846 374.933 95.6165 375.714 96.387 376.485L95.6165 377.266ZM173.588 376.077L172.762 375.351C173.478 374.536 174.182 373.7 174.876 372.841L175.723 373.535C175.019 374.404 174.303 375.252 173.588 376.077ZM91.0377 372.467C90.3003 371.653 89.5738 370.827 88.8474 369.98L89.6839 369.264C90.3993 370.101 91.1258 370.926 91.8632 371.73L91.0487 372.467H91.0377ZM177.792 370.937L176.923 370.266C177.583 369.407 178.233 368.527 178.882 367.635L179.773 368.285C179.113 369.187 178.453 370.079 177.792 370.948V370.937ZM86.7121 367.437C86.0187 366.59 85.3253 365.731 84.6319 364.862L85.5014 364.179C86.1838 365.049 86.8772 365.896 87.5706 366.744L86.7231 367.437H86.7121ZM181.689 365.566L180.786 364.939C181.402 364.047 182.008 363.134 182.624 362.209L183.549 362.814C182.932 363.75 182.327 364.663 181.7 365.566H181.689ZM82.6066 362.242C81.9462 361.372 81.2748 360.481 80.6254 359.589L81.517 358.94C82.1664 359.832 82.8268 360.712 83.4872 361.582L82.6066 362.253V362.242ZM185.321 360.019L184.385 359.435C184.958 358.511 185.541 357.575 186.102 356.629L187.049 357.19C186.477 358.148 185.893 359.083 185.321 360.019ZM78.6772 356.904C78.0389 356.012 77.4005 355.11 76.7731 354.196L77.6756 353.569C78.303 354.471 78.9414 355.374 79.5798 356.265L78.6883 356.904H78.6772ZM188.733 354.339L187.775 353.789C188.315 352.842 188.865 351.885 189.404 350.916L190.362 351.455C189.823 352.424 189.272 353.393 188.733 354.339ZM74.891 351.466C74.2746 350.553 73.6582 349.639 73.0418 348.715L73.9554 348.109C74.5608 349.023 75.1771 349.937 75.7935 350.85L74.8799 351.466H74.891ZM191.947 348.55L190.978 348.032C191.496 347.075 192.013 346.106 192.519 345.116L193.499 345.622C192.981 346.612 192.464 347.581 191.947 348.55ZM71.2257 345.952C70.6204 345.028 70.026 344.103 69.4316 343.178L70.3562 342.584C70.9506 343.509 71.5559 344.433 72.1503 345.358L71.2257 345.963V345.952ZM195.007 342.672L194.027 342.177C194.522 341.197 195.007 340.218 195.502 339.227L196.493 339.711C196.008 340.713 195.513 341.693 195.018 342.672H195.007ZM67.6376 340.394C67.0432 339.469 66.4598 338.534 65.8655 337.598L66.8011 337.015C67.3844 337.95 67.9788 338.875 68.5621 339.81L67.6376 340.405V340.394ZM197.923 336.729L196.933 336.255C197.406 335.265 197.868 334.274 198.342 333.272L199.343 333.735C198.87 334.736 198.408 335.738 197.934 336.729H197.923ZM64.1154 334.791L62.3654 331.985L63.3009 331.401L65.051 334.208L64.1154 334.791ZM200.73 330.73L199.729 330.279C200.18 329.277 200.631 328.275 201.082 327.274L202.084 327.725C201.633 328.738 201.181 329.739 200.719 330.741L200.73 330.73ZM60.6263 329.167L58.8873 326.36L59.8228 325.777L61.5619 328.584L60.6263 329.167ZM203.416 324.687L202.403 324.247C202.843 323.245 203.284 322.233 203.713 321.22L204.726 321.649C204.285 322.673 203.856 323.686 203.416 324.687ZM57.1482 323.554L55.4092 320.747L56.3447 320.163L58.0948 322.97L57.1592 323.554H57.1482ZM206.024 318.612L205.012 318.182C205.441 317.17 205.859 316.157 206.289 315.133L207.301 315.552C206.883 316.575 206.454 317.588 206.024 318.601V318.612ZM53.6591 317.951C53.0757 317.016 52.4814 316.08 51.898 315.155L52.8226 314.561C53.4059 315.486 54.0003 316.421 54.5837 317.357L53.6481 317.94L53.6591 317.951ZM479.276 314.275C478.572 314.275 477.867 314.275 477.163 314.242L477.196 313.141C478.274 313.174 479.386 313.185 480.465 313.163L480.487 314.264C480.079 314.264 479.672 314.275 479.265 314.275H479.276ZM483.811 314.11L483.734 313.009C484.823 312.932 485.913 312.822 486.97 312.679L487.113 313.769C486.034 313.912 484.922 314.022 483.811 314.11ZM473.85 314.066C472.738 313.978 471.626 313.868 470.548 313.725L470.691 312.635C471.758 312.767 472.848 312.888 473.949 312.976L473.861 314.077L473.85 314.066ZM490.382 313.24L490.173 312.162C491.24 311.952 492.308 311.721 493.353 311.457L493.629 312.525C492.572 312.8 491.471 313.031 490.393 313.24H490.382ZM467.257 313.218C466.178 313.02 465.088 312.8 464.01 312.536L464.263 311.468C465.319 311.721 466.398 311.941 467.455 312.129L467.257 313.207V313.218ZM208.556 312.492L207.532 312.074C207.951 311.061 208.358 310.037 208.776 309.014L209.8 309.421C209.392 310.445 208.974 311.468 208.556 312.492ZM50.1149 312.371C49.5206 311.435 48.9152 310.522 48.3209 309.597L49.2454 308.992C49.8508 309.905 50.4451 310.83 51.0505 311.765L50.1259 312.36L50.1149 312.371ZM460.796 311.688C459.739 311.38 458.671 311.039 457.637 310.676L458 309.641C459.013 309.993 460.058 310.334 461.104 310.643L460.796 311.699V311.688ZM496.821 311.611L496.49 310.566C497.525 310.235 498.549 309.872 499.561 309.487L499.957 310.511C498.934 310.907 497.877 311.27 496.821 311.611ZM454.533 309.487C453.509 309.069 452.497 308.617 451.495 308.144L451.968 307.154C452.948 307.616 453.95 308.067 454.951 308.474L454.533 309.487ZM503.017 309.234L502.566 308.232C503.557 307.781 504.536 307.308 505.494 306.812L506 307.792C505.021 308.298 504.019 308.794 503.017 309.245V309.234ZM46.5048 306.845C45.8884 305.921 45.272 305.018 44.6556 304.116L45.5692 303.499C46.1856 304.402 46.8019 305.315 47.4183 306.24L46.5048 306.845ZM448.534 306.636C447.577 306.119 446.608 305.569 445.651 304.985L446.223 304.039C447.158 304.6 448.116 305.15 449.063 305.657L448.545 306.625L448.534 306.636ZM211.021 306.361L209.998 305.954C210.405 304.93 210.801 303.907 211.209 302.883L212.232 303.29C211.825 304.314 211.429 305.348 211.021 306.361ZM508.906 306.174L508.345 305.227C509.269 304.677 510.205 304.094 511.107 303.488L511.713 304.402C510.788 305.018 509.841 305.613 508.895 306.174H508.906ZM442.866 303.213C441.952 302.597 441.039 301.958 440.147 301.298L440.797 300.417C441.677 301.067 442.569 301.694 443.482 302.3L442.866 303.213ZM514.442 302.498L513.793 301.617C514.662 300.979 515.532 300.307 516.379 299.614L517.073 300.473C516.203 301.177 515.323 301.859 514.442 302.498ZM42.7845 301.408C42.1461 300.505 41.5077 299.603 40.8693 298.722L41.7609 298.073C42.3993 298.965 43.0487 299.856 43.687 300.77L42.7845 301.408ZM213.443 300.197L212.419 299.801C212.816 298.777 213.212 297.754 213.608 296.719L214.632 297.115C214.235 298.15 213.839 299.174 213.443 300.197ZM437.506 299.273C436.647 298.579 435.8 297.875 434.963 297.137L435.69 296.312C436.515 297.027 437.352 297.732 438.199 298.414L437.506 299.273ZM519.604 298.315L518.878 297.49C519.692 296.774 520.496 296.026 521.288 295.266L522.048 296.059C521.244 296.829 520.43 297.578 519.604 298.304V298.315ZM38.9102 296.07C38.2388 295.189 37.5784 294.309 36.9069 293.461L37.7765 292.779C38.4479 293.637 39.1303 294.518 39.7907 295.409L38.9102 296.07ZM432.498 294.914C431.694 294.166 430.902 293.384 430.12 292.603L430.902 291.821C431.672 292.603 432.465 293.362 433.257 294.111L432.498 294.914ZM215.809 294.034L214.786 293.637L215.952 290.544L216.987 290.93L215.82 294.023L215.809 294.034ZM524.392 293.725L523.6 292.955C524.359 292.173 525.097 291.381 525.834 290.555L526.649 291.293C525.9 292.118 525.152 292.933 524.381 293.714L524.392 293.725ZM34.8377 290.897C34.1333 290.038 33.4288 289.202 32.7134 288.387L33.5389 287.661C34.2543 288.486 34.9698 289.334 35.6852 290.192L34.8377 290.897ZM427.831 290.214C427.082 289.411 426.345 288.585 425.607 287.749L426.433 287.022C427.159 287.848 427.897 288.662 428.634 289.455L427.831 290.203V290.214ZM528.839 288.805L528.002 288.09C528.707 287.264 529.4 286.417 530.083 285.547L530.941 286.23C530.248 287.099 529.543 287.958 528.839 288.794V288.805ZM218.143 287.848L217.108 287.463L218.253 284.381L219.287 284.766L218.132 287.848H218.143ZM30.5121 285.933C29.7636 285.118 29.0042 284.326 28.2337 283.566L29.0152 282.785C29.7856 283.555 30.5561 284.359 31.3156 285.184L30.5121 285.933ZM423.45 285.228C422.746 284.381 422.052 283.522 421.37 282.653L422.239 281.97C422.922 282.84 423.604 283.687 424.298 284.524L423.45 285.228ZM532.966 283.61L532.086 282.95C532.735 282.08 533.385 281.2 534.023 280.297L534.926 280.936C534.276 281.849 533.627 282.741 532.966 283.61ZM220.443 281.673L219.408 281.288L220.553 278.195L221.588 278.58L220.443 281.673ZM25.8783 281.299C25.0528 280.539 24.2273 279.813 23.4128 279.142L24.1172 278.294C24.9427 278.976 25.7792 279.714 26.6157 280.484L25.8673 281.299H25.8783ZM419.356 280.011C418.695 279.131 418.046 278.239 417.396 277.336L418.288 276.698C418.926 277.59 419.576 278.481 420.225 279.351L419.345 280.011H419.356ZM536.808 278.206L535.894 277.59C536.5 276.687 537.105 275.774 537.699 274.838L538.624 275.432C538.018 276.368 537.413 277.292 536.797 278.206H536.808ZM20.8482 277.116C19.9567 276.456 19.0541 275.829 18.1736 275.256L18.768 274.332C19.6815 274.915 20.5951 275.553 21.5086 276.225L20.8482 277.105V277.116ZM222.722 275.465L221.687 275.091L222.832 271.987L223.866 272.361L222.722 275.465ZM415.503 274.618C414.887 273.704 414.271 272.791 413.665 271.866L414.59 271.261C415.195 272.185 415.8 273.099 416.417 274.001L415.503 274.618ZM15.3669 273.605C14.3983 273.077 13.4187 272.604 12.4501 272.174L12.8904 271.162C13.881 271.591 14.8936 272.086 15.8842 272.626L15.3559 273.594L15.3669 273.605ZM540.396 272.626L539.46 272.053C540.033 271.129 540.594 270.182 541.155 269.236L542.102 269.797C541.541 270.754 540.968 271.701 540.396 272.637V272.626ZM9.4343 271.019C8.39967 270.677 7.35404 270.391 6.31941 270.171L6.55055 269.092C7.6182 269.324 8.70786 269.621 9.77551 269.973L9.4343 271.019ZM3.14949 269.654C2.08185 269.533 1.00319 269.478 -0.0644531 269.478V268.377C1.04722 268.377 2.1699 268.443 3.27057 268.553L3.14949 269.643V269.654ZM225 269.247L223.965 268.872L225.11 265.757L226.145 266.132L225 269.247ZM411.871 269.081C411.288 268.157 410.704 267.21 410.121 266.264L411.057 265.691C411.629 266.638 412.212 267.563 412.796 268.487L411.86 269.081H411.871ZM543.764 266.924L542.806 266.385C543.346 265.438 543.874 264.47 544.402 263.501L545.371 264.029C544.843 265.009 544.303 265.978 543.764 266.924ZM408.426 263.424C407.865 262.477 407.314 261.52 406.764 260.562L407.722 260.012C408.272 260.97 408.822 261.916 409.373 262.863L408.426 263.424ZM227.278 263.028L226.244 262.654L227.377 259.55L228.412 259.924L227.278 263.028ZM546.923 261.102L545.943 260.595C546.45 259.627 546.956 258.647 547.451 257.668L548.431 258.163C547.924 259.153 547.429 260.133 546.923 261.113V261.102ZM405.135 257.679C404.596 256.721 404.067 255.752 403.539 254.773L404.508 254.244C405.036 255.213 405.564 256.182 406.093 257.139L405.135 257.679ZM229.546 256.831L228.511 256.457L229.656 253.353L230.69 253.738L229.546 256.842V256.831ZM549.906 255.191L548.915 254.707C549.399 253.727 549.873 252.737 550.346 251.735L551.337 252.208C550.863 253.21 550.39 254.211 549.906 255.191ZM401.976 251.856C401.459 250.887 400.952 249.908 400.446 248.928L401.426 248.422C401.932 249.402 402.438 250.37 402.956 251.35L401.987 251.867L401.976 251.856ZM231.835 250.623L230.8 250.238L231.945 247.134L232.98 247.519L231.835 250.612V250.623ZM552.734 249.203L551.733 248.741C552.184 247.75 552.646 246.749 553.087 245.736L554.088 246.188C553.637 247.2 553.186 248.202 552.723 249.203H552.734ZM398.938 245.989C398.443 245.01 397.948 244.019 397.452 243.029L398.443 242.533C398.938 243.524 399.423 244.504 399.929 245.483L398.949 245.978L398.938 245.989ZM234.135 244.437L233.101 244.052L234.257 240.959L235.291 241.345L234.135 244.437ZM555.431 243.161L554.418 242.72C554.848 241.719 555.288 240.706 555.717 239.683L556.73 240.112C556.301 241.135 555.871 242.148 555.431 243.161ZM395.988 240.057C395.504 239.066 395.02 238.076 394.547 237.085L395.537 236.601C396.022 237.591 396.495 238.582 396.979 239.573L395.988 240.057ZM236.458 238.252L235.423 237.867L236.601 234.774L237.625 235.17L236.447 238.252H236.458ZM558.007 237.063L556.983 236.645C557.401 235.632 557.809 234.609 558.227 233.585L559.25 233.992C558.843 235.016 558.425 236.039 558.007 237.063ZM393.105 234.102C392.631 233.112 392.158 232.11 391.685 231.119L392.675 230.646C393.149 231.648 393.622 232.638 394.095 233.629L393.105 234.102ZM238.813 232.077L237.79 231.681L238.989 228.599L240.013 228.995L238.813 232.077ZM560.472 230.921L559.448 230.514C559.845 229.49 560.252 228.467 560.637 227.443L561.661 227.839C561.265 228.874 560.868 229.898 560.461 230.921H560.472ZM390.276 228.115L388.878 225.11L389.88 224.647L391.278 227.641L390.276 228.104V228.115ZM241.224 225.924L240.2 225.517C240.607 224.493 241.015 223.459 241.422 222.446L242.445 222.853C242.038 223.877 241.631 224.89 241.224 225.924ZM562.839 224.747L561.804 224.361C562.189 223.338 562.574 222.303 562.96 221.268L563.994 221.654C563.609 222.688 563.224 223.723 562.839 224.758V224.747ZM387.48 222.116L386.093 219.122L387.095 218.66L388.482 221.654L387.48 222.116ZM243.667 219.794L242.644 219.375C243.062 218.352 243.48 217.328 243.898 216.315L244.911 216.734C244.493 217.746 244.074 218.77 243.667 219.794ZM565.139 218.539L564.104 218.165C564.479 217.13 564.853 216.095 565.216 215.061L566.251 215.435C565.876 216.481 565.513 217.515 565.128 218.55L565.139 218.539ZM384.707 216.139L383.32 213.145L384.321 212.683L385.708 215.677L384.707 216.139ZM246.188 213.696L245.175 213.267C245.604 212.243 246.034 211.23 246.463 210.218L247.475 210.647C247.046 211.66 246.617 212.672 246.188 213.685V213.696ZM567.351 212.309L566.317 211.946C566.68 210.911 567.043 209.866 567.395 208.831L568.441 209.194C568.078 210.24 567.715 211.285 567.351 212.32V212.309ZM381.922 210.141L380.524 207.147L381.526 206.685L382.924 209.678L381.922 210.141ZM248.774 207.62L247.762 207.18C248.202 206.167 248.642 205.155 249.093 204.153L250.106 204.593C249.666 205.595 249.226 206.608 248.785 207.62H248.774ZM569.509 206.057L568.463 205.705C568.815 204.659 569.167 203.625 569.52 202.579L570.565 202.931C570.213 203.977 569.861 205.023 569.509 206.068V206.057ZM379.126 204.164C378.653 203.162 378.18 202.172 377.706 201.181L378.697 200.708C379.17 201.699 379.644 202.7 380.117 203.691L379.126 204.164ZM251.449 201.588L250.447 201.137C250.91 200.125 251.361 199.123 251.823 198.132L252.825 198.595C252.362 199.585 251.911 200.587 251.449 201.599V201.588ZM571.611 199.783L570.565 199.442C570.906 198.397 571.259 197.351 571.6 196.305L572.646 196.646C572.304 197.692 571.952 198.738 571.611 199.783ZM376.276 198.198C375.791 197.208 375.307 196.217 374.834 195.227L375.824 194.742C376.309 195.733 376.793 196.724 377.277 197.714L376.287 198.198H376.276ZM254.223 195.601L253.232 195.128C253.705 194.126 254.19 193.135 254.663 192.145L255.653 192.629C255.169 193.609 254.696 194.599 254.223 195.601ZM573.669 193.499L572.623 193.157L573.636 190.031L574.682 190.373L573.669 193.51V193.499ZM373.359 192.277C372.863 191.286 372.368 190.307 371.873 189.327L372.852 188.821C373.348 189.8 373.854 190.78 374.349 191.771L373.37 192.266L373.359 192.277ZM257.106 189.668L256.127 189.173C256.622 188.182 257.128 187.192 257.624 186.223L258.603 186.729C258.097 187.698 257.602 188.678 257.106 189.668ZM575.694 187.236L574.649 186.906L575.65 183.758L576.696 184.088L575.694 187.236ZM370.354 186.399C369.837 185.42 369.33 184.451 368.813 183.482L369.782 182.965C370.299 183.934 370.816 184.902 371.334 185.893L370.354 186.399ZM260.144 183.813L259.176 183.295C259.704 182.316 260.221 181.347 260.761 180.39L261.718 180.918C261.19 181.876 260.661 182.833 260.144 183.813ZM822.838 183.284C821.715 183.251 820.615 183.185 819.525 183.108L819.602 182.008C820.681 182.085 821.77 182.151 822.871 182.184L822.838 183.284ZM816.212 182.778C815.111 182.646 814.011 182.481 812.921 182.305L813.108 181.215C814.176 181.391 815.265 181.556 816.344 181.677L816.212 182.767V182.778ZM809.674 181.677C808.584 181.435 807.506 181.171 806.449 180.885L806.746 179.828C807.77 180.114 808.838 180.379 809.916 180.61L809.674 181.688V181.677ZM577.676 180.929L576.63 180.599L577.62 177.44L578.666 177.77L577.676 180.929ZM367.228 180.588C366.689 179.619 366.149 178.662 365.61 177.715L366.568 177.165C367.107 178.122 367.657 179.08 368.197 180.048L367.239 180.577L367.228 180.588ZM803.279 179.916C802.234 179.575 801.188 179.19 800.153 178.783L800.561 177.759C801.573 178.155 802.608 178.529 803.631 178.871L803.29 179.916H803.279ZM263.325 178.045L262.368 177.495C262.918 176.526 263.479 175.58 264.041 174.633L264.987 175.194C264.426 176.13 263.875 177.077 263.325 178.034V178.045ZM797.093 177.484C796.092 177.033 795.09 176.537 794.111 176.031L794.617 175.051C795.586 175.558 796.565 176.042 797.545 176.482L797.093 177.484ZM363.959 174.875C363.398 173.929 362.825 172.982 362.253 172.058L363.189 171.474C363.761 172.41 364.333 173.356 364.906 174.314L363.959 174.875ZM579.657 174.611L578.611 174.281L579.591 171.111L580.636 171.441L579.657 174.611ZM791.216 174.413C790.269 173.852 789.323 173.268 788.398 172.652L789.004 171.738C789.917 172.344 790.842 172.927 791.766 173.466L791.205 174.413H791.216ZM266.704 172.388L265.769 171.804C266.352 170.858 266.946 169.922 267.552 169.009L268.476 169.614C267.882 170.528 267.299 171.452 266.715 172.388H266.704ZM785.68 170.748C784.799 170.098 783.918 169.416 783.06 168.712L783.753 167.853C784.601 168.546 785.47 169.218 786.34 169.856L785.691 170.737L785.68 170.748ZM360.492 169.262C359.898 168.337 359.292 167.413 358.676 166.51L359.589 165.894C360.206 166.796 360.811 167.721 361.417 168.656L360.492 169.251V169.262ZM581.605 168.293L580.548 167.974L581.517 164.815L582.573 165.134L581.605 168.293ZM270.292 166.873L269.379 166.257C270.006 165.332 270.645 164.43 271.283 163.538L272.174 164.177C271.536 165.057 270.909 165.949 270.281 166.862L270.292 166.873ZM780.528 166.554C779.703 165.817 778.888 165.057 778.096 164.287L778.866 163.494C779.648 164.265 780.451 165.002 781.266 165.729L780.528 166.554ZM356.805 163.814C356.166 162.911 355.517 162.03 354.857 161.161L355.737 160.501C356.397 161.37 357.058 162.262 357.707 163.175L356.816 163.814H356.805ZM583.553 161.975L582.496 161.656L583.465 158.497L584.522 158.817L583.553 161.975ZM775.763 161.92C775.003 161.117 774.255 160.302 773.528 159.466L774.354 158.739C775.08 159.565 775.818 160.368 776.566 161.161L775.763 161.92ZM274.145 161.546L273.275 160.875C273.958 159.983 274.64 159.114 275.333 158.266L276.192 158.96C275.509 159.796 274.827 160.655 274.156 161.535L274.145 161.546ZM352.842 158.574C352.149 157.716 351.444 156.879 350.74 156.054L351.577 155.327C352.292 156.153 353.007 157 353.712 157.87L352.853 158.563L352.842 158.574ZM771.382 156.945C770.688 156.098 769.995 155.228 769.324 154.348L770.193 153.676C770.865 154.546 771.536 155.404 772.229 156.252L771.382 156.945ZM278.283 156.45L277.458 155.724C278.195 154.876 278.933 154.062 279.681 153.258L280.484 154.007C279.747 154.799 279.01 155.603 278.283 156.439V156.45ZM585.501 155.658L584.445 155.338L585.413 152.179L586.47 152.499L585.501 155.658ZM348.539 153.621C347.779 152.818 347.009 152.025 346.249 151.288L347.02 150.495C347.801 151.255 348.583 152.047 349.342 152.873L348.539 153.621ZM282.763 151.684L281.992 150.903C282.796 150.121 283.61 149.351 284.414 148.635L285.151 149.461C284.359 150.165 283.555 150.925 282.763 151.695V151.684ZM767.342 151.673C766.704 150.782 766.066 149.879 765.449 148.955L766.363 148.338C766.979 149.252 767.607 150.143 768.245 151.035L767.353 151.673H767.342ZM587.449 149.34L586.393 149.01L587.372 145.851L588.418 146.181L587.438 149.34H587.449ZM343.839 149.065C343.013 148.338 342.166 147.634 341.329 146.973L342.012 146.115C342.859 146.786 343.718 147.502 344.565 148.25L343.839 149.076V149.065ZM287.65 147.337L286.956 146.478C287.837 145.774 288.729 145.091 289.598 144.475L290.236 145.366C289.378 145.983 288.497 146.643 287.639 147.337H287.65ZM763.622 146.192C763.028 145.267 762.444 144.332 761.861 143.385L762.797 142.813C763.369 143.748 763.952 144.684 764.536 145.598L763.611 146.192H763.622ZM338.721 145.014C337.818 144.387 336.905 143.792 335.991 143.242L336.563 142.296C337.499 142.857 338.435 143.462 339.359 144.112L338.732 145.014H338.721ZM292.944 143.561L292.361 142.626C293.307 142.031 294.276 141.481 295.233 140.964L295.751 141.932C294.815 142.428 293.869 142.978 292.944 143.561ZM589.409 143.033L588.352 142.703L589.343 139.544L590.399 139.874L589.409 143.022V143.033ZM333.151 141.668C332.183 141.173 331.192 140.711 330.202 140.303L330.631 139.291C331.643 139.709 332.656 140.182 333.647 140.689L333.151 141.668ZM760.166 140.534C759.616 139.588 759.065 138.619 758.526 137.651L759.484 137.111C760.023 138.069 760.562 139.027 761.113 139.973L760.155 140.523L760.166 140.534ZM298.668 140.523L298.227 139.511C299.251 139.06 300.285 138.652 301.32 138.289L301.683 139.324C300.682 139.676 299.669 140.072 298.679 140.512L298.668 140.523ZM327.164 139.17C326.14 138.839 325.095 138.542 324.049 138.289L324.302 137.221C325.37 137.475 326.448 137.783 327.505 138.124L327.164 139.17ZM304.776 138.388L304.501 137.32C305.569 137.045 306.669 136.803 307.759 136.627L307.946 137.717C306.889 137.893 305.822 138.124 304.776 138.399V138.388ZM320.868 137.662C319.811 137.497 318.722 137.376 317.654 137.287L317.742 136.187C318.843 136.275 319.954 136.396 321.044 136.572L320.879 137.662H320.868ZM311.16 137.298L311.072 136.198C312.173 136.11 313.295 136.055 314.407 136.055V137.155C313.328 137.155 312.228 137.199 311.16 137.287V137.298ZM591.379 136.726L590.333 136.396L591.335 133.248L592.38 133.578L591.379 136.726ZM756.952 134.745C756.435 133.776 755.929 132.797 755.422 131.806L756.402 131.3C756.908 132.279 757.414 133.248 757.932 134.217L756.963 134.734L756.952 134.745ZM593.382 130.43L592.336 130.089L593.349 126.941L594.395 127.282L593.382 130.43ZM753.925 128.845C753.441 127.855 752.957 126.864 752.472 125.863L753.463 125.389C753.936 126.38 754.421 127.37 754.905 128.35L753.914 128.834L753.925 128.845ZM595.418 124.156L594.373 123.815C594.714 122.77 595.066 121.724 595.407 120.678L596.453 121.02C596.112 122.065 595.76 123.111 595.418 124.156ZM751.064 122.88C750.601 121.878 750.139 120.876 749.688 119.875L750.689 119.424C751.141 120.425 751.603 121.427 752.065 122.417L751.064 122.88ZM597.499 117.883L596.453 117.53L597.51 114.394L598.555 114.746L597.499 117.872V117.883ZM748.323 116.848C747.872 115.835 747.431 114.834 746.991 113.821L748.004 113.381C748.444 114.394 748.884 115.395 749.324 116.408L748.323 116.848ZM599.634 111.631L598.588 111.268C598.951 110.222 599.315 109.187 599.678 108.142L600.713 108.505C600.349 109.54 599.986 110.574 599.623 111.62L599.634 111.631ZM745.692 110.783C745.263 109.771 744.834 108.758 744.405 107.735L745.417 107.305C745.846 108.318 746.276 109.33 746.705 110.343L745.692 110.772V110.783ZM601.824 105.412L600.79 105.038C601.164 103.992 601.538 102.958 601.912 101.923L602.947 102.297C602.573 103.321 602.198 104.355 601.824 105.401V105.412ZM743.117 104.675L741.851 101.615L742.864 101.197L744.129 104.256L743.117 104.675ZM604.092 99.2043L603.057 98.8191C603.442 97.7845 603.838 96.7498 604.224 95.7262L605.258 96.1225C604.873 97.1461 604.477 98.1697 604.092 99.2153V99.2043ZM740.596 98.566L739.341 95.5171L740.365 95.0988L741.62 98.1477L740.596 98.566ZM606.447 93.0406L605.423 92.6444C605.831 91.6097 606.227 90.5861 606.634 89.5625L607.658 89.9697C607.25 90.9823 606.843 92.006 606.447 93.0406ZM738.087 92.4572L736.821 89.4084L737.833 88.9901L739.099 92.05L738.087 92.4683V92.4572ZM608.901 86.9209L607.878 86.5026C608.296 85.479 608.725 84.4554 609.155 83.4538L610.167 83.883C609.738 84.8846 609.32 85.9083 608.901 86.9319V86.9209ZM735.555 86.3595C735.137 85.3359 734.708 84.3233 734.278 83.3107L735.291 82.8814C735.72 83.8941 736.15 84.9067 736.568 85.9303L735.555 86.3485V86.3595ZM611.466 80.8342L610.453 80.3939C610.894 79.3703 611.345 78.3687 611.796 77.3671L612.798 77.8184C612.347 78.809 611.906 79.8216 611.466 80.8342ZM732.98 80.2729C732.55 79.2602 732.11 78.2476 731.67 77.246L732.682 76.8057C733.123 77.8074 733.563 78.82 734.003 79.8436L732.991 80.2729H732.98ZM614.163 74.8245L613.161 74.3623C613.623 73.3496 614.097 72.3591 614.581 71.3684L615.572 71.8417C615.098 72.8213 614.625 73.8229 614.163 74.8245ZM730.338 74.2302C729.887 73.2176 729.435 72.216 728.973 71.2254L729.975 70.7631C730.437 71.7647 730.888 72.7663 731.34 73.7789L730.338 74.2302ZM617.024 68.8809L616.045 68.3856C616.54 67.395 617.046 66.4044 617.553 65.4358L618.532 65.9421C618.026 66.9107 617.531 67.8903 617.035 68.8809H617.024ZM727.564 68.2425C727.091 67.2409 726.607 66.2503 726.133 65.2707L727.124 64.7864C727.608 65.766 728.093 66.7677 728.566 67.7693L727.575 68.2425H727.564ZM620.062 63.0364L619.094 62.5081C619.622 61.5285 620.161 60.5599 620.701 59.6133L621.658 60.1526C621.119 61.0992 620.591 62.0568 620.062 63.0364ZM724.659 62.332C724.152 61.3524 723.646 60.3728 723.129 59.4152L724.097 58.8979C724.615 59.8665 725.121 60.8461 725.638 61.8367L724.659 62.343V62.332ZM623.309 57.3129L622.363 56.7516C622.935 55.794 623.507 54.8474 624.091 53.9229L625.026 54.5062C624.454 55.4308 623.882 56.3663 623.309 57.3129ZM721.544 56.5204C721.004 55.5518 720.454 54.6053 719.893 53.6697L720.839 53.1084C721.401 54.0549 721.951 55.0125 722.49 55.9811L721.533 56.5204H721.544ZM626.798 51.7435L625.885 51.1382C626.501 50.2026 627.117 49.289 627.745 48.3975L628.647 49.0249C628.031 49.9164 627.415 50.819 626.798 51.7435ZM718.187 50.863C717.592 49.9274 716.998 49.0029 716.404 48.1003L717.317 47.4839C717.922 48.3975 718.528 49.3221 719.122 50.2686L718.187 50.852V50.863ZM630.574 46.3613L629.693 45.7009C630.364 44.8093 631.036 43.9288 631.718 43.0813L632.577 43.7637C631.905 44.6112 631.234 45.4697 630.574 46.3613ZM714.532 45.4037C713.894 44.5121 713.234 43.6316 712.573 42.7731L713.443 42.1017C714.114 42.9712 714.775 43.8517 715.424 44.7653L714.532 45.4037ZM634.668 41.2432L633.832 40.5277C634.558 39.6802 635.295 38.8547 636.044 38.0512L636.847 38.7997C636.11 39.5922 635.383 40.4067 634.668 41.2432ZM710.504 40.2305C709.789 39.383 709.051 38.5575 708.336 37.7761L709.139 37.0276C709.877 37.8201 710.614 38.6566 711.341 39.5151L710.504 40.2305ZM639.137 36.4663L638.366 35.6848C639.17 34.8923 639.984 34.1328 640.788 33.4174L641.514 34.2429C640.722 34.9473 639.918 35.6958 639.137 36.4773V36.4663ZM706.057 35.4316C705.265 34.6612 704.461 33.9127 703.658 33.2193L704.384 32.3938C705.199 33.1092 706.024 33.8687 706.828 34.6502L706.057 35.4426V35.4316ZM644.002 32.1296L643.319 31.2711C644.189 30.5777 645.08 29.9063 645.972 29.2679L646.61 30.1704C645.741 30.7868 644.871 31.4472 644.013 32.1296H644.002ZM701.137 31.15C700.268 30.4786 699.376 29.8402 698.496 29.2459L699.112 28.3323C700.015 28.9377 700.928 29.5871 701.809 30.2805L701.137 31.15ZM649.318 28.3763L648.735 27.4408C649.681 26.8574 650.65 26.2961 651.618 25.7788L652.136 26.7474C651.189 27.2537 650.242 27.793 649.318 28.3653V28.3763ZM695.733 27.5288C694.797 26.9895 693.829 26.4832 692.86 26.0099L693.334 25.0193C694.324 25.4926 695.315 26.0209 696.283 26.5713L695.733 27.5288ZM655.052 25.3275L654.601 24.3259C655.614 23.8746 656.648 23.4564 657.683 23.0931L658.057 24.1278C657.056 24.491 656.043 24.8872 655.052 25.3275ZM689.878 24.7111C688.876 24.3149 687.852 23.9627 686.818 23.6435L687.137 22.5868C688.193 22.917 689.25 23.2803 690.274 23.6875L689.867 24.7111H689.878ZM661.15 23.1482L660.853 22.0915C661.921 21.7944 663.01 21.5412 664.089 21.3321L664.298 22.4107C663.241 22.6199 662.174 22.862 661.139 23.1482H661.15ZM683.681 22.796C682.646 22.5538 681.567 22.3557 680.489 22.1796L680.654 21.0899C681.755 21.266 682.855 21.4752 683.923 21.7173L683.681 22.785V22.796ZM667.512 21.9044L667.38 20.8148C668.481 20.6827 669.592 20.5946 670.704 20.5506L670.748 21.6513C669.669 21.6953 668.569 21.7833 667.501 21.9154L667.512 21.9044ZM677.275 21.7944C676.207 21.7063 675.118 21.6403 674.028 21.6182L674.05 20.5176C675.162 20.5396 676.273 20.6056 677.363 20.6937L677.264 21.7944H677.275Z" fill="#CBE3FE"/>
<path d="M-0.0661011 139.345L40.4934 100.602L109.527 208.104L166.454 161.579L288.65 323.872L364.1 267.815L467.387 106.094L559.479 36.3118L655.986 79.2708L747.715 6.47266L825.433 84.477V501.223H-0.0661011V139.345Z" fill="url(#paint0_linear_21656_104200)"/>
<path d="M40.4879 103.702C42.2021 103.702 43.5917 102.312 43.5917 100.598C43.5917 98.8838 42.2021 97.4941 40.4879 97.4941C38.7736 97.4941 37.384 98.8838 37.384 100.598C37.384 102.312 38.7736 103.702 40.4879 103.702Z" fill="#B7D4FB"/>
<path d="M40.4912 106.724C37.1121 106.724 34.3715 103.972 34.3715 100.604C34.3715 97.236 37.1231 94.4844 40.4912 94.4844C43.8592 94.4844 46.6109 97.236 46.6109 100.604C46.6109 103.972 43.8592 106.724 40.4912 106.724ZM40.4912 95.4089C37.6294 95.4089 35.296 97.7423 35.296 100.604C35.296 103.466 37.6294 105.799 40.4912 105.799C43.3529 105.799 45.6863 103.466 45.6863 100.604C45.6863 97.7423 43.3529 95.4089 40.4912 95.4089Z" fill="#B7D4FB"/>
<path d="M112.618 208.1C112.618 209.817 111.231 211.204 109.514 211.204C107.797 211.204 106.41 209.817 106.41 208.1C106.41 206.383 107.797 204.996 109.514 204.996C111.231 204.996 112.618 206.383 112.618 208.1Z" fill="#B7D4FB"/>
<path d="M109.519 214.225C106.14 214.225 103.399 211.473 103.399 208.105C103.399 204.737 106.151 201.985 109.519 201.985C112.887 201.985 115.638 204.737 115.638 208.105C115.638 211.473 112.887 214.225 109.519 214.225ZM109.519 202.899C106.657 202.899 104.324 205.232 104.324 208.094C104.324 210.956 106.657 213.289 109.519 213.289C112.38 213.289 114.714 210.956 114.714 208.094C114.714 205.232 112.38 202.899 109.519 202.899Z" fill="#B7D4FB"/>
<path d="M166.447 164.675C168.161 164.675 169.551 163.285 169.551 161.571C169.551 159.856 168.161 158.467 166.447 158.467C164.733 158.467 163.343 159.856 163.343 161.571C163.343 163.285 164.733 164.675 166.447 164.675Z" fill="#B7D4FB"/>
<path d="M166.448 167.696C163.069 167.696 160.329 164.945 160.329 161.577C160.329 158.209 163.08 155.457 166.448 155.457C169.817 155.457 172.568 158.209 172.568 161.577C172.568 164.945 169.817 167.696 166.448 167.696ZM166.448 156.382C163.587 156.382 161.253 158.715 161.253 161.577C161.253 164.438 163.587 166.772 166.448 166.772C169.31 166.772 171.644 164.438 171.644 161.577C171.644 158.715 169.31 156.382 166.448 156.382Z" fill="#B7D4FB"/>
<path d="M467.395 109.187C469.109 109.187 470.499 107.798 470.499 106.083C470.499 104.369 469.109 102.979 467.395 102.979C465.681 102.979 464.291 104.369 464.291 106.083C464.291 107.798 465.681 109.187 467.395 109.187Z" fill="#B7D4FB"/>
<path d="M467.4 112.219C464.021 112.219 461.281 109.467 461.281 106.099C461.281 102.731 464.032 99.9795 467.4 99.9795C470.769 99.9795 473.52 102.731 473.52 106.099C473.52 109.467 470.769 112.219 467.4 112.219ZM467.4 100.893C464.539 100.893 462.205 103.226 462.205 106.088C462.205 108.95 464.539 111.283 467.4 111.283C470.262 111.283 472.596 108.95 472.596 106.088C472.596 103.226 470.262 100.893 467.4 100.893Z" fill="#B7D4FB"/>
<path d="M559.459 39.4177C561.173 39.4177 562.563 38.0281 562.563 36.3138C562.563 34.5996 561.173 33.21 559.459 33.21C557.745 33.21 556.355 34.5996 556.355 36.3138C556.355 38.0281 557.745 39.4177 559.459 39.4177Z" fill="#B7D4FB"/>
<path d="M559.464 42.4347C556.085 42.4347 553.345 39.6831 553.345 36.315C553.345 32.947 556.096 30.1953 559.464 30.1953C562.832 30.1953 565.584 32.947 565.584 36.315C565.584 39.6831 562.832 42.4347 559.464 42.4347ZM559.464 31.1089C556.603 31.1089 554.269 33.4423 554.269 36.304C554.269 39.1658 556.603 41.4992 559.464 41.4992C562.326 41.4992 564.66 39.1658 564.66 36.304C564.66 33.4423 562.326 31.1089 559.464 31.1089Z" fill="#B7D4FB"/>
<path d="M659.063 79.2767C659.063 80.9938 657.677 82.3806 655.96 82.3806C654.243 82.3806 652.856 80.9938 652.856 79.2767C652.856 77.5597 654.243 76.1729 655.96 76.1729C657.677 76.1729 659.063 77.5597 659.063 79.2767Z" fill="#B7D4FB"/>
<path d="M655.96 85.4025C652.581 85.4025 649.841 82.6508 649.841 79.2828C649.841 75.9148 652.592 73.1631 655.96 73.1631C659.329 73.1631 662.08 75.9148 662.08 79.2828C662.08 82.6508 659.329 85.4025 655.96 85.4025ZM655.96 74.0766C653.099 74.0766 650.765 76.4101 650.765 79.2718C650.765 82.1335 653.099 84.4669 655.96 84.4669C658.822 84.4669 661.156 82.1335 661.156 79.2718C661.156 76.4101 658.822 74.0766 655.96 74.0766Z" fill="#B7D4FB"/>
<path d="M747.715 9.54078C749.429 9.54078 750.819 8.15112 750.819 6.43689C750.819 4.72266 749.429 3.33301 747.715 3.33301C746.001 3.33301 744.611 4.72266 744.611 6.43689C744.611 8.15112 746.001 9.54078 747.715 9.54078Z" fill="#B7D4FB"/>
<path d="M747.725 12.5724C744.346 12.5724 741.605 9.82076 741.605 6.45272C741.605 3.08468 744.357 0.333008 747.725 0.333008C751.093 0.333008 753.844 3.08468 753.844 6.45272C753.844 9.82076 751.093 12.5724 747.725 12.5724ZM747.725 1.24656C744.863 1.24656 742.53 3.57998 742.53 6.44171C742.53 9.30345 744.863 11.6369 747.725 11.6369C750.586 11.6369 752.92 9.30345 752.92 6.44171C752.92 3.57998 750.586 1.24656 747.725 1.24656Z" fill="#B7D4FB"/>
<path d="M-0.0661011 139.345L40.4934 100.602L109.527 208.104L166.454 161.579L288.65 323.872L364.1 267.815L467.387 106.094L559.479 36.3118L655.986 79.2708L747.715 6.47266L825.433 84.477" stroke="#B7D4FB" stroke-width="1.0857" stroke-linecap="round" stroke-linejoin="round"/>
<g opacity="0.3">
<path d="M206.857 204.851H205.756V222.417H206.857V204.851Z" fill="url(#paint1_linear_21656_104200)"/>
<path d="M288.66 199.396H281.208V246.351H288.66V199.396Z" fill="url(#paint2_linear_21656_104200)"/>
<path d="M285.477 181.824H284.377V199.391H285.477V181.824Z" fill="url(#paint3_linear_21656_104200)"/>
<path d="M308.304 186.968H300.852V219.129H308.304V186.968Z" fill="url(#paint4_linear_21656_104200)"/>
<path d="M305.132 169.418H304.031V186.985H305.132V169.418Z" fill="url(#paint5_linear_21656_104200)"/>
<path d="M327.967 209.841H320.516V222.421H327.967V209.841Z" fill="url(#paint6_linear_21656_104200)"/>
<path d="M324.785 192.267H323.685V209.833H324.785V192.267Z" fill="url(#paint7_linear_21656_104200)"/>
<path d="M367.264 206.346H359.813V222.239H367.264V206.346Z" fill="url(#paint8_linear_21656_104200)"/>
<path d="M364.092 188.772H362.992V206.339H364.092V188.772Z" fill="url(#paint9_linear_21656_104200)"/>
<path d="M386.923 191.871H379.471V245.176H386.923V191.871Z" fill="url(#paint10_linear_21656_104200)"/>
<path d="M383.742 174.32H382.641V191.887H383.742V174.32Z" fill="url(#paint11_linear_21656_104200)"/>
<path d="M406.582 202.079H399.131V214.715H406.582V202.079Z" fill="url(#paint12_linear_21656_104200)"/>
<path d="M403.4 184.508H402.299V202.074H403.4V184.508Z" fill="url(#paint13_linear_21656_104200)"/>
<path d="M462.363 205.697H461.262V223.264H462.363V205.697Z" fill="url(#paint14_linear_21656_104200)"/>
<path d="M485.208 203.061H477.756V243.07H485.208V203.061Z" fill="url(#paint15_linear_21656_104200)"/>
<path d="M482.025 185.485H480.925V203.052H482.025V185.485Z" fill="url(#paint16_linear_21656_104200)"/>
<path d="M504.848 189.089H497.397V203.265H504.848V189.089Z" fill="url(#paint17_linear_21656_104200)"/>
<path d="M501.677 171.541H500.577V189.108H501.677V171.541Z" fill="url(#paint18_linear_21656_104200)"/>
<path d="M501.677 203.271H500.576V220.838H501.677V203.271Z" fill="url(#paint19_linear_21656_104200)"/>
<path d="M524.503 172.508H517.052V231.933H524.503V172.508Z" fill="url(#paint20_linear_21656_104200)"/>
<path d="M521.32 154.957H520.219V172.524H521.32V154.957Z" fill="url(#paint21_linear_21656_104200)"/>
<path d="M544.163 134.787H536.712V222.213H544.163V134.787Z" fill="url(#paint22_linear_21656_104200)"/>
<path d="M540.979 117.24H539.878V134.807H540.979V117.24Z" fill="url(#paint23_linear_21656_104200)"/>
<path d="M563.735 191.871H556.283V236.283H563.735V191.871Z" fill="url(#paint24_linear_21656_104200)"/>
<path d="M560.549 174.319H559.448V191.886H560.549V174.319Z" fill="url(#paint25_linear_21656_104200)"/>
<path d="M583.474 195.162H576.022V209.79H583.474V195.162Z" fill="url(#paint26_linear_21656_104200)"/>
<path d="M580.297 177.59H579.197V195.156H580.297V177.59Z" fill="url(#paint27_linear_21656_104200)"/>
<path d="M580.297 209.788H579.197V227.355H580.297V209.788Z" fill="url(#paint28_linear_21656_104200)"/>
<path d="M603.591 189.472H596.139V200.93H603.591V189.472Z" fill="url(#paint29_linear_21656_104200)"/>
<path d="M600.404 171.897H599.303V189.464H600.404V171.897Z" fill="url(#paint30_linear_21656_104200)"/>
<path d="M600.405 200.929H599.304V218.495H600.405V200.929Z" fill="url(#paint31_linear_21656_104200)"/>
<path d="M622.787 123.765H615.335V175.166H622.787V123.765Z" fill="url(#paint32_linear_21656_104200)"/>
<path d="M619.599 106.191H618.499V123.758H619.599V106.191Z" fill="url(#paint33_linear_21656_104200)"/>
<path d="M619.599 175.145H618.499V192.711H619.599V175.145Z" fill="url(#paint34_linear_21656_104200)"/>
<path d="M642.427 165.606H634.975V201.4H642.427V165.606Z" fill="url(#paint35_linear_21656_104200)"/>
<path d="M639.248 148.033H638.147V165.6H639.248V148.033Z" fill="url(#paint36_linear_21656_104200)"/>
<path d="M639.248 201.393H638.147V218.959H639.248V201.393Z" fill="url(#paint37_linear_21656_104200)"/>
<path d="M662.09 168.127H654.638V230.172H662.09V168.127Z" fill="url(#paint38_linear_21656_104200)"/>
<path d="M658.902 150.553H657.802V168.119H658.902V150.553Z" fill="url(#paint39_linear_21656_104200)"/>
<path d="M681.739 181.716H674.288V192.987H681.739V181.716Z" fill="url(#paint40_linear_21656_104200)"/>
<path d="M678.553 164.142H677.452V181.708H678.553V164.142Z" fill="url(#paint41_linear_21656_104200)"/>
<path d="M678.552 192.974H677.451V210.54H678.552V192.974Z" fill="url(#paint42_linear_21656_104200)"/>
<path d="M701.41 118.451H693.958V163.667H701.41V118.451Z" fill="url(#paint43_linear_21656_104200)"/>
<path d="M698.222 100.904H697.121V118.471H698.222V100.904Z" fill="url(#paint44_linear_21656_104200)"/>
<path d="M698.222 163.684H697.121V181.25H698.222V163.684Z" fill="url(#paint45_linear_21656_104200)"/>
<path d="M721.056 144.351H713.604V155.324H721.056V144.351Z" fill="url(#paint46_linear_21656_104200)"/>
<path d="M717.879 126.779H716.778V144.346H717.879V126.779Z" fill="url(#paint47_linear_21656_104200)"/>
<path d="M717.879 155.326H716.778V172.893H717.879V155.326Z" fill="url(#paint48_linear_21656_104200)"/>
<path d="M740.72 139.586H733.268V201.344H740.72V139.586Z" fill="url(#paint49_linear_21656_104200)"/>
<path d="M737.533 122.041H736.432V139.608H737.533V122.041Z" fill="url(#paint50_linear_21656_104200)"/>
<path d="M737.532 201.364H736.432V218.931H737.532V201.364Z" fill="url(#paint51_linear_21656_104200)"/>
<path d="M760.368 115.939H752.917V133.044H760.368V115.939Z" fill="url(#paint52_linear_21656_104200)"/>
<path d="M757.181 98.3701H756.08V115.937H757.181V98.3701Z" fill="url(#paint53_linear_21656_104200)"/>
<path d="M757.181 133.047H756.08V150.614H757.181V133.047Z" fill="url(#paint54_linear_21656_104200)"/>
<path d="M780.023 104.699H772.572V114.231H780.023V104.699Z" fill="url(#paint55_linear_21656_104200)"/>
<path d="M776.847 87.1523H775.746V104.719H776.847V87.1523Z" fill="url(#paint56_linear_21656_104200)"/>
<path d="M776.845 114.248H775.744V131.815H776.845V114.248Z" fill="url(#paint57_linear_21656_104200)"/>
<path d="M799.669 52.8535H792.217V102.813H799.669V52.8535Z" fill="url(#paint58_linear_21656_104200)"/>
<path d="M796.481 35.2803H795.381V52.8469H796.481V35.2803Z" fill="url(#paint59_linear_21656_104200)"/>
<path d="M796.481 102.816H795.381V120.383H796.481V102.816Z" fill="url(#paint60_linear_21656_104200)"/>
<path d="M819.333 56.1299H811.881V71.2751H819.333V56.1299Z" fill="url(#paint61_linear_21656_104200)"/>
<path d="M816.147 38.5557H815.047V56.1223H816.147V38.5557Z" fill="url(#paint62_linear_21656_104200)"/>
<path d="M816.145 71.2627H815.045V88.8293H816.145V71.2627Z" fill="url(#paint63_linear_21656_104200)"/>
</g>
<path d="M589.79 181.167H511.313V346.829H589.79V181.167Z" fill="url(#paint64_linear_21656_104200)"/>
<path d="M795.884 98.5068H717.406V346.828H795.884V98.5068Z" fill="url(#paint65_linear_21656_104200)"/>
</g>
</g>
<defs>
<linearGradient id="paint0_linear_21656_104200" x1="351.96" y1="25.9215" x2="465.472" y2="524.876" gradientUnits="userSpaceOnUse">
<stop offset="0.13" stop-color="#B7D4FB" stop-opacity="0.3"/>
<stop offset="0.17" stop-color="#BFD8FB" stop-opacity="0.27"/>
<stop offset="0.3" stop-color="#DAE9FC" stop-opacity="0.15"/>
<stop offset="0.43" stop-color="#EEF5FE" stop-opacity="0.07"/>
<stop offset="0.56" stop-color="#FAFCFE" stop-opacity="0.02"/>
<stop offset="0.68" stop-color="white" stop-opacity="0"/>
</linearGradient>
<linearGradient id="paint1_linear_21656_104200" x1="1359.62" y1="-322.71" x2="-230.328" y2="416.685" gradientUnits="userSpaceOnUse">
<stop stop-color="#80B9FC"/>
<stop offset="0.41" stop-color="#4C9CFB"/>
<stop offset="0.75" stop-color="#3290F0"/>
<stop offset="0.81" stop-color="#3588E5"/>
<stop offset="0.91" stop-color="#3E76C8"/>
<stop offset="1" stop-color="#4862AA"/>
</linearGradient>
<linearGradient id="paint2_linear_21656_104200" x1="941.291" y1="-82.3746" x2="-135.67" y2="418.464" gradientUnits="userSpaceOnUse">
<stop stop-color="#80B9FC"/>
<stop offset="0.41" stop-color="#4C9CFB"/>
<stop offset="0.75" stop-color="#3290F0"/>
<stop offset="0.81" stop-color="#3588E5"/>
<stop offset="0.91" stop-color="#3E76C8"/>
<stop offset="1" stop-color="#4862AA"/>
</linearGradient>
<linearGradient id="paint3_linear_21656_104200" x1="1240.21" y1="-253.644" x2="-349.751" y2="485.762" gradientUnits="userSpaceOnUse">
<stop stop-color="#80B9FC"/>
<stop offset="0.41" stop-color="#4C9CFB"/>
<stop offset="0.75" stop-color="#3290F0"/>
<stop offset="0.81" stop-color="#3588E5"/>
<stop offset="0.91" stop-color="#3E76C8"/>
<stop offset="1" stop-color="#4862AA"/>
</linearGradient>
<linearGradient id="paint4_linear_21656_104200" x1="782.483" y1="-19.1984" x2="-41.3567" y2="363.923" gradientUnits="userSpaceOnUse">
<stop stop-color="#80B9FC"/>
<stop offset="0.41" stop-color="#4C9CFB"/>
<stop offset="0.75" stop-color="#3290F0"/>
<stop offset="0.81" stop-color="#3588E5"/>
<stop offset="0.91" stop-color="#3E76C8"/>
<stop offset="1" stop-color="#4862AA"/>
</linearGradient>
<linearGradient id="paint5_linear_21656_104200" x1="1213.16" y1="-244.334" x2="-376.787" y2="495.061" gradientUnits="userSpaceOnUse">
<stop stop-color="#80B9FC"/>
<stop offset="0.41" stop-color="#4C9CFB"/>
<stop offset="0.75" stop-color="#3290F0"/>
<stop offset="0.81" stop-color="#3588E5"/>
<stop offset="0.91" stop-color="#3E76C8"/>
<stop offset="1" stop-color="#4862AA"/>
</linearGradient>
<linearGradient id="paint6_linear_21656_104200" x1="602.825" y1="86.5771" x2="113.788" y2="313.996" gradientUnits="userSpaceOnUse">
<stop stop-color="#80B9FC"/>
<stop offset="0.41" stop-color="#4C9CFB"/>
<stop offset="0.75" stop-color="#3290F0"/>
<stop offset="0.81" stop-color="#3588E5"/>
<stop offset="0.91" stop-color="#3E76C8"/>
<stop offset="1" stop-color="#4862AA"/>
</linearGradient>
<linearGradient id="paint7_linear_21656_104200" x1="1216.25" y1="-213.781" x2="-373.709" y2="525.625" gradientUnits="userSpaceOnUse">
<stop stop-color="#80B9FC"/>
<stop offset="0.41" stop-color="#4C9CFB"/>
<stop offset="0.75" stop-color="#3290F0"/>
<stop offset="0.81" stop-color="#3588E5"/>
<stop offset="0.91" stop-color="#3E76C8"/>
<stop offset="1" stop-color="#4862AA"/>
</linearGradient>
<linearGradient id="paint8_linear_21656_104200" x1="648.561" y1="81.739" x2="102.95" y2="335.475" gradientUnits="userSpaceOnUse">
<stop stop-color="#80B9FC"/>
<stop offset="0.41" stop-color="#4C9CFB"/>
<stop offset="0.75" stop-color="#3290F0"/>
<stop offset="0.81" stop-color="#3588E5"/>
<stop offset="0.91" stop-color="#3E76C8"/>
<stop offset="1" stop-color="#4862AA"/>
</linearGradient>
<linearGradient id="paint9_linear_21656_104200" x1="1180.37" y1="-182.307" x2="-409.578" y2="557.089" gradientUnits="userSpaceOnUse">
<stop stop-color="#80B9FC"/>
<stop offset="0.41" stop-color="#4C9CFB"/>
<stop offset="0.75" stop-color="#3290F0"/>
<stop offset="0.81" stop-color="#3588E5"/>
<stop offset="0.91" stop-color="#3E76C8"/>
<stop offset="1" stop-color="#4862AA"/>
</linearGradient>
<linearGradient id="paint10_linear_21656_104200" x1="984.014" y1="-60.8862" x2="-201.516" y2="490.451" gradientUnits="userSpaceOnUse">
<stop stop-color="#80B9FC"/>
<stop offset="0.41" stop-color="#4C9CFB"/>
<stop offset="0.75" stop-color="#3290F0"/>
<stop offset="0.81" stop-color="#3588E5"/>
<stop offset="0.91" stop-color="#3E76C8"/>
<stop offset="1" stop-color="#4862AA"/>
</linearGradient>
<linearGradient id="paint11_linear_21656_104200" x1="1175.24" y1="-185.246" x2="-414.715" y2="554.16" gradientUnits="userSpaceOnUse">
<stop stop-color="#80B9FC"/>
<stop offset="0.41" stop-color="#4C9CFB"/>
<stop offset="0.75" stop-color="#3290F0"/>
<stop offset="0.81" stop-color="#3588E5"/>
<stop offset="0.91" stop-color="#3E76C8"/>
<stop offset="1" stop-color="#4862AA"/>
</linearGradient>
<linearGradient id="paint12_linear_21656_104200" x1="635.466" y1="100.223" x2="145.438" y2="328.105" gradientUnits="userSpaceOnUse">
<stop stop-color="#80B9FC"/>
<stop offset="0.41" stop-color="#4C9CFB"/>
<stop offset="0.75" stop-color="#3290F0"/>
<stop offset="0.81" stop-color="#3588E5"/>
<stop offset="0.91" stop-color="#3E76C8"/>
<stop offset="1" stop-color="#4862AA"/>
</linearGradient>
<linearGradient id="paint13_linear_21656_104200" x1="1143.85" y1="-151.317" x2="-446.095" y2="588.089" gradientUnits="userSpaceOnUse">
<stop stop-color="#80B9FC"/>
<stop offset="0.41" stop-color="#4C9CFB"/>
<stop offset="0.75" stop-color="#3290F0"/>
<stop offset="0.81" stop-color="#3588E5"/>
<stop offset="0.91" stop-color="#3E76C8"/>
<stop offset="1" stop-color="#4862AA"/>
</linearGradient>
<linearGradient id="paint14_linear_21656_104200" x1="1132.92" y1="-97.6248" x2="-457.036" y2="641.781" gradientUnits="userSpaceOnUse">
<stop stop-color="#80B9FC"/>
<stop offset="0.41" stop-color="#4C9CFB"/>
<stop offset="0.75" stop-color="#3290F0"/>
<stop offset="0.81" stop-color="#3588E5"/>
<stop offset="0.91" stop-color="#3E76C8"/>
<stop offset="1" stop-color="#4862AA"/>
</linearGradient>
<linearGradient id="paint15_linear_21656_104200" x1="857.212" y1="48.3287" x2="-100.932" y2="493.913" gradientUnits="userSpaceOnUse">
<stop stop-color="#80B9FC"/>
<stop offset="0.41" stop-color="#4C9CFB"/>
<stop offset="0.75" stop-color="#3290F0"/>
<stop offset="0.81" stop-color="#3588E5"/>
<stop offset="0.91" stop-color="#3E76C8"/>
<stop offset="1" stop-color="#4862AA"/>
</linearGradient>
<linearGradient id="paint16_linear_21656_104200" x1="1091.23" y1="-89.2964" x2="-498.714" y2="650.099" gradientUnits="userSpaceOnUse">
<stop stop-color="#80B9FC"/>
<stop offset="0.41" stop-color="#4C9CFB"/>
<stop offset="0.75" stop-color="#3290F0"/>
<stop offset="0.81" stop-color="#3588E5"/>
<stop offset="0.91" stop-color="#3E76C8"/>
<stop offset="1" stop-color="#4862AA"/>
</linearGradient>
<linearGradient id="paint17_linear_21656_104200" x1="684.004" y1="111.129" x2="167.703" y2="351.227" gradientUnits="userSpaceOnUse">
<stop stop-color="#80B9FC"/>
<stop offset="0.41" stop-color="#4C9CFB"/>
<stop offset="0.75" stop-color="#3290F0"/>
<stop offset="0.81" stop-color="#3588E5"/>
<stop offset="0.91" stop-color="#3E76C8"/>
<stop offset="1" stop-color="#4862AA"/>
</linearGradient>
<linearGradient id="paint18_linear_21656_104200" x1="1050.58" y1="-75.2067" x2="-539.378" y2="664.199" gradientUnits="userSpaceOnUse">
<stop stop-color="#80B9FC"/>
<stop offset="0.41" stop-color="#4C9CFB"/>
<stop offset="0.75" stop-color="#3290F0"/>
<stop offset="0.81" stop-color="#3588E5"/>
<stop offset="0.91" stop-color="#3E76C8"/>
<stop offset="1" stop-color="#4862AA"/>
</linearGradient>
<linearGradient id="paint19_linear_21656_104200" x1="1078.04" y1="-56.244" x2="-511.906" y2="683.162" gradientUnits="userSpaceOnUse">
<stop stop-color="#80B9FC"/>
<stop offset="0.41" stop-color="#4C9CFB"/>
<stop offset="0.75" stop-color="#3290F0"/>
<stop offset="0.81" stop-color="#3588E5"/>
<stop offset="0.91" stop-color="#3E76C8"/>
<stop offset="1" stop-color="#4862AA"/>
</linearGradient>
<linearGradient id="paint20_linear_21656_104200" x1="937.012" y1="8.65135" x2="-353.214" y2="608.671" gradientUnits="userSpaceOnUse">
<stop stop-color="#80B9FC"/>
<stop offset="0.41" stop-color="#4C9CFB"/>
<stop offset="0.75" stop-color="#3290F0"/>
<stop offset="0.81" stop-color="#3588E5"/>
<stop offset="0.91" stop-color="#3E76C8"/>
<stop offset="1" stop-color="#4862AA"/>
</linearGradient>
<linearGradient id="paint21_linear_21656_104200" x1="1019.97" y1="-68.4124" x2="-569.981" y2="670.983" gradientUnits="userSpaceOnUse">
<stop stop-color="#80B9FC"/>
<stop offset="0.41" stop-color="#4C9CFB"/>
<stop offset="0.75" stop-color="#3290F0"/>
<stop offset="0.81" stop-color="#3588E5"/>
<stop offset="0.91" stop-color="#3E76C8"/>
<stop offset="1" stop-color="#4862AA"/>
</linearGradient>
<linearGradient id="paint22_linear_21656_104200" x1="1093.9" y1="-78.8857" x2="-675.221" y2="743.837" gradientUnits="userSpaceOnUse">
<stop stop-color="#80B9FC"/>
<stop offset="0.41" stop-color="#4C9CFB"/>
<stop offset="0.75" stop-color="#3290F0"/>
<stop offset="0.81" stop-color="#3588E5"/>
<stop offset="0.91" stop-color="#3E76C8"/>
<stop offset="1" stop-color="#4862AA"/>
</linearGradient>
<linearGradient id="paint23_linear_21656_104200" x1="1024.11" y1="-98.9198" x2="-565.841" y2="640.486" gradientUnits="userSpaceOnUse">
<stop stop-color="#80B9FC"/>
<stop offset="0.41" stop-color="#4C9CFB"/>
<stop offset="0.75" stop-color="#3290F0"/>
<stop offset="0.81" stop-color="#3588E5"/>
<stop offset="0.91" stop-color="#3E76C8"/>
<stop offset="1" stop-color="#4862AA"/>
</linearGradient>
<linearGradient id="paint24_linear_21656_104200" x1="867.782" y1="70.9517" x2="-165.721" y2="551.578" gradientUnits="userSpaceOnUse">
<stop stop-color="#80B9FC"/>
<stop offset="0.41" stop-color="#4C9CFB"/>
<stop offset="0.75" stop-color="#3290F0"/>
<stop offset="0.81" stop-color="#3588E5"/>
<stop offset="0.91" stop-color="#3E76C8"/>
<stop offset="1" stop-color="#4862AA"/>
</linearGradient>
<linearGradient id="paint25_linear_21656_104200" x1="1019.76" y1="-30.713" x2="-570.199" y2="708.693" gradientUnits="userSpaceOnUse">
<stop stop-color="#80B9FC"/>
<stop offset="0.41" stop-color="#4C9CFB"/>
<stop offset="0.75" stop-color="#3290F0"/>
<stop offset="0.81" stop-color="#3588E5"/>
<stop offset="0.91" stop-color="#3E76C8"/>
<stop offset="1" stop-color="#4862AA"/>
</linearGradient>
<linearGradient id="paint26_linear_21656_104200" x1="716.39" y1="138.929" x2="192.375" y2="382.625" gradientUnits="userSpaceOnUse">
<stop stop-color="#80B9FC"/>
<stop offset="0.41" stop-color="#4C9CFB"/>
<stop offset="0.75" stop-color="#3290F0"/>
<stop offset="0.81" stop-color="#3588E5"/>
<stop offset="0.91" stop-color="#3E76C8"/>
<stop offset="1" stop-color="#4862AA"/>
</linearGradient>
<linearGradient id="paint27_linear_21656_104200" x1="980.61" y1="-0.046906" x2="-609.348" y2="739.359" gradientUnits="userSpaceOnUse">
<stop stop-color="#80B9FC"/>
<stop offset="0.41" stop-color="#4C9CFB"/>
<stop offset="0.75" stop-color="#3290F0"/>
<stop offset="0.81" stop-color="#3588E5"/>
<stop offset="0.91" stop-color="#3E76C8"/>
<stop offset="1" stop-color="#4862AA"/>
</linearGradient>
<linearGradient id="paint28_linear_21656_104200" x1="1008.07" y1="19.3726" x2="-581.875" y2="758.779" gradientUnits="userSpaceOnUse">
<stop stop-color="#80B9FC"/>
<stop offset="0.41" stop-color="#4C9CFB"/>
<stop offset="0.75" stop-color="#3290F0"/>
<stop offset="0.81" stop-color="#3588E5"/>
<stop offset="0.91" stop-color="#3E76C8"/>
<stop offset="1" stop-color="#4862AA"/>
</linearGradient>
<linearGradient id="paint29_linear_21656_104200" x1="704.313" y1="146.623" x2="234.558" y2="365.084" gradientUnits="userSpaceOnUse">
<stop stop-color="#80B9FC"/>
<stop offset="0.41" stop-color="#4C9CFB"/>
<stop offset="0.75" stop-color="#3290F0"/>
<stop offset="0.81" stop-color="#3588E5"/>
<stop offset="0.91" stop-color="#3E76C8"/>
<stop offset="1" stop-color="#4862AA"/>
</linearGradient>
<linearGradient id="paint30_linear_21656_104200" x1="939.652" y1="22.6579" x2="-650.306" y2="762.064" gradientUnits="userSpaceOnUse">
<stop stop-color="#80B9FC"/>
<stop offset="0.41" stop-color="#4C9CFB"/>
<stop offset="0.75" stop-color="#3290F0"/>
<stop offset="0.81" stop-color="#3588E5"/>
<stop offset="0.91" stop-color="#3E76C8"/>
<stop offset="1" stop-color="#4862AA"/>
</linearGradient>
<linearGradient id="paint31_linear_21656_104200" x1="967.125" y1="38.9104" x2="-622.833" y2="778.316" gradientUnits="userSpaceOnUse">
<stop stop-color="#80B9FC"/>
<stop offset="0.41" stop-color="#4C9CFB"/>
<stop offset="0.75" stop-color="#3290F0"/>
<stop offset="0.81" stop-color="#3588E5"/>
<stop offset="0.91" stop-color="#3E76C8"/>
<stop offset="1" stop-color="#4862AA"/>
</linearGradient>
<linearGradient id="paint32_linear_21656_104200" x1="833.906" y1="49.5467" x2="-318.989" y2="585.695" gradientUnits="userSpaceOnUse">
<stop stop-color="#80B9FC"/>
<stop offset="0.41" stop-color="#4C9CFB"/>
<stop offset="0.75" stop-color="#3290F0"/>
<stop offset="0.81" stop-color="#3588E5"/>
<stop offset="0.91" stop-color="#3E76C8"/>
<stop offset="1" stop-color="#4862AA"/>
</linearGradient>
<linearGradient id="paint33_linear_21656_104200" x1="901.612" y1="-16.4339" x2="-688.346" y2="722.972" gradientUnits="userSpaceOnUse">
<stop stop-color="#80B9FC"/>
<stop offset="0.41" stop-color="#4C9CFB"/>
<stop offset="0.75" stop-color="#3290F0"/>
<stop offset="0.81" stop-color="#3588E5"/>
<stop offset="0.91" stop-color="#3E76C8"/>
<stop offset="1" stop-color="#4862AA"/>
</linearGradient>
<linearGradient id="paint34_linear_21656_104200" x1="929.085" y1="39.7514" x2="-660.873" y2="779.147" gradientUnits="userSpaceOnUse">
<stop stop-color="#80B9FC"/>
<stop offset="0.41" stop-color="#4C9CFB"/>
<stop offset="0.75" stop-color="#3290F0"/>
<stop offset="0.81" stop-color="#3588E5"/>
<stop offset="0.91" stop-color="#3E76C8"/>
<stop offset="1" stop-color="#4862AA"/>
</linearGradient>
<linearGradient id="paint35_linear_21656_104200" x1="791.359" y1="112.521" x2="-94.6801" y2="524.569" gradientUnits="userSpaceOnUse">
<stop stop-color="#80B9FC"/>
<stop offset="0.41" stop-color="#4C9CFB"/>
<stop offset="0.75" stop-color="#3290F0"/>
<stop offset="0.81" stop-color="#3588E5"/>
<stop offset="0.91" stop-color="#3E76C8"/>
<stop offset="1" stop-color="#4862AA"/>
</linearGradient>
<linearGradient id="paint36_linear_21656_104200" x1="898.885" y1="35.8201" x2="-691.063" y2="775.215" gradientUnits="userSpaceOnUse">
<stop stop-color="#80B9FC"/>
<stop offset="0.41" stop-color="#4C9CFB"/>
<stop offset="0.75" stop-color="#3290F0"/>
<stop offset="0.81" stop-color="#3588E5"/>
<stop offset="0.91" stop-color="#3E76C8"/>
<stop offset="1" stop-color="#4862AA"/>
</linearGradient>
<linearGradient id="paint37_linear_21656_104200" x1="926.357" y1="76.4007" x2="-663.601" y2="815.807" gradientUnits="userSpaceOnUse">
<stop stop-color="#80B9FC"/>
<stop offset="0.41" stop-color="#4C9CFB"/>
<stop offset="0.75" stop-color="#3290F0"/>
<stop offset="0.81" stop-color="#3588E5"/>
<stop offset="0.91" stop-color="#3E76C8"/>
<stop offset="1" stop-color="#4862AA"/>
</linearGradient>
<linearGradient id="paint38_linear_21656_104200" x1="859.845" y1="105.444" x2="-475.082" y2="726.246" gradientUnits="userSpaceOnUse">
<stop stop-color="#80B9FC"/>
<stop offset="0.41" stop-color="#4C9CFB"/>
<stop offset="0.75" stop-color="#3290F0"/>
<stop offset="0.81" stop-color="#3588E5"/>
<stop offset="0.91" stop-color="#3E76C8"/>
<stop offset="1" stop-color="#4862AA"/>
</linearGradient>
<linearGradient id="paint39_linear_21656_104200" x1="884.605" y1="54.1232" x2="-705.353" y2="793.518" gradientUnits="userSpaceOnUse">
<stop stop-color="#80B9FC"/>
<stop offset="0.41" stop-color="#4C9CFB"/>
<stop offset="0.75" stop-color="#3290F0"/>
<stop offset="0.81" stop-color="#3588E5"/>
<stop offset="0.91" stop-color="#3E76C8"/>
<stop offset="1" stop-color="#4862AA"/>
</linearGradient>
<linearGradient id="paint40_linear_21656_104200" x1="737.664" y1="159.614" x2="270.991" y2="376.634" gradientUnits="userSpaceOnUse">
<stop stop-color="#80B9FC"/>
<stop offset="0.41" stop-color="#4C9CFB"/>
<stop offset="0.75" stop-color="#3290F0"/>
<stop offset="0.81" stop-color="#3588E5"/>
<stop offset="0.91" stop-color="#3E76C8"/>
<stop offset="1" stop-color="#4862AA"/>
</linearGradient>
<linearGradient id="paint41_linear_21656_104200" x1="867.515" y1="84.7945" x2="-722.443" y2="824.201" gradientUnits="userSpaceOnUse">
<stop stop-color="#80B9FC"/>
<stop offset="0.41" stop-color="#4C9CFB"/>
<stop offset="0.75" stop-color="#3290F0"/>
<stop offset="0.81" stop-color="#3588E5"/>
<stop offset="0.91" stop-color="#3E76C8"/>
<stop offset="1" stop-color="#4862AA"/>
</linearGradient>
<linearGradient id="paint42_linear_21656_104200" x1="894.976" y1="100.848" x2="-694.971" y2="840.254" gradientUnits="userSpaceOnUse">
<stop stop-color="#80B9FC"/>
<stop offset="0.41" stop-color="#4C9CFB"/>
<stop offset="0.75" stop-color="#3290F0"/>
<stop offset="0.81" stop-color="#3588E5"/>
<stop offset="0.91" stop-color="#3E76C8"/>
<stop offset="1" stop-color="#4862AA"/>
</linearGradient>
<linearGradient id="paint43_linear_21656_104200" x1="791.279" y1="97.5385" x2="-255.842" y2="584.497" gradientUnits="userSpaceOnUse">
<stop stop-color="#80B9FC"/>
<stop offset="0.41" stop-color="#4C9CFB"/>
<stop offset="0.75" stop-color="#3290F0"/>
<stop offset="0.81" stop-color="#3588E5"/>
<stop offset="0.91" stop-color="#3E76C8"/>
<stop offset="1" stop-color="#4862AA"/>
</linearGradient>
<linearGradient id="paint44_linear_21656_104200" x1="826.065" y1="49.9764" x2="-763.893" y2="789.383" gradientUnits="userSpaceOnUse">
<stop stop-color="#80B9FC"/>
<stop offset="0.41" stop-color="#4C9CFB"/>
<stop offset="0.75" stop-color="#3290F0"/>
<stop offset="0.81" stop-color="#3588E5"/>
<stop offset="0.91" stop-color="#3E76C8"/>
<stop offset="1" stop-color="#4862AA"/>
</linearGradient>
<linearGradient id="paint45_linear_21656_104200" x1="853.526" y1="99.988" x2="-736.421" y2="839.383" gradientUnits="userSpaceOnUse">
<stop stop-color="#80B9FC"/>
<stop offset="0.41" stop-color="#4C9CFB"/>
<stop offset="0.75" stop-color="#3290F0"/>
<stop offset="0.81" stop-color="#3588E5"/>
<stop offset="0.91" stop-color="#3E76C8"/>
<stop offset="1" stop-color="#4862AA"/>
</linearGradient>
<linearGradient id="paint46_linear_21656_104200" x1="746.03" y1="136.492" x2="284.533" y2="351.108" gradientUnits="userSpaceOnUse">
<stop stop-color="#80B9FC"/>
<stop offset="0.41" stop-color="#4C9CFB"/>
<stop offset="0.75" stop-color="#3290F0"/>
<stop offset="0.81" stop-color="#3588E5"/>
<stop offset="0.91" stop-color="#3E76C8"/>
<stop offset="1" stop-color="#4862AA"/>
</linearGradient>
<linearGradient id="paint47_linear_21656_104200" x1="802.487" y1="95.9606" x2="-787.471" y2="835.367" gradientUnits="userSpaceOnUse">
<stop stop-color="#80B9FC"/>
<stop offset="0.41" stop-color="#4C9CFB"/>
<stop offset="0.75" stop-color="#3290F0"/>
<stop offset="0.81" stop-color="#3588E5"/>
<stop offset="0.91" stop-color="#3E76C8"/>
<stop offset="1" stop-color="#4862AA"/>
</linearGradient>
<linearGradient id="paint48_linear_21656_104200" x1="829.949" y1="111.729" x2="-759.998" y2="851.124" gradientUnits="userSpaceOnUse">
<stop stop-color="#80B9FC"/>
<stop offset="0.41" stop-color="#4C9CFB"/>
<stop offset="0.75" stop-color="#3290F0"/>
<stop offset="0.81" stop-color="#3588E5"/>
<stop offset="0.91" stop-color="#3E76C8"/>
<stop offset="1" stop-color="#4862AA"/>
</linearGradient>
<linearGradient id="paint49_linear_21656_104200" x1="781.489" y1="149.778" x2="-548.593" y2="768.322" gradientUnits="userSpaceOnUse">
<stop stop-color="#80B9FC"/>
<stop offset="0.41" stop-color="#4C9CFB"/>
<stop offset="0.75" stop-color="#3290F0"/>
<stop offset="0.81" stop-color="#3588E5"/>
<stop offset="0.91" stop-color="#3E76C8"/>
<stop offset="1" stop-color="#4862AA"/>
</linearGradient>
<linearGradient id="paint50_linear_21656_104200" x1="776.441" y1="112.465" x2="-813.517" y2="851.871" gradientUnits="userSpaceOnUse">
<stop stop-color="#80B9FC"/>
<stop offset="0.41" stop-color="#4C9CFB"/>
<stop offset="0.75" stop-color="#3290F0"/>
<stop offset="0.81" stop-color="#3588E5"/>
<stop offset="0.91" stop-color="#3E76C8"/>
<stop offset="1" stop-color="#4862AA"/>
</linearGradient>
<linearGradient id="paint51_linear_21656_104200" x1="803.914" y1="179.021" x2="-786.045" y2="918.427" gradientUnits="userSpaceOnUse">
<stop stop-color="#80B9FC"/>
<stop offset="0.41" stop-color="#4C9CFB"/>
<stop offset="0.75" stop-color="#3290F0"/>
<stop offset="0.81" stop-color="#3588E5"/>
<stop offset="0.91" stop-color="#3E76C8"/>
<stop offset="1" stop-color="#4862AA"/>
</linearGradient>
<linearGradient id="paint52_linear_21656_104200" x1="755.525" y1="124.998" x2="189.165" y2="388.389" gradientUnits="userSpaceOnUse">
<stop stop-color="#80B9FC"/>
<stop offset="0.41" stop-color="#4C9CFB"/>
<stop offset="0.75" stop-color="#3290F0"/>
<stop offset="0.81" stop-color="#3588E5"/>
<stop offset="0.91" stop-color="#3E76C8"/>
<stop offset="1" stop-color="#4862AA"/>
</linearGradient>
<linearGradient id="paint53_linear_21656_104200" x1="739.79" y1="114.99" x2="-850.168" y2="854.385" gradientUnits="userSpaceOnUse">
<stop stop-color="#80B9FC"/>
<stop offset="0.41" stop-color="#4C9CFB"/>
<stop offset="0.75" stop-color="#3290F0"/>
<stop offset="0.81" stop-color="#3588E5"/>
<stop offset="0.91" stop-color="#3E76C8"/>
<stop offset="1" stop-color="#4862AA"/>
</linearGradient>
<linearGradient id="paint54_linear_21656_104200" x1="767.252" y1="136.888" x2="-822.695" y2="876.283" gradientUnits="userSpaceOnUse">
<stop stop-color="#80B9FC"/>
<stop offset="0.41" stop-color="#4C9CFB"/>
<stop offset="0.75" stop-color="#3290F0"/>
<stop offset="0.81" stop-color="#3588E5"/>
<stop offset="0.91" stop-color="#3E76C8"/>
<stop offset="1" stop-color="#4862AA"/>
</linearGradient>
<linearGradient id="paint55_linear_21656_104200" x1="762.897" y1="115.695" x2="326.118" y2="318.824" gradientUnits="userSpaceOnUse">
<stop stop-color="#80B9FC"/>
<stop offset="0.41" stop-color="#4C9CFB"/>
<stop offset="0.75" stop-color="#3290F0"/>
<stop offset="0.81" stop-color="#3588E5"/>
<stop offset="0.91" stop-color="#3E76C8"/>
<stop offset="1" stop-color="#4862AA"/>
</linearGradient>
<linearGradient id="paint56_linear_21656_104200" x1="713.768" y1="125.004" x2="-876.179" y2="864.41" gradientUnits="userSpaceOnUse">
<stop stop-color="#80B9FC"/>
<stop offset="0.41" stop-color="#4C9CFB"/>
<stop offset="0.75" stop-color="#3290F0"/>
<stop offset="0.81" stop-color="#3588E5"/>
<stop offset="0.91" stop-color="#3E76C8"/>
<stop offset="1" stop-color="#4862AA"/>
</linearGradient>
<linearGradient id="paint57_linear_21656_104200" x1="741.238" y1="139.332" x2="-848.709" y2="878.727" gradientUnits="userSpaceOnUse">
<stop stop-color="#80B9FC"/>
<stop offset="0.41" stop-color="#4C9CFB"/>
<stop offset="0.75" stop-color="#3290F0"/>
<stop offset="0.81" stop-color="#3588E5"/>
<stop offset="0.91" stop-color="#3E76C8"/>
<stop offset="1" stop-color="#4862AA"/>
</linearGradient>
<linearGradient id="paint58_linear_21656_104200" x1="719.034" y1="113.599" x2="-409.343" y2="638.347" gradientUnits="userSpaceOnUse">
<stop stop-color="#80B9FC"/>
<stop offset="0.41" stop-color="#4C9CFB"/>
<stop offset="0.75" stop-color="#3290F0"/>
<stop offset="0.81" stop-color="#3588E5"/>
<stop offset="0.91" stop-color="#3E76C8"/>
<stop offset="1" stop-color="#4862AA"/>
</linearGradient>
<linearGradient id="paint59_linear_21656_104200" x1="673.823" y1="100.858" x2="-916.124" y2="840.253" gradientUnits="userSpaceOnUse">
<stop stop-color="#80B9FC"/>
<stop offset="0.41" stop-color="#4C9CFB"/>
<stop offset="0.75" stop-color="#3290F0"/>
<stop offset="0.81" stop-color="#3588E5"/>
<stop offset="0.91" stop-color="#3E76C8"/>
<stop offset="1" stop-color="#4862AA"/>
</linearGradient>
<linearGradient id="paint60_linear_21656_104200" x1="701.296" y1="155.615" x2="-888.662" y2="895.022" gradientUnits="userSpaceOnUse">
<stop stop-color="#80B9FC"/>
<stop offset="0.41" stop-color="#4C9CFB"/>
<stop offset="0.75" stop-color="#3290F0"/>
<stop offset="0.81" stop-color="#3588E5"/>
<stop offset="0.91" stop-color="#3E76C8"/>
<stop offset="1" stop-color="#4862AA"/>
</linearGradient>
<linearGradient id="paint61_linear_21656_104200" x1="761.141" y1="89.0288" x2="228.219" y2="336.867" gradientUnits="userSpaceOnUse">
<stop stop-color="#80B9FC"/>
<stop offset="0.41" stop-color="#4C9CFB"/>
<stop offset="0.75" stop-color="#3290F0"/>
<stop offset="0.81" stop-color="#3588E5"/>
<stop offset="0.91" stop-color="#3E76C8"/>
<stop offset="1" stop-color="#4862AA"/>
</linearGradient>
<linearGradient id="paint62_linear_21656_104200" x1="639.391" y1="129.284" x2="-950.567" y2="868.69" gradientUnits="userSpaceOnUse">
<stop stop-color="#80B9FC"/>
<stop offset="0.41" stop-color="#4C9CFB"/>
<stop offset="0.75" stop-color="#3290F0"/>
<stop offset="0.81" stop-color="#3588E5"/>
<stop offset="0.91" stop-color="#3E76C8"/>
<stop offset="1" stop-color="#4862AA"/>
</linearGradient>
<linearGradient id="paint63_linear_21656_104200" x1="666.862" y1="149.212" x2="-923.096" y2="888.618" gradientUnits="userSpaceOnUse">
<stop stop-color="#80B9FC"/>
<stop offset="0.41" stop-color="#4C9CFB"/>
<stop offset="0.75" stop-color="#3290F0"/>
<stop offset="0.81" stop-color="#3588E5"/>
<stop offset="0.91" stop-color="#3E76C8"/>
<stop offset="1" stop-color="#4862AA"/>
</linearGradient>
<linearGradient id="paint64_linear_21656_104200" x1="550.552" y1="184.436" x2="550.552" y2="353.157" gradientUnits="userSpaceOnUse">
<stop stop-color="white" stop-opacity="0"/>
<stop offset="0.1" stop-color="#F3F7FE" stop-opacity="0.13"/>
<stop offset="0.27" stop-color="#E0EDFD" stop-opacity="0.33"/>
<stop offset="0.43" stop-color="#D1E4FC" stop-opacity="0.5"/>
<stop offset="0.59" stop-color="#C6DDFB" stop-opacity="0.63"/>
<stop offset="0.74" stop-color="#BDD8FB" stop-opacity="0.72"/>
<stop offset="0.88" stop-color="#B8D5FB" stop-opacity="0.78"/>
<stop offset="1" stop-color="#B7D4FB" stop-opacity="0.8"/>
</linearGradient>
<linearGradient id="paint65_linear_21656_104200" x1="756.645" y1="103.416" x2="756.645" y2="356.305" gradientUnits="userSpaceOnUse">
<stop stop-color="white" stop-opacity="0"/>
<stop offset="0.1" stop-color="#F3F7FE" stop-opacity="0.13"/>
<stop offset="0.27" stop-color="#E0EDFD" stop-opacity="0.33"/>
<stop offset="0.43" stop-color="#D1E4FC" stop-opacity="0.5"/>
<stop offset="0.59" stop-color="#C6DDFB" stop-opacity="0.63"/>
<stop offset="0.74" stop-color="#BDD8FB" stop-opacity="0.72"/>
<stop offset="0.88" stop-color="#B8D5FB" stop-opacity="0.78"/>
<stop offset="1" stop-color="#B7D4FB" stop-opacity="0.8"/>
</linearGradient>
<clipPath id="clip0_21656_104200">
<rect width="826.6" height="500.903" fill="white" transform="translate(-0.616699 0.324219)"/>
</clipPath>
</defs>
</svg>
