<svg width="12" height="11" viewBox="0 0 12 11" fill="none" xmlns="http://www.w3.org/2000/svg">
<path fill-rule="evenodd" clip-rule="evenodd" d="M8.21663 6.81892L11.137 9.68401C11.3027 9.83858 11.3699 10.069 11.3126 10.2861C11.2553 10.5032 11.0825 10.6727 10.8612 10.7291C10.6399 10.7855 10.4049 10.7198 10.2471 10.5575L7.32939 7.69462L7.32634 7.69687C6.61188 8.21556 5.74553 8.49378 4.8566 8.49001C2.54542 8.47692 0.676076 6.64103 0.666088 4.37449C0.659566 3.28994 1.09562 2.24787 1.8771 1.48044C2.65858 0.713007 3.72058 0.283953 4.82651 0.28886C7.13748 0.30195 9.00665 2.13767 9.01664 4.404C9.02055 5.27222 8.74012 6.11873 8.21663 6.81892ZM1.50115 4.37748C1.50926 6.19061 3.00471 7.65916 4.85356 7.66959C5.73819 7.6732 6.58758 7.32983 7.21264 6.71593C7.83771 6.10203 8.18658 5.26854 8.18159 4.40101C8.17347 2.58788 6.67802 1.11933 4.82918 1.1089C3.94455 1.1053 3.09516 1.44866 2.47009 2.06256C1.84502 2.67647 1.49616 3.50995 1.50115 4.37748Z" fill="black"/>
</svg>
