<svg width="14" height="9" viewBox="0 0 14 9" fill="none" xmlns="http://www.w3.org/2000/svg">
<path d="M7.00156 0C3.03822 0 0.601562 4.36364 0.601562 4.36364C0.601562 4.36364 3.03822 8.72727 7.00156 8.72727C10.9649 8.72727 13.4016 4.36364 13.4016 4.36364C13.4016 4.36364 10.9649 0 7.00156 0ZM7.00156 7.27273C4.70745 7.27273 2.97189 5.46618 2.12651 4.36364C2.7316 3.57455 3.79167 2.43127 5.18338 1.84073C4.85564 2.34975 4.67612 2.98296 4.67429 3.63636C4.67429 4.4079 4.91948 5.14784 5.35593 5.6934C5.79238 6.23896 6.38433 6.54546 7.00156 6.54546C7.61879 6.54546 8.21074 6.23896 8.64719 5.6934C9.08364 5.14784 9.32883 4.4079 9.32883 3.63636C9.32701 2.98296 9.14748 2.34975 8.81974 1.84073C10.212 2.43127 11.2727 3.57527 11.8766 4.36364C11.0301 5.46764 9.29509 7.27273 7.00156 7.27273Z" fill="#999999"/>
</svg>
