<svg width="20" height="20" viewBox="0 0 20 20" fill="none" xmlns="http://www.w3.org/2000/svg">
<path fill-rule="evenodd" clip-rule="evenodd" d="M10 19C14.9706 19 19 14.9706 19 10C19 5.02944 14.9706 1 10 1C5.02944 1 1 5.02944 1 10C1 14.9706 5.02944 19 10 19ZM10 20C15.5228 20 20 15.5228 20 10C20 4.47715 15.5228 0 10 0C4.47715 0 0 4.47715 0 10C0 15.5228 4.47715 20 10 20Z" fill="black"/>
<path fill-rule="evenodd" clip-rule="evenodd" d="M14.5664 9.77184H6.47715L8.40736 7.82769C8.57646 7.65748 8.57646 7.38137 8.40736 7.21119C8.23826 7.04088 7.96411 7.04088 7.79526 7.21119L5.12609 9.89952C4.95699 10.0697 4.95699 10.3459 5.12609 10.516L7.79526 13.2045C7.87979 13.2897 7.99056 13.3322 8.10131 13.3322C8.21206 13.3322 8.32283 13.2897 8.40736 13.2045C8.57646 13.0343 8.57646 12.7582 8.40736 12.588L6.47715 10.6438H14.5664C14.8054 10.6438 14.9993 10.4485 14.9993 10.2078C14.9993 9.96702 14.8054 9.77184 14.5664 9.77184Z" fill="black" stroke="black" stroke-width="0.465377"/>
</svg>
