<svg width="20" height="20" viewBox="0 0 20 20" fill="none" xmlns="http://www.w3.org/2000/svg">
<path fill-rule="evenodd" clip-rule="evenodd" d="M10 19C5.02944 19 1 14.9706 1 10C1 5.02944 5.02944 1 10 1C14.9706 1 19 5.02944 19 10C19 14.9706 14.9706 19 10 19ZM10 20C4.47715 20 0 15.5228 0 10C0 4.47715 4.47715 0 10 0C15.5228 0 20 4.47715 20 10C20 15.5228 15.5228 20 10 20Z" fill="black"/>
<path fill-rule="evenodd" clip-rule="evenodd" d="M5.43216 9.77184H13.5214L11.5912 7.82769C11.4221 7.65748 11.4221 7.38137 11.5912 7.21119C11.7603 7.04088 12.0344 7.04088 12.2033 7.21119L14.8724 9.89952C15.0415 10.0697 15.0415 10.3459 14.8724 10.516L12.2033 13.2045C12.1187 13.2897 12.008 13.3322 11.8972 13.3322C11.7865 13.3322 11.6757 13.2897 11.5912 13.2045C11.4221 13.0343 11.4221 12.7582 11.5912 12.588L13.5214 10.6438H5.43216C5.19312 10.6438 4.99927 10.4485 4.99927 10.2078C4.99927 9.96702 5.19309 9.77184 5.43216 9.77184Z" fill="black" stroke="black" stroke-width="0.465377"/>
</svg>
