<svg width="24" height="20" viewBox="0 0 24 20" fill="none" xmlns="http://www.w3.org/2000/svg">
<path fill-rule="evenodd" clip-rule="evenodd" d="M14.2026 2.24612C13.0475 2.24612 12.1685 2.48504 10.5543 4.65315C9.12947 6.56753 6.62073 8.03332 6.0519 8.35014C6.844 7.94411 7.89208 7.97716 8.97925 8.77305C9.72113 9.31585 9.86272 10.3262 9.72103 11.0872C9.20127 11.8813 8.7941 12.4594 8.7654 12.5001L8.76398 12.5022L8.78252 12.4984C8.97674 12.2874 9.16921 12.0994 9.36028 11.9315C9.24619 12.0771 9.11217 12.2694 8.97081 12.4925C8.97021 12.4937 8.96955 12.4944 8.96955 12.4944L8.97925 12.5L8.98133 12.4979L8.98432 12.4948L8.98551 12.4936L8.98842 12.4906C10.5141 10.8807 11.9334 10.6286 13.4141 10.3657C13.7004 10.3148 13.9889 10.2636 14.2809 10.2021C14.7922 10.0948 15.2082 9.92823 15.5431 9.74427C15.2754 9.63882 14.8987 9.50726 14.518 9.42921L14.4436 9.41424C14.0361 9.33254 13.4722 9.21949 13.0914 8.87284C13.457 9.11291 13.9233 9.20437 14.274 9.27317L14.3489 9.28793C14.7297 9.36369 15.1068 9.49225 15.3739 9.59536C15.6036 9.68385 15.7523 9.75302 15.7523 9.75302C15.7523 9.75302 15.5423 9.77553 15.2318 9.94461C15.0811 10.0269 15.0123 10.1625 14.9397 10.3057C14.8627 10.4576 14.7813 10.618 14.5933 10.7325C14.5933 10.7325 14.163 10.5876 13.9379 10.7122C13.9379 10.7122 13.415 10.8527 13.6798 12.0259C13.6798 12.0259 14.2546 11.5687 14.6679 11.5405C14.6679 11.5405 16.1227 10.355 16.6904 10.0846C16.6904 10.0846 16.8963 9.89204 16.9612 9.5176C16.9808 9.53074 16.9913 9.53751 16.9913 9.53751C16.9894 9.58129 16.9852 9.62286 16.98 9.66267C17.471 9.58886 17.9225 9.58403 18.0438 9.58442C18.0264 9.63226 17.9715 9.8093 17.9798 10.0971C17.9848 10.2624 18.079 10.3857 18.1785 10.5158C18.2838 10.6537 18.3952 10.7993 18.4126 11.0111C18.4126 11.0111 18.071 11.2985 18.0804 11.5461C18.0804 11.5461 17.9624 12.0489 19.1874 12.4002C19.1874 12.4002 19.0337 11.6999 19.2043 11.3423C19.2043 11.3423 18.8401 9.77263 18.8091 9.07933C18.8054 8.99626 18.7602 8.91984 18.6883 8.87201C18.5695 8.79338 18.367 8.66328 18.1016 8.50996C17.7538 8.40365 17.3491 8.25019 16.9729 8.03283C16.9904 7.99344 17.0079 7.95492 17.0254 7.91724C17.4406 7.02219 17.8699 6.59414 18.0851 6.42047C18.2615 6.60758 18.5257 6.72992 18.7473 6.83248C18.8274 6.86954 18.9022 6.90416 18.9649 6.93819C19.2259 7.07926 19.2608 7.26905 19.2985 7.47377L19.3004 7.48418C19.3385 7.69246 19.5896 7.72974 19.5896 7.72974C19.7519 7.7235 19.8522 7.59259 19.8522 7.59259C20.568 7.83009 20.6295 7.39243 20.6295 7.39243C20.6295 7.39243 20.5108 6.72547 20.5868 6.00041C20.6634 5.27488 20.9351 4.71672 20.9351 4.71672C20.9023 4.64101 20.7781 4.41053 20.7449 4.34916C20.7867 4.35967 20.8284 4.37247 20.87 4.38726C21.0297 4.44426 21.1872 4.53104 21.3338 4.63C21.6055 4.81295 21.9332 4.90725 22.259 4.86334C22.7985 4.79002 23.294 4.40273 23.4166 3.84873L23.4096 3.84454C23.1337 4.33457 22.5537 4.56553 22.0195 4.48762C21.6942 4.4405 21.4061 4.25993 21.1967 4.00882C20.9414 3.70306 20.6172 3.44324 20.2541 3.44324C20.1282 3.44324 19.9976 3.47446 19.8636 3.54583C19.7863 3.58737 19.7288 3.65783 19.7081 3.74279C19.6788 3.86134 19.6699 4.04749 19.7971 4.25518C19.817 4.2873 19.8418 4.31457 19.8701 4.33654C19.799 4.3173 19.7353 4.27247 19.6941 4.2062C19.5703 4.00604 19.579 3.82664 19.6075 3.71239C19.6276 3.63052 19.6835 3.56261 19.7587 3.52258C18.8753 3.40135 17.805 3.10906 16.8046 2.83589C16.6221 2.78606 16.442 2.73687 16.2657 2.68946C16.0667 2.60542 15.8495 2.53255 15.615 2.47318C15.5347 2.4544 15.457 2.43635 15.3813 2.41952C14.9085 2.31413 14.5017 2.24612 14.2026 2.24612ZM16.4278 8.93111L16.4204 8.94047C16.3894 8.91479 16.3578 8.88805 16.3256 8.8603C15.9628 8.54766 15.53 8.10637 15.254 7.59202C15.1254 7.35274 15.0203 7.12363 14.9244 6.91434C14.7035 6.43263 14.5308 6.05588 14.2293 5.90172C14.6416 5.9902 14.8345 6.42093 15.0937 6.99959C15.1896 7.21365 15.2946 7.44803 15.4231 7.69273C15.6823 8.18749 16.0797 8.61579 16.4278 8.93111Z" fill="black"/>
<path d="M5.87026 8.46228C5.86783 8.46356 5.86531 8.4649 5.86302 8.4665C5.86165 8.46737 5.86028 8.46823 5.85891 8.46869L5.82872 8.48567C5.79934 8.50221 5.77895 8.51369 5.7681 8.51945C5.76674 8.51992 5.76584 8.52072 5.76447 8.52125L5.75982 8.52384C5.75982 8.52384 5.70263 8.56097 5.61566 8.63199C5.68327 8.56049 5.7473 8.50034 5.8022 8.45221L5.79803 8.44752C5.23216 8.88469 4.65845 9.32648 4.00254 9.60604C3.34613 9.88561 2.58705 9.98923 1.92087 9.73408C1.70623 9.65199 1.50741 9.53341 1.32995 9.38658C1.33647 9.40531 1.34438 9.42358 1.35278 9.44192C1.49347 9.74674 1.79364 9.94512 2.09881 10.0803C2.94356 10.4542 3.94426 10.4439 4.78632 10.0664L4.7844 10.0928C4.76557 10.3811 4.82063 10.7036 4.99492 11.0547C5.17428 11.4165 5.35172 11.683 5.51588 11.893L5.51636 11.8939L5.53574 11.9186C5.57194 12.2108 5.63667 12.9079 5.46431 13.1433C5.37231 13.2691 5.16149 13.4446 4.94521 13.6247C4.643 13.8764 4.33012 14.137 4.31575 14.283C4.31454 14.2953 4.31433 14.3126 4.31504 14.3344C4.31067 14.4206 4.3422 14.6709 4.38909 14.9908C4.42236 15.2337 4.46316 15.5133 4.50364 15.7908C4.59406 16.4105 4.68291 17.0195 4.68291 17.1847C4.68291 17.5318 4.58515 18.1051 4.58515 18.1051C4.58515 18.1051 4.86185 18.2146 5.24077 18.2259C5.48969 18.2391 5.78639 18.2175 6.08338 18.1088C6.08338 18.1088 6.1708 17.5702 5.92691 17.3964C5.6831 17.2225 5.28604 16.7469 5.27762 16.2213C5.27161 15.8791 5.5504 15.2679 5.88597 14.778C5.87452 14.8389 5.87607 14.9065 5.89562 14.9966C5.94418 15.2193 6.52017 15.7913 7.06974 16.337C7.57827 16.8419 8.06417 17.3244 8.08861 17.4869C8.13959 17.8251 8.07172 18.0805 8.07172 18.0805C8.07172 18.0805 8.81092 18.4022 9.43148 18.0805C9.43148 18.0805 9.64378 17.6271 9.32965 17.454C9.01498 17.281 7.39161 16.1841 7.59567 15.0953C7.74696 14.2872 8.26382 13.2612 8.70777 12.5498C8.86184 12.3028 9.00721 12.0941 9.12552 11.9455C9.58456 11.3684 9.75246 9.64738 8.7174 8.87806C8.08648 8.40869 7.46912 8.20809 6.91005 8.20809C6.5333 8.20809 6.18301 8.29926 5.87316 8.46072L5.87026 8.46228Z" fill="black"/>
<path d="M2.30951 5.0636C2.39889 5.03977 2.48828 5.01595 2.57526 4.98423C2.7586 4.91741 2.93822 4.80671 3.02383 4.6316C3.12604 5.02371 3.03403 5.46171 2.78162 5.77939C2.71693 5.86103 2.64278 5.93454 2.56866 6.00802C2.48616 6.08979 2.40371 6.17153 2.33436 6.26442C2.2021 6.44077 2.12228 6.68333 2.21878 6.88131C2.29735 6.6871 2.48455 6.542 2.69216 6.51336C2.45326 6.71766 2.39068 7.05697 2.36317 7.36957C2.36091 7.39584 2.35875 7.42225 2.35659 7.44875C2.33298 7.73744 2.30856 8.03606 2.1453 8.27282C2.05186 8.40859 1.921 8.51079 1.78991 8.61317C1.72731 8.66205 1.66467 8.71098 1.60602 8.76361C1.42454 8.92604 1.19054 9.16534 1.25189 9.40085C1.07867 9.07554 1.18627 8.65416 1.40028 8.35433C1.46708 8.26085 1.55068 8.17744 1.63386 8.09446C1.78061 7.94805 1.92601 7.80298 1.97533 7.60635C2.01813 7.43577 1.97788 7.25619 1.92612 7.08815C1.91635 7.0564 1.9061 7.02469 1.89584 6.99296C1.85181 6.85678 1.80764 6.72017 1.80088 6.57763C1.79261 6.4019 1.85333 6.21031 2.00152 6.11547C1.74849 6.1689 1.56894 6.40252 1.48913 6.64768C1.43149 6.82601 1.41543 7.0135 1.39938 7.20101C1.39338 7.27113 1.38737 7.34126 1.37919 7.41091C1.34914 7.66685 1.28146 7.93289 1.1006 8.11693C1.18179 7.97808 1.14533 7.79733 1.06358 7.65854C1.00984 7.56851 0.93952 7.49036 0.86912 7.41212C0.83153 7.37035 0.793917 7.32854 0.758792 7.28489C0.657194 7.16012 0.572898 7.00732 0.58689 6.8469C0.321181 7.19768 0.35847 7.69233 0.457242 8.11054C0.581373 8.63589 0.71013 8.98098 1.06096 9.40085C0.590679 8.96036 0.0897962 8.29768 0.0834551 7.65469L0.0833168 7.63567V7.62366C0.0851088 6.99111 0.350886 6.36345 0.804144 5.92065C0.721775 6.04158 0.635479 6.17275 0.634861 6.31854C0.634243 6.46495 0.762647 6.62028 0.90636 6.59041C0.986867 6.57317 1.04759 6.50382 1.08019 6.428C1.10526 6.3698 1.11672 6.30742 1.1282 6.24492C1.13164 6.22614 1.13509 6.20736 1.13891 6.18867C1.23293 5.72713 1.57473 5.32354 2.01558 5.15358C2.11133 5.11642 2.21041 5.09001 2.30951 5.0636Z" fill="black"/>
</svg>
