<svg width="20" height="20" viewBox="0 0 20 20" fill="none" xmlns="http://www.w3.org/2000/svg">
<path d="M15.6025 4.00001C14.8312 3.99723 14.2049 4.6333 14.2022 5.41658C14.2022 5.786 14.3417 6.14153 14.596 6.4054L12.0389 11.6023C11.9842 11.5939 11.9267 11.5856 11.8693 11.5856C11.6888 11.5856 11.5083 11.6217 11.3415 11.6912L9.35593 9.42187C9.4708 9.21355 9.5337 8.98023 9.53643 8.73858C9.53643 7.95252 8.91014 7.31645 8.13616 7.31645C7.36218 7.31645 6.73589 7.95252 6.73589 8.73858C6.73862 9.07745 6.85896 9.4052 7.08048 9.66074L4.64915 13.9799C4.5671 13.9632 4.48232 13.9549 4.40027 13.9549C3.62629 13.9549 3 14.591 3 15.377C3 16.1631 3.62629 16.7992 4.40027 16.7992C5.17425 16.7992 5.80055 16.1631 5.80055 15.377C5.79781 15.0382 5.67748 14.7104 5.45595 14.4549L7.88455 10.1357C8.14436 10.1885 8.41512 10.1607 8.65853 10.0552L10.6441 12.3245C10.5292 12.5328 10.469 12.7689 10.4663 13.0077C10.4636 13.7938 11.0899 14.4326 11.8611 14.4354C12.6351 14.4382 13.2641 13.8021 13.2668 13.0188C13.2668 12.6494 13.1274 12.2911 12.873 12.0245L15.4302 6.8276C15.4849 6.83593 15.5423 6.84426 15.5997 6.84426C16.3737 6.84426 17 6.20819 17 5.42214C17 4.63608 16.3764 4.00001 15.6025 4.00001Z" fill="black"/>
</svg>
