<svg width="20" height="20" viewBox="0 0 20 20" fill="none" xmlns="http://www.w3.org/2000/svg">
<path fill-rule="evenodd" clip-rule="evenodd" d="M4.6464 4.6465C4.84163 4.45121 5.15821 4.45116 5.3535 4.6464L10 9.29157L14.6465 4.6464C14.8418 4.45116 15.1584 4.45121 15.3536 4.6465C15.5488 4.84179 15.5488 5.15837 15.3535 5.3536L10.7072 9.99858L15.3535 14.6436C15.5488 14.8388 15.5488 15.1554 15.3536 15.3507C15.1584 15.546 14.8418 15.546 14.6465 15.3508L10 10.7056L5.3535 15.3508C5.15821 15.546 4.84163 15.546 4.6464 15.3507C4.45116 15.1554 4.45121 14.8388 4.6465 14.6436L9.29279 9.99858L4.6465 5.3536C4.45121 5.15837 4.45116 4.84179 4.6464 4.6465Z" fill="black"/>
</svg>
