<svg width="20" height="20" viewBox="0 0 20 20" fill="none" xmlns="http://www.w3.org/2000/svg">
<path fill-rule="evenodd" clip-rule="evenodd" d="M11.5709 5.07032C12.0162 4.62513 12.6202 4.37504 13.2499 4.37504C13.8798 4.37504 14.4839 4.62527 14.9293 5.07068C15.3748 5.51609 15.625 6.1202 15.625 6.75011C15.625 7.37978 15.3749 7.98367 14.9298 8.42904C14.9297 8.4292 14.9295 8.42937 14.9293 8.42953L13.8612 9.50151C13.837 9.53953 13.8084 9.57551 13.7752 9.60869C13.7426 9.64132 13.7072 9.66959 13.6699 9.69349L7.9427 15.4412C7.82543 15.5589 7.66612 15.625 7.49997 15.625H4.99999C4.65482 15.625 4.375 15.3452 4.375 15V12.5001C4.375 12.3339 4.44115 12.1746 4.55885 12.0573L10.3065 6.33013C10.3304 6.29281 10.3587 6.25747 10.3913 6.22484C10.4245 6.19166 10.4605 6.16299 10.4985 6.13883L11.5705 5.07068C11.5706 5.07056 11.5707 5.07044 11.5709 5.07032ZM10.8429 7.56028L5.62499 12.7596V14.375H7.24044L12.4397 9.15712L10.8429 7.56028ZM13.322 8.27167L11.7284 6.67798L12.4536 5.95534L12.4544 5.95456C12.6654 5.74356 12.9515 5.62503 13.2499 5.62503C13.5483 5.62503 13.8345 5.74356 14.0455 5.95456C14.2565 6.16555 14.375 6.45172 14.375 6.75011C14.375 7.0485 14.2565 7.33466 14.0455 7.54566L14.0447 7.54645L13.322 8.27167Z" fill="black"/>
</svg>
