<svg width="20" height="20" viewBox="0 0 20 20" fill="none" xmlns="http://www.w3.org/2000/svg">
<g clip-path="url(#clip0_549_38494)">
<path d="M3.33377 7.56106H7.56155V3.33328H13.3338V7.98883H14.4449V3.33328C14.4449 3.03859 14.3278 2.75598 14.1194 2.5476C13.9111 2.33923 13.6285 2.22217 13.3338 2.22217H6.03932L2.22266 6.03883V16.6666C2.22266 16.9613 2.33972 17.2439 2.54809 17.4523C2.75647 17.6607 3.03908 17.7777 3.33377 17.7777H13.3338C13.6285 17.7777 13.9111 17.6607 14.1194 17.4523C14.3278 17.2439 14.4449 16.9613 14.4449 16.6666H3.33377V7.56106ZM3.33377 6.49439L6.49488 3.33328H6.6671V6.66661H3.33377V6.49439Z" fill="black"/>
<path d="M15.7342 9.08329C15.6279 8.99228 15.4912 8.94472 15.3514 8.95012C15.2116 8.95552 15.0789 9.01348 14.98 9.11243C14.8811 9.21137 14.8231 9.344 14.8177 9.48382C14.8123 9.62364 14.8599 9.76035 14.9509 9.86663L16.7564 11.6666H10.0009C9.85353 11.6666 9.71222 11.7252 9.60803 11.8293C9.50384 11.9335 9.44531 12.0748 9.44531 12.2222C9.44531 12.3695 9.50384 12.5108 9.60803 12.615C9.71222 12.7192 9.85353 12.7777 10.0009 12.7777H16.7731L14.9509 14.6C14.8927 14.6498 14.8455 14.7111 14.8121 14.78C14.7788 14.8489 14.76 14.924 14.7571 15.0005C14.7541 15.077 14.767 15.1533 14.795 15.2246C14.8229 15.2959 14.8653 15.3606 14.9194 15.4148C14.9735 15.4689 15.0383 15.5113 15.1096 15.5392C15.1809 15.5671 15.2572 15.58 15.3337 15.5771C15.4102 15.5741 15.4853 15.5554 15.5542 15.522C15.6231 15.4887 15.6844 15.4415 15.7342 15.3833L18.8898 12.2222L15.7342 9.08329Z" fill="black"/>
</g>
<defs>
<clipPath id="clip0_549_38494">
<rect width="20" height="20" fill="white"/>
</clipPath>
</defs>
</svg>
