<svg width="20" height="20" viewBox="0 0 20 20" fill="none" xmlns="http://www.w3.org/2000/svg">
<g clip-path="url(#clip0_421_57864)">
<g clip-path="url(#clip1_421_57864)">
<path d="M9.42667 2.17707C9.42667 2.5104 9.66729 2.78092 9.96376 2.78092C10.2602 2.78092 10.5008 2.5104 10.5008 2.17707V0.601412C10.5008 0.268085 10.2602 -0.00244141 9.96376 -0.00244141C9.66729 -0.00244141 9.42667 0.268085 9.42667 0.601412V2.17707Z" fill="black"/>
<path d="M14.6025 4.65209C14.7113 4.76556 14.8543 4.82191 14.9973 4.82191C15.1403 4.82191 15.2833 4.76479 15.3928 4.65209L16.4236 3.5838C16.6418 3.35764 16.6418 2.991 16.4236 2.76484C16.2053 2.53867 15.8516 2.53867 15.6333 2.76484L14.6025 3.83312C14.3843 4.05928 14.3843 4.42593 14.6025 4.65209Z" fill="black"/>
<path d="M18.5119 10.0176H16.9917C16.6701 10.0176 16.4091 9.76817 16.4091 9.46089C16.4091 9.1536 16.6701 8.90422 16.9917 8.90422H18.5119C18.8335 8.90422 19.0945 9.1536 19.0945 9.46089C19.0945 9.76817 18.8335 10.0176 18.5119 10.0176Z" fill="black"/>
<path d="M15.6333 16.1572C15.7421 16.2707 15.8851 16.327 16.0281 16.327C16.1711 16.327 16.3141 16.2707 16.4236 16.1572C16.6418 15.9311 16.6418 15.5644 16.4236 15.3383L15.3928 14.27C15.1745 14.0438 14.8208 14.0438 14.6025 14.27C14.3843 14.4961 14.3843 14.8628 14.6025 15.0889L15.6333 16.1572Z" fill="black"/>
<path d="M3.89865 16.327C3.75566 16.327 3.61266 16.2707 3.50392 16.1572C3.28569 15.9311 3.28569 15.5644 3.50392 15.3383L4.5347 14.27C4.75293 14.0438 5.1067 14.0438 5.32492 14.27C5.54315 14.4961 5.54315 14.8628 5.32492 15.0889L4.29414 16.1572C4.18465 16.2707 4.04165 16.327 3.89865 16.327Z" fill="black"/>
<path d="M1.41594 10.0176H2.93615C3.25775 10.0176 3.51876 9.76817 3.51876 9.46089C3.51876 9.1536 3.25775 8.90422 2.93615 8.90422H1.41594C1.09434 8.90422 0.833332 9.1536 0.833332 9.46089C0.833332 9.76817 1.09434 10.0176 1.41594 10.0176Z" fill="black"/>
<path d="M4.92944 4.82191C4.78644 4.82191 4.64344 4.76556 4.5347 4.65209L3.50392 3.5838C3.28569 3.35764 3.28569 2.991 3.50392 2.76484C3.72214 2.53867 4.07591 2.53867 4.29414 2.76484L5.32492 3.83312C5.54315 4.05928 5.54315 4.42593 5.32492 4.65209C5.2147 4.76479 5.07244 4.82191 4.92944 4.82191Z" fill="black"/>
<path d="M9.25551 6.97347H9.00689V8.36507H8.60827V10.4266H9.00689V11.9726H9.25551V10.4266H9.60275V8.36507H9.25551V6.97347Z" fill="black"/>
<path d="M7.41553 7.74627H7.66415V8.77699H7.96212V10.6323H7.66415V11.457H7.41553V10.6323H7.01736V8.77699H7.41553V7.74627Z" fill="black"/>
<path d="M12.4875 7.74668H12.2389V8.36502H11.8403V10.4265H12.2389V11.4574H12.4875V10.4265H12.8347V8.36502H12.4875V7.74668Z" fill="black"/>
<path d="M10.5833 5.9427H10.832V7.48879H11.1945V9.34413H10.832V11.1995H10.5833V9.34413H10.2498V7.48879H10.5833V5.9427Z" fill="black"/>
<path fill-rule="evenodd" clip-rule="evenodd" d="M10.8237 17.4475H8.97344C8.34953 17.4475 7.67826 16.9954 7.67826 16.0034V14.7572C7.67826 14.0076 7.34374 13.3194 6.78348 12.9167C5.16636 11.7545 4.41811 9.84273 4.83035 7.9274C5.23371 6.05094 6.82418 4.52701 8.78767 4.1349C10.3493 3.82122 11.9464 4.18436 13.1646 5.12966C14.3814 6.07354 15.0793 7.47312 15.0793 8.96949C15.0793 10.4941 14.3577 11.9092 13.0995 12.8538C12.4763 13.3215 12.1189 13.9729 12.1189 14.6406V16.2111C12.1189 16.8929 11.5379 17.4475 10.8237 17.4475ZM9.92424 4.89427C9.61433 4.89427 9.30205 4.92547 8.98977 4.98787C7.34851 5.31813 6.01954 6.60264 5.68196 8.18469C5.33489 9.81088 5.96262 11.4333 7.32005 12.4172C8.2142 13.0655 8.74864 14.1476 8.74864 15.3119V16.6543C8.74864 16.7235 8.75812 17.0682 8.94628 17.0682H10.9227C11.0318 17.0682 11.1204 16.983 11.1204 16.878V15.1863C11.1204 14.1141 11.6675 13.0861 12.6209 12.3639C13.6779 11.5649 14.2835 10.3671 14.2835 9.07807C14.2835 7.81182 13.6969 6.62699 12.6755 5.82798C11.8944 5.21768 10.9259 4.89427 9.92424 4.89427Z" fill="black"/>
<path d="M8.62089 19.1968C8.38856 19.1968 8.2 18.9475 8.2 18.6402C8.2 18.3329 8.38856 18.0835 8.62089 18.0835H11.1463C11.3786 18.0835 11.5671 18.3329 11.5671 18.6402C11.5671 18.9475 11.3786 19.1968 11.1463 19.1968H10.9706C10.9832 19.2387 10.9899 19.282 10.9899 19.3263C10.9899 19.697 10.4222 20 9.85 20C9.27781 20 8.78933 19.697 8.78933 19.3263C8.78933 19.282 8.79595 19.2387 8.80859 19.1968H8.62089Z" fill="black"/>
</g>
</g>
<defs>
<clipPath id="clip0_421_57864">
<rect width="20" height="20" fill="white"/>
</clipPath>
<clipPath id="clip1_421_57864">
<rect width="20" height="20" fill="white"/>
</clipPath>
</defs>
</svg>
