<svg width="18" height="16" viewBox="0 0 18 16" fill="none" xmlns="http://www.w3.org/2000/svg">
<path d="M11.427 12.6899C11.3588 12.6607 11.3006 12.6122 11.2596 12.5503C11.2183 12.488 11.1962 12.415 11.1961 12.3403V12.3402V10.2619H10.9465C10.9238 11.1116 10.0864 11.7665 9.09825 11.7665H6.30421V13.609V13.6093C6.30394 13.6833 6.2823 13.7556 6.24189 13.8176C6.20148 13.8795 6.14403 13.9285 6.07644 13.9586L6.07593 13.9588C6.02772 13.9799 5.97553 13.9905 5.9229 13.9897M11.427 12.6899C11.4265 12.6897 11.4261 12.6895 11.4257 12.6893L11.4674 12.5984L11.4284 12.6905C11.4279 12.6903 11.4275 12.6901 11.427 12.6899ZM11.427 12.6899C11.4744 12.7114 11.526 12.722 11.578 12.7209C11.6733 12.7208 11.7652 12.6859 11.8367 12.6229L11.8367 12.6229L11.8387 12.6211L14.3727 10.2619H15.0968C16.1828 10.2619 17.1 9.5327 17.1 8.59554V3.67474C17.1 2.74029 16.1826 2.01121 15.0968 2.01121H8.05965C6.97385 2.01121 6.05649 2.74029 6.05649 3.67474V4.24563H2.74877C1.74694 4.24563 0.9 4.91877 0.9 5.78566V10.2264C0.9 11.0933 1.74694 11.7665 2.74877 11.7665H3.3887L5.66361 13.8862C5.66376 13.8864 5.66391 13.8865 5.66406 13.8867C5.73387 13.953 5.82659 13.9899 5.9229 13.9897M5.9229 13.9897C5.92249 13.9897 5.92209 13.9897 5.92168 13.9897L5.92351 13.8897L5.92409 13.9897C5.92369 13.9897 5.9233 13.9897 5.9229 13.9897ZM13.9633 9.59909L13.9633 9.5991C14.0341 9.53542 14.126 9.50028 14.2212 9.50047M13.9633 9.59909L11.8575 9.88118C11.8579 9.84421 11.8509 9.80754 11.8369 9.77331C11.823 9.73909 11.8023 9.70799 11.7762 9.68185C11.75 9.65571 11.7189 9.63505 11.6847 9.62107C11.6505 9.6071 11.6138 9.6001 11.5768 9.60047V9.50047H11.5764H8.05965C7.7102 9.50047 7.39625 9.39338 7.17188 9.22534C6.94743 9.05724 6.81789 8.83322 6.81789 8.59554V3.67474C6.81789 3.43714 6.94736 3.21385 7.17173 3.04646C7.39606 2.8791 7.71006 2.77262 8.05965 2.77262H15.0968C15.4464 2.77262 15.7604 2.8791 15.9848 3.04646C16.2091 3.21385 16.3386 3.43714 16.3386 3.67474V8.59554C16.3386 8.83322 16.2091 9.05724 15.9846 9.22534C15.7602 9.39338 15.4463 9.50047 15.0968 9.50047H14.2212M13.9633 9.59909L13.962 9.60028L11.9575 11.4675V9.88158L13.9633 9.59909ZM14.2212 9.50047L14.2211 9.60047V9.50047H14.2212ZM11.5768 12.6209C11.6482 12.621 11.7171 12.5951 11.7705 12.5479L11.5768 12.6209ZM3.53789 11.0051H3.53754H2.74877C2.44101 11.0051 2.16549 10.9125 1.96926 10.7674C1.77299 10.6224 1.6614 10.43 1.6614 10.2264V5.78566C1.6614 5.58357 1.77289 5.39116 1.96934 5.24566C2.16566 5.10026 2.44117 5.00705 2.74877 5.00705H6.05649V8.59554C6.05649 9.5327 6.97372 10.2619 8.05965 10.2619H10.1844C10.1718 10.4476 10.0604 10.6262 9.87355 10.7643C9.67534 10.9108 9.39963 11.0051 9.09825 11.0051H5.92351C5.82254 11.0051 5.72571 11.0452 5.65431 11.1166C5.58292 11.188 5.54281 11.2848 5.54281 11.3858V12.7336L3.79677 11.1079L3.72842 11.1809L3.79657 11.1077L3.79675 11.1078C3.72655 11.0421 3.63406 11.0054 3.53789 11.0051Z" fill="black" stroke="black" stroke-width="0.2"/>
<ellipse cx="9.88172" cy="6.03602" rx="0.561404" ry="0.561414" fill="black"/>
<ellipse cx="11.7528" cy="6.03602" rx="0.561404" ry="0.561414" fill="black"/>
<ellipse cx="13.6239" cy="6.03602" rx="0.561404" ry="0.561414" fill="black"/>
</svg>
