<svg width="20" height="20" viewBox="0 0 20 20" fill="none" xmlns="http://www.w3.org/2000/svg">
<path d="M10.0001 14.6733C10.9387 14.6733 11.6995 13.9271 11.6995 13.0067C11.6995 12.0862 10.9387 11.34 10.0001 11.34C9.0616 11.34 8.30078 12.0862 8.30078 13.0067C8.30078 13.9271 9.0616 14.6733 10.0001 14.6733Z" fill="#ED193B"/>
<path fill-rule="evenodd" clip-rule="evenodd" d="M5.92163 8V6C5.92163 3.79395 7.75075 2 10.0001 2C12.2494 2 14.0785 3.79395 14.0785 6V8H14.5882C15.4311 8 16.1176 8.67261 16.1176 9.5V16.5C16.1176 17.3274 15.4311 18 14.5882 18H5.41174C4.56887 18 3.88232 17.3274 3.88232 16.5V9.5C3.88232 8.67261 4.56887 8 5.41174 8H5.92163ZM5.41174 9C5.13095 9 4.90193 9.224 4.90193 9.5V16.5C4.90193 16.776 5.13095 17 5.41174 17H14.5882C14.869 17 15.098 16.776 15.098 16.5V9.5C15.098 9.224 14.869 9 14.5882 9H5.41174ZM6.94124 8H13.0589V6C13.0589 4.34595 11.6865 3 10.0001 3C8.31358 3 6.94124 4.34595 6.94124 6V8Z" fill="#666666"/>
</svg>
