<svg width="40" height="40" viewBox="0 0 40 40" fill="none" xmlns="http://www.w3.org/2000/svg">
<g clip-path="url(#clip0_11112_105799)">
<circle cx="20" cy="20" r="20" fill="#FF9F00"/>
<path d="M13.9422 24.6757C14.7225 24.6757 15.4708 24.9857 16.0226 25.5374C16.5743 26.0892 16.8843 26.8375 16.8843 27.6178C16.8843 29.2104 15.5617 30.56 13.9422 30.56C12.3496 30.56 11 29.2104 11 27.6178C11 26.8375 11.31 26.0892 11.8617 25.5374C12.4135 24.9857 13.1619 24.6757 13.9422 24.6757ZM11 9.56C16.5695 9.56 21.911 11.7725 25.8492 15.7108C29.7875 19.649 32 24.9905 32 30.56H28.1806C28.1806 26.0034 26.3705 21.6335 23.1485 18.4115C19.9265 15.1895 15.5566 13.3794 11 13.3794V9.56ZM11 17.1988C14.5436 17.1988 17.9421 18.6065 20.4478 21.1122C22.9535 23.6179 24.3612 27.0164 24.3612 30.56H20.5418C20.5418 28.0294 19.5365 25.6024 17.7471 23.8129C15.9576 22.0235 13.5306 21.0182 11 21.0182V17.1988Z" fill="white"/>
</g>
<defs>
<clipPath id="clip0_11112_105799">
<rect width="40" height="40" rx="20" fill="white"/>
</clipPath>
</defs>
</svg>
