<svg width="20" height="20" viewBox="0 0 20 20" fill="none" xmlns="http://www.w3.org/2000/svg">
<g clip-path="url(#clip0_421_57858)">
<path fill-rule="evenodd" clip-rule="evenodd" d="M19.5935 10.824C19.5974 10.7146 19.5993 10.6046 19.5993 10.4943C19.5993 10.3839 19.5974 10.274 19.5935 10.1646L17.6275 10.2309C17.6306 10.3183 17.6321 10.4061 17.6321 10.4943C17.6321 10.5825 17.6306 10.6703 17.6275 10.7576L19.5935 10.824ZM0.402935 10.824C0.399105 10.7146 0.397175 10.6046 0.397175 10.4943C0.397175 10.3839 0.399105 10.274 0.402935 10.1646L2.36899 10.2309C2.36593 10.3183 2.36439 10.4061 2.36439 10.4943C2.36439 10.5825 2.36593 10.6703 2.36899 10.7576L0.402935 10.824ZM0.489521 9.18134L2.43791 9.44797C2.46256 9.27426 2.49325 9.10258 2.52975 8.93313L0.605144 8.5332C0.559157 8.74667 0.520525 8.96281 0.489521 9.18134ZM0.864742 7.57958L2.73575 8.17637C2.79071 8.01017 2.85144 7.8465 2.91772 7.68558L1.09405 6.96109C1.01055 7.16385 0.934012 7.37011 0.864742 7.57958ZM1.51939 6.0669L3.25548 6.97552C3.33914 6.82134 3.42815 6.67032 3.5223 6.52268L1.85506 5.4972C1.73667 5.68286 1.62467 5.87286 1.51939 6.0669ZM2.43227 4.68917L3.98154 5.87981C4.09121 5.74216 4.20569 5.60833 4.32474 5.47859L2.86333 4.18523C2.71383 4.34817 2.57004 4.51625 2.43227 4.68917ZM3.57405 3.48733L4.89072 4.92281C5.02284 4.80591 5.15912 4.6935 5.2993 4.58581L4.08723 3.06405C3.91113 3.19934 3.73997 3.34053 3.57405 3.48733ZM4.91004 2.49728L5.95396 4.13486C6.1043 4.04241 6.25809 3.95501 6.41509 3.87286L5.49017 2.16769C5.29258 2.27107 5.0991 2.38103 4.91004 2.49728ZM6.40068 1.75006L7.13816 3.54121C7.30203 3.47613 7.46869 3.4165 7.63793 3.36253L7.03045 1.52491C6.81716 1.59293 6.60714 1.66807 6.40068 1.75006ZM8.00145 1.27003L8.40853 3.16026C8.58109 3.12441 8.75591 3.09428 8.93279 3.07008L8.66139 1.15651C8.43888 1.18695 8.21881 1.22488 8.00145 1.27003ZM9.66253 1.0715L9.73009 3.00241C9.81901 2.9994 9.90841 2.99789 9.99824 2.99789C10.0881 2.99789 10.1775 2.9994 10.2664 3.00241L10.3339 1.0715C10.2225 1.06774 10.1106 1.06584 9.99824 1.06584C9.88588 1.06584 9.77396 1.06774 9.66253 1.0715ZM11.3351 1.15651L11.0637 3.07008C11.2406 3.09428 11.4154 3.12441 11.5879 3.16026L11.995 1.27003C11.7777 1.22488 11.5576 1.18695 11.3351 1.15651ZM12.966 1.52491L12.3585 3.36253C12.5278 3.4165 12.6945 3.47613 12.8583 3.54121L13.5958 1.75006C13.3893 1.66807 13.1793 1.59293 12.966 1.52491ZM14.5063 2.16769L13.5814 3.87286C13.7384 3.95501 13.8922 4.04241 14.0425 4.13486L15.0864 2.49728C14.8974 2.38103 14.7039 2.27107 14.5063 2.16769ZM15.9093 3.06405L14.6972 4.58581C14.8374 4.6935 14.9736 4.80591 15.1058 4.92281L16.4224 3.48733C16.2565 3.34053 16.0854 3.19934 15.9093 3.06405ZM17.1332 4.18523L15.6717 5.47859C15.7908 5.60833 15.9053 5.74216 16.0149 5.87981L17.5642 4.68917C17.4264 4.51625 17.2826 4.34817 17.1332 4.18523ZM18.1414 5.49719L16.4742 6.52268C16.5683 6.67032 16.6573 6.82134 16.741 6.97552L18.4771 6.0669C18.3718 5.87286 18.2598 5.68286 18.1414 5.49719ZM18.9024 6.96109L17.0788 7.68558C17.145 7.8465 17.2058 8.01017 17.2607 8.17637L19.1317 7.57958C19.0625 7.37011 18.9859 7.16385 18.9024 6.96109ZM19.3913 8.5332L17.4667 8.93313C17.5032 9.10258 17.5339 9.27426 17.5586 9.44797L19.507 9.18134C19.476 8.96281 19.4373 8.74667 19.3913 8.5332Z" fill="black"/>
<path d="M9.58183 11.3434L8.506 10.1898L12.3832 4.40702L11.1254 10.9567L9.58183 11.3434Z" fill="black"/>
<path d="M2.6325 17.7576C2.6325 17.5407 2.80834 17.3649 3.02524 17.3649H4.33679V15.0329H6.304V17.3649H6.96011V12.5557H8.92732V17.3649H10.2385V14.0419H12.2057V17.3649H12.8614V11.565H14.8286V17.3649H16.14C16.3569 17.3649 16.5327 17.5407 16.5327 17.7576C16.5327 17.9745 16.3569 18.1504 16.14 18.1504H3.02524C2.80834 18.1504 2.6325 17.9745 2.6325 17.7576Z" fill="black"/>
</g>
<defs>
<clipPath id="clip0_421_57858">
<rect width="20" height="20" fill="white"/>
</clipPath>
</defs>
</svg>
