<svg width="20" height="20" viewBox="0 0 20 20" fill="none" xmlns="http://www.w3.org/2000/svg">
<path fill-rule="evenodd" clip-rule="evenodd" d="M3.47054 5.96804C3.87687 5.56171 4.42797 5.33344 5.0026 5.33344H5.83594C6.11208 5.33344 6.33594 5.55729 6.33594 5.83344C6.33594 6.10958 6.11208 6.33344 5.83594 6.33344H5.0026C4.69318 6.33344 4.39644 6.45635 4.17765 6.67514C3.95885 6.89394 3.83594 7.19068 3.83594 7.5001V15.0001C3.83594 15.3095 3.95885 15.6063 4.17765 15.8251C4.39644 16.0438 4.69318 16.1668 5.0026 16.1668H12.5026C12.812 16.1668 13.1088 16.0438 13.3276 15.8251C13.5464 15.6063 13.6693 15.3095 13.6693 15.0001V14.1668C13.6693 13.8906 13.8931 13.6668 14.1693 13.6668C14.4454 13.6668 14.6693 13.8906 14.6693 14.1668V15.0001C14.6693 15.5747 14.441 16.1258 14.0347 16.5322C13.6283 16.9385 13.0772 17.1668 12.5026 17.1668H5.0026C4.42797 17.1668 3.87687 16.9385 3.47054 16.5322C3.06421 16.1258 2.83594 15.5747 2.83594 15.0001V7.5001C2.83594 6.92547 3.06421 6.37437 3.47054 5.96804Z" fill="black"/>
<path fill-rule="evenodd" clip-rule="evenodd" d="M14.1593 2.65866C14.5813 2.23692 15.1534 2 15.75 2C16.3468 2 16.9191 2.23706 17.3411 2.65904C17.763 3.08101 18.0001 3.65333 18.0001 4.25009C18.0001 4.84674 17.7631 5.41895 17.3413 5.8409L16.2625 6.92359C16.2418 6.95807 16.2166 6.99059 16.1869 7.02031C16.1576 7.04958 16.1256 7.07447 16.0917 7.09496L10.3542 12.853C10.2604 12.9472 10.1329 13.0001 10 13.0001H7.5C7.22386 13.0001 7 12.7762 7 12.5001V10.0001C7 9.86717 7.05292 9.73972 7.14708 9.6459L12.9051 3.90839C12.9256 3.87448 12.9505 3.84248 12.9798 3.8132C13.0095 3.78349 13.042 3.75829 13.0765 3.73762L14.1593 2.65866ZM13.3431 4.88365L8 10.2077V12.0001H9.79237L15.1164 6.65697L13.3431 4.88365ZM15.8223 5.9486L14.0515 4.1778L14.8654 3.36677C15.0999 3.13234 15.4185 3 15.75 3C16.0815 3 16.3995 3.13171 16.6339 3.36614C16.8684 3.60058 17.0001 3.91854 17.0001 4.25009C17.0001 4.58163 16.8684 4.8996 16.6339 5.13404L15.8223 5.9486Z" fill="black"/>
</svg>
