<svg width="16" height="16" viewBox="0 0 16 16" fill="none" xmlns="http://www.w3.org/2000/svg">
<path fill-rule="evenodd" clip-rule="evenodd" d="M1.6292 3C0.729419 3 0 3.72942 0 4.6292V11.5804C0 12.4801 0.729419 13.2096 1.6292 13.2096H3.36728C3.8196 13.2096 4.22886 13.0252 4.52406 12.7276C4.81925 13.0252 5.22852 13.2096 5.68083 13.2096H14.3708C15.2706 13.2096 16 12.4801 16 11.5804V4.6292C16 3.72942 15.2706 3 14.3708 3H5.68084C5.22852 3 4.81925 3.18433 4.52406 3.48196C4.22886 3.18433 3.8196 3 3.36728 3H1.6292ZM4.05527 4.6292V5.20842H4.99285V4.6292C4.99285 4.24924 5.30087 3.94121 5.68084 3.94121H14.3708C14.7508 3.94121 15.0588 4.24924 15.0588 4.6292V11.5804C15.0588 11.9603 14.7508 12.2683 14.3708 12.2683H5.68083C5.30087 12.2683 4.99285 11.9603 4.99285 11.5804V11.0011H4.05527V11.5804C4.05527 11.9603 3.74724 12.2683 3.36728 12.2683H1.6292C1.24924 12.2683 0.941214 11.9603 0.941214 11.5804V4.6292C0.941214 4.24924 1.24924 3.94121 1.6292 3.94121H3.36728C3.74724 3.94121 4.05527 4.24924 4.05527 4.6292Z" fill="black"/>
<path fill-rule="evenodd" clip-rule="evenodd" d="M4.13604 7.61555V5.97806H4.90844V7.61555H4.13604ZM4.13604 10.2321V8.585H4.90844V10.2321H4.13604Z" fill="black"/>
<path fill-rule="evenodd" clip-rule="evenodd" d="M12.3308 5.51381C12.4816 5.66463 12.4816 5.90916 12.3308 6.05997L7.69616 10.6941C7.54534 10.845 7.30081 10.8449 7.15 10.6941C6.99918 10.5433 6.99919 10.2988 7.15002 10.148L11.7846 5.51378C11.9354 5.36297 12.18 5.36298 12.3308 5.51381Z" fill="black"/>
<path fill-rule="evenodd" clip-rule="evenodd" d="M11.4771 10.2287C11.6905 10.2287 11.8633 10.0558 11.8633 9.8426C11.8633 9.6294 11.6905 9.45645 11.4771 9.45645C11.2637 9.45645 11.0908 9.6294 11.0908 9.8426C11.0908 10.0558 11.2637 10.2287 11.4771 10.2287ZM11.4771 11.0011C12.117 11.0011 12.6357 10.4824 12.6357 9.8426C12.6357 9.20275 12.117 8.68405 11.4771 8.68405C10.8372 8.68405 10.3184 9.20275 10.3184 9.8426C10.3184 10.4824 10.8372 11.0011 11.4771 11.0011Z" fill="black"/>
<path fill-rule="evenodd" clip-rule="evenodd" d="M8.00267 6.7525C8.21606 6.7525 8.38892 6.57955 8.38892 6.36635C8.38892 6.15316 8.21606 5.98021 8.00267 5.98021C7.78929 5.98021 7.61642 6.15316 7.61642 6.36635C7.61642 6.57955 7.78929 6.7525 8.00267 6.7525ZM8.00267 7.5249C8.64258 7.5249 9.16132 7.0062 9.16132 6.36635C9.16132 5.72651 8.64258 5.20781 8.00267 5.20781C7.36277 5.20781 6.84402 5.72651 6.84402 6.36635C6.84402 7.0062 7.36277 7.5249 8.00267 7.5249Z" fill="black"/>
</svg>
