<svg width="20" height="20" viewBox="0 0 20 20" fill="none" xmlns="http://www.w3.org/2000/svg">
<path d="M9.35359 8.19206C9.16431 8.37142 8.85815 8.37073 8.66975 8.19051L6.98158 6.57545V14.5396C6.98158 14.7939 6.76509 15 6.49802 15C6.23096 15 6.01447 14.7939 6.01447 14.5396V6.57543L4.32629 8.19054C4.1379 8.37075 3.83174 8.37144 3.64245 8.19208C3.45314 8.01269 3.45244 7.7212 3.64081 7.54098L6.15528 5.1354C6.34413 4.95523 6.65129 4.95465 6.84031 5.13496L9.35524 7.54096C9.54358 7.72115 9.54293 8.01267 9.35359 8.19206Z" fill="#999999"/>
<path d="M10.6386 11.8079C10.8279 11.6286 11.134 11.6293 11.3224 11.8095L13.0106 13.4246V5.46038C13.0106 5.20611 13.2271 5 13.4942 5C13.7612 5 13.9777 5.20611 13.9777 5.46038V13.4246L15.6659 11.8095C15.8543 11.6292 16.1604 11.6286 16.3497 11.8079C16.539 11.9873 16.5397 12.2788 16.3514 12.459L13.8369 14.8646C13.6481 15.0448 13.3409 15.0453 13.1519 14.865L10.6369 12.459C10.4486 12.2788 10.4493 11.9873 10.6386 11.8079Z" fill="black"/>
</svg>
