<svg width="20" height="20" viewBox="0 0 20 20" fill="none" xmlns="http://www.w3.org/2000/svg">
<g clip-path="url(#clip0_3073_157744)">
<path d="M9.47692 1.60988C9.64156 1.10316 10.3584 1.10316 10.5231 1.60988L12.1217 6.52979C12.1953 6.7564 12.4065 6.90983 12.6447 6.90983H17.8178C18.3506 6.90983 18.5722 7.59162 18.1411 7.90479L13.956 10.9455C13.7632 11.0855 13.6826 11.3338 13.7562 11.5604L15.3548 16.4803C15.5194 16.987 14.9395 17.4084 14.5084 17.0952L10.3233 14.0545C10.1305 13.9145 9.86949 13.9145 9.67672 14.0545L5.49159 17.0952C5.06055 17.4084 4.48059 16.987 4.64523 16.4803L6.2438 11.5604C6.31744 11.3338 6.23677 11.0855 6.04401 10.9455L1.85888 7.90479C1.42784 7.59162 1.64936 6.90983 2.18216 6.90983H7.35526C7.59354 6.90983 7.80471 6.7564 7.87834 6.52979L9.47692 1.60988Z" fill="#FFBA52"/>
</g>
<defs>
<clipPath id="clip0_3073_157744">
<rect width="20" height="20" fill="white"/>
</clipPath>
</defs>
</svg>
