<svg width="20" height="20" viewBox="0 0 20 20" fill="none" xmlns="http://www.w3.org/2000/svg">
<rect x="4" y="4" width="12" height="12" rx="0.5" fill="black"/>
<path d="M7.5 7H5V9H7.5V7Z" fill="white"/>
<path d="M5 10H7.5V12H5V10Z" fill="white"/>
<path d="M5 13H7.5V15H5V13Z" fill="white"/>
<path d="M8.5 13H11.5V15H8.5V13Z" fill="white"/>
<path d="M11.5 10H8.5V12H11.5V10Z" fill="white"/>
<path d="M8.5 7H11.5V9H8.5V7Z" fill="white"/>
<path d="M15 13H12.5V15H15V13Z" fill="white"/>
<path d="M12.5 10H15V12H12.5V10Z" fill="white"/>
<path d="M15 7H12.5V9H15V7Z" fill="white"/>
</svg>
