<svg width="24" height="24" viewBox="0 0 24 24" fill="none" xmlns="http://www.w3.org/2000/svg">
<path d="M12.002 3.6C10.0469 3.6 8.46203 5.18491 8.46203 7.14C8.46203 9.09509 10.0469 10.68 12.002 10.68C13.9571 10.68 15.5421 9.09509 15.5421 7.14C15.5421 5.18491 13.9571 3.6 12.002 3.6Z" fill="black"/>
<path d="M8.40016 12C7.199 12 6.10118 12.6371 5.32656 13.6699C4.55466 14.6991 4.14014 16.0638 4.14014 17.46C4.14014 18.2197 4.36502 18.974 4.79935 19.5531C5.2364 20.1358 5.87639 20.52 6.60015 20.52H17.4002C18.124 20.52 18.7639 20.1358 19.201 19.5531C19.6353 18.974 19.8602 18.2197 19.8602 17.46C19.8602 16.0638 19.4457 14.6991 18.6738 13.6699C17.8992 12.6371 16.8013 12 15.6002 12H8.40016Z" fill="black"/>
</svg>
