<svg width="20" height="20" viewBox="0 0 20 20" fill="none" xmlns="http://www.w3.org/2000/svg">
<path d="M10 5.5C5.04582 5.5 2 9.86364 2 9.86364C2 9.86364 5.04582 14.2273 10 14.2273C14.9542 14.2273 18 9.86364 18 9.86364C18 9.86364 14.9542 5.5 10 5.5ZM10 12.7727C7.13236 12.7727 4.96291 10.9662 3.90618 9.86364C4.66255 9.07455 5.98764 7.93127 7.72727 7.34073C7.3176 7.84975 7.09319 8.48296 7.09091 9.13636C7.09091 9.9079 7.3974 10.6478 7.94296 11.1934C8.48852 11.739 9.22846 12.0455 10 12.0455C10.7715 12.0455 11.5115 11.739 12.057 11.1934C12.6026 10.6478 12.9091 9.9079 12.9091 9.13636C12.9068 8.48296 12.6824 7.84975 12.2727 7.34073C14.0131 7.93127 15.3389 9.07527 16.0938 9.86364C15.0356 10.9676 12.8669 12.7727 10 12.7727Z" fill="black"/>
</svg>
