<svg width="20" height="16" viewBox="0 0 20 16" fill="none" xmlns="http://www.w3.org/2000/svg">
<path fill-rule="evenodd" clip-rule="evenodd" d="M9.8622 2.25268C5.5967 2.11691 0 7.18853 0 7.18853C0 7.18853 4.91551 12.52 10 12.52C16.0938 12.1842 20 7.62855 20 7.62855C20 7.62855 14.1849 2.23541 9.8622 2.25268ZM9.8811 3.35627C6.47245 3.25063 2 7.19673 2 7.19673C2 7.19673 5.92809 11.345 9.99122 11.345C14.8609 11.0837 17.9824 7.5391 17.9824 7.5391C17.9824 7.5391 13.3354 3.34283 9.8811 3.35627Z" fill="black"/>
<path fill-rule="evenodd" clip-rule="evenodd" d="M10.0913 9.80645C11.7463 9.80645 13.088 8.46473 13.088 6.80963C13.088 5.15453 11.7463 3.81281 10.0913 3.81281C8.43628 3.81281 7.0946 5.15453 7.0946 6.80963C7.0946 8.46473 8.43628 9.80645 10.0913 9.80645ZM9.5893 6.38149C10.1804 6.38149 10.6595 5.90231 10.6595 5.3112C10.6595 4.72009 10.1804 4.24091 9.5893 4.24091C8.99821 4.24091 8.51904 4.72009 8.51904 5.3112C8.51904 5.90231 8.99821 6.38149 9.5893 6.38149Z" fill="black"/>
<path fill-rule="evenodd" clip-rule="evenodd" d="M15.5882 7.58026C13.8938 7.58026 12.5201 8.95393 12.5201 10.6484C12.5201 12.3429 13.8938 13.7166 15.5882 13.7166C17.2826 13.7166 18.6563 12.3429 18.6563 10.6484C18.6563 8.95393 17.2826 7.58026 15.5882 7.58026Z" fill="white"/>
<path d="M15.0905 9.24985H16.0894V10.2488H17.0897V11.2478H16.0894V12.2467H15.0905V11.2478H14.093V10.2488H15.0905V9.24985Z" fill="black"/>
<path fill-rule="evenodd" clip-rule="evenodd" d="M15.591 7.58035C13.8965 7.58035 12.5229 8.95404 12.5229 10.6485C12.5229 12.343 13.8965 13.7167 15.591 13.7167C17.2855 13.7167 18.6591 12.343 18.6591 10.6485C18.6591 8.95404 17.2855 7.58035 15.591 7.58035ZM13.6646 10.6485C13.6646 9.5845 14.5271 8.72198 15.591 8.72198C16.6549 8.72198 17.5175 9.5845 17.5175 10.6485C17.5175 11.7125 16.6549 12.5751 15.591 12.5751C14.5271 12.5751 13.6646 11.7125 13.6646 10.6485Z" fill="black"/>
</svg>
