<svg width="24" height="24" viewBox="0 0 24 24" fill="none" xmlns="http://www.w3.org/2000/svg">
<path fill-rule="evenodd" clip-rule="evenodd" d="M12 1C18.0751 1 23 5.92487 23 12C23 18.0751 18.0751 23 12 23C5.92487 23 1 18.0751 1 12C1 5.92487 5.92487 1 12 1ZM12 0C18.6274 0 24 5.37258 24 12C24 18.6274 18.6274 24 12 24C5.37258 24 0 18.6274 0 12C0 5.37258 5.37258 0 12 0Z" fill="black"/>
<path fill-rule="evenodd" clip-rule="evenodd" d="M7.23642 9.93331L7.92108 9.20446L12.1692 13.195L16.0637 9.21902L16.7781 9.91876L12.1983 14.5944L7.23642 9.93331Z" fill="black"/>
</svg>
