<svg width="24" height="24" viewBox="0 0 24 24" fill="none" xmlns="http://www.w3.org/2000/svg">
<path d="M13.7103 8.45665C14.0223 8.14238 14.5293 8.14217 14.8413 8.4568L18.0441 11.6826C18.3551 11.9957 18.3551 12.5029 18.044 12.816L14.8412 16.042C14.6854 16.199 14.4802 16.2778 14.2757 16.2778C14.0712 16.2778 13.8662 16.1991 13.7104 16.0421C13.3993 15.729 13.3992 15.2218 13.7104 14.9087L15.554 13.0517H6.51764C6.07472 13.0517 5.71894 12.6906 5.71894 12.2493C5.71894 11.808 6.0747 11.4469 6.51764 11.4469H15.554L13.7104 9.58999C13.3993 9.27687 13.3993 8.76978 13.7103 8.45665Z" fill="black"/>
<path fill-rule="evenodd" clip-rule="evenodd" d="M12 24C5.37258 24 0 18.6274 0 12C0 5.37258 5.37258 0 12 0C18.6274 0 24 5.37258 24 12C24 18.6274 18.6274 24 12 24ZM12 22.8C6.03532 22.8 1.2 17.9647 1.2 12C1.2 6.03532 6.03532 1.2 12 1.2C17.9647 1.2 22.8 6.03532 22.8 12C22.8 17.9647 17.9647 22.8 12 22.8Z" fill="black"/>
</svg>
