<svg width="24" height="24" viewBox="0 0 24 24" fill="none" xmlns="http://www.w3.org/2000/svg">
<path fill-rule="evenodd" clip-rule="evenodd" d="M19.7624 13.0851C19.7135 12.8858 19.5902 12.8135 19.4141 12.7475L14.8902 12.0519C14.6386 12.0088 14.4005 12.217 14.4005 12.471C14.4005 12.683 14.556 12.8589 14.7596 12.89L14.7618 12.8906L16.7207 13.192L11.9983 14.0097L7.27649 13.192L9.23533 12.8906C9.4423 12.86 9.59894 12.6836 9.59894 12.471C9.59894 12.2117 9.3569 12.0098 9.10357 12.0531L9.10583 12.0525L4.56612 12.7543C4.3928 12.8009 4.25476 12.9202 4.22626 13.1054L3.66077 16.923C3.62686 17.1401 3.7782 17.3543 3.99271 17.3997L3.99554 17.4003L4.80871 17.5666C4.80871 19 4.78779 20.6935 4.78779 21.9293C4.78779 22.1447 4.94838 22.3234 5.15705 22.35H5.15931L11.8722 23.1796C11.9313 23.202 11.9907 23.172 12.0514 23.1796L18.8373 22.35C19.0476 22.3229 19.2082 21.9298 19.2082 21.9298C19.2082 21.9298 19.2082 18.7785 19.1862 17.5632L19.1873 17.566L20.0005 17.3997C20.2174 17.3545 20.3702 17.1402 20.3347 16.9208L20.3352 16.923C20.1446 15.637 19.9743 14.3555 19.7624 13.0851ZM5.00267 13.6585L11.3898 14.764L10.053 17.7718L4.5599 16.6488L5.00267 13.6585ZM10.217 18.6715L5.63658 17.7345V21.5544L11.5742 22.2997V16.4379L10.6898 18.4284L10.6886 18.4312C10.6084 18.6064 10.4066 18.7137 10.217 18.6715ZM18.36 21.5549L12.4224 22.3116V16.4373L13.3068 18.4278C13.3887 18.6079 13.59 18.7115 13.783 18.6698L18.3606 17.7334L18.36 21.5549ZM12.6068 14.7646L13.9441 17.7724L19.4367 16.6493L18.9939 13.6591L12.6068 14.7646Z" fill="black"/>
<path fill-rule="evenodd" clip-rule="evenodd" d="M13.0407 3.9232L14.2024 6.27705L16.8 6.65451L14.9204 8.48673L15.3641 11.0739L13.0407 9.85238L10.7173 11.0739L11.1611 8.48673L9.2814 6.65451L11.879 6.27705L13.0407 3.9232ZM13.0407 5.57246L12.3637 6.94419L10.8499 7.16416L11.9453 8.2319L11.6867 9.73958L13.0407 9.02775L14.3947 9.73958L14.1361 8.2319L15.2315 7.16416L13.7177 6.94419L13.0407 5.57246Z" fill="black"/>
<path fill-rule="evenodd" clip-rule="evenodd" d="M7.82713 0.795044L8.68238 2.52796L10.5948 2.80585L9.21095 4.15474L9.53762 6.0594L7.82713 5.16014L6.11663 6.0594L6.44331 4.15474L5.05949 2.80585L6.97188 2.52796L7.82713 0.795044ZM7.82713 2.4443L7.45659 3.1951L6.62803 3.3155L7.22758 3.89992L7.08604 4.72513L7.82713 4.33552L8.56821 4.72513L8.42668 3.89992L9.02623 3.3155L8.19767 3.1951L7.82713 2.4443Z" fill="black"/>
<path fill-rule="evenodd" clip-rule="evenodd" d="M6.26305 7.05136L6.96507 8.47382L8.53484 8.70192L7.39895 9.80914L7.6671 11.3726L6.26305 10.6344L4.859 11.3726L5.12715 9.80914L3.99125 8.70192L5.56103 8.47382L6.26305 7.05136ZM6.26305 8.70062L6.04573 9.14095L5.55979 9.21157L5.91142 9.55432L5.82841 10.0383L6.26305 9.8098L6.69769 10.0383L6.61468 9.55432L6.96631 9.21157L6.48037 9.14095L6.26305 8.70062Z" fill="black"/>
</svg>
