<svg width="25" height="24" viewBox="0 0 25 24" fill="none" xmlns="http://www.w3.org/2000/svg">
<path d="M22.2342 1V13.526C21.578 12.846 20.9965 12.1002 20.4152 11.3547C20.2338 11.122 20.0524 10.8894 19.8688 10.6588C19.8214 10.7171 19.7491 10.7543 19.668 10.7543C19.5251 10.7543 19.4093 10.6386 19.4093 10.4956V3.21649H17.365V8.69128C17.365 8.83427 17.2493 8.94997 17.1064 8.94997C16.9634 8.94997 16.8477 8.83427 16.8477 8.69128V8.58571C16.1515 8.4786 15.4743 8.60979 14.802 8.80097V8.93488C14.802 9.07787 14.6863 9.19357 14.5433 9.19357C14.4003 9.19357 14.2846 9.07787 14.2846 8.93488V4.33319H12.24V9.86077C12.24 10.0038 12.1243 10.1195 11.9814 10.1195C11.8547 10.1195 11.7494 10.0287 11.7271 9.90856C11.0432 10.1854 10.3511 10.4784 9.67699 10.7717V10.9423C9.67699 11.0852 9.56128 11.2009 9.41829 11.2009C9.2753 11.2009 9.1596 11.0852 9.1596 10.9423V10.1669H7.11505V11.7426C7.11505 11.8856 6.99934 12.0013 6.85635 12.0013C6.71336 12.0013 6.59766 11.8856 6.59766 11.7426V9.90823C6.59766 9.76524 6.71336 9.64954 6.85635 9.64954H9.41797V7.81934H11.7227V4.07449C11.7227 3.9315 11.8384 3.8158 11.9814 3.8158H14.5433C14.6863 3.8158 14.802 3.9315 14.802 4.07449V4.96838H16.8477V2.95779C16.8477 2.8148 16.9634 2.6991 17.1064 2.6991H19.668V1H22.2342Z" fill="#312B2B"/>
<path fill-rule="evenodd" clip-rule="evenodd" d="M18.14 17.1651C18.2948 17.7616 18.812 19.3175 20.0569 19.6601C20.2078 19.7017 20.3667 19.6815 20.5041 19.6023C20.6443 19.5214 20.7484 19.385 20.7883 19.2319C20.9346 18.7036 21.3451 17.4198 21.9944 16.9019C22.1965 16.7415 22.3066 16.532 22.3127 16.2966C22.3199 16.0125 22.1734 15.743 22.0272 15.5466C22.9503 15.1963 24.0396 14.7268 24.0396 14.7268C23.3356 14.8107 22.0202 14.7492 21.2127 14.6981C20.6457 14.119 19.779 13.2118 19.3847 12.6862C19.2889 12.5584 19.1922 12.4251 19.0936 12.2893C18.2394 11.1127 17.2498 9.74947 15.6076 10.1864C13.8586 10.6513 11.5033 11.661 9.43298 12.5708C8.78321 12.8555 8.04175 13.0169 7.32452 13.173L7.323 13.1734C6.29842 13.3968 5.32433 13.6091 4.70215 14.1632C4.63144 14.1542 4.55832 14.155 4.48453 14.1669L4.48306 14.1671C4.14265 14.2231 3.66717 14.2571 3.24565 14.2265L3.2118 14.224C2.99833 14.2088 2.72689 14.1895 2.55073 14.0616C2.56176 13.8563 2.66891 13.6445 2.7701 13.4444C2.81503 13.3555 2.85879 13.269 2.89244 13.1864C2.98156 12.9676 3.07226 12.7109 3.09377 12.4473C3.11675 12.1657 3.06128 11.865 2.8521 11.5945C2.65466 11.3392 2.35806 11.1604 1.99764 11.0278C1.60361 10.882 1.16717 11.0856 1.02304 11.4781C0.831011 12.001 1.20018 12.2893 1.59817 12.5065C1.54438 12.6416 1.47184 12.768 1.39923 12.8946C1.32861 13.0177 1.2579 13.141 1.20427 13.2725C0.960027 13.8733 0.949227 14.4935 1.35062 14.9966C1.63051 15.3475 2.03986 15.5295 2.41768 15.6277C2.80193 15.7276 3.2134 15.7562 3.56953 15.7562C3.65383 15.7562 3.73623 15.7546 3.81581 15.7518C3.67237 16.2519 3.6093 16.7388 3.58185 17.0916C3.44774 17.1626 3.30723 17.2329 3.1604 17.3025C2.61396 17.5615 2.18476 18.0149 1.95209 18.5788C1.9483 18.5874 1.94521 18.5962 1.94269 18.6051C1.64526 19.625 1.27269 20.5425 0.805359 21.4048H0.258667C0.115677 21.4048 0 21.5205 0 21.6635C0 21.8065 0.115677 21.9222 0.258667 21.9222H22.2963C22.4393 21.9222 22.5549 21.8065 22.5549 21.6635C22.5549 21.5205 22.4393 21.4048 22.2963 21.4048H18.8603C18.6178 20.7334 18.2654 20.1853 17.734 19.6152C17.2785 19.1255 17.2842 18.4157 17.2894 17.7586C17.2904 17.6421 17.2913 17.5273 17.2896 17.4156C17.5566 17.2957 17.8296 17.2041 18.14 17.1651ZM14.984 18.4106C15.0302 18.5493 15.0715 18.6974 15.1136 18.8487C15.2882 19.4756 15.4775 20.1555 16.0975 20.4359C16.6747 20.6982 16.8298 20.9732 16.815 21.4048H14.1203C13.9458 20.9139 13.631 20.2664 13.3744 19.7892C13.2362 19.528 13.5917 19.1461 13.8462 18.8728C13.9255 18.7876 13.9951 18.7129 14.0367 18.6557C14.1892 18.6153 14.3391 18.5771 14.4869 18.5395L14.4881 18.5392C14.6559 18.4965 14.8213 18.4545 14.984 18.4106ZM3.16978 21.4047C3.12314 20.5801 3.97546 19.8675 5.81056 19.2078C5.83717 19.2504 5.86364 19.2934 5.89018 19.3364C6.15809 19.7714 6.43301 20.2178 6.93498 20.4079C7.03682 20.4464 7.14211 20.4796 7.24759 20.5128C7.57611 20.6163 7.90661 20.7205 8.14129 20.9904C8.23708 21.1005 8.2734 21.2487 8.28539 21.4047H3.16978ZM11.8317 21.4047H10.3362C10.179 21.0003 9.99501 20.6162 9.70664 20.2683C9.6045 20.1451 9.49484 20.028 9.3852 19.9108C9.24438 19.7604 9.10358 19.6099 8.97872 19.4467C9.13383 19.2176 9.25682 18.9663 9.37906 18.7165C9.40562 18.6622 9.43215 18.608 9.45895 18.5541C10.0126 18.507 10.5755 18.4903 11.1623 18.5163C11.157 18.8805 11.376 19.3048 11.5846 19.709C11.7961 20.1186 11.9968 20.5076 11.9426 20.7923C11.9114 20.9631 11.8661 21.2123 11.8317 21.4047Z" fill="#312B2B"/>
</svg>
