<svg width="24" height="24" viewBox="0 0 24 24" fill="none" xmlns="http://www.w3.org/2000/svg">
<path d="M18.7245 4.80006C17.799 4.79673 17.0475 5.56001 17.0442 6.49995C17.0442 6.94325 17.2116 7.36989 17.5168 7.68653L14.4482 13.9228C14.3826 13.9128 14.3137 13.9028 14.2447 13.9028C14.0281 13.9028 13.8115 13.9461 13.6113 14.0294L11.2287 11.3063C11.3665 11.0563 11.442 10.7763 11.4453 10.4863C11.4453 9.54308 10.6937 8.77979 9.76495 8.77979C8.83618 8.77979 8.08463 9.54308 8.08463 10.4863C8.08791 10.893 8.23231 11.2863 8.49814 11.5929L5.58054 16.7759C5.48209 16.7559 5.38035 16.7459 5.28189 16.7459C4.35312 16.7459 3.60156 17.5092 3.60156 18.4525C3.60156 19.3957 4.35312 20.159 5.28189 20.159C6.21067 20.159 6.96222 19.3957 6.96222 18.4525C6.95894 18.0458 6.81453 17.6525 6.5487 17.3459L9.46302 12.1629C9.7748 12.2262 10.0997 12.1929 10.3918 12.0662L12.7744 14.7894C12.6366 15.0394 12.5644 15.3227 12.5611 15.6093C12.5578 16.5526 13.3094 17.3192 14.2349 17.3226C15.1637 17.3259 15.9185 16.5626 15.9218 15.6227C15.9218 15.1794 15.7544 14.7494 15.4492 14.4294L18.5178 8.19317C18.5834 8.20317 18.6523 8.21316 18.7212 8.21316C19.65 8.21316 20.4016 7.44988 20.4016 6.50661C20.4016 5.56334 19.6533 4.80006 18.7245 4.80006Z" fill="black"/>
</svg>
