<svg width="24" height="24" viewBox="0 0 24 24" fill="none" xmlns="http://www.w3.org/2000/svg">
<path d="M1.96899 0.701997C1.79656 0.168353 1.22714 -0.123497 0.697169 0.050133C0.167195 0.223762 -0.122647 0.797121 0.0497882 1.33076L6.1045 20.0686C6.24366 20.4992 6.6491 20.7852 7.09862 20.7697C7.54814 20.7542 7.93321 20.441 8.04281 20.0018L10.4061 10.5302L13.3446 16.4562C13.5153 16.8005 13.8645 17.0181 14.2467 17.0184C14.6288 17.0187 14.9783 16.8016 15.1496 16.4577L17.2435 12.2516L19.131 15.3545L2.91508 23.5187C2.79046 23.5814 2.73995 23.734 2.80226 23.8595C2.86457 23.985 3.01611 24.0359 3.14073 23.9731L19.3955 15.7894L22.1302 20.2849C22.4213 20.7635 23.0426 20.9138 23.5178 20.6207C23.9931 20.3275 24.1424 19.702 23.8513 19.2234L21.2074 14.8772L23.059 13.9449C23.1837 13.8822 23.2342 13.7296 23.1719 13.6041C23.1095 13.4787 22.958 13.4278 22.8334 13.4905L20.9429 14.4423L18.0158 9.6306C17.8244 9.31593 17.4786 9.13049 17.1125 9.14615C16.7463 9.16181 16.4174 9.37611 16.2532 9.70599L14.2492 13.7313L10.9943 7.16716C10.8057 6.78683 10.4019 6.56492 9.98222 6.61094C9.56252 6.65696 9.21563 6.96119 9.11276 7.37348L6.93937 16.084L1.96899 0.701997Z" fill="black"/>
<path d="M3.29698 2.95721C3.34711 2.82631 3.49314 2.76113 3.62314 2.81161L23.5535 10.5514C23.6835 10.6019 23.7482 10.749 23.6981 10.8799C23.6479 11.0108 23.5019 11.0759 23.3719 11.0255L3.44158 3.28563C3.31158 3.23515 3.24684 3.08811 3.29698 2.95721Z" fill="black"/>
</svg>
