<svg width="24" height="24" viewBox="0 0 24 24" fill="none" xmlns="http://www.w3.org/2000/svg">
<path fill-rule="evenodd" clip-rule="evenodd" d="M5.57802 5.57582C5.8123 5.34147 6.1922 5.34142 6.42655 5.5757L12.0023 11.1499L17.5781 5.5757C17.8125 5.34142 18.1924 5.34147 18.4267 5.57582C18.6609 5.81017 18.6609 6.19007 18.4265 6.42435L12.851 11.9983L18.4265 17.5723C18.6609 17.8066 18.6609 18.1865 18.4267 18.4208C18.1924 18.6552 17.8125 18.6552 17.5781 18.4209L12.0023 12.8467L6.42655 18.4209C6.1922 18.6552 5.8123 18.6552 5.57802 18.4208C5.34374 18.1865 5.34379 17.8066 5.57814 17.5723L11.1537 11.9983L5.57814 6.42435C5.34379 6.19007 5.34374 5.81017 5.57802 5.57582Z" fill="black"/>
</svg>
