<svg width="24" height="24" viewBox="0 0 24 24" fill="none" xmlns="http://www.w3.org/2000/svg">
<path fill-rule="evenodd" clip-rule="evenodd" d="M13.885 6.0844C14.4195 5.55018 15.1442 5.25006 15.8999 5.25006C16.6558 5.25006 17.3807 5.55034 17.9152 6.08483C18.4497 6.61933 18.75 7.34425 18.75 8.10014C18.75 8.85575 18.4499 9.58042 17.9158 10.1149C15.1214 12.9193 12.3355 15.7151 9.53124 18.5294C9.39051 18.6707 9.19934 18.75 8.99997 18.75H5.99999C5.58578 18.75 5.25 18.4143 5.25 18.0001V15.0001C5.25 14.8007 5.32939 14.6095 5.47062 14.4688C8.28482 11.6646 11.0806 8.87879 13.885 6.0844ZM13.0115 9.07235L6.74999 15.3115V17.2501H8.68852L14.9277 10.9886L13.0115 9.07235ZM15.9865 9.92602L14.074 8.01359L14.9443 7.14643L14.9452 7.14548C15.1984 6.89229 15.5418 6.75005 15.8999 6.75005C16.258 6.75005 16.6014 6.89229 16.8546 7.14548C17.1078 7.39867 17.25 7.74208 17.25 8.10014C17.25 8.45821 17.1078 8.80161 16.8546 9.0548L16.8536 9.05575L15.9865 9.92602Z" fill="black"/>
</svg>
