<svg width="24" height="24" viewBox="0 0 24 24" fill="none" xmlns="http://www.w3.org/2000/svg">
<path d="M20.6412 8.73559V17.8778H19.884V4.55047L18.8245 5.47055C18.6912 5.58609 18.4934 5.58609 18.3605 5.47055L17.0638 4.3443C16.8421 4.15184 16.5121 4.15184 16.2903 4.3443L14.9947 5.47055C14.8618 5.58648 14.6636 5.58648 14.5307 5.47055L13.237 4.34535C13.0152 4.15254 12.6852 4.15289 12.4635 4.34535L11.1697 5.4709C11.0368 5.58684 10.8386 5.58684 10.7057 5.4709L9.41148 4.34535C9.18977 4.15289 8.86008 4.15254 8.63836 4.34535L7.34422 5.4709C7.21098 5.58684 7.01273 5.58684 6.8802 5.4709L5.58641 4.34535C5.36434 4.15289 5.03426 4.15289 4.81223 4.34535L3.51914 5.47055C3.38586 5.58684 3.18766 5.58684 3.05438 5.47055L2 4.55227V18.0154C2.00039 18.4963 2.19281 18.9257 2.5077 19.2413C2.82363 19.5561 3.25301 19.749 3.73398 19.7493H19.6764C20.3198 19.749 20.8969 19.4901 21.319 19.0687C21.7408 18.6462 21.9993 18.0692 22 17.4257V7.42406L20.6412 8.73559ZM4.70352 7.93613H9.73434V12.6462H4.70352V7.93613ZM16.9728 16.6812H4.70352V16.0059H16.9728V16.6812ZM16.9728 14.6637H4.70352V13.9881H16.9728V14.6637ZM16.9728 12.6462H11.7611V11.971H16.9728V12.6462ZM16.9728 10.6292H11.7611V9.95355H16.9728V10.6292ZM16.9728 8.61211H11.7611V7.93613H16.9728V8.61211Z" fill="#312B2B"/>
<path d="M9.73395 7.93616H4.70312V12.6463H9.73395V7.93616Z" fill="#ED193B"/>
</svg>
