<svg width="24" height="24" viewBox="0 0 24 24" fill="none" xmlns="http://www.w3.org/2000/svg">
<path d="M3.9974 9.33H9.33V3.99996H15.9974V9.58663H17.3307V3.99996C17.3307 3.64634 17.1903 3.3072 16.9402 3.05715C16.6902 2.8071 16.351 2.66663 15.9974 2.66663H7.24406L2.66406 7.24663V20C2.66406 20.3536 2.80454 20.6927 3.05459 20.9428C3.30464 21.1928 3.64377 21.3333 3.9974 21.3333H15.9974C16.351 21.3333 16.6902 21.1928 16.9402 20.9428C17.1903 20.6927 17.3307 20.3536 17.3307 20H3.9974V9.33ZM3.9974 7.79329L7.79073 3.99996H7.9974V7.99996H3.9974V7.79329Z" fill="black"/>
<path d="M18.8779 10.9C18.7504 10.7908 18.5863 10.7337 18.4185 10.7402C18.2508 10.7467 18.0916 10.8162 17.9729 10.9349C17.8541 11.0537 17.7846 11.2128 17.7781 11.3806C17.7716 11.5484 17.8287 11.7124 17.9379 11.84L20.1046 14H11.9979C11.8211 14 11.6515 14.0702 11.5265 14.1952C11.4015 14.3203 11.3312 14.4898 11.3312 14.6666C11.3312 14.8435 11.4015 15.013 11.5265 15.1381C11.6515 15.2631 11.8211 15.3333 11.9979 15.3333H20.1246L17.9379 17.52C17.8681 17.5797 17.8114 17.6533 17.7714 17.736C17.7314 17.8187 17.7089 17.9088 17.7054 18.0006C17.7018 18.0924 17.7173 18.184 17.7508 18.2695C17.7843 18.3551 17.8352 18.4328 17.9001 18.4977C17.9651 18.5627 18.0428 18.6136 18.1284 18.6471C18.2139 18.6806 18.3055 18.6961 18.3973 18.6925C18.4891 18.689 18.5792 18.6665 18.6619 18.6265C18.7446 18.5864 18.8181 18.5298 18.8779 18.46L22.6646 14.6666L18.8779 10.9Z" fill="black"/>
</svg>
