<svg width="24" height="24" viewBox="0 0 24 24" fill="none" xmlns="http://www.w3.org/2000/svg">
<path fill-rule="evenodd" clip-rule="evenodd" d="M13.282 20.3346L9.99093 18.6871C9.847 18.6151 9.72589 18.5042 9.64123 18.3671C9.55656 18.2299 9.5117 18.0718 9.51169 17.9104V12.9945L4.64786 8.12355C4.36074 7.8361 4.19932 7.44608 4.19922 7.03935V5.18973C4.19922 4.90053 4.31394 4.62325 4.51803 4.41886C4.7221 4.21448 4.99882 4.09973 5.28727 4.09973H18.5685C18.8569 4.09973 19.1336 4.21448 19.3377 4.41886C19.5418 4.62325 19.6565 4.90053 19.6565 5.18973V7.0394C19.6564 7.44613 19.495 7.83613 19.2078 8.12358L14.344 12.9945V19.6768C14.3441 19.8022 14.3121 19.9256 14.2511 20.0351C14.1901 20.1446 14.1023 20.2366 13.9959 20.3025C13.8895 20.3683 13.768 20.4059 13.6431 20.4115C13.5182 20.4171 13.3939 20.3907 13.282 20.3346ZM18.3658 5.39302H5.48991V7.13874L10.4831 12.1392C10.5843 12.2404 10.6645 12.3606 10.7193 12.4929C10.7741 12.6252 10.8023 12.7671 10.8024 12.9104V17.6473L13.0533 18.7744V12.9103C13.0533 12.6208 13.1688 12.3428 13.3728 12.14L18.3658 7.13783V5.39302Z" fill="black"/>
</svg>
