<svg width="24" height="24" viewBox="0 0 24 24" fill="none" xmlns="http://www.w3.org/2000/svg">
<path fill-rule="evenodd" clip-rule="evenodd" d="M2.625 6.75C2.625 6.12868 3.12868 5.625 3.75 5.625H20.25C20.8713 5.625 21.375 6.12868 21.375 6.75C21.375 7.37132 20.8713 7.875 20.25 7.875H3.75C3.12868 7.875 2.625 7.37132 2.625 6.75ZM2.625 12C2.625 11.3787 3.12868 10.875 3.75 10.875H20.25C20.8713 10.875 21.375 11.3787 21.375 12C21.375 12.6213 20.8713 13.125 20.25 13.125H3.75C3.12868 13.125 2.625 12.6213 2.625 12ZM2.625 17.25C2.625 16.6287 3.12868 16.125 3.75 16.125H20.25C20.8713 16.125 21.375 16.6287 21.375 17.25C21.375 17.8713 20.8713 18.375 20.25 18.375H3.75C3.12868 18.375 2.625 17.8713 2.625 17.25Z" fill="#312B2B"/>
</svg>
