<svg width="24" height="24" viewBox="0 0 24 24" fill="none" xmlns="http://www.w3.org/2000/svg">
<path d="M12.0328 18.276C12.2984 18.276 12.5224 18.1848 12.7048 18.0024C12.8864 17.8184 12.9772 17.5944 12.9772 17.3304C12.9772 17.0648 12.8856 16.8408 12.7024 16.6584C12.5192 16.476 12.2952 16.3848 12.0304 16.3848C11.7648 16.3848 11.5408 16.4764 11.3584 16.6596C11.176 16.8428 11.0848 17.0668 11.0848 17.3316C11.0848 17.5972 11.1768 17.8212 11.3608 18.0036C11.5432 18.186 11.7672 18.2772 12.0328 18.2772M11.4136 14.3028H12.5716C12.602 13.7812 12.7 13.3572 12.8656 13.0308C13.0312 12.7052 13.3716 12.2892 13.8868 11.7828C14.4228 11.2476 14.8212 10.768 15.082 10.344C15.3436 9.91995 15.4744 9.42955 15.4744 8.87275C15.4744 7.92715 15.1424 7.17355 14.4784 6.61195C13.8136 6.05035 13.0272 5.76955 12.1192 5.76955C11.256 5.76955 10.5232 6.00395 9.92082 6.47275C9.31842 6.94235 8.87722 7.48155 8.59722 8.09035L9.70122 8.54755C9.89322 8.11075 10.168 7.72475 10.5256 7.38955C10.8832 7.05355 11.3992 6.88555 12.0736 6.88555C12.852 6.88555 13.42 7.09915 13.7776 7.52635C14.1368 7.95355 14.3164 8.42315 14.3164 8.93515C14.3164 9.35115 14.204 9.72235 13.9792 10.0488C13.7552 10.376 13.4632 10.7048 13.1032 11.0352C12.4072 11.6768 11.9512 12.2208 11.7352 12.6672C11.5208 13.1128 11.4136 13.658 11.4136 14.3028ZM12.0028 22.8C10.51 22.8 9.10602 22.5168 7.79082 21.9504C6.47642 21.3832 5.33282 20.6136 4.36002 19.6416C3.38722 18.6704 2.61722 17.528 2.05002 16.2144C1.48282 14.9008 1.19922 13.4972 1.19922 12.0036C1.19922 10.5108 1.48242 9.10675 2.04882 7.79155C2.61602 6.47715 3.38562 5.33355 4.35762 4.36075C5.32882 3.38795 6.47122 2.61795 7.78482 2.05075C9.09842 1.48355 10.502 1.19995 11.9956 1.19995C13.4884 1.19995 14.8924 1.48315 16.2076 2.04955C17.522 2.61675 18.6656 3.38635 19.6384 4.35835C20.6112 5.32955 21.3812 6.47195 21.9484 7.78555C22.5156 9.09915 22.7992 10.5028 22.7992 11.9964C22.7992 13.4892 22.516 14.8932 21.9496 16.2084C21.3824 17.5228 20.6128 18.6664 19.6408 19.6392C18.6696 20.612 17.5272 21.382 16.2136 21.9492C14.9 22.5164 13.4964 22.8 12.0028 22.8ZM11.9992 21.6C14.6792 21.6 16.9492 20.67 18.8092 18.81C20.6692 16.95 21.5992 14.68 21.5992 12C21.5992 9.31995 20.6692 7.04995 18.8092 5.18995C16.9492 3.32995 14.6792 2.39995 11.9992 2.39995C9.31922 2.39995 7.04922 3.32995 5.18922 5.18995C3.32922 7.04995 2.39922 9.31995 2.39922 12C2.39922 14.68 3.32922 16.95 5.18922 18.81C7.04922 20.67 9.31922 21.6 11.9992 21.6Z" fill="black"/>
</svg>
