<svg width="24" height="24" viewBox="0 0 24 24" fill="none" xmlns="http://www.w3.org/2000/svg">
<path d="M11.9971 2.56106C12.3229 2.56106 12.5874 2.29659 12.5874 1.97075V0.590303C12.5874 0.264465 12.3229 0 11.9971 0C11.6712 0 11.4067 0.264465 11.4067 0.590303V1.97075C11.4067 2.29659 11.6712 2.56106 11.9971 2.56106Z" fill="#312B2B"/>
<path d="M4.75521 4.80864C4.98547 5.0395 5.3597 5.03943 5.58989 4.80864C5.82041 4.57811 5.82041 4.20444 5.58989 3.97396L4.901 3.28504C4.67078 3.05452 4.29651 3.05452 4.06633 3.28504C3.83581 3.51556 3.83581 3.88919 4.06633 4.11971L4.75521 4.80864Z" fill="#312B2B"/>
<path d="M3.34231 11.2158C3.34231 10.8899 3.07784 10.6255 2.752 10.6255H1.37155C1.04571 10.6255 0.78125 10.8899 0.78125 11.2158C0.78125 11.5416 1.04571 11.8061 1.37155 11.8061H2.752C3.07788 11.8061 3.34231 11.5416 3.34231 11.2158Z" fill="#312B2B"/>
<path d="M4.75521 17.6229L4.06633 18.3118C3.83581 18.5423 3.83581 18.916 4.06633 19.1465C4.29652 19.3773 4.67075 19.3774 4.901 19.1465L5.58989 18.4576C5.82041 18.227 5.82041 17.8534 5.58989 17.6229C5.35967 17.3924 4.98543 17.3924 4.75521 17.6229Z" fill="#312B2B"/>
<path d="M19.2389 17.6229C19.0083 17.3924 18.6347 17.3924 18.4042 17.6229C18.1737 17.8534 18.1737 18.2271 18.4042 18.4576L19.0931 19.1465C19.3239 19.3773 19.697 19.3773 19.9278 19.1465C20.1583 18.916 20.1583 18.5423 19.9278 18.3118L19.2389 17.6229Z" fill="#312B2B"/>
<path d="M22.6225 10.6255H21.242C20.9162 10.6255 20.6517 10.8899 20.6517 11.2158C20.6517 11.5416 20.9162 11.8061 21.242 11.8061H22.6225C22.9483 11.8061 23.2128 11.5416 23.2128 11.2158C23.2128 10.8899 22.9483 10.6255 22.6225 10.6255Z" fill="#312B2B"/>
<path d="M19.2388 4.80864L19.9277 4.11971C20.1583 3.88919 20.1583 3.51556 19.9277 3.28504C19.6972 3.05452 19.3235 3.05452 19.0931 3.28504L18.4041 3.97396C18.1736 4.20449 18.1736 4.57811 18.4041 4.80864C18.6344 5.03946 19.008 5.03946 19.2388 4.80864Z" fill="#312B2B"/>
<path d="M9.26187 21.265H14.7317C15.1816 21.265 15.53 21.6995 15.38 22.1717C15.2897 22.4564 15.0015 22.6325 14.7027 22.6325H14.6925C14.2976 22.6325 13.9366 22.8558 13.7599 23.2089L13.7527 23.2233C13.5147 23.6991 13.0283 24 12.496 24H11.4977C10.9654 24 10.479 23.6991 10.2407 23.2233L10.2335 23.2089C10.0568 22.8557 9.69574 22.6325 9.30089 22.6325H9.29063C8.9918 22.6325 8.70363 22.4564 8.61338 22.1717C8.46361 21.6996 8.81197 21.265 9.26187 21.265Z" fill="#312B2B"/>
<path fill-rule="evenodd" clip-rule="evenodd" d="M14.7344 20.6666C15.1119 20.6666 15.4182 20.3602 15.4182 19.9828C15.4182 19.6187 15.1327 19.3237 14.7738 19.3032C14.9719 17.5119 15.9404 16.5814 16.919 15.6413C18.0422 14.5622 19.1787 13.4703 19.1787 11.0494C19.1787 7.08449 15.9645 3.87024 11.9995 3.87024C8.03456 3.87024 4.82031 7.08449 4.82031 11.0494C4.82031 13.4704 5.95679 14.5622 7.08001 15.6413C8.05858 16.5814 9.0271 17.5119 9.22526 19.3032C8.8663 19.3237 8.58084 19.6187 8.58084 19.9828C8.58084 20.3602 8.88717 20.6666 9.26458 20.6666H14.7344ZM9.16408 13.4298V12.1561H11.0898C11.7539 12.1561 12.228 12.0046 12.5131 11.7005C12.8058 11.3975 12.9522 11.0266 12.9522 10.5913C12.9522 10.5354 12.9505 10.4806 12.9472 10.427H8.53271V9.61005H12.7217C12.6534 9.48957 12.57 9.38016 12.4716 9.28181C12.157 8.95503 11.6644 8.79522 10.9937 8.80356H8.53273V7.98541H15.3487V8.80356H13.6752C13.833 8.95737 13.9593 9.13221 14.0543 9.32832C14.0996 9.42022 14.1397 9.51414 14.1747 9.61005H15.3487V10.427H14.3456C14.3509 10.5038 14.3536 10.5817 14.3536 10.6605C14.3536 11.2377 14.2258 11.7363 13.9691 12.1561C13.7124 12.5699 13.3476 12.8848 12.8768 13.103C12.8179 13.1304 12.7575 13.156 12.6956 13.1799L14.4924 16.1646H12.9927L11.3539 13.4271C11.2954 13.4289 11.2361 13.4298 11.1761 13.4298H9.16408Z" fill="#312B2B"/>
</svg>
