<svg width="24" height="24" viewBox="0 0 24 24" fill="none" xmlns="http://www.w3.org/2000/svg">
<path d="M20.5737 3.71899H10.6776C9.20132 3.71899 8.00132 4.70585 8.00132 5.91772V6.86116H3.20921C1.85132 6.86116 0.75 7.76907 0.75 8.8862V15.1311C0.75 16.2482 1.85132 17.1561 3.20921 17.1561H4.16447L7.40526 20.1759C7.47756 20.2448 7.57378 20.283 7.67368 20.2825C7.72798 20.2835 7.78184 20.2727 7.83158 20.2509C7.90186 20.2196 7.9616 20.1687 8.00362 20.1043C8.04564 20.0398 8.06814 19.9646 8.06842 19.8877V17.1561H12.1382C13.4961 17.1561 14.5974 16.2482 14.5974 15.1311V15.0403H15.2289V18.1035C15.229 18.181 15.2519 18.2567 15.2947 18.3213C15.3375 18.3859 15.3984 18.4364 15.4697 18.4666C15.518 18.4888 15.5706 18.4996 15.6237 18.4982C15.724 18.4985 15.8209 18.4619 15.8961 18.3956L19.5 15.0403H20.5737C22.05 15.0403 23.25 14.0534 23.25 12.8376V5.91772C23.25 4.70585 22.05 3.71899 20.5737 3.71899ZM13.8079 15.1311C13.8079 15.8021 13.0421 16.3666 12.1382 16.3666H7.67368C7.56899 16.3666 7.46859 16.4082 7.39456 16.4822C7.32054 16.5562 7.27895 16.6567 7.27895 16.7613V18.9798L4.58684 16.4732C4.51404 16.405 4.41815 16.3669 4.31842 16.3666H3.20921C2.28947 16.3666 1.53947 15.814 1.53947 15.1311V8.8862C1.53947 8.20724 2.28947 7.65065 3.20921 7.65065H8.00132V12.8376C8.00132 14.0534 9.20132 15.0403 10.6776 15.0403H13.8079V15.1311ZM22.4605 12.8376C22.4605 13.6152 21.6118 14.2508 20.5737 14.2508H19.3421C19.243 14.2506 19.1474 14.2871 19.0737 14.3534L16.0184 17.1995V14.6455C16.0189 14.5935 16.0091 14.542 15.9894 14.4938C15.9698 14.4457 15.9407 14.402 15.904 14.3652C15.8672 14.3285 15.8235 14.2994 15.7754 14.2797C15.7272 14.2601 15.6757 14.2502 15.6237 14.2508H10.6776C9.63947 14.2508 8.79079 13.6152 8.79079 12.8376V5.91772C8.79079 5.14007 9.63947 4.50848 10.6776 4.50848H20.5737C21.6118 4.50848 22.4605 5.14007 22.4605 5.91772V12.8376Z" fill="black"/>
<path d="M14.0301 9.48958C14.0301 9.92561 13.6767 10.2791 13.2406 10.2791C12.8046 10.2791 12.4512 9.92561 12.4512 9.48958C12.4512 9.05356 12.8046 8.70009 13.2406 8.70009C13.6767 8.70009 14.0301 9.05356 14.0301 9.48958Z" fill="black"/>
<path d="M16.661 9.48958C16.661 9.92561 16.3075 10.2791 15.8715 10.2791C15.4355 10.2791 15.082 9.92561 15.082 9.48958C15.082 9.05356 15.4355 8.70009 15.8715 8.70009C16.3075 8.70009 16.661 9.05356 16.661 9.48958Z" fill="black"/>
<path d="M19.2918 9.48951C19.2918 9.92553 18.9384 10.279 18.5024 10.279C18.0664 10.279 17.7129 9.92553 17.7129 9.48951C17.7129 9.05349 18.0664 8.70002 18.5024 8.70002C18.9384 8.70002 19.2918 9.05349 19.2918 9.48951Z" fill="black"/>
</svg>
