<svg width="24" height="24" viewBox="0 0 24 24" fill="none" xmlns="http://www.w3.org/2000/svg">
<path fill-rule="evenodd" clip-rule="evenodd" d="M6.51953 8.63666V5.64706C6.51953 2.53263 9.10182 0 12.2773 0C15.4528 0 18.0351 2.53263 18.0351 5.64706V8.63666H19.1827C20.1367 8.63666 20.9101 9.41001 20.9101 10.364V20.728C20.9101 21.682 20.1367 22.4553 19.1827 22.4553H5.36405C4.41007 22.4553 3.63672 21.682 3.63672 20.728V10.364C3.63672 9.41001 4.41007 8.63666 5.36405 8.63666H6.51953ZM16.5957 8.63666V5.64706C16.5957 3.31193 14.6582 1.41176 12.2773 1.41176C9.8964 1.41176 7.95898 3.31193 7.95898 5.64706V8.63666H16.5957ZM12.2734 18.137C13.7044 18.137 14.8644 16.977 14.8644 15.546C14.8644 14.115 13.7044 12.955 12.2734 12.955C10.8424 12.955 9.68239 14.115 9.68239 15.546C9.68239 16.977 10.8424 18.137 12.2734 18.137Z" fill="#F4F4F4"/>
</svg>
