<svg width="24" height="24" viewBox="0 0 24 24" fill="none" xmlns="http://www.w3.org/2000/svg">
<path d="M12.0002 17.608C13.1264 17.608 14.0394 16.7126 14.0394 15.608C14.0394 14.5035 13.1264 13.608 12.0002 13.608C10.8739 13.608 9.96094 14.5035 9.96094 15.608C9.96094 16.7126 10.8739 17.608 12.0002 17.608Z" fill="#ED193B"/>
<path fill-rule="evenodd" clip-rule="evenodd" d="M7.10732 9.60002V7.20002C7.10732 4.55276 9.30227 2.40002 12.0014 2.40002C14.7006 2.40002 16.8956 4.55276 16.8956 7.20002V9.60002H17.5072C18.5187 9.60002 19.3425 10.4072 19.3425 11.4V19.8C19.3425 20.7929 18.5187 21.6 17.5072 21.6H6.49545C5.48401 21.6 4.66016 20.7929 4.66016 19.8V11.4C4.66016 10.4072 5.48401 9.60002 6.49545 9.60002H7.10732ZM6.49545 10.8C6.1585 10.8 5.88369 11.0688 5.88369 11.4V19.8C5.88369 20.1312 6.1585 20.4 6.49545 20.4H17.5072C17.8442 20.4 18.119 20.1312 18.119 19.8V11.4C18.119 11.0688 17.8442 10.8 17.5072 10.8H6.49545ZM8.33085 9.60002H15.672V7.20002C15.672 5.21516 14.0252 3.60002 12.0014 3.60002C9.97766 3.60002 8.33085 5.21516 8.33085 7.20002V9.60002Z" fill="#666666"/>
</svg>
