<svg width="24" height="24" viewBox="0 0 24 24" fill="none" xmlns="http://www.w3.org/2000/svg">
<path fill-rule="evenodd" clip-rule="evenodd" d="M3.51415 1.71727C4.13348 1.09794 4.97347 0.75 5.84934 0.75H15.7259C16.1861 0.75 16.5592 1.1231 16.5592 1.58333C16.5592 2.04357 16.1861 2.41667 15.7259 2.41667H5.84934C5.4155 2.41667 4.99943 2.58901 4.69266 2.89578C4.38588 3.20255 4.21354 3.61863 4.21354 4.05247V19.9475C4.21354 20.3814 4.38588 20.7974 4.69266 21.1042C4.99943 21.411 5.4155 21.5833 5.84934 21.5833H15.7259C16.1861 21.5833 16.5592 21.9564 16.5592 22.4167C16.5592 22.8769 16.1861 23.25 15.7259 23.25H5.84934C4.97347 23.25 4.13348 22.9021 3.51415 22.2827C2.89481 21.6634 2.54688 20.8234 2.54688 19.9475V4.05247C2.54688 3.1766 2.89481 2.3366 3.51415 1.71727ZM15.2957 6.54494C15.6237 6.22212 16.1513 6.22634 16.4742 6.55437L21.2581 11.4155C21.42 11.58 21.5064 11.8042 21.4968 12.0348C21.4871 12.2653 21.3823 12.4816 21.2073 12.632L16.269 16.8758C15.92 17.1758 15.3938 17.136 15.0939 16.787C14.7939 16.4379 14.8337 15.9118 15.1828 15.6118L18.4159 12.8333H8.31848C7.85824 12.8333 7.48515 12.4602 7.48515 12C7.48515 11.5398 7.85824 11.1667 8.31848 11.1667H18.6749L15.2863 7.72341C14.9634 7.39538 14.9677 6.86776 15.2957 6.54494Z" fill="black"/>
</svg>
