<svg width="24" height="24" viewBox="0 0 24 24" fill="none" xmlns="http://www.w3.org/2000/svg">
<path fill-rule="evenodd" clip-rule="evenodd" d="M21.9996 5.04762C22.0259 4.49596 21.5999 4.02745 21.0483 4.00118L17.0585 3.57305C16.5068 3.54678 16.0383 3.97269 16.012 4.52435C15.9858 5.07601 16.4117 5.54452 16.9633 5.57079L18.5417 5.88407L15.2613 8.86618L9.37408 6.90376L2.47656 11.1484L3.52476 12.8517L9.62724 9.09634L15.74 11.1339L19.887 7.36396V8.67752C19.8607 9.22918 20.2866 9.69769 20.8383 9.72396C21.39 9.75023 21.8585 9.32432 21.8847 8.77266L21.9996 5.04762Z" fill="#312B2B"/>
<path d="M2 16H5V22H2V16Z" fill="#312B2B"/>
<path d="M14 15H17V22H14V15Z" fill="#312B2B"/>
<path d="M19 11H22V22H19V11Z" fill="#312B2B"/>
<path d="M8 13H11V22H8V13Z" fill="#312B2B"/>
</svg>
