<svg width="24" height="24" viewBox="0 0 24 24" fill="none" xmlns="http://www.w3.org/2000/svg">
<path fill-rule="evenodd" clip-rule="evenodd" d="M12 24C18.6274 24 24 18.6274 24 12C24 5.37258 18.6274 0 12 0C5.37258 0 0 5.37258 0 12C0 18.6274 5.37258 24 12 24ZM12 18.75C15.7279 18.75 18.75 15.7279 18.75 12C18.75 8.27208 15.7279 5.25 12 5.25C8.27208 5.25 5.25 8.27208 5.25 12C5.25 15.7279 8.27208 18.75 12 18.75Z" fill="#312B2B"/>
<path d="M10.0009 7.5C9.17281 7.5 8.50091 8.1719 8.50091 9C8.50091 9.8281 9.17281 10.5 10.0009 10.5C10.829 10.5 11.5009 9.8281 11.5009 9C11.5009 8.1719 10.829 7.5 10.0009 7.5Z" fill="#312B2B"/>
<path d="M14.0009 7.5C13.1728 7.5 12.5009 8.1719 12.5009 9C12.5009 9.8281 13.1728 10.5 14.0009 10.5C14.829 10.5 15.5009 9.8281 15.5009 9C15.5009 8.1719 14.829 7.5 14.0009 7.5Z" fill="#312B2B"/>
<path d="M7.62591 11.5C7.02409 11.5 6.45796 12.0024 6.54382 12.6857C6.60497 13.1724 6.73108 13.6497 6.91957 14.1048C7.19597 14.772 7.6011 15.3784 8.11182 15.8891C8.62254 16.3998 9.22886 16.8049 9.89615 17.0813C10.5634 17.3577 11.2786 17.5 12.0009 17.5C12.7232 17.5 13.4384 17.3577 14.1057 17.0813C14.773 16.8049 15.3793 16.3998 15.89 15.8891C16.4007 15.3784 16.8058 14.772 17.0822 14.1048C17.2707 13.6497 17.3968 13.1724 17.458 12.6857C17.5439 12.0024 16.9777 11.5 16.3759 11.5C15.738 11.5 15.295 12.0093 15.2059 12.5392C15.1653 12.7803 15.0975 13.0167 15.0035 13.2437C14.8402 13.638 14.6008 13.9963 14.299 14.2981C13.9972 14.5999 13.6389 14.8393 13.2446 15.0026C12.8503 15.1659 12.4277 15.25 12.0009 15.25C11.5741 15.25 11.1515 15.1659 10.7572 15.0026C10.3629 14.8393 10.0046 14.5999 9.70281 14.2981C9.40102 13.9963 9.16163 13.638 8.9983 13.2437C8.90427 13.0167 8.83651 12.7803 8.79594 12.5392C8.70681 12.0093 8.26382 11.5 7.62591 11.5Z" fill="#312B2B"/>
<path d="M22.9986 12C22.9986 13.7943 22.5596 15.5614 21.72 17.1472C20.8804 18.733 19.6656 20.0893 18.1815 21.0979C16.6974 22.1065 14.9892 22.7367 13.2057 22.9336C11.4222 23.1305 9.61756 22.8881 7.94922 22.2275L9.08304 19.3638C10.2842 19.8394 11.5836 20.0139 12.8677 19.8722C14.1518 19.7304 15.3818 19.2766 16.4503 18.5505C17.5188 17.8243 18.3935 16.8478 18.998 15.706C19.6025 14.5642 19.9186 13.2919 19.9186 12H22.9986Z" fill="#D51131"/>
<path d="M6.50001 21.5263C4.94606 20.6291 3.63518 19.3654 2.68166 17.8454C1.72815 16.3254 1.16096 14.5952 1.02954 12.8056C0.898128 11.0161 1.20648 9.22161 1.92771 7.5786C2.64894 5.93558 3.76116 4.49395 5.16737 3.37939L7.08051 5.79317C6.06803 6.59565 5.26724 7.63363 4.74795 8.8166C4.22867 9.99957 4.00665 11.2916 4.10127 12.5801C4.19589 13.8685 4.60427 15.1143 5.2908 16.2087C5.97733 17.3031 6.92116 18.213 8.04001 18.8589L6.50001 21.5263Z" fill="#FFA721"/>
<path d="M6.5 2.47372C8.05395 1.57655 9.80378 1.07314 11.5969 1.00739C13.3901 0.941637 15.1721 1.31554 16.7875 2.09649C18.403 2.87745 19.8029 4.04174 20.8652 5.48786C21.9275 6.93397 22.6199 8.61799 22.882 10.3931L19.835 10.843C19.6463 9.56495 19.1478 8.35246 18.383 7.31126C17.6181 6.27006 16.6102 5.43176 15.447 4.86948C14.2839 4.30719 13.0008 4.03798 11.7098 4.08532C10.4187 4.13266 9.15884 4.49512 8.04 5.14108L6.5 2.47372Z" fill="#1D9321"/>
</svg>
