<svg width="24" height="24" viewBox="0 0 24 24" fill="none" xmlns="http://www.w3.org/2000/svg">
<path fill-rule="evenodd" clip-rule="evenodd" d="M12 24C18.6274 24 24 18.6274 24 12C24 5.37258 18.6274 0 12 0C5.37258 0 0 5.37258 0 12C0 18.6274 5.37258 24 12 24ZM12 18.75C15.7279 18.75 18.75 15.7279 18.75 12C18.75 8.27208 15.7279 5.25 12 5.25C8.27208 5.25 5.25 8.27208 5.25 12C5.25 15.7279 8.27208 18.75 12 18.75Z" fill="#312B2B"/>
<path fill-rule="evenodd" clip-rule="evenodd" d="M14.4965 15.4384C15.0787 15.0154 15.5415 14.4533 15.8451 13.8071C16.0355 13.4017 15.789 12.9688 15.4043 12.8438C15.0025 12.7133 14.6087 12.942 14.4366 13.272C14.2409 13.647 13.9604 13.9738 13.6148 14.2248C13.145 14.5662 12.5791 14.75 11.9984 14.75C11.4176 14.75 10.8518 14.5662 10.382 14.2248C10.0364 13.9738 9.75586 13.647 9.56021 13.272C9.38807 12.942 8.99428 12.7133 8.59244 12.8438C8.20777 12.9688 7.96126 13.4017 8.15168 13.8071C8.45524 14.4533 8.91809 15.0154 9.5003 15.4384C10.2264 15.9659 11.1009 16.25 11.9984 16.25C12.8959 16.25 13.7704 15.9659 14.4965 15.4384Z" fill="#312B2B"/>
<path d="M14 11C14.552 11 15 10.552 15 10C15 9.44805 14.552 9 14 9C13.448 9 13 9.44805 13 10C13 10.552 13.448 11 14 11Z" fill="#312B2B"/>
<path d="M10 11C10.552 11 11 10.552 11 10C11 9.44805 10.552 9 10 9C9.44805 9 9 9.44805 9 10C9 10.552 9.44805 11 10 11Z" fill="#312B2B"/>
<path d="M22.9986 12C22.9986 13.7943 22.5596 15.5614 21.72 17.1472C20.8804 18.733 19.6656 20.0893 18.1815 21.0979C16.6974 22.1065 14.9892 22.7367 13.2057 22.9336C11.4222 23.1305 9.61756 22.8881 7.94922 22.2275L9.08304 19.3638C10.2842 19.8394 11.5836 20.0139 12.8677 19.8722C14.1518 19.7304 15.3818 19.2766 16.4503 18.5505C17.5188 17.8243 18.3935 16.8478 18.998 15.706C19.6025 14.5642 19.9186 13.2919 19.9186 12H22.9986Z" fill="#D51131"/>
<path d="M6.50001 21.5263C4.94606 20.6291 3.63518 19.3654 2.68166 17.8454C1.72815 16.3254 1.16096 14.5952 1.02954 12.8056C0.898128 11.0161 1.20648 9.22161 1.92771 7.5786C2.64894 5.93558 3.76116 4.49395 5.16737 3.37939L7.08051 5.79317C6.06803 6.59565 5.26724 7.63363 4.74795 8.8166C4.22867 9.99957 4.00665 11.2916 4.10127 12.5801C4.19589 13.8685 4.60427 15.1143 5.2908 16.2087C5.97733 17.3031 6.92116 18.213 8.04001 18.8589L6.50001 21.5263Z" fill="#FFA721"/>
<path d="M6.5 2.47372C8.05395 1.57655 9.80378 1.07314 11.5969 1.00739C13.3901 0.941637 15.1721 1.31554 16.7875 2.09649C18.403 2.87745 19.8029 4.04174 20.8652 5.48786C21.9275 6.93397 22.6199 8.61799 22.882 10.3931L19.835 10.843C19.6463 9.56495 19.1478 8.35246 18.383 7.31126C17.6181 6.27006 16.6102 5.43176 15.447 4.86948C14.2839 4.30719 13.0008 4.03798 11.7098 4.08532C10.4187 4.13266 9.15884 4.49512 8.04 5.14108L6.5 2.47372Z" fill="#1D9321"/>
</svg>
