<svg width="24" height="24" viewBox="0 0 24 24" fill="none" xmlns="http://www.w3.org/2000/svg">
<path fill-rule="evenodd" clip-rule="evenodd" d="M11.5757 3.17574C11.8101 2.94142 12.1899 2.94142 12.4243 3.17574L14.2909 5.0424C14.5252 5.27672 14.5252 5.65662 14.2909 5.89093C14.0566 6.12525 13.6767 6.12525 13.4424 5.89093L12.6 5.04853V11.4H18.9515L18.1091 10.5576C17.8748 10.3233 17.8748 9.94338 18.1091 9.70907C18.3434 9.47475 18.7233 9.47475 18.9576 9.70907L20.8243 11.5757C21.0586 11.8101 21.0586 12.1899 20.8243 12.4243L18.9576 14.2909C18.7233 14.5252 18.3434 14.5252 18.1091 14.2909C17.8748 14.0566 17.8748 13.6767 18.1091 13.4424L18.9515 12.6H12.6V18.9515L13.4424 18.1091C13.6767 17.8748 14.0566 17.8748 14.2909 18.1091C14.5252 18.3434 14.5252 18.7233 14.2909 18.9576L12.4243 20.8243C12.1899 21.0586 11.8101 21.0586 11.5757 20.8243L9.70907 18.9576C9.47475 18.7233 9.47475 18.3434 9.70907 18.1091C9.94338 17.8748 10.3233 17.8748 10.5576 18.1091L11.4 18.9515V12.6H5.04853L5.89093 13.4424C6.12525 13.6767 6.12525 14.0566 5.89093 14.2909C5.65662 14.5252 5.27672 14.5252 5.0424 14.2909L3.17574 12.4243C2.94142 12.1899 2.94142 11.8101 3.17574 11.5757L5.0424 9.70907C5.27672 9.47475 5.65662 9.47475 5.89093 9.70907C6.12525 9.94338 6.12525 10.3233 5.89093 10.5576L5.04853 11.4H11.4V5.04853L10.5576 5.89093C10.3233 6.12525 9.94338 6.12525 9.70907 5.89093C9.47475 5.65662 9.47475 5.27672 9.70907 5.0424L11.5757 3.17574Z" fill="black"/>
</svg>
