<svg width="24" height="26" viewBox="0 0 24 26" fill="none" xmlns="http://www.w3.org/2000/svg">
<path d="M8.79488 20.9976L8.19489 13.0363L13.6831 13.0226L13.1221 20.9871C13.1132 21.8358 12.6056 22.6264 11.7681 22.9665C12.02 23.8853 12.2091 23.9223 13.2062 23.9199C13.6046 23.9189 13.9283 24.2411 13.9292 24.6393C13.9302 25.0377 13.6082 25.3613 13.2098 25.3623C11.4282 25.3665 10.591 24.7131 10.2973 23.0134C9.43927 22.7354 8.80976 21.9442 8.79488 20.9976Z" fill="#312B2B"/>
<path d="M6.64064 4.48696C6.63434 2.10061 8.57151 0.154848 10.9575 0.148939C13.3437 0.14318 15.2898 2.07966 15.2957 4.46573C15.2968 4.96527 15.2092 5.44982 15.048 5.9089L6.89563 5.92939C6.73197 5.47075 6.64188 4.98652 6.64064 4.48696Z" fill="#312B2B"/>
<path fill-rule="evenodd" clip-rule="evenodd" d="M5.0175 12.5228L17 12.4975L16.9822 6.42969L5 6.4552L5.0175 12.5228Z" fill="#ED193B"/>
<path d="M14.6109 11.4201C14.7776 11.5101 14.9859 11.5551 15.2359 11.5551C15.4459 11.5551 15.6276 11.5118 15.7809 11.4251C15.9376 11.3385 16.0593 11.2185 16.1459 11.0651C16.2326 10.9118 16.2759 10.7401 16.2759 10.5501C16.2759 10.2735 16.2143 10.0418 16.0909 9.85515C15.9709 9.66515 15.8259 9.49681 15.6559 9.35015L15.2459 8.99015C15.1326 8.89015 15.0426 8.79515 14.9759 8.70515C14.9126 8.61181 14.8809 8.49348 14.8809 8.35015C14.8809 8.26348 14.9043 8.18515 14.9509 8.11515C14.9976 8.04181 15.0693 8.00515 15.1659 8.00515C15.2559 8.00515 15.3226 8.03181 15.3659 8.08515C15.4126 8.13848 15.4426 8.21181 15.4559 8.30515C15.4726 8.39848 15.4843 8.50681 15.4909 8.63015L16.1959 8.52515C16.1893 8.39515 16.1709 8.26515 16.1409 8.13515C16.1143 8.00181 16.0643 7.88015 15.9909 7.77015C15.9209 7.65681 15.8209 7.56681 15.6909 7.50015C15.5609 7.43348 15.3943 7.40015 15.1909 7.40015C14.8509 7.40015 14.5826 7.49015 14.3859 7.67015C14.1926 7.84681 14.0959 8.10181 14.0959 8.43515C14.0959 8.66848 14.1426 8.86515 14.2359 9.02515C14.3326 9.18515 14.4559 9.32848 14.6059 9.45515L15.0259 9.82015C15.1593 9.93681 15.2659 10.0535 15.3459 10.1701C15.4293 10.2835 15.4709 10.4251 15.4709 10.5951C15.4709 10.6818 15.4509 10.7585 15.4109 10.8251C15.3743 10.8918 15.3026 10.9251 15.1959 10.9251C15.1093 10.9251 15.0359 10.8985 14.9759 10.8451C14.9193 10.7885 14.8759 10.7051 14.8459 10.5951C14.8193 10.4818 14.8026 10.3418 14.7959 10.1751L14.0859 10.2951C14.0993 10.5818 14.1476 10.8185 14.2309 11.0051C14.3176 11.1885 14.4443 11.3268 14.6109 11.4201Z" fill="white"/>
<path d="M11.0444 11.5001L10.5194 7.45015H11.2194L11.4994 9.92515L11.8544 7.45515H12.4094L12.7794 9.92015L13.0594 7.45015H13.7494L13.2294 11.5001H12.5294L12.1344 8.93515L11.7594 11.5001H11.0444Z" fill="white"/>
<path d="M8.4873 7.45013V11.5001H10.2623V10.9401H9.3123V9.67013H10.0373V9.09513H9.3123V8.02013H10.2523V7.45013H8.4873Z" fill="white"/>
<path d="M5.71875 11.5001V7.45013H6.29375L7.19375 9.56013V7.45013H7.87375V11.5001H7.32375L6.42375 9.26013V11.5001H5.71875Z" fill="white"/>
</svg>
