<svg width="24" height="24" viewBox="0 0 24 24" fill="none" xmlns="http://www.w3.org/2000/svg">
<path d="M13.7142 16.0421C14.0263 16.3563 14.5332 16.3566 14.8452 16.0419L18.048 12.8161C18.359 12.503 18.359 11.9958 18.0479 11.6827L14.8451 8.45671C14.6893 8.2997 14.4841 8.22091 14.2796 8.22091C14.0751 8.22091 13.8701 8.29966 13.7143 8.45659C13.4032 8.76972 13.4031 9.27687 13.7143 9.58998L15.5579 11.447H6.52155C6.07862 11.447 5.72284 11.8082 5.72284 12.2494C5.72284 12.6907 6.0786 13.0518 6.52155 13.0518H15.5579L13.7143 14.9087C13.4032 15.2218 13.4032 15.7289 13.7142 16.0421Z" fill="black"/>
</svg>
