<svg width="24" height="24" viewBox="0 0 24 24" fill="none" xmlns="http://www.w3.org/2000/svg">
<path d="M5.60156 9.67707V17.6204C5.60156 19.0309 6.74495 20.1743 8.1554 20.1743H15.8477C17.2582 20.1743 18.4016 19.0309 18.4016 17.6204V6.55383C18.4016 5.14339 17.2582 4 15.8477 4H10.3399V9.67707H5.60156Z" fill="#ED193B"/>
<path d="M9.06337 4.00005H9.05098L5.60156 7.68855V8.40015H9.06337V4.00005Z" fill="#ED193B"/>
<path fill-rule="evenodd" clip-rule="evenodd" d="M13.2991 15.407C12.9993 15.5591 12.6554 15.6351 12.2673 15.6351H10.7339V12.0001H12.3036C12.6848 12.0001 13.0218 12.0762 13.3146 12.2283C13.6075 12.3804 13.8353 12.5939 13.9982 12.8687C14.161 13.1435 14.2425 13.459 14.2425 13.815C14.2425 14.1711 14.1602 14.4874 13.9956 14.764C13.831 15.0405 13.5988 15.2549 13.2991 15.407ZM8.15045 15.6352V14.6292H8.80019C9.26455 14.6292 9.62494 14.5108 9.88137 14.274C10.1378 14.0372 10.266 13.7045 10.266 13.2758C10.266 12.8713 10.1378 12.5576 9.88137 12.3346C9.62494 12.1117 9.26455 12.0002 8.80019 12.0002H7.19922V15.6352H8.15045ZM8.75348 13.872H8.15051V12.7571H8.75348C8.94753 12.7571 9.09741 12.8047 9.2031 12.8997C9.30879 12.9948 9.36164 13.1305 9.36164 13.3068C9.36164 13.49 9.30879 13.63 9.2031 13.7268C9.09741 13.8236 8.94753 13.872 8.75348 13.872ZM12.3296 14.8677H11.6851V12.7727H12.2829C12.4735 12.7727 12.6433 12.8168 12.7923 12.905C12.9413 12.9931 13.0582 13.1167 13.1431 13.2757C13.228 13.4347 13.2705 13.618 13.2705 13.8254C13.2705 14.0293 13.2306 14.2108 13.1509 14.3699C13.0712 14.5289 12.9603 14.6516 12.8183 14.738C12.6762 14.8244 12.5133 14.8677 12.3296 14.8677ZM15.6657 14.3232V15.6351H14.7144V12.0001H17.4382L17.433 12.7572H15.6657V13.5661H17.2978V14.3232H15.6657Z" fill="white"/>
</svg>
