<svg width="24" height="24" viewBox="0 0 24 24" fill="none" xmlns="http://www.w3.org/2000/svg">
<path fill-rule="evenodd" clip-rule="evenodd" d="M4.16387 7.16161C4.65146 6.67401 5.31278 6.40009 6.00234 6.40009H7.00234C7.33371 6.40009 7.60234 6.66871 7.60234 7.00009C7.60234 7.33146 7.33371 7.60009 7.00234 7.60009H6.00234C5.63104 7.60009 5.27494 7.74759 5.01239 8.01014C4.74984 8.27269 4.60234 8.62878 4.60234 9.00008V18.0001C4.60234 18.3714 4.74984 18.7275 5.01239 18.99C5.27494 19.2526 5.63104 19.4001 6.00234 19.4001H15.0023C15.3736 19.4001 15.7297 19.2526 15.9923 18.99C16.2548 18.7275 16.4023 18.3714 16.4023 18.0001V17.0001C16.4023 16.6687 16.671 16.4001 17.0023 16.4001C17.3337 16.4001 17.6023 16.6687 17.6023 17.0001V18.0001C17.6023 18.6896 17.3284 19.351 16.8408 19.8386C16.3532 20.3262 15.6919 20.6001 15.0023 20.6001H6.00234C5.31278 20.6001 4.65146 20.3262 4.16387 19.8386C3.67627 19.351 3.40234 18.6896 3.40234 18.0001V9.00008C3.40234 8.31052 3.67627 7.6492 4.16387 7.16161Z" fill="black"/>
<path fill-rule="evenodd" clip-rule="evenodd" d="M16.9904 3.19036C17.4967 2.68427 18.1833 2.39996 18.8992 2.39996C19.6153 2.39996 20.3021 2.68444 20.8085 3.19081C21.3148 3.69717 21.5993 4.38396 21.5993 5.10007C21.5993 5.81605 21.315 6.5027 20.8088 7.00904C18.0144 9.81337 15.2305 12.6072 12.4242 15.4236C12.3117 15.5366 12.1587 15.6001 11.9992 15.6001H8.99922C8.66785 15.6001 8.39922 15.3314 8.39922 15.0001V12.0001C8.39922 11.8406 8.46273 11.6876 8.57571 11.575C11.3921 8.76869 14.186 5.98474 16.9904 3.19036ZM16.011 5.86034L9.59922 12.2492V14.4001H11.7501L18.1389 7.98833L16.011 5.86034ZM18.986 7.13828L16.861 5.01333L17.8377 4.04009C18.119 3.75877 18.5014 3.59996 18.8992 3.59996C19.2971 3.59996 19.6786 3.75801 19.9599 4.03933C20.2413 4.32066 20.3993 4.70222 20.3993 5.10007C20.3993 5.49792 20.2413 5.87948 19.9599 6.16081L18.986 7.13828Z" fill="black"/>
</svg>
