<svg width="24" height="24" viewBox="0 0 24 24" fill="none" xmlns="http://www.w3.org/2000/svg">
<path fill-rule="evenodd" clip-rule="evenodd" d="M15.5625 15C14.3194 15 13.3125 13.9922 13.3125 12.75C13.3125 11.5078 14.3194 10.5 15.5625 10.5C16.8056 10.5 17.8125 11.5078 17.8125 12.75C17.8125 13.9922 16.8056 15 15.5625 15ZM21.1875 11.8125H19.1794C18.7622 10.1972 17.3081 9 15.5625 9C13.8169 9 12.3637 10.1972 11.9456 11.8125H2.4375C1.92 11.8125 1.5 12.2325 1.5 12.75C1.5 13.2684 1.92 13.6875 2.4375 13.6875H11.9456C12.3628 15.3028 13.8169 16.5 15.5625 16.5C17.3081 16.5 18.7622 15.3028 19.1794 13.6875H21.1875C21.705 13.6875 22.125 13.2684 22.125 12.75C22.125 12.2325 21.705 11.8125 21.1875 11.8125ZM7.125 7.49999C5.88187 7.49999 4.87501 6.49219 4.87501 5.25C4.87501 4.00781 5.88187 3.00095 7.125 3.00095C8.36812 3.00095 9.37499 4.00781 9.37499 5.25C9.37499 6.49219 8.36812 7.49999 7.125 7.49999ZM21.1875 4.3125H10.7419C10.3247 2.69719 8.87062 1.5 7.125 1.5C5.37937 1.5 3.92531 2.69719 3.50812 4.3125H2.4375C1.92 4.3125 1.5 4.7325 1.5 5.25C1.5 5.76844 1.92 6.1875 2.4375 6.1875H3.50812C3.92531 7.80281 5.37937 9 7.125 9C8.87062 9 10.3247 7.80281 10.7419 6.1875H21.1875C21.705 6.1875 22.125 5.76844 22.125 5.25C22.125 4.7325 21.705 4.3125 21.1875 4.3125ZM7.125 22.5C5.88187 22.5 4.87501 21.4922 4.87501 20.25C4.87501 19.0078 5.88187 18.0009 7.125 18.0009C8.36812 18.0009 9.37499 19.0078 9.37499 20.25C9.37499 21.4922 8.36812 22.5 7.125 22.5ZM21.1875 19.3125H10.7419C10.3247 17.6981 8.87062 16.5 7.125 16.5C5.37937 16.5 3.92531 17.6981 3.50812 19.3125H2.4375C1.92 19.3125 1.5 19.7316 1.5 20.25C1.5 20.7684 1.92 21.1875 2.4375 21.1875H3.50812C3.92531 22.8028 5.37937 24 7.125 24C8.87062 24 10.3247 22.8028 10.7419 21.1875H21.1875C21.705 21.1875 22.125 20.7684 22.125 20.25C22.125 19.7316 21.705 19.3125 21.1875 19.3125Z" fill="black"/>
</svg>
