<svg width="24" height="24" viewBox="0 0 24 24" fill="none" xmlns="http://www.w3.org/2000/svg">
<path d="M10.2897 8.45665C9.97765 8.14238 9.47068 8.14217 9.15874 8.4568L5.95594 11.6826C5.64488 11.9957 5.6449 12.5029 5.95597 12.816L9.15883 16.042C9.31463 16.199 9.51976 16.2778 9.72429 16.2778C9.92876 16.2778 10.1338 16.1991 10.2896 16.0421C10.6007 15.729 10.6008 15.2218 10.2896 14.9087L8.44597 13.0517H17.4824C17.9253 13.0517 18.2811 12.6906 18.2811 12.2493C18.2811 11.808 17.9253 11.4469 17.4824 11.4469H8.44599L10.2896 9.58999C10.6007 9.27687 10.6007 8.76978 10.2897 8.45665Z" fill="black"/>
</svg>
