<svg width="24" height="24" viewBox="0 0 24 24" fill="none" xmlns="http://www.w3.org/2000/svg">
<g clip-path="url(#clip0_15979_131060)">
<path d="M19.6078 0H4.39207C1.97619 0 0 1.97646 0 4.3921V19.6079C0 22.0236 1.97619 24.0001 4.39207 24.0001H19.6078C22.0235 24.0001 24 22.0236 24 19.6079V4.3921C24 1.97646 22.0235 0 19.6078 0Z" fill="white"/>
<path d="M4.39207 0H19.6078C22.0235 0 24 1.97646 24 4.3921V19.6079C24 22.0236 22.0235 24.0001 19.6078 24.0001H10.2687V18.7144L20.1715 11.288L8.02054 2.97182V24.0001H4.39207C1.97619 24.0001 0 22.0236 0 19.6079V4.3921C0 1.97646 1.97619 0 4.39207 0Z" fill="#ED1C24"/>
<path d="M16.3366 11.3622L10.2694 15.8947V7.23516L16.3366 11.3622Z" fill="#ED1C24"/>
</g>
<defs>
<clipPath id="clip0_15979_131060">
<rect width="24" height="24" fill="white"/>
</clipPath>
</defs>
</svg>
