<svg width="26" height="26" viewBox="0 0 26 26" fill="none" xmlns="http://www.w3.org/2000/svg">
<path fill-rule="evenodd" clip-rule="evenodd" d="M4 14.4C4 13.9029 4.40294 13.5 4.9 13.5H21.1C21.5971 13.5 22 13.9029 22 14.4V17.6L18.6667 21.6H4.9C4.40294 21.6 4 21.1971 4 20.7V14.4Z" fill="#312B2B"/>
<path fill-rule="evenodd" clip-rule="evenodd" d="M7.33331 4.40002H21.1C21.5971 4.40002 22 4.80297 22 5.30002V11.6C22 12.0971 21.5971 12.5 21.1 12.5H4.9C4.40294 12.5 4 12.0971 4 11.6V8.4L7.33331 4.40002Z" fill="#312B2B"/>
<path d="M9.27849 7.14725C9.31193 7.12364 9.34341 7.08823 9.37292 7.04102L9.62078 6.57774C9.54406 6.50692 9.45652 6.44397 9.35816 6.38889C9.26177 6.33184 9.15751 6.28364 9.04537 6.2443C8.93324 6.20298 8.81423 6.17249 8.68832 6.15282C8.56439 6.13118 8.43652 6.12036 8.30472 6.12036C8.06865 6.12036 7.85914 6.15675 7.67619 6.22954C7.49324 6.30036 7.33882 6.39577 7.21291 6.51577C7.08701 6.63577 6.9916 6.77249 6.92669 6.92594C6.86177 7.07938 6.82931 7.23675 6.82931 7.39807C6.82931 7.59872 6.85685 7.7679 6.91193 7.90561C6.96701 8.04135 7.03882 8.15544 7.12734 8.2479C7.21783 8.33839 7.32013 8.41216 7.43423 8.46921C7.54832 8.5243 7.66537 8.57151 7.78537 8.61085C7.90537 8.64823 8.02242 8.68266 8.13652 8.71413C8.25062 8.74561 8.35193 8.782 8.44046 8.82331C8.53095 8.86462 8.60373 8.91675 8.65882 8.97971C8.7139 9.04266 8.74144 9.1243 8.74144 9.22462C8.74144 9.39774 8.69128 9.52462 8.59095 9.60528C8.49062 9.68397 8.34996 9.72331 8.16898 9.72331C8.03521 9.72331 7.91914 9.70462 7.82078 9.66725C7.72242 9.62987 7.63488 9.58856 7.55816 9.54331C7.48341 9.49807 7.41554 9.45675 7.35455 9.41938C7.29554 9.382 7.23652 9.36331 7.17751 9.36331C7.13226 9.36331 7.08996 9.37512 7.05062 9.39872C7.01324 9.42036 6.98275 9.4479 6.95914 9.48134L6.66406 9.94757C6.74865 10.0322 6.848 10.1089 6.9621 10.1777C7.07619 10.2466 7.19816 10.3066 7.328 10.3577C7.45783 10.4069 7.5916 10.4453 7.72931 10.4728C7.86898 10.5004 8.0057 10.5141 8.13947 10.5141C8.38341 10.5141 8.60078 10.4777 8.7916 10.405C8.98439 10.3302 9.1457 10.2289 9.27554 10.101C9.40734 9.97118 9.50767 9.81971 9.57652 9.64659C9.64537 9.47348 9.6798 9.28757 9.6798 9.08889C9.6798 8.90987 9.65226 8.75741 9.59718 8.63151C9.5421 8.50364 9.46931 8.39544 9.37882 8.30692C9.29029 8.21839 9.188 8.14561 9.07193 8.08856C8.95783 8.03151 8.84078 7.98233 8.72078 7.94102C8.60078 7.89774 8.48275 7.85938 8.36669 7.82594C8.25259 7.79053 8.15029 7.75216 8.0598 7.71085C7.97128 7.66954 7.89947 7.62036 7.84439 7.56331C7.78931 7.50626 7.76177 7.43446 7.76177 7.3479C7.76177 7.21216 7.80701 7.10495 7.89751 7.02626C7.98996 6.94561 8.12964 6.90528 8.31652 6.90528C8.42472 6.90528 8.52111 6.92003 8.6057 6.94954C8.69029 6.97708 8.76505 7.00856 8.82996 7.04397C8.89685 7.07938 8.95587 7.11184 9.00701 7.14134C9.06013 7.16889 9.10931 7.18266 9.15455 7.18266C9.2057 7.18266 9.24701 7.17085 9.27849 7.14725Z" fill="white"/>
<path d="M11.2686 7.93807V6.93479H13.0332V6.16757H10.2653V10.4669H13.0332V9.69971H11.2686V8.67577H12.6201V7.93807H11.2686Z" fill="white"/>
<path d="M16.2392 9.6702V10.4669H13.6484V6.16757H14.6458V9.6702H16.2392Z" fill="white"/>
<path d="M19.3399 10.4669V9.6702H17.7464V6.16757H16.749V10.4669H19.3399Z" fill="white"/>
<path fill-rule="evenodd" clip-rule="evenodd" d="M8.58555 15.3767C8.8826 15.3767 9.13538 15.4042 9.34391 15.4593C9.55243 15.5144 9.72259 15.5921 9.8544 15.6924C9.9862 15.7928 10.0816 15.9147 10.1406 16.0583C10.2016 16.202 10.2321 16.3623 10.2321 16.5393C10.2321 16.6357 10.2183 16.7292 10.1908 16.8197C10.1633 16.9082 10.12 16.9918 10.061 17.0705C10.0019 17.1472 9.9262 17.218 9.83374 17.2829C9.74128 17.3479 9.63014 17.4039 9.5003 17.4511C9.78358 17.52 9.99309 17.6311 10.1288 17.7846C10.2646 17.938 10.3324 18.1367 10.3324 18.3806C10.3324 18.5636 10.297 18.7338 10.2262 18.8911C10.1554 19.0485 10.0511 19.1862 9.91341 19.3042C9.77768 19.4203 9.60948 19.5118 9.40882 19.5787C9.20817 19.6436 8.97899 19.6761 8.72128 19.6761H7.00391V15.3767H8.58555ZM8 16.1233V17.1856H8.51934C8.62951 17.1856 8.72885 17.1777 8.81738 17.162C8.9059 17.1462 8.98066 17.1187 9.04164 17.0794C9.10459 17.04 9.1518 16.9859 9.18328 16.9171C9.21672 16.8482 9.23344 16.7617 9.23344 16.6574C9.23344 16.5551 9.22066 16.4705 9.19508 16.4036C9.16951 16.3348 9.13016 16.2797 9.07705 16.2384C9.02393 16.1971 8.95607 16.1676 8.87344 16.1498C8.79279 16.1321 8.69639 16.1233 8.58426 16.1233H8ZM8.7023 18.9236C8.8341 18.9236 8.94131 18.9069 9.02393 18.8735C9.10852 18.84 9.17443 18.7967 9.22164 18.7436C9.26885 18.6905 9.30131 18.6305 9.31902 18.5636C9.33672 18.4967 9.34557 18.4289 9.34557 18.36C9.34557 18.2813 9.33475 18.2105 9.31312 18.1476C9.29344 18.0846 9.25803 18.0315 9.20689 17.9882C9.15771 17.9449 9.0918 17.9115 9.00918 17.8879C8.92656 17.8643 8.8223 17.8525 8.69639 17.8525H8V18.9236H8.7023Z" fill="white"/>
<path d="M12.7516 18.8882C12.8854 18.8882 13.0044 18.8665 13.1087 18.8233C13.2149 18.778 13.3044 18.7141 13.3772 18.6315C13.45 18.5488 13.5051 18.4485 13.5425 18.3305C13.5818 18.2105 13.6015 18.0747 13.6015 17.9233V15.3767H14.5989V17.9233C14.5989 18.1869 14.5556 18.4288 14.469 18.6492C14.3844 18.8695 14.2625 19.0593 14.1031 19.2187C13.9438 19.378 13.75 19.502 13.5218 19.5905C13.2936 19.679 13.0369 19.7233 12.7516 19.7233C12.4644 19.7233 12.2067 19.679 11.9785 19.5905C11.7503 19.502 11.5566 19.378 11.3972 19.2187C11.2379 19.0593 11.1159 18.8695 11.0313 18.6492C10.9467 18.4288 10.9044 18.1869 10.9044 17.9233V15.3767H11.9018V17.9203C11.9018 18.0718 11.9205 18.2075 11.9579 18.3275C11.9972 18.4456 12.0533 18.5469 12.1261 18.6315C12.1989 18.7141 12.2874 18.778 12.3916 18.8233C12.4979 18.8665 12.6179 18.8882 12.7516 18.8882Z" fill="white"/>
<path d="M17.4377 18.0413V19.6761H16.4403V18.0413L14.8823 15.3767H15.7616C15.8482 15.3767 15.916 15.3974 15.9652 15.4387C16.0164 15.478 16.0587 15.5292 16.0921 15.5921L16.7 16.8433C16.7511 16.9416 16.7974 17.0341 16.8387 17.1206C16.88 17.2052 16.9164 17.2888 16.9478 17.3715C16.9774 17.2869 17.0108 17.2023 17.0482 17.1177C17.0875 17.0311 17.1328 16.9397 17.1839 16.8433L17.7859 15.5921C17.7996 15.5665 17.8164 15.541 17.836 15.5154C17.8557 15.4898 17.8783 15.4672 17.9039 15.4475C17.9315 15.4259 17.9619 15.4092 17.9954 15.3974C18.0308 15.3836 18.0692 15.3767 18.1105 15.3767H18.9957L17.4377 18.0413Z" fill="white"/>
<path d="M2.33444 0.642822V4.24282H0.371094L3.49857 7.99579L6.62604 4.24282H4.65571V0.642822H2.33444Z" fill="#312B2B"/>
<path d="M23.6627 25.3571V21.7571H25.626L22.4986 18.0042L19.3711 21.7571H21.3414V25.3571H23.6627Z" fill="#312B2B"/>
</svg>
