<svg width="24" height="24" viewBox="0 0 24 24" fill="none" xmlns="http://www.w3.org/2000/svg">
<path fill-rule="evenodd" clip-rule="evenodd" d="M2.4438 4.5C1.09413 4.5 0 5.59413 0 6.9438V17.3705C0 18.7202 1.09413 19.8143 2.4438 19.8143H5.05092C5.72939 19.8143 6.34329 19.5379 6.78608 19.0914C7.22888 19.5379 7.84278 19.8143 8.52125 19.8143H21.5562C22.9059 19.8143 24 18.7202 24 17.3705V6.9438C24 5.59413 22.9059 4.5 21.5562 4.5H8.52125C7.84278 4.5 7.22888 4.77649 6.78609 5.22294C6.34329 4.77649 5.72939 4.5 5.05092 4.5H2.4438ZM6.0829 6.9438V7.81263H7.48927V6.9438C7.48927 6.37386 7.95131 5.91182 8.52125 5.91182H21.5562C22.1261 5.91182 22.5882 6.37385 22.5882 6.9438V17.3705C22.5882 17.9405 22.1261 18.4025 21.5562 18.4025H8.52125C7.95131 18.4025 7.48927 17.9405 7.48927 17.3705V16.5017H6.0829V17.3705C6.0829 17.9405 5.62087 18.4025 5.05092 18.4025H2.4438C1.87386 18.4025 1.41182 17.9405 1.41182 17.3705V6.9438C1.41182 6.37386 1.87386 5.91182 2.4438 5.91182H5.05092C5.62087 5.91182 6.0829 6.37386 6.0829 6.9438Z" fill="black"/>
<path fill-rule="evenodd" clip-rule="evenodd" d="M6.20406 11.4233V8.96709H7.36266V11.4233H6.20406ZM6.20406 15.3482V12.8775H7.36266V15.3482H6.20406Z" fill="black"/>
<path fill-rule="evenodd" clip-rule="evenodd" d="M18.4962 8.27071C18.7224 8.49695 18.7224 8.86374 18.4961 9.08996L11.5442 16.0412C11.318 16.2674 10.9512 16.2674 10.725 16.0412C10.4988 15.8149 10.4988 15.4481 10.725 15.2219L17.6769 8.27067C17.9032 8.04445 18.2699 8.04447 18.4962 8.27071Z" fill="black"/>
<path fill-rule="evenodd" clip-rule="evenodd" d="M17.2156 15.3431C17.5357 15.3431 17.795 15.0837 17.795 14.7639C17.795 14.4441 17.5357 14.1847 17.2156 14.1847C16.8955 14.1847 16.6362 14.4441 16.6362 14.7639C16.6362 15.0837 16.8955 15.3431 17.2156 15.3431ZM17.2156 16.5017C18.1755 16.5017 18.9536 15.7237 18.9536 14.7639C18.9536 13.8041 18.1755 13.0261 17.2156 13.0261C16.2558 13.0261 15.4776 13.8041 15.4776 14.7639C15.4776 15.7237 16.2558 16.5017 17.2156 16.5017Z" fill="black"/>
<path fill-rule="evenodd" clip-rule="evenodd" d="M12.004 10.1287C12.3241 10.1287 12.5834 9.86932 12.5834 9.54953C12.5834 9.22973 12.3241 8.97031 12.004 8.97031C11.6839 8.97031 11.4246 9.22973 11.4246 9.54953C11.4246 9.86932 11.6839 10.1287 12.004 10.1287ZM12.004 11.2873C12.9639 11.2873 13.742 10.5093 13.742 9.54953C13.742 8.58976 12.9639 7.81171 12.004 7.81171C11.0442 7.81171 10.266 8.58976 10.266 9.54953C10.266 10.5093 11.0442 11.2873 12.004 11.2873Z" fill="black"/>
</svg>
