<svg width="24" height="24" viewBox="0 0 24 24" fill="none" xmlns="http://www.w3.org/2000/svg">
<path fill-rule="evenodd" clip-rule="evenodd" d="M11.3888 4.82588C12.6314 4.71984 13.8803 4.93839 15.0131 5.46013C16.1459 5.98187 17.1237 6.78891 17.8508 7.80218V6.37478C17.8508 6.19576 17.9219 6.02407 18.0485 5.89749C18.1751 5.7709 18.3468 5.69978 18.5258 5.69978C18.7048 5.69978 18.8765 5.7709 19.0031 5.89749C19.1297 6.02407 19.2008 6.19576 19.2008 6.37478V10.1998H15.3758C15.1968 10.1998 15.0251 10.1287 14.8985 10.0021C14.7719 9.87549 14.7008 9.7038 14.7008 9.52478C14.7008 9.34576 14.7719 9.17407 14.8985 9.04749C15.0251 8.9209 15.1968 8.84978 15.3758 8.84978H16.9301C16.3146 7.8867 15.4304 7.12501 14.3869 6.65881C13.3433 6.19261 12.186 6.04233 11.058 6.22652C9.92999 6.41071 8.88063 6.92131 8.03956 7.69524C7.19849 8.46917 6.60256 9.47254 6.32538 10.5814C6.30494 10.6685 6.26738 10.7507 6.21489 10.8231C6.1624 10.8956 6.09604 10.9569 6.01965 11.0035C5.94326 11.05 5.85837 11.081 5.76992 11.0944C5.68147 11.1079 5.59122 11.1037 5.50442 11.082C5.41763 11.0602 5.33601 11.0215 5.26433 10.968C5.19264 10.9144 5.13232 10.8472 5.08686 10.7701C5.0414 10.693 5.01172 10.6077 4.99953 10.5191C4.98735 10.4304 4.9929 10.3403 5.01588 10.2538C5.37997 8.79797 6.18984 7.49229 7.33229 6.51928C8.47475 5.54626 9.89267 4.95452 11.3879 4.82678L11.3888 4.82588ZM8.32878 18.1927C9.29357 18.7645 10.3786 19.1031 11.4974 19.1814C12.6162 19.2596 13.7378 19.0755 14.7728 18.6435C15.8078 18.2116 16.7276 17.5439 17.4589 16.6935C18.1902 15.8432 18.7127 14.8338 18.9848 13.7458C19.0253 13.5732 18.9963 13.3915 18.904 13.2401C18.8116 13.0887 18.6635 12.9797 18.4915 12.9367C18.3194 12.8937 18.1374 12.9201 17.9847 13.0102C17.832 13.1002 17.7208 13.2468 17.6753 13.4182C17.398 14.5268 16.802 15.5299 15.961 16.3036C15.12 17.0774 14.0708 17.5878 12.943 17.772C11.8151 17.9562 10.6581 17.806 9.61462 17.34C8.57118 16.874 7.68707 16.1126 7.07148 15.1498H8.62578C8.8048 15.1498 8.97649 15.0787 9.10308 14.9521C9.22967 14.8255 9.30078 14.6538 9.30078 14.4748C9.30078 14.2958 9.22967 14.1241 9.10308 13.9975C8.97649 13.8709 8.8048 13.7998 8.62578 13.7998H4.80078V17.6248C4.80078 17.8038 4.8719 17.9755 4.99848 18.1021C5.12507 18.2287 5.29676 18.2998 5.47578 18.2998C5.6548 18.2998 5.82649 18.2287 5.95308 18.1021C6.07967 17.9755 6.15078 17.8038 6.15078 17.6248V16.1974C6.73108 17.0059 7.47269 17.6852 8.32878 18.1927Z" fill="black"/>
</svg>
