<svg width="24" height="24" viewBox="0 0 24 24" fill="none" xmlns="http://www.w3.org/2000/svg">
<path fill-rule="evenodd" clip-rule="evenodd" d="M17.61 16.19L18.42 17L24 22L22 24L17 18.41L16.19 17.6C13.1 19.92 8.71 19.29 6.39 16.2C4.07 13.11 4.7 8.72 7.79 6.4C9 5.5 10.5 5 12 5C15.87 5 19 8.13 19 12C18.9958 13.5092 18.5087 14.9775 17.61 16.19ZM8.327 11.9999C8.327 9.97206 9.97316 8.3259 12.001 8.3259C12.402 8.3259 12.727 8.00086 12.727 7.5999C12.727 7.19894 12.402 6.8739 12.001 6.8739C9.17124 6.8739 6.875 9.17014 6.875 11.9999C6.875 12.4009 7.20004 12.7259 7.601 12.7259C8.00196 12.7259 8.327 12.4009 8.327 11.9999Z" fill="#312B2B"/>
<path d="M2 9L4 7V4H7L9 2H2V9Z" fill="#312B2B"/>
<path d="M22 9V2H15L17 4H20V7L22 9Z" fill="#312B2B"/>
<path d="M9 22L7 20H4V17L2 15V22H9Z" fill="#312B2B"/>
</svg>
