<svg width="24" height="24" viewBox="0 0 24 24" fill="none" xmlns="http://www.w3.org/2000/svg">
<path fill-rule="evenodd" clip-rule="evenodd" d="M15.3259 13.8143L19.7065 18.112C19.955 18.3438 20.0558 18.6895 19.9698 19.0151C19.8839 19.3407 19.6248 19.5951 19.2928 19.6796C18.9609 19.7641 18.6083 19.6656 18.3717 19.4222L13.9951 15.1279L13.9905 15.1312C12.9188 15.9093 11.6193 16.3266 10.2859 16.3209C6.81911 16.3013 4.01509 13.5475 4.00011 10.1477C3.99033 8.52084 4.6444 6.95775 5.81662 5.8066C6.98885 4.65545 8.58184 4.01187 10.2407 4.01923C13.7072 4.03886 16.511 6.79244 16.5259 10.1919C16.5318 11.4943 16.1112 12.764 15.3259 13.8143ZM5.2527 10.1522C5.26487 12.8719 7.50805 15.0747 10.2813 15.0903C11.6083 15.0957 12.8823 14.5807 13.8199 13.6598C14.7575 12.739 15.2808 11.4888 15.2734 10.1875C15.2612 7.46776 13.018 5.26493 10.2447 5.24929C8.9178 5.24388 7.64372 5.75893 6.70611 6.67978C5.76851 7.60064 5.24521 8.85086 5.2527 10.1522Z" fill="black"/>
</svg>
