<svg width="24" height="24" viewBox="0 0 24 24" fill="none" xmlns="http://www.w3.org/2000/svg">
<path d="M13.9396 16.9199L9.16992 14.3186C8.71209 14.773 8.12995 15.0818 7.4969 15.2059C6.86385 15.33 6.20822 15.2639 5.61269 15.0159C5.01715 14.7679 4.50836 14.3492 4.15046 13.8125C3.79255 13.2758 3.60156 12.6451 3.60156 12C3.60156 11.3549 3.79255 10.7242 4.15046 10.1875C4.50836 9.65082 5.01715 9.23208 5.61269 8.98411C6.20822 8.73615 6.86385 8.67004 7.4969 8.79414C8.12995 8.91824 8.71209 9.22699 9.16992 9.68145L13.9396 7.08008C13.776 6.31259 13.8941 5.51185 14.2724 4.82431C14.6507 4.13676 15.2638 3.60835 15.9997 3.33571C16.7355 3.06307 17.5449 3.06441 18.2799 3.3395C19.0148 3.61458 19.6262 4.14502 20.0022 4.83381C20.3781 5.52261 20.4936 6.32373 20.3275 7.09068C20.1614 7.85763 19.7247 8.53915 19.0974 9.01062C18.4701 9.48209 17.694 9.712 16.9111 9.6583C16.1282 9.60461 15.3908 9.27089 14.8338 8.71819L10.0641 11.3196C10.1591 11.7679 10.1591 12.2312 10.0641 12.6795L14.8338 15.2818C15.3908 14.7291 16.1282 14.3954 16.9111 14.3417C17.694 14.288 18.4701 14.5179 19.0974 14.9894C19.7247 15.4609 20.1614 16.1424 20.3275 16.9093C20.4936 17.6763 20.3781 18.4774 20.0022 19.1662C19.6262 19.855 19.0148 20.3854 18.2799 20.6605C17.5449 20.9356 16.7355 20.9369 15.9997 20.6643C15.2638 20.3917 14.6507 19.8632 14.2724 19.1757C13.8941 18.4882 13.776 17.6874 13.9396 16.9199Z" fill="black"/>
</svg>
