<svg width="24" height="24" viewBox="0 0 24 24" fill="none" xmlns="http://www.w3.org/2000/svg">
<path d="M11.2235 9.83047C10.9964 10.0457 10.629 10.0449 10.4029 9.82862L8.37711 7.89054V17.4475C8.37711 17.7527 8.11733 18 7.79685 18C7.47637 18 7.21658 17.7527 7.21658 17.4475V7.89051L5.19077 9.82864C4.9647 10.0449 4.59731 10.0457 4.37016 9.83049C4.14299 9.61523 4.14215 9.26544 4.36819 9.04918L7.38556 6.16248C7.61218 5.94627 7.98076 5.94558 8.20759 6.16195L11.2255 9.04915C11.4515 9.26539 11.4507 9.6152 11.2235 9.83047Z" fill="black"/>
<path d="M12.7647 14.1695C12.9919 13.9543 13.3593 13.9551 13.5854 14.1714L15.6112 16.1095V6.55246C15.6112 6.24734 15.871 6 16.1914 6C16.5119 6 16.7717 6.24734 16.7717 6.55246V16.1095L18.7975 14.1714C19.0236 13.9551 19.391 13.9543 19.6181 14.1695C19.8453 14.3848 19.8461 14.7346 19.6201 14.9508L16.6027 17.8375C16.3761 18.0537 16.0075 18.0544 15.7807 17.838L12.7628 14.9508C12.5368 14.7346 12.5375 14.3848 12.7647 14.1695Z" fill="#999999"/>
</svg>
