<svg width="24" height="24" viewBox="0 0 24 24" fill="none" xmlns="http://www.w3.org/2000/svg">
<path d="M14.0936 17.8604C14.0936 17.8604 17.1433 15.4243 17.4165 15.1055C17.6897 14.7867 18.3044 14.3541 18.6913 14.6501C19.0785 14.9461 19.0101 15.3332 18.7826 15.6975C18.5548 16.0617 17.3709 17.9515 17.3709 17.9515H20.7633C20.9682 17.9287 21.422 18.1455 21.422 18.6383C21.422 19.1312 20.9909 19.3402 20.786 19.363C20.786 19.363 21.3148 19.5276 21.3148 20.1383C21.3148 20.749 20.6728 20.8202 20.6267 20.8202C20.6267 20.8202 21.1219 20.9394 21.1219 21.5633C21.1219 22.1872 20.4901 22.2544 20.2852 22.2317C20.2852 22.2317 20.7404 22.3403 20.7404 22.8465C20.7404 23.3526 20.2166 23.4612 19.9434 23.4612H14.0936L14.0936 17.8604Z" fill="#312B2B"/>
<path d="M13.1307 17.8631H12.1188C11.9763 17.8631 11.8608 17.9785 11.8608 18.121V23.2019C11.8608 23.3443 11.9763 23.4598 12.1188 23.4598H13.1306L13.1307 17.8631Z" fill="#312B2B"/>
<path d="M10.2311 12.2801H9.84706V10.4161H10.2951C10.5937 10.4161 10.7964 10.4961 10.9031 10.6561C11.0151 10.8107 11.0711 11.0374 11.0711 11.3361C11.0711 11.5441 11.0444 11.7201 10.9911 11.8641C10.9431 12.0027 10.8577 12.1067 10.7351 12.1761C10.6124 12.2454 10.4444 12.2801 10.2311 12.2801Z" fill="#312B2B"/>
<path fill-rule="evenodd" clip-rule="evenodd" d="M12 2.00024L18 8.00024V13.5982C17.8363 13.6362 17.6942 13.6914 17.5859 13.7422C17.1999 13.9237 16.8688 14.2079 16.6572 14.4547C16.6655 14.4451 16.6654 14.4452 16.6521 14.4577C16.6355 14.4733 16.5986 14.508 16.5319 14.5671C16.4315 14.6562 16.2972 14.7713 16.1378 14.9056C15.8197 15.1735 15.4179 15.5039 15.021 15.8272C14.6249 16.1498 14.2369 16.4629 13.9477 16.6955L13.7391 16.8631H12.1188C11.424 16.8631 10.8608 17.4263 10.8608 18.121V22.0002H4C3.46957 22.0002 2.96086 21.7895 2.58579 21.4145C2.21071 21.0394 2 20.5307 2 20.0002V4.00024C2 3.46981 2.21071 2.9611 2.58579 2.58603C2.96086 2.21096 3.46957 2.00024 4 2.00024H12ZM5.168 15.8721C5.43467 16.0161 5.768 16.0881 6.168 16.0881C6.504 16.0881 6.79467 16.0187 7.04 15.8801C7.29067 15.7414 7.48533 15.5494 7.624 15.3041C7.76267 15.0587 7.832 14.7841 7.832 14.4801C7.832 14.0374 7.73333 13.6667 7.536 13.3681C7.344 13.0641 7.112 12.7947 6.84 12.5601L6.184 11.9841C6.00267 11.8241 5.85867 11.6721 5.752 11.5281C5.65067 11.3787 5.6 11.1894 5.6 10.9601C5.6 10.8214 5.63733 10.6961 5.712 10.5841C5.78667 10.4667 5.90133 10.4081 6.056 10.4081C6.2 10.4081 6.30667 10.4507 6.376 10.5361C6.45067 10.6214 6.49867 10.7387 6.52 10.8881C6.54667 11.0374 6.56533 11.2107 6.576 11.4081L7.704 11.2401C7.69333 11.0321 7.664 10.8241 7.616 10.6161C7.57333 10.4027 7.49333 10.2081 7.376 10.0321C7.264 9.85073 7.104 9.70673 6.896 9.60006C6.688 9.49339 6.42133 9.44006 6.096 9.44006C5.552 9.44006 5.12267 9.58406 4.808 9.87206C4.49867 10.1547 4.344 10.5627 4.344 11.0961C4.344 11.4694 4.41867 11.7841 4.568 12.0401C4.72267 12.2961 4.92 12.5254 5.16 12.7281L5.832 13.3121C6.04533 13.4987 6.216 13.6854 6.344 13.8721C6.47733 14.0534 6.544 14.2801 6.544 14.5521C6.544 14.6907 6.512 14.8134 6.448 14.9201C6.38933 15.0267 6.27467 15.0801 6.104 15.0801C5.96533 15.0801 5.848 15.0374 5.752 14.9521C5.66133 14.8614 5.592 14.7281 5.544 14.5521C5.50133 14.3707 5.47467 14.1467 5.464 13.8801L4.328 14.0721C4.34933 14.5307 4.42667 14.9094 4.56 15.2081C4.69867 15.5014 4.90133 15.7227 5.168 15.8721ZM8.52706 9.52006V16.0001H9.84706V13.0641H10.3111L11.0551 16.0001H12.4071L11.5111 12.8401C11.7191 12.7494 11.8791 12.6294 11.9911 12.4801C12.1084 12.3254 12.1884 12.1467 12.2311 11.9441C12.2791 11.7361 12.3031 11.4987 12.3031 11.2321C12.3031 10.7894 12.2177 10.4427 12.0471 10.1921C11.8817 9.94139 11.6417 9.76806 11.3271 9.67206C11.0177 9.57073 10.6444 9.52006 10.2071 9.52006H8.52706ZM13.9271 9.35766V10.5097H14.7047V9.35766H15.7487V8.67366H14.7047V7.55046H13.9271V8.67366H12.8903V9.35766H13.9271Z" fill="#312B2B"/>
</svg>
