<svg width="24" height="24" viewBox="0 0 24 24" fill="none" xmlns="http://www.w3.org/2000/svg">
<g clip-path="url(#clip0_15979_131094)">
<path d="M11.3723 1.93185C11.5699 1.32379 12.4301 1.32379 12.6277 1.93185L14.546 7.83575C14.6343 8.10768 14.8878 8.2918 15.1737 8.2918H21.3814C22.0208 8.2918 22.2866 9.10994 21.7693 9.48575L16.7472 13.1346C16.5159 13.3026 16.4191 13.6005 16.5074 13.8725L18.4257 19.7763C18.6233 20.3844 17.9273 20.8901 17.4101 20.5143L12.3879 16.8654C12.1566 16.6974 11.8434 16.6974 11.6121 16.8654L6.58991 20.5143C6.07266 20.8901 5.3767 20.3844 5.57427 19.7764L7.49257 13.8725C7.58092 13.6005 7.48413 13.3026 7.25281 13.1346L2.23066 9.48575C1.7134 9.10994 1.97924 8.2918 2.61859 8.2918H8.82631C9.11224 8.2918 9.36565 8.10768 9.45401 7.83575L11.3723 1.93185Z" fill="#FFBA52"/>
</g>
<defs>
<clipPath id="clip0_15979_131094">
<rect width="24" height="24" fill="white"/>
</clipPath>
</defs>
</svg>
