<svg width="24" height="24" viewBox="0 0 24 24" fill="none" xmlns="http://www.w3.org/2000/svg">
<path fill-rule="evenodd" clip-rule="evenodd" d="M18.5303 9.96967C18.8232 10.2626 18.8232 10.7374 18.5303 11.0303L12.7425 16.8182C12.3324 17.2282 11.6676 17.2282 11.2575 16.8182L8.46967 14.0303C8.17678 13.7374 8.17678 13.2626 8.46967 12.9697C8.76256 12.6768 9.23744 12.6768 9.53033 12.9697L12 15.4393L17.4697 9.96967C17.7626 9.67678 18.2374 9.67678 18.5303 9.96967Z" fill="black"/>
<path fill-rule="evenodd" clip-rule="evenodd" d="M21 6H6L6 21H21V6ZM6 4.5C5.17157 4.5 4.5 5.17157 4.5 6V18.75V20.25V21C4.5 21.8284 5.17157 22.5 6 22.5H21C21.8284 22.5 22.5 21.8284 22.5 21V6C22.5 5.17157 21.8284 4.5 21 4.5H18.75H17.25H6Z" fill="black"/>
<path fill-rule="evenodd" clip-rule="evenodd" d="M0.75 3C0.75 1.75736 1.75736 0.75 3 0.75H16.5C17.7426 0.75 18.75 1.75736 18.75 3V4.5H17.25V3C17.25 2.58579 16.9142 2.25 16.5 2.25H3C2.58579 2.25 2.25 2.58579 2.25 3V18C2.25 18.4142 2.58579 18.75 3 18.75H4.5V20.25H3C1.75736 20.25 0.75 19.2426 0.75 18V3Z" fill="black"/>
</svg>
