<svg width="24" height="24" viewBox="0 0 24 24" fill="none" xmlns="http://www.w3.org/2000/svg">
<path fill-rule="evenodd" clip-rule="evenodd" d="M21.5607 3.43934C21.842 3.72064 22 4.10218 22 4.5V18.2273C22 18.8973 21.7908 19.5738 21.3716 20.1023C20.9477 20.6366 20.3166 21 19.5938 21H6.00004C5.44775 21 5.00004 20.5523 5.00004 20C5.00004 19.4477 5.44775 19 6.00004 19H19.5938C19.6169 19 19.7011 18.9899 19.8047 18.8593C19.9129 18.7229 20 18.4976 20 18.2273V9H4.00004V13C4.00004 13.5523 3.55232 14 3.00004 14C2.44775 14 2.00004 13.5523 2.00004 13V4.5C2.00004 4.10218 2.15807 3.72064 2.43938 3.43934C2.72068 3.15804 3.10221 3 3.50004 3H20.5C20.8979 3 21.2794 3.15804 21.5607 3.43934ZM5.55521 5C5.00293 5 4.55521 5.44772 4.55521 6C4.55521 6.55228 5.00293 7 5.55521 7H6.55521C7.1075 7 7.55521 6.55228 7.55521 6C7.55521 5.44772 7.1075 5 6.55521 5H5.55521ZM9.55621 5C9.00393 5 8.55621 5.44772 8.55621 6C8.55621 6.55228 9.00393 7 9.55621 7H18.5562C19.1085 7 19.5562 6.55228 19.5562 6C19.5562 5.44772 19.1085 5 18.5562 5H9.55621Z" fill="#312B2B"/>
<path d="M15.5547 11.1679C15.1131 10.8736 14.5185 10.9754 14.2 11.4L11.7008 14.7323L8.44725 13.1056C8.09838 12.9311 7.67992 12.9755 7.37534 13.2191L2.37534 17.2191C1.94408 17.5641 1.87416 18.1934 2.21917 18.6247C2.56418 19.056 3.19347 19.1259 3.62473 18.7809L8.12511 15.1806L11.5528 16.8944C11.9851 17.1106 12.5101 16.9866 12.8 16.6L15.2324 13.3568L17.4453 14.8321C17.9049 15.1384 18.5257 15.0142 18.8321 14.5547C19.1384 14.0952 19.0143 13.4743 18.5547 13.1679L15.5547 11.1679Z" fill="#312B2B"/>
</svg>
