<svg width="24" height="24" viewBox="0 0 24 24" fill="none" xmlns="http://www.w3.org/2000/svg">
<path d="M12.0025 3.59998C10.0474 3.59998 8.46252 5.18489 8.46252 7.13998C8.46252 9.09506 10.0474 10.68 12.0025 10.68C13.9576 10.68 15.5425 9.09506 15.5425 7.13998C15.5425 5.18489 13.9576 3.59998 12.0025 3.59998Z" fill="black"/>
<path d="M8.40064 12C7.19949 12 6.10167 12.637 5.32705 13.6699C4.55515 14.6991 4.14062 16.0638 4.14062 17.46C4.14062 18.2197 4.36551 18.9739 4.79984 19.553C5.23689 20.1358 5.87688 20.52 6.60064 20.52H17.4007C18.1244 20.52 18.7644 20.1358 19.2015 19.553C19.6358 18.9739 19.8607 18.2197 19.8607 17.46C19.8607 16.0638 19.4462 14.6991 18.6743 13.6699C17.8996 12.637 16.8018 12 15.6007 12H8.40064Z" fill="black"/>
</svg>
