<svg width="24" height="24" viewBox="0 0 24 24" fill="none" xmlns="http://www.w3.org/2000/svg">
<path d="M2.39844 11.3182C2.39844 11.3182 6.05342 6.08184 11.9984 6.08184C12.8249 6.08184 13.6034 6.18744 14.3356 6.36286L8.82171 11.8768C8.61588 11.4276 8.50875 10.9395 8.50753 10.4455C8.50753 9.62773 8.79989 8.88592 9.27117 8.29072C7.1836 8.99937 5.59349 10.3722 4.68586 11.3182C5.45904 12.1249 6.33318 12.8283 7.28658 13.411L6.01851 14.6791C3.70491 13.1771 2.39844 11.3182 2.39844 11.3182ZM21.5984 11.3182C21.5984 11.3182 17.9435 16.5546 11.9984 16.5546C11.1728 16.5546 10.3961 16.4464 9.66302 16.2727L5.88935 20.0455L4.58026 18.7364L19.4166 3.90002L20.7257 5.20912L17.9792 7.95559C20.2902 9.45842 21.5984 11.3182 21.5984 11.3182ZM19.3163 11.3234C18.5417 10.5145 17.6654 9.8096 16.7094 9.22628L15.4893 10.4455C15.4893 11.3713 15.1216 12.2593 14.4669 12.9139C13.8122 13.5686 12.9243 13.9364 11.9984 13.9364L11.172 14.7629C11.4425 14.7899 11.7165 14.8091 11.9984 14.8091C15.4701 14.8091 18.0578 12.6465 19.3163 11.3234Z" fill="black"/>
</svg>
