<svg width="24" height="24" viewBox="0 0 24 24" fill="none" xmlns="http://www.w3.org/2000/svg">
<path d="M11.9984 6.59998C6.05342 6.59998 2.39844 11.8363 2.39844 11.8363C2.39844 11.8363 6.05342 17.0727 11.9984 17.0727C17.9435 17.0727 21.5984 11.8363 21.5984 11.8363C21.5984 11.8363 17.9435 6.59998 11.9984 6.59998ZM11.9984 15.3272C8.55727 15.3272 5.95393 13.1594 4.68586 11.8363C5.59349 10.8894 7.1836 9.5175 9.27117 8.80885C8.77956 9.41968 8.51027 10.1795 8.50753 10.9636C8.50753 11.8895 8.87532 12.7774 9.52999 13.4321C10.1847 14.0867 11.0726 14.4545 11.9984 14.4545C12.9243 14.4545 13.8122 14.0867 14.4669 13.4321C15.1216 12.7774 15.4893 11.8895 15.4893 10.9636C15.4866 10.1795 15.2173 9.41968 14.7257 8.80885C16.8141 9.5175 18.4051 10.8903 19.311 11.8363C18.0412 13.1611 15.4387 15.3272 11.9984 15.3272Z" fill="black"/>
</svg>
