<svg width="24" height="24" viewBox="0 0 24 24" fill="none" xmlns="http://www.w3.org/2000/svg">
<path d="M11 6C11 9.866 14.134 13 18 13V22.395L10 15.8962L2 22.395V4.39868C2 3.29268 2.89766 2.39666 4.00366 2.39869L11.9875 2.41328C11.3604 3.46224 11 4.68904 11 6Z" fill="#312B2B"/>
<path fill-rule="evenodd" clip-rule="evenodd" d="M12 6C12 9.31371 14.6863 12 18 12C21.3137 12 24 9.31371 24 6C24 2.68629 21.3137 0 18 0C14.6863 0 12 2.68629 12 6ZM18.6004 8.4V6.59998H20.4C20.7314 6.59998 21 6.33135 21 5.99998C21 5.6686 20.7314 5.39998 20.4 5.39998H18.6004V3.6C18.6004 3.26863 18.3318 3 18.0004 3C17.669 3 17.4004 3.26863 17.4004 3.6V5.39998H15.6C15.2686 5.39998 15 5.6686 15 5.99998C15 6.33135 15.2686 6.59998 15.6 6.59998H17.4004V8.4C17.4004 8.73137 17.669 9 18.0004 9C18.3318 9 18.6004 8.73137 18.6004 8.4Z" fill="#ED193B"/>
</svg>
