<svg width="24" height="24" viewBox="0 0 24 24" fill="none" xmlns="http://www.w3.org/2000/svg">
<path fill-rule="evenodd" clip-rule="evenodd" d="M16.7219 20.1561C15.643 21.2593 14.3413 21.7895 13.0851 21.9476C9.53451 22.3933 4.69108 19.3039 5.01548 15.3462C5.50918 12.2082 6.3545 8.9539 9.44989 7.24815C9.95513 6.97022 10.0137 6.69318 9.71183 6.2208C9.57768 6.00856 9.4651 5.78027 9.3526 5.55214C9.31543 5.47676 9.27826 5.4014 9.24033 5.32663C8.43407 3.73366 9.11424 2.30317 10.7898 2.03235C11.4009 1.9311 11.9738 2.0861 12.5468 2.24113C12.6772 2.27644 12.8077 2.31174 12.9386 2.34402C13.7564 2.54381 14.5582 2.64592 15.3574 2.24635C15.6877 2.0803 16.0607 2.01104 16.3208 2.35468C16.5189 2.61571 16.3893 2.88884 16.2548 3.1722C16.144 3.40558 16.043 3.64377 15.9421 3.88194C15.8758 4.03827 15.8096 4.19459 15.7406 4.34951C15.4297 5.04725 15.1187 5.74537 14.9054 6.4934C14.7589 6.99775 15.0324 7.33251 15.3938 7.68857C15.4591 7.75281 15.5244 7.81697 15.5898 7.88115C16.8385 9.10697 18.0926 10.3382 18.6757 12.1523C18.9653 13.052 19.1351 14.1195 18.9908 15.057C18.6293 17.4059 17.8 19.0536 16.7219 20.1561ZM9.4802 15.2426V16.1298H11.0105C11.0561 16.1298 11.1012 16.1292 11.1457 16.128L12.3921 18.0348H13.5328L12.1662 15.9558C12.2133 15.9391 12.2592 15.9213 12.304 15.9022C12.6621 15.7502 12.9395 15.5309 13.1348 15.2426C13.33 14.9501 13.4272 14.6029 13.4272 14.2008C13.4272 14.1459 13.4252 14.0917 13.4211 14.0381H14.184V13.4691H13.2912C13.2646 13.4023 13.234 13.3368 13.1996 13.2728C13.1273 13.1362 13.0312 13.0144 12.9112 12.9073H14.184V12.3374H9.00002V12.9073H10.8717C11.3818 12.9015 11.7565 13.0128 11.9958 13.2404C12.0707 13.3089 12.1341 13.3851 12.186 13.4691H9V14.0381H12.3576C12.3601 14.0755 12.3613 14.1136 12.3613 14.1526C12.3613 14.4558 12.25 14.7142 12.0273 14.9252C11.8105 15.1371 11.45 15.2426 10.9449 15.2426H9.4802Z" fill="#312B2B"/>
</svg>
